<svg xmlns="http://www.w3.org/2000/svg" width="880" height="660"><defs><clipPath id="a"><path data-name="長方形 2" fill="none" d="M0 0h880v660H0z"/></clipPath></defs><g data-name="背景　装飾" opacity=".3"><g data-name="グループ 91"><g data-name="グループ 90"><g data-name="グループ 89" clip-path="url(#a)"><g data-name="グループ 88"><g data-name="グループ 54"><g data-name="グループ 8"><g data-name="グループ 7"><g data-name="グループ 3"><g data-name="グループ 2"><g data-name="グループ 1"><path data-name="線 3" fill="none" stroke="#5b5b5b" stroke-linejoin="round" stroke-width=".5" d="M747.283 461.598l131.744 18.858"/></g></g></g><g data-name="グループ 6"><g data-name="グループ 5"><g data-name="グループ 4"><path data-name="線 4" fill="none" stroke="#5b5b5b" stroke-linejoin="round" stroke-width=".5" d="M1036.781 589.628l-251.85 160.875"/></g></g></g></g></g><g data-name="グループ 53"><g data-name="グループ 30"><g data-name="グループ 15"><g data-name="グループ 11" fill="none" stroke="#5b5b5b" stroke-linejoin="round" stroke-width=".5"><g data-name="グループ 9"><path data-name="パス 2" d="M617.371 563.295l167.56 187.208-18.476-244.961z"/><path data-name="線 5" d="M1036.78 589.629l-270.325-84.087"/></g><g data-name="グループ 10"><path data-name="パス 4" d="M560.742 494.279l56.629 69.015 32.238-90.892z"/><path data-name="線 6" d="M766.455 505.542l-116.846-33.139"/></g></g><g data-name="グループ 14"><g data-name="グループ 12"><path data-name="パス 6" d="M1036.78 589.629L879.027 480.457l-112.572 25.085" fill="none" stroke="#5b5b5b" stroke-linejoin="round" stroke-width=".5"/></g><g data-name="グループ 13"><path data-name="パス 9" d="M766.454 505.542l-19.173-43.943-97.673 10.8" fill="none" stroke="#5b5b5b" stroke-linejoin="round" stroke-width=".5"/></g></g></g><g data-name="グループ 22"><g data-name="グループ 18"><g data-name="グループ 16" fill="none" stroke="#5b5b5b" stroke-linejoin="round" stroke-width=".5"><path data-name="パス 13" d="M430.688 510.968l130.054-16.689-35.347-25.952z"/><path data-name="線 7" d="M649.61 472.405l-124.215-4.078"/></g><g data-name="グループ 17"><path data-name="線 8" fill="none" stroke="#5b5b5b" stroke-linejoin="round" stroke-width=".5" d="M361.248 458.826l69.44 52.143"/></g></g></g><g data-name="グループ 29"><g data-name="グループ 25"><g data-name="グループ 23"><path data-name="線 9" fill="none" stroke="#5b5b5b" stroke-linejoin="round" stroke-width=".5" d="M593.91 663.708l-57.002-54.817"/></g><g data-name="グループ 24" fill="none" stroke="#5b5b5b" stroke-linejoin="round" stroke-width=".5"><path data-name="線 10" d="M478.616 616.432l-124.97 28.046"/><path data-name="線 11" d="M536.908 608.891l-58.292 7.541"/></g></g><g data-name="グループ 28"><g data-name="グループ 26" fill="none" stroke="#5b5b5b" stroke-linejoin="round" stroke-width=".5"><path data-name="パス 24" d="M593.911 663.708l23.46-100.414-80.462 45.6"/><path data-name="線 12" d="M593.91 663.709l191.02 86.795"/></g><g data-name="グループ 27"><path data-name="パス 26" d="M536.909 608.891l23.835-114.611-82.128 122.152" fill="none" stroke="#5b5b5b" stroke-linejoin="round" stroke-width=".5"/></g></g></g></g><g data-name="グループ 52"><g data-name="グループ 37"><g data-name="グループ 33" fill="none" stroke="#5b5b5b" stroke-linejoin="round" stroke-width=".5"><g data-name="グループ 31"><path data-name="パス 30" d="M265.49 620.247l88.161 24.231 5.454-116.31z"/><path data-name="線 13" d="M478.615 616.43L359.1 528.168"/></g><g data-name="グループ 32"><path data-name="パス 32" d="M83.537 730.604l181.948-110.357-28.4-88.154z"/><path data-name="線 14" d="M359.1 528.168l-122.019 3.925"/></g></g><g data-name="グループ 36"><g data-name="グループ 34"><path data-name="パス 34" d="M478.615 616.43l-47.928-105.46-71.587 17.2" fill="none" stroke="#5b5b5b" stroke-linejoin="round" stroke-width=".5"/></g><g data-name="グループ 35"><path data-name="パス 38" d="M359.101 528.168l2.147-69.338-124.167 73.263" fill="none" stroke="#5b5b5b" stroke-linejoin="round" stroke-width=".5"/></g></g></g><g data-name="グループ 44" fill="none" stroke="#5b5b5b" stroke-linejoin="round" stroke-width=".5"><g data-name="グループ 40"><g data-name="グループ 38"><path data-name="パス 42" d="M60.518 631.405l23.018 99.2 81.745-206.948z"/><path data-name="線 15" d="M237.081 532.093l-71.799-8.438"/></g><g data-name="グループ 39"><path data-name="パス 44" d="M25.71 589.958l34.809 41.45-88.931-124.976z"/><path data-name="線 16" d="M165.282 523.655l-193.694-17.223"/></g></g><g data-name="グループ 43"><g data-name="グループ 41"><path data-name="パス 46" d="M237.08 532.093l19.4-126.078-91.2 117.64"/><path data-name="線 17" d="M361.248 458.826l-104.769-52.811"/></g><g data-name="グループ 42"><path data-name="パス 48" d="M165.282 523.655l7.1-101.347-200.794 84.124"/><path data-name="線 18" d="M256.479 406.015l-84.101 16.293"/></g></g></g><g data-name="グループ 51"><g data-name="グループ 50"><g data-name="グループ 48"><path data-name="線 19" fill="none" stroke="#5b5b5b" stroke-linejoin="round" stroke-width=".5" d="M265.486 620.249l-75.983 124.625"/></g><g data-name="グループ 49"><path data-name="線 20" fill="none" stroke="#5b5b5b" stroke-linejoin="round" stroke-width=".5" d="M189.503 744.875L83.537 730.604"/></g></g></g></g></g></g><g data-name="グループ 87"><g data-name="グループ 66"><g data-name="グループ 65"><g data-name="グループ 58"><g data-name="グループ 57"><g data-name="グループ 56"><path data-name="線 21" fill="none" stroke="#5b5b5b" stroke-linejoin="round" stroke-width=".5" d="M82.764 280.186l166.333-34.09"/></g></g></g><g data-name="グループ 64"><g data-name="グループ 61"><g data-name="グループ 60"><path data-name="パス 63" d="M256.479 406.015l68.875-88.626-152.977 104.919" fill="none" stroke="#5b5b5b" stroke-linejoin="round" stroke-width=".5"/></g></g></g></g></g><g data-name="グループ 86"><g data-name="グループ 85"><g data-name="グループ 73"><g data-name="グループ 69" fill="none" stroke="#5b5b5b" stroke-linejoin="round" stroke-width=".5"><g data-name="グループ 67"><path data-name="パス 67" d="M14.016 401.513l158.36 20.79-45.863-49.57z"/><path data-name="線 22" d="M325.354 317.388l-198.841 55.346"/></g><g data-name="グループ 68"><path data-name="線 23" d="M14.016 401.514l-38.945-134.347"/><path data-name="線 24" d="M126.513 372.734L-24.929 267.167"/></g></g><g data-name="グループ 72"><g data-name="グループ 70"><path data-name="パス 70" d="M325.355 317.391l-76.26-71.3-122.582 126.643" fill="none" stroke="#5b5b5b" stroke-linejoin="round" stroke-width=".5"/></g><g data-name="グループ 71"><path data-name="パス 73" d="M126.513 372.734l-43.749-92.548-107.693-13.019" fill="none" stroke="#5b5b5b" stroke-linejoin="round" stroke-width=".5"/></g></g></g><g data-name="グループ 84"><g data-name="グループ 83"><g data-name="グループ 81"><path data-name="線 25" fill="none" stroke="#5b5b5b" stroke-linejoin="round" stroke-width=".5" d="M-28.412 506.433l42.428-104.919"/></g></g></g></g></g></g></g><path data-name="パス 88" d="M653.558 470.779a4.465 4.465 0 11-5.878-2.306 4.466 4.466 0 015.878 2.306z" fill="#5b5b5b"/><path data-name="パス 89" d="M623.808 561.769a5.711 5.711 0 11-7.52-2.95 5.711 5.711 0 017.52 2.95z" fill="#5b5b5b"/><path data-name="パス 90" d="M564.141 492.992a3.827 3.827 0 11-5.039-1.978 3.826 3.826 0 015.039 1.978z" fill="#5b5b5b"/><path data-name="パス 91" d="M529.335 467.373a4.17 4.17 0 11-5.49-2.153 4.172 4.172 0 015.49 2.153z" fill="#5b5b5b"/><path data-name="パス 92" d="M435.029 509.721a4.2 4.2 0 11-5.527-2.169 4.2 4.2 0 015.527 2.169z" fill="#5b5b5b"/><path data-name="パス 93" d="M364.258 526.197a5.344 5.344 0 11-7.036-2.761 5.343 5.343 0 017.036 2.761z" fill="#5b5b5b"/><path data-name="パス 94" d="M241.575 530.52a4.469 4.469 0 11-5.884-2.309 4.47 4.47 0 015.884 2.309z" fill="#5b5b5b"/><path data-name="パス 95" d="M269.949 617.751a4.392 4.392 0 11-5.782-2.268 4.391 4.391 0 015.782 2.268z" fill="#5b5b5b"/><path data-name="パス 96" d="M193.957 742.116a4.905 4.905 0 11-6.458-2.534 4.905 4.905 0 016.458 2.534z" fill="#5b5b5b"/><path data-name="パス 97" d="M90.171 727.393a6.968 6.968 0 11-9.173-3.6 6.968 6.968 0 019.173 3.6z" fill="#5b5b5b"/><path data-name="パス 98" d="M67.28 628.169a6.968 6.968 0 11-9.173-3.6 6.967 6.967 0 019.173 3.6z" fill="#5b5b5b"/><path data-name="パス 99" d="M-21.784 503.81a6.968 6.968 0 11-9.173-3.6 6.966 6.966 0 019.173 3.6z" fill="#5b5b5b"/><path data-name="パス 100" d="M357.512 643.153a4.089 4.089 0 11-5.383-2.112 4.091 4.091 0 015.383 2.112z" fill="#5b5b5b"/><path data-name="パス 101" d="M366.489 456.816a5.434 5.434 0 11-7.154-2.806 5.435 5.435 0 017.154 2.806z" fill="#5b5b5b"/><path data-name="パス 102" d="M261.737 404.108a5.3 5.3 0 11-6.979-2.739 5.3 5.3 0 016.979 2.739z" fill="#5b5b5b"/><path data-name="パス 103" d="M168.503 521.596a3.764 3.764 0 11-4.954-1.944 3.762 3.762 0 014.954 1.944z" fill="#5b5b5b"/><path data-name="パス 104" d="M177.346 420.527a4.987 4.987 0 11-6.565-2.576 4.986 4.986 0 016.565 2.576z" fill="#5b5b5b"/><path data-name="パス 105" d="M330.156 315.45a5.566 5.566 0 11-7.328-2.875 5.566 5.566 0 017.328 2.875z" fill="#5b5b5b"/><path data-name="パス 106" d="M255.218 243.734a6.262 6.262 0 11-8.243-3.235 6.262 6.262 0 018.243 3.235z" fill="#5b5b5b"/><path data-name="パス 107" d="M132.052 370.681a5.406 5.406 0 11-7.117-2.792 5.407 5.407 0 017.117 2.792z" fill="#5b5b5b"/><path data-name="パス 108" d="M18.561 399.797a5.241 5.241 0 11-6.9-2.708 5.24 5.24 0 016.9 2.708z" fill="#5b5b5b"/><path data-name="パス 109" d="M-18.144 264.592a6.968 6.968 0 11-9.174-3.6 6.969 6.969 0 019.174 3.6z" fill="#5b5b5b"/><path data-name="パス 110" d="M89.549 277.612a6.968 6.968 0 11-9.174-3.6 6.969 6.969 0 019.174 3.6z" fill="#5b5b5b"/><path data-name="パス 111" d="M484.641 612.889a6.213 6.213 0 11-8.18-3.209 6.213 6.213 0 018.18 3.209z" fill="#5b5b5b"/><path data-name="パス 112" d="M598.688 660.339a4.869 4.869 0 11-6.41-2.515 4.868 4.868 0 016.41 2.515z" fill="#5b5b5b"/><path data-name="パス 113" d="M541.958 607.084a4.964 4.964 0 11-6.535-2.564 4.966 4.966 0 016.535 2.564z" fill="#5b5b5b"/><path data-name="パス 114" d="M753.202 459.703a5.622 5.622 0 11-7.4-2.9 5.622 5.622 0 017.4 2.9z" fill="#5b5b5b"/><path data-name="パス 115" d="M770.427 503.798a3.778 3.778 0 11-4.974-1.954 3.778 3.778 0 014.974 1.954z" fill="#5b5b5b"/><path data-name="パス 116" d="M790.739 748.165a6.071 6.071 0 11-7.992-3.135 6.072 6.072 0 017.992 3.135z" fill="#5b5b5b"/><path data-name="パス 117" d="M884.986 477.817a6.967 6.967 0 11-9.173-3.6 6.968 6.968 0 019.173 3.6z" fill="#5b5b5b"/><path data-name="パス 118" d="M1046.957 584.768a11.452 11.452 0 11-15.077-5.917 11.452 11.452 0 0115.077 5.917z" fill="#5b5b5b"/></g></g></g><g data-name="グループ 149"><g data-name="グループ 148" clip-path="url(#a)"><g data-name="グループ 99"><g data-name="グループ 98"><g data-name="グループ 94"><g data-name="グループ 92" fill="none" stroke="#5b5b5b" stroke-linejoin="round" stroke-width=".403"><path data-name="線 26" d="M556.041 359.36l42.03-20.85"/><path data-name="パス 119" d="M556.041 359.36l53.027 9.78-11-30.629"/></g></g><g data-name="グループ 97"><g data-name="グループ 95"><path data-name="パス 121" d="M609.068 369.139l49.96-11.7-60.957-18.931" fill="none" stroke="#5b5b5b" stroke-linejoin="round" stroke-width=".403"/></g></g></g><path data-name="パス 129" d="M601.003 338.449a2.512 2.512 0 11-2.512-2.511 2.512 2.512 0 012.512 2.511z" fill="#5b5b5b"/><path data-name="パス 130" d="M611.707 369.649a2.512 2.512 0 11-2.512-2.512 2.512 2.512 0 012.512 2.512z" fill="#5b5b5b"/><path data-name="パス 131" d="M559.733 359.126a3.151 3.151 0 11-3.15-3.15 3.151 3.151 0 013.15 3.15z" fill="#5b5b5b"/><path data-name="パス 132" d="M661.003 357.465a2.328 2.328 0 11-2.328-2.328 2.328 2.328 0 012.328 2.328z" fill="#5b5b5b"/></g><g data-name="グループ 107"><g data-name="グループ 106"><g data-name="グループ 102"><g data-name="グループ 100"><path data-name="線 27" fill="none" stroke="#5b5b5b" stroke-linejoin="round" stroke-width=".345" d="M747.688 346.433l-24.562-70.248"/></g></g><g data-name="グループ 105"><g data-name="グループ 103"><path data-name="パス 134" d="M747.688 346.432l34.427.077-58.989-70.325" fill="none" stroke="#5b5b5b" stroke-linejoin="round" stroke-width=".345"/></g><g data-name="グループ 104" fill="none" stroke="#5b5b5b" stroke-linejoin="round" stroke-width=".345"><path data-name="線 28" d="M723.126 276.185l76.269 40.998"/><path data-name="線 29" d="M782.114 346.51l17.28-29.327"/></g></g></g><path data-name="パス 138" d="M726.489 276.408a2.61 2.61 0 11-2.6-2.616 2.61 2.61 0 012.6 2.616z" fill="#5b5b5b"/><path data-name="パス 139" d="M785.482 345.964a3.593 3.593 0 11-3.586-3.6 3.593 3.593 0 013.586 3.6z" fill="#5b5b5b"/><path data-name="パス 140" d="M801.073 317.229a2.236 2.236 0 11-2.232-2.241 2.236 2.236 0 012.232 2.241z" fill="#5b5b5b"/><path data-name="パス 141" d="M751.434 346.517a3.321 3.321 0 11-3.314-3.327 3.322 3.322 0 013.314 3.327z" fill="#5b5b5b"/></g><g data-name="グループ 115"><g data-name="グループ 114"><g data-name="グループ 110"><g data-name="グループ 108" fill="none" stroke="#5b5b5b" stroke-linejoin="round" stroke-width=".618"><path data-name="線 30" d="M893.609 247.308l-63.848-7.071"/><path data-name="パス 142" d="M893.609 247.309l-15.861-57.582-47.988 50.512"/></g></g><g data-name="グループ 113"><g data-name="グループ 111"><path data-name="パス 144" d="M877.749 189.725l-52.434-26.05 4.446 76.562" fill="none" stroke="#5b5b5b" stroke-linejoin="round" stroke-width=".618"/></g></g></g><path data-name="パス 152" d="M834.257 240.228a3.771 3.771 0 11-3.771-3.771 3.771 3.771 0 013.771 3.771z" fill="#5b5b5b"/><path data-name="パス 153" d="M829.202 164.548a3.094 3.094 0 11-3.093-3.093 3.094 3.094 0 013.093 3.093z" fill="#5b5b5b"/><path data-name="パス 154" d="M880.088 190.193a2.692 2.692 0 11-2.692-2.693 2.692 2.692 0 012.692 2.693z" fill="#5b5b5b"/><path data-name="パス 155" d="M896.474 247.108a2.818 2.818 0 11-2.817-2.818 2.817 2.817 0 012.817 2.818z" fill="#5b5b5b"/></g><g data-name="グループ 123"><g data-name="グループ 122"><g data-name="グループ 118"><g data-name="グループ 116" fill="none" stroke="#5b5b5b" stroke-linejoin="round" stroke-width=".42"><path data-name="線 31" d="M402.807 429.466l-43.445-4.811"/><path data-name="パス 156" d="M402.807 429.466l-10.792-39.182-32.653 34.371"/></g></g><g data-name="グループ 121"><g data-name="グループ 119"><path data-name="パス 158" d="M392.015 390.287l-35.678-17.726 3.025 52.1" fill="none" stroke="#5b5b5b" stroke-linejoin="round" stroke-width=".42"/></g></g></g><path data-name="パス 166" d="M395.139 389.938a3 3 0 11-3-3 3 3 0 013 3z" fill="#5b5b5b"/><path data-name="パス 167" d="M404.502 429.081a2.488 2.488 0 11-2.487-2.488 2.487 2.487 0 012.487 2.488z" fill="#5b5b5b"/><path data-name="パス 168" d="M362.928 424.25a3.067 3.067 0 11-3.067-3.067 3.067 3.067 0 013.067 3.067z" fill="#5b5b5b"/><path data-name="パス 169" d="M360.038 372.3a3.559 3.559 0 11-3.56-3.558 3.558 3.558 0 013.56 3.558z" fill="#5b5b5b"/></g><g data-name="グループ 131"><g data-name="グループ 130"><g data-name="グループ 126"><g data-name="グループ 124" fill="none" stroke="#5b5b5b" stroke-linejoin="round" stroke-width=".342"><path data-name="線 32" d="M403.453-7.454l33.448 5.9"/><path data-name="パス 170" d="M403.453-7.454l27.855 37.594 5.594-31.691"/></g></g><g data-name="グループ 129"><g data-name="グループ 127"><path data-name="パス 172" d="M431.308 30.137l34.556 17.945-28.963-49.636" fill="none" stroke="#5b5b5b" stroke-linejoin="round" stroke-width=".342"/></g></g></g><path data-name="パス 180" d="M467.943 47.765a1.935 1.935 0 11-1.935-1.935 1.934 1.934 0 011.935 1.935z" fill="#5b5b5b"/><path data-name="パス 181" d="M438.99-1.02a1.747 1.747 0 11-1.748-1.748 1.747 1.747 0 011.748 1.748z" fill="#5b5b5b"/><path data-name="パス 182" d="M405.832-7.274a1.734 1.734 0 11-1.734-1.735 1.733 1.733 0 011.734 1.735z" fill="#5b5b5b"/><path data-name="パス 183" d="M434.594 29.626a2.982 2.982 0 11-2.981-2.981 2.982 2.982 0 012.981 2.981z" fill="#5b5b5b"/></g><g data-name="グループ 139"><g data-name="グループ 138"><g data-name="グループ 134"><g data-name="グループ 132" fill="none" stroke="#5b5b5b" stroke-linejoin="round" stroke-width=".42"><path data-name="線 33" d="M687.126 234.066l-26.028 35.117"/><path data-name="パス 184" d="M687.127 234.067l-39.288-10.4 13.26 45.517"/></g></g><g data-name="グループ 137"><g data-name="グループ 135"><path data-name="パス 186" d="M647.838 223.667l-33.276 21.9 46.536 23.612" fill="none" stroke="#5b5b5b" stroke-linejoin="round" stroke-width=".42"/></g></g></g><path data-name="パス 194" d="M663.295 269.283a2.133 2.133 0 11-2.134-2.133 2.134 2.134 0 012.134 2.133z" fill="#5b5b5b"/><path data-name="パス 195" d="M688.596 234.258a1.791 1.791 0 11-1.791-1.791 1.791 1.791 0 011.791 1.791z" fill="#5b5b5b"/><path data-name="パス 196" d="M650.011 223.625a1.984 1.984 0 11-1.984-1.984 1.984 1.984 0 011.984 1.984z" fill="#5b5b5b"/><path data-name="パス 197" d="M617.759 245.516a2.881 2.881 0 11-2.882-2.882 2.881 2.881 0 012.882 2.882z" fill="#5b5b5b"/></g><g data-name="グループ 147" transform="translate(61.496 174.75)"><g data-name="グループ 146"><g data-name="グループ 142"><g data-name="グループ 140" fill="none" stroke="#5b5b5b" stroke-linejoin="round" stroke-width=".472"><path data-name="線 34" d="M1.154 28.925l47.78-25.176"/><path data-name="パス 198" d="M1.154 28.925l60.281 11.809-12.5-36.985"/></g></g><g data-name="グループ 145"><g data-name="グループ 143"><path data-name="パス 200" d="M61.436 40.734l56.794-14.126-69.3-22.859" fill="none" stroke="#5b5b5b" stroke-linejoin="round" stroke-width=".472"/></g></g></g><path data-name="パス 208" d="M52.9 4.165A4.165 4.165 0 1148.735 0 4.165 4.165 0 0152.9 4.165z" fill="#5b5b5b"/><circle data-name="楕円形 1" cx="1.823" cy="1.823" r="1.823" transform="translate(0 26.734)" fill="#5b5b5b"/><path data-name="パス 209" d="M65.731 40.44a4.49 4.49 0 11-4.49-4.49 4.489 4.489 0 014.49 4.49z" fill="#5b5b5b"/><path data-name="パス 210" d="M122 26.68a3.842 3.842 0 11-3.842-3.842A3.842 3.842 0 01122 26.68z" fill="#5b5b5b"/></g></g></g><g data-name="50%"><g data-name="グループ 240"><g data-name="グループ 239"><g data-name="グループ 238" clip-path="url(#a)"><g data-name="グループ 237" opacity=".5"><g data-name="グループ 203"><g data-name="グループ 157"><g data-name="グループ 156"><g data-name="グループ 152"><g data-name="グループ 151"><g data-name="グループ 150"><path data-name="線 35" fill="none" stroke="#5b5b5b" stroke-linejoin="round" stroke-width=".5" d="M337.59 284.43l-128.032 36.332"/></g></g></g><g data-name="グループ 155"><g data-name="グループ 154"><g data-name="グループ 153"><path data-name="線 36" fill="none" stroke="#5b5b5b" stroke-linejoin="round" stroke-width=".5" d="M21.046 285.156L185.738 35.785"/></g></g></g></g></g><g data-name="グループ 202"><g data-name="グループ 179"><g data-name="グループ 164"><g data-name="グループ 160" fill="none" stroke="#5b5b5b" stroke-linejoin="round" stroke-width=".5"><g data-name="グループ 158"><path data-name="パス 212" d="M414.94 138.701L185.74 35.785l116.467 216.292z"/><path data-name="線 37" d="M21.046 285.155l281.161-33.078"/></g><g data-name="グループ 159"><path data-name="パス 214" d="M494.732 178.734l-79.8-40.032 7.5 96.148z"/><path data-name="線 38" d="M302.207 252.077l120.227-17.228"/></g></g><g data-name="グループ 163"><g data-name="グループ 161"><path data-name="パス 216" d="M21.046 285.156l188.512 35.606 92.649-68.685" fill="none" stroke="#5b5b5b" stroke-linejoin="round" stroke-width=".5"/></g><g data-name="グループ 162"><path data-name="パス 219" d="M302.207 252.078l35.383 32.353 84.844-49.581" fill="none" stroke="#5b5b5b" stroke-linejoin="round" stroke-width=".5"/></g></g></g><g data-name="グループ 171"><g data-name="グループ 167"><g data-name="グループ 165" fill="none" stroke="#5b5b5b" stroke-linejoin="round" stroke-width=".5"><path data-name="パス 223" d="M606.768 110.612l-112.037 68.122 42.844 9.34z"/><path data-name="線 39" d="M422.433 234.848l115.144-46.774"/></g><g data-name="グループ 166"><path data-name="線 40" fill="none" stroke="#5b5b5b" stroke-linejoin="round" stroke-width=".5" d="M691.409 130.02l-84.641-19.408"/></g></g></g><g data-name="グループ 178"><g data-name="グループ 174"><g data-name="グループ 172"><path data-name="線 41" fill="none" stroke="#5b5b5b" stroke-linejoin="round" stroke-width=".5" d="M395.545 37.423l74.364 26.908"/></g><g data-name="グループ 173" fill="none" stroke="#5b5b5b" stroke-linejoin="round" stroke-width=".5"><path data-name="線 42" d="M520.101 33.743l102.775-76.431"/><path data-name="線 43" d="M469.909 64.331l50.192-30.588"/></g></g><g data-name="グループ 177"><g data-name="グループ 175" fill="none" stroke="#5b5b5b" stroke-linejoin="round" stroke-width=".5"><path data-name="パス 234" d="M395.545 37.42l19.39 101.278 54.974-74.37"/><path data-name="線 44" d="M395.545 37.423l-209.807-1.638"/></g><g data-name="グループ 176"><path data-name="パス 236" d="M469.91 64.33l24.82 114.4 25.372-144.989" fill="none" stroke="#5b5b5b" stroke-linejoin="round" stroke-width=".5"/></g></g></g></g><g data-name="グループ 201"><g data-name="グループ 186"><g data-name="グループ 182" fill="none" stroke="#5b5b5b" stroke-linejoin="round" stroke-width=".5"><g data-name="グループ 180"><path data-name="パス 240" d="M713.274-56.392l-90.4 13.7L665.18 65.791z"/><path data-name="線 45" d="M520.104 33.744L665.18 65.793"/></g><g data-name="グループ 181"><path data-name="パス 242" d="M834.641-231.188l-121.367 174.8 61.79 68.991z"/><path data-name="線 46" d="M665.18 65.793l109.884-53.194"/></g></g><g data-name="グループ 185"><g data-name="グループ 183"><path data-name="パス 244" d="M520.103 33.744l86.665 76.869 58.412-44.82" fill="none" stroke="#5b5b5b" stroke-linejoin="round" stroke-width=".5"/></g><g data-name="グループ 184"><path data-name="パス 248" d="M665.18 65.793l26.228 64.226 83.656-117.42" fill="none" stroke="#5b5b5b" stroke-linejoin="round" stroke-width=".5"/></g></g></g><g data-name="グループ 193" fill="none" stroke="#5b5b5b" stroke-linejoin="round" stroke-width=".5"><g data-name="グループ 189"><g data-name="グループ 187"><path data-name="パス 252" d="M896.001-149.916l-61.36-81.272 9.45 222.307z"/><path data-name="線 47" d="M775.064 12.6l69.027-21.481"/></g><g data-name="グループ 188"><path data-name="パス 254" d="M944.654-126.2l-48.653-23.717 132.057 78.024z"/><path data-name="線 48" d="M844.091-8.882l183.966-63.011"/></g></g><g data-name="グループ 192"><g data-name="グループ 190"><path data-name="パス 256" d="M775.064 12.599l33.534 123.075L844.091-8.882"/><path data-name="線 49" d="M691.408 130.019l117.19 5.655"/></g><g data-name="グループ 191"><path data-name="パス 258" d="M844.09-8.882l34.72 95.479 149.247-158.49"/><path data-name="線 50" d="M808.598 135.674l70.213-49.077"/></g></g></g><g data-name="グループ 200"><g data-name="グループ 199"><g data-name="グループ 197"><path data-name="線 51" fill="none" stroke="#5b5b5b" stroke-linejoin="round" stroke-width=".5" d="M713.272-56.393l18.754-144.753"/></g><g data-name="グループ 198"><path data-name="線 52" fill="none" stroke="#5b5b5b" stroke-linejoin="round" stroke-width=".5" d="M732.026-201.146l102.616-30.042"/></g></g></g></g></g></g><g data-name="グループ 236"><g data-name="グループ 215"><g data-name="グループ 214"><g data-name="グループ 207"><g data-name="グループ 206"><g data-name="グループ 205"><path data-name="線 53" fill="none" stroke="#5b5b5b" stroke-linejoin="round" stroke-width=".5" d="M1018.466 180.012L880.359 278.78"/></g></g></g><g data-name="グループ 213"><g data-name="グループ 210"><g data-name="グループ 209"><path data-name="パス 273" d="M808.599 135.676l-26.895 108.973 97.108-158.05" fill="none" stroke="#5b5b5b" stroke-linejoin="round" stroke-width=".5"/></g></g></g></g></g><g data-name="グループ 235"><g data-name="グループ 234"><g data-name="グループ 222"><g data-name="グループ 218" fill="none" stroke="#5b5b5b" stroke-linejoin="round" stroke-width=".5"><g data-name="グループ 216"><path data-name="パス 277" d="M1031.947 41.213L878.814 86.598l62.057 26.646z"/><path data-name="線 54" d="M781.705 244.648L940.87 113.244"/></g><g data-name="グループ 217"><path data-name="線 55" d="M1031.949 41.213l90.201 106.91"/><path data-name="線 56" d="M940.87 113.244l181.28 34.879"/></g></g><g data-name="グループ 221"><g data-name="グループ 219"><path data-name="パス 280" d="M781.705 244.648l98.655 34.133 60.51-165.537" fill="none" stroke="#5b5b5b" stroke-linejoin="round" stroke-width=".5"/></g><g data-name="グループ 220"><path data-name="パス 283" d="M940.871 113.244l77.6 66.768 103.684-31.888" fill="none" stroke="#5b5b5b" stroke-linejoin="round" stroke-width=".5"/></g></g></g><g data-name="グループ 233"><g data-name="グループ 232"><g data-name="グループ 230"><path data-name="線 57" fill="none" stroke="#5b5b5b" stroke-linejoin="round" stroke-width=".5" d="M1028.058-71.892l3.891 113.106"/></g></g></g></g></g></g></g><path data-name="パス 298" d="M419.486 237.938a4.465 4.465 0 116.309-.282 4.465 4.465 0 01-6.309.282z" fill="#5b5b5b" opacity=".5"/><path data-name="パス 299" d="M409.675 142.713a5.711 5.711 0 118.068-.362 5.709 5.709 0 01-8.068.362z" fill="#5b5b5b" opacity=".5"/><path data-name="パス 300" d="M492.149 181.295a3.827 3.827 0 115.408-.242 3.828 3.828 0 01-5.408.242z" fill="#5b5b5b" opacity=".5"/><path data-name="パス 301" d="M534.366 190.547a4.169 4.169 0 115.889-.264 4.17 4.17 0 01-5.889.264z" fill="#5b5b5b" opacity=".5"/><path data-name="パス 302" d="M603.309 113.518a4.2 4.2 0 115.931-.266 4.2 4.2 0 01-5.931.266z" fill="#5b5b5b" opacity=".5"/><path data-name="パス 303" d="M661.269 69.692a5.344 5.344 0 117.549-.338 5.346 5.346 0 01-7.549.338z" fill="#5b5b5b" opacity=".5"/><path data-name="パス 304" d="M771.597 15.865a4.469 4.469 0 116.314-.284 4.47 4.47 0 01-6.314.284z" fill="#5b5b5b" opacity=".5"/><path data-name="パス 305" d="M710.21-52.296a4.392 4.392 0 116.205-.278 4.391 4.391 0 01-6.205.278z" fill="#5b5b5b" opacity=".5"/><path data-name="パス 306" d="M729.076-196.817a4.9 4.9 0 116.93-.31 4.9 4.9 0 01-6.93.31z" fill="#5b5b5b" opacity=".5"/><path data-name="パス 307" d="M829.883-225.558a6.968 6.968 0 119.844-.442 6.97 6.97 0 01-9.844.442z" fill="#5b5b5b" opacity=".5"/><path data-name="パス 308" d="M891.138-144.211a6.968 6.968 0 119.844-.441 6.969 6.969 0 01-9.844.441z" fill="#5b5b5b" opacity=".5"/><path data-name="パス 309" d="M1023.067-66.802a6.968 6.968 0 119.844-.441 6.968 6.968 0 01-9.844.441z" fill="#5b5b5b" opacity=".5"/><path data-name="パス 310" d="M619.886-39.906a4.09 4.09 0 115.777-.26 4.089 4.089 0 01-5.777.26z" fill="#5b5b5b" opacity=".5"/><path data-name="パス 311" d="M687.438 133.987a5.434 5.434 0 117.678-.344 5.433 5.433 0 01-7.678.344z" fill="#5b5b5b" opacity=".5"/><path data-name="パス 312" d="M804.57 139.555a5.3 5.3 0 117.49-.337 5.3 5.3 0 01-7.49.337z" fill="#5b5b5b" opacity=".5"/><path data-name="パス 313" d="M841.987-5.694a3.763 3.763 0 115.316-.238 3.764 3.764 0 01-5.316.238z" fill="#5b5b5b" opacity=".5"/><path data-name="パス 314" d="M874.996 90.244a4.987 4.987 0 117.046-.316 4.985 4.985 0 01-7.046.316z" fill="#5b5b5b" opacity=".5"/><path data-name="パス 315" d="M778.106 248.372a5.567 5.567 0 117.864-.353 5.566 5.566 0 01-7.864.353z" fill="#5b5b5b" opacity=".5"/><path data-name="パス 316" d="M875.727 283.428a6.262 6.262 0 118.847-.4 6.263 6.263 0 01-8.847.4z" fill="#5b5b5b" opacity=".5"/><path data-name="パス 317" d="M936.644 117.37a5.406 5.406 0 117.637-.342 5.4 5.4 0 01-7.637.342z" fill="#5b5b5b" opacity=".5"/><path data-name="パス 318" d="M1028.499 44.629a5.242 5.242 0 117.405-.332 5.24 5.24 0 01-7.405.332z" fill="#5b5b5b" opacity=".5"/><path data-name="パス 319" d="M1116.994 153.233a6.968 6.968 0 119.844-.441 6.967 6.967 0 01-9.844.441z" fill="#5b5b5b" opacity=".5"/><path data-name="パス 320" d="M1013.313 185.121a6.968 6.968 0 119.844-.441 6.968 6.968 0 01-9.844.441z" fill="#5b5b5b" opacity=".5"/><path data-name="パス 321" d="M517.876 37.968a5.328 5.328 0 117.527-.337 5.326 5.326 0 01-7.527.337z" fill="#5b5b5b" opacity=".5"/><path data-name="パス 322" d="M392.55 42.445a4.869 4.869 0 116.878-.309 4.868 4.868 0 01-6.878.309z" fill="#5b5b5b" opacity=".5"/><path data-name="パス 323" d="M466.036 68.033a4.964 4.964 0 117.014-.314 4.964 4.964 0 01-7.014.314z" fill="#5b5b5b" opacity=".5"/><path data-name="パス 324" d="M332.95 288.563a5.622 5.622 0 117.943-.355 5.622 5.622 0 01-7.943.355z" fill="#5b5b5b" opacity=".5"/><path data-name="パス 325" d="M299.288 255.286a3.779 3.779 0 115.338-.239 3.78 3.78 0 01-5.338.239z" fill="#5b5b5b" opacity=".5"/><path data-name="パス 326" d="M181.382 40.282a6.071 6.071 0 118.577-.384 6.071 6.071 0 01-8.577.384z" fill="#5b5b5b" opacity=".5"/><path data-name="パス 327" d="M205.187 325.597a6.968 6.968 0 119.844-.441 6.966 6.966 0 01-9.844.441z" fill="#5b5b5b" opacity=".5"/><path data-name="パス 328" d="M13.724 293.734a11.453 11.453 0 1116.181-.722 11.452 11.452 0 01-16.181.722z" fill="#5b5b5b" opacity=".5"/></g></g></g></g><g data-name="20%"><g data-name="グループ 331"><g data-name="グループ 330"><g data-name="グループ 329" opacity=".2" clip-path="url(#a)"><g data-name="グループ 328"><g data-name="グループ 294"><g data-name="グループ 248"><g data-name="グループ 247"><g data-name="グループ 243"><g data-name="グループ 242"><g data-name="グループ 241"><path data-name="線 58" fill="none" stroke="#5b5b5b" stroke-linejoin="round" stroke-width=".5" d="M701.698 326.442l102.952 84.341"/></g></g></g><g data-name="グループ 246"><g data-name="グループ 245"><g data-name="グループ 244"><path data-name="線 59" fill="none" stroke="#5b5b5b" stroke-linejoin="round" stroke-width=".5" d="M883.097 585.856l-298.759 7.251"/></g></g></g></g></g><g data-name="グループ 293"><g data-name="グループ 270"><g data-name="グループ 255"><g data-name="グループ 251" fill="none" stroke="#5b5b5b" stroke-linejoin="round" stroke-width=".5"><g data-name="グループ 249"><path data-name="パス 330" d="M537.903 346.191l46.436 246.914 111.017-219.141z"/><path data-name="線 60" d="M883.098 585.856L695.352 373.965"/></g><g data-name="グループ 250"><path data-name="パス 332" d="M525.185 257.828l12.715 88.364 74.638-61.072z"/><path data-name="線 61" d="M695.352 373.965L612.54 285.12"/></g></g><g data-name="グループ 254"><g data-name="グループ 252"><path data-name="パス 334" d="M883.097 585.855L804.65 410.782l-109.3-36.818" fill="none" stroke="#5b5b5b" stroke-linejoin="round" stroke-width=".5"/></g><g data-name="グループ 253"><path data-name="パス 337" d="M695.352 373.964l6.347-47.523-89.158-41.321" fill="none" stroke="#5b5b5b" stroke-linejoin="round" stroke-width=".5"/></g></g></g><g data-name="グループ 262"><g data-name="グループ 258"><g data-name="グループ 256" fill="none" stroke="#5b5b5b" stroke-linejoin="round" stroke-width=".5"><path data-name="パス 341" d="M405.276 204.777l119.91 53.052-16.806-40.5z"/><path data-name="線 62" d="M612.541 285.122l-104.162-67.797"/></g><g data-name="グループ 257"><path data-name="線 63" fill="none" stroke="#5b5b5b" stroke-linejoin="round" stroke-width=".5" d="M372.861 124.215l32.415 80.562"/></g></g></g><g data-name="グループ 269"><g data-name="グループ 265"><g data-name="グループ 263"><path data-name="線 64" fill="none" stroke="#5b5b5b" stroke-linejoin="round" stroke-width=".5" d="M465.846 419.957l-20.389-76.41"/></g><g data-name="グループ 264" fill="none" stroke="#5b5b5b" stroke-linejoin="round" stroke-width=".5"><path data-name="線 65" d="M391.681 319.82l-121.439-40.704"/><path data-name="線 66" d="M445.457 343.547l-53.776-23.727"/></g></g><g data-name="グループ 268"><g data-name="グループ 266" fill="none" stroke="#5b5b5b" stroke-linejoin="round" stroke-width=".5"><path data-name="パス 352" d="M465.845 419.958l72.056-73.764-92.444-2.642"/><path data-name="線 67" d="M465.846 419.957l118.493 173.15"/></g><g data-name="グループ 267"><path data-name="パス 354" d="M445.458 343.547l79.726-85.716-133.5 61.988" fill="none" stroke="#5b5b5b" stroke-linejoin="round" stroke-width=".5"/></g></g></g></g><g data-name="グループ 292"><g data-name="グループ 277"><g data-name="グループ 273" fill="none" stroke="#5b5b5b" stroke-linejoin="round" stroke-width=".5"><g data-name="グループ 271"><path data-name="パス 358" d="M207.359 212.742l62.882 66.373 64.881-96.686z"/><path data-name="線 68" d="M391.68 319.817l-56.558-137.388"/></g><g data-name="グループ 272"><path data-name="パス 360" d="M-5.44 212.96l212.8-.219 21.337-90.125z"/><path data-name="線 69" d="M335.123 182.429l-106.427-59.813"/></g></g><g data-name="グループ 276"><g data-name="グループ 274"><path data-name="パス 362" d="M391.681 319.817l13.594-115.043-70.154-22.345" fill="none" stroke="#5b5b5b" stroke-linejoin="round" stroke-width=".5"/></g><g data-name="グループ 275"><path data-name="パス 366" d="M335.122 182.429l37.737-58.214-144.164-1.6" fill="none" stroke="#5b5b5b" stroke-linejoin="round" stroke-width=".5"/></g></g></g><g data-name="グループ 284" fill="none" stroke="#5b5b5b" stroke-linejoin="round" stroke-width=".5"><g data-name="グループ 280"><g data-name="グループ 278"><path data-name="パス 370" d="M26.222 116.174L-5.44 212.96 171.637 78.231z"/><path data-name="線 70" d="M228.696 122.616l-57.059-44.39"/></g><g data-name="グループ 279"><path data-name="パス 372" d="M17.904 62.691l8.319 53.484L14.838-36.787z"/><path data-name="線 71" d="M171.637 78.226L14.838-36.787"/></g></g><g data-name="グループ 283"><g data-name="グループ 281"><path data-name="パス 374" d="M228.696 122.617l81.869-97.824-138.928 53.434"/><path data-name="線 72" d="M372.86 124.215l-62.295-99.422"/></g><g data-name="グループ 282"><path data-name="パス 376" d="M171.637 78.226l58.54-83.034L14.838-36.787"/><path data-name="線 73" d="M310.566 24.792L230.178-4.809"/></g></g></g><g data-name="グループ 291"><g data-name="グループ 290"><g data-name="グループ 288"><path data-name="線 74" fill="none" stroke="#5b5b5b" stroke-linejoin="round" stroke-width=".5" d="M207.359 212.744L77.831 280.031"/></g><g data-name="グループ 289"><path data-name="線 75" fill="none" stroke="#5b5b5b" stroke-linejoin="round" stroke-width=".5" d="M77.831 280.032L-5.44 212.961"/></g></g></g></g></g></g><g data-name="グループ 327"><g data-name="グループ 306"><g data-name="グループ 305"><g data-name="グループ 298"><g data-name="グループ 297"><g data-name="グループ 296"><path data-name="線 76" fill="none" stroke="#5b5b5b" stroke-linejoin="round" stroke-width=".5" d="M227.086-172.796l159.956 56.947"/></g></g></g><g data-name="グループ 304"><g data-name="グループ 301"><g data-name="グループ 300"><path data-name="パス 391" d="M310.566 24.792l104.809-40.171-185.194 10.57" fill="none" stroke="#5b5b5b" stroke-linejoin="round" stroke-width=".5"/></g></g></g></g></g><g data-name="グループ 326"><g data-name="グループ 325"><g data-name="グループ 313"><g data-name="グループ 309" fill="none" stroke="#5b5b5b" stroke-linejoin="round" stroke-width=".5"><g data-name="グループ 307"><path data-name="パス 395" d="M105.455-104.589L230.176-4.814l-13.574-66.157z"/><path data-name="線 77" d="M415.374-15.376L216.602-70.967"/></g><g data-name="グループ 308"><path data-name="線 78" d="M105.455-104.585l36.234-135.104"/><path data-name="線 79" d="M216.602-70.967l-74.913-168.722"/></g></g><g data-name="グループ 312"><g data-name="グループ 310"><path data-name="パス 398" d="M415.374-15.376l-28.328-100.475-170.444 44.884" fill="none" stroke="#5b5b5b" stroke-linejoin="round" stroke-width=".5"/></g><g data-name="グループ 311"><path data-name="パス 401" d="M216.603-70.971l10.483-101.825-85.4-66.893" fill="none" stroke="#5b5b5b" stroke-linejoin="round" stroke-width=".5"/></g></g></g><g data-name="グループ 324"><g data-name="グループ 323"><g data-name="グループ 321"><path data-name="線 80" fill="none" stroke="#5b5b5b" stroke-linejoin="round" stroke-width=".5" d="M14.838-36.787l90.617-67.798"/></g></g></g></g></g></g></g><path data-name="パス 416" d="M616.757 285.774a4.465 4.465 0 11-3.835-5.017 4.465 4.465 0 013.835 5.017z" fill="#5b5b5b"/><path data-name="パス 417" d="M544.199 348.218a5.711 5.711 0 11-4.906-6.416 5.712 5.712 0 014.906 6.416z" fill="#5b5b5b"/><path data-name="パス 418" d="M528.758 258.485a3.827 3.827 0 11-3.287-4.3 3.827 3.827 0 013.287 4.3z" fill="#5b5b5b"/><path data-name="パス 419" d="M512.242 218.546a4.17 4.17 0 11-3.582-4.684 4.171 4.171 0 013.582 4.684z" fill="#5b5b5b"/><path data-name="パス 420" d="M409.634 205.953a4.2 4.2 0 11-3.606-4.717 4.2 4.2 0 013.606 4.717z" fill="#5b5b5b"/><path data-name="パス 421" d="M340.556 183.411a5.344 5.344 0 11-4.59-6 5.344 5.344 0 014.59 6z" fill="#5b5b5b"/><path data-name="パス 422" d="M233.36 123.594a4.469 4.469 0 11-3.839-5.022 4.469 4.469 0 013.839 5.022z" fill="#5b5b5b"/><path data-name="パス 423" d="M212.475 212.916a4.392 4.392 0 11-3.773-4.935 4.391 4.391 0 013.773 4.935z" fill="#5b5b5b"/><path data-name="パス 424" d="M83.068 279.978a4.9 4.9 0 11-4.213-5.512 4.9 4.9 0 014.213 5.512z" fill="#5b5b5b"/><path data-name="パス 425" d="M1.897 213.648a6.968 6.968 0 11-5.985-7.824 6.967 6.967 0 015.985 7.824z" fill="#5b5b5b"/><path data-name="パス 426" d="M33.682 116.905a6.968 6.968 0 11-5.984-7.829 6.968 6.968 0 015.984 7.829z" fill="#5b5b5b"/><path data-name="パス 427" d="M21.866-35.601a6.968 6.968 0 11-5.985-7.828 6.967 6.967 0 015.985 7.828z" fill="#5b5b5b"/><path data-name="パス 428" d="M274.234 279.983a4.089 4.089 0 11-3.512-4.595 4.088 4.088 0 013.512 4.595z" fill="#5b5b5b"/><path data-name="パス 429" d="M378.383 125.207a5.434 5.434 0 11-4.667-6.1 5.434 5.434 0 014.667 6.1z" fill="#5b5b5b"/><path data-name="パス 430" d="M316.051 25.883a5.3 5.3 0 11-4.554-5.957 5.3 5.3 0 014.554 5.957z" fill="#5b5b5b"/><path data-name="パス 431" d="M175.458 78.134a3.763 3.763 0 11-3.232-4.228 3.763 3.763 0 013.232 4.228z" fill="#5b5b5b"/><path data-name="パス 432" d="M235.347-3.762a4.987 4.987 0 11-4.283-5.6 4.986 4.986 0 014.283 5.6z" fill="#5b5b5b"/><path data-name="パス 433" d="M420.487-14.549a5.567 5.567 0 11-4.782-6.253 5.567 5.567 0 014.782 6.253z" fill="#5b5b5b"/><path data-name="パス 434" d="M393.502-114.702a6.262 6.262 0 11-5.378-7.037 6.261 6.261 0 015.378 7.037z" fill="#5b5b5b"/><path data-name="パス 435" d="M222.403-69.856a5.406 5.406 0 11-4.643-6.074 5.406 5.406 0 014.643 6.074z" fill="#5b5b5b"/><path data-name="パス 436" d="M110.233-103.702a5.242 5.242 0 11-4.5-5.889 5.243 5.243 0 014.5 5.889z" fill="#5b5b5b"/><path data-name="パス 437" d="M148.823-238.38a6.968 6.968 0 11-5.982-7.827 6.969 6.969 0 015.982 7.827z" fill="#5b5b5b"/><path data-name="パス 438" d="M234.222-171.488a6.968 6.968 0 11-5.985-7.829 6.969 6.969 0 015.985 7.829z" fill="#5b5b5b"/><path data-name="パス 439" d="M476.5 287.465a6.212 6.212 0 11-5.336-6.979 6.212 6.212 0 015.336 6.979z" fill="#5b5b5b"/><path data-name="パス 440" d="M471.677 419.546a4.869 4.869 0 11-4.182-5.47 4.87 4.87 0 014.182 5.47z" fill="#5b5b5b"/><path data-name="パス 441" d="M450.708 344.611a4.965 4.965 0 11-4.265-5.577 4.965 4.965 0 014.265 5.577z" fill="#5b5b5b"/><path data-name="パス 442" d="M707.741 327.888a5.622 5.622 0 11-4.829-6.316 5.623 5.623 0 014.829 6.316z" fill="#5b5b5b"/><path data-name="パス 443" d="M699.652 374.528a3.779 3.779 0 11-3.246-4.245 3.778 3.778 0 013.246 4.245z" fill="#5b5b5b"/><path data-name="パス 444" d="M590.518 594.113a6.072 6.072 0 11-5.215-6.82 6.072 6.072 0 015.215 6.82z" fill="#5b5b5b"/><path data-name="パス 445" d="M811.114 411.607a6.968 6.968 0 11-5.985-7.828 6.967 6.967 0 015.985 7.828z" fill="#5b5b5b"/><path data-name="パス 446" d="M894.318 586.964a11.452 11.452 0 11-9.835-12.864 11.453 11.453 0 019.835 12.864z" fill="#5b5b5b"/></g></g></g></g></g></svg>