<svg xmlns="http://www.w3.org/2000/svg" viewBox="0 0 380 474.43"><defs><linearGradient id="linear-gradient" x1="803.53" y1="-1729.29" x2="806.47" y2="-1612.75" gradientTransform="matrix(.73 0 0 .94 -379.31 1984.53)" gradientUnits="userSpaceOnUse"><stop offset=".11" stop-color="#fff"/><stop offset="1"/></linearGradient><filter id="luminosity-invert-noclip" x="120.58" y="358.94" width="183.93" height="152.54" color-interpolation-filters="sRGB" filterUnits="userSpaceOnUse"><feColorMatrix result="cm" values="-1 0 0 0 1 0 -1 0 0 1 0 0 -1 0 1 0 0 0 1 0"/><feFlood flood-color="#fff" result="bg"/><feBlend in="cm" in2="bg"/></filter><style>.cls-1{fill:#eaa5bc}.cls-2{fill:#fff}.cls-5{fill:#415981}.cls-7{mix-blend-mode:multiply}.cls-8{fill:#95a6d4}.cls-9{fill:#324a71}.cls-7{fill:#e4e2eb}.cls-13{fill:#e6e3f1}.cls-14{fill:#7e7cae}.cls-16{fill:#a1b3dc}.cls-18{fill:#b4d4eb}</style><mask id="mask" x="120.58" y="358.94" width="183.93" height="152.54" maskUnits="userSpaceOnUse"><g filter="url(#luminosity-invert-noclip)"><path transform="rotate(62.02 212.55 435.246)" fill="url(#linear-gradient)" d="M169.3 354.05h86.51v162.32H169.3z"/></g></mask></defs><g style="isolation:isolate"><g id="_レイヤー_1" data-name="レイヤー 1"><g mask="url(#mask)"><path d="M142.31 447.2l-.29 9.04s61.53-22.16 64.15-18.08c2.62 4.08-40.24 27.7-40.24 27.7 3.59 3.27-.99 7.7 3.5 5.83l110.85-51.2c7.83-3.26 10.23-13.2 4.74-19.67l-9.99-11.76c-3.88-4.58-10.47-5.75-15.7-2.8L142.31 447.2z" style="mix-blend-mode:multiply" fill="#a1bfd5"/></g><path class="cls-8" d="M117.37 220.92l-.21 78.97c-.02 2.72-.98 4.61-2.54 5.5l-3.66 2.12c1.55-.9 2.52-2.78 2.52-5.5l.23-78.97c.02-5.44-3.81-12.07-8.55-14.8l-7.34-4.23-61.37-35.45c-2.38-1.37-4.53-1.5-6.07-.6l3.66-2.12c1.55-.9 3.7-.77 6.07.6l57.7 33.33 11.01 6.35c4.74 2.74 8.56 9.36 8.55 14.8z"/><path class="cls-16" d="M113.7 223.03l-.23 78.97c0 2.72-.98 4.61-2.52 5.5-1.55.9-3.71.77-6.07-.6l-68.71-39.68c-4.74-2.73-8.56-9.36-8.55-14.8l.13-50.67.08-28.3c.02-2.72.98-4.61 2.54-5.5 1.55-.9 3.7-.77 6.07.6L97.81 204l7.34 4.23c4.74 2.73 8.56 9.36 8.55 14.8z"/><path class="cls-2" d="M108.01 298.86c0 1.56-1.69 2.53-3.04 1.75-13.33-7.69-66.07-38.13-66.07-38.13-3.05-1.76-5.82-6.55-5.81-10.05l.23-76.94a1.39 1.39 0 012.09-1.2l67.01 38.67c3.05 1.76 5.83 6.56 5.82 10.05 0 0-.17 60.51-.22 75.85z"/><path class="cls-18" d="M69.24 247.83c.89.03 1.8.08 2.73.2l-1.89-4.88c-.78.27-1.58.48-2.4.64-.89-1.9-1.95-3.74-3.15-5.46.56-.62 1.14-1.2 1.77-1.73l-3.29-4.1c-.36.87-.77 1.67-1.2 2.45-1.34-1.46-2.79-2.76-4.31-3.82.08-1.09.18-2.16.34-3.21l-3.81-2.2c.15 1.22.25 2.41.32 3.59-1.52-.69-2.98-1.07-4.32-1.16-.43-1.27-.83-2.54-1.18-3.82l-3.3.29c.62 1.25 1.2 2.51 1.76 3.77-1.21.32-2.28.93-3.17 1.81-.81-1.11-1.62-2.24-2.39-3.41l-1.92 2.68c.93.95 1.83 1.94 2.72 2.94-.6 1.2-1.01 2.64-1.17 4.3-.98-.65-1.97-1.34-2.95-2.09v4.37c.97.39 1.96.85 2.94 1.33.16 1.84.55 3.74 1.15 5.63-.89-.03-1.8-.08-2.73-.21l1.9 4.89c.77-.27 1.58-.48 2.4-.64.88 1.9 1.95 3.74 3.15 5.46-.56.62-1.14 1.2-1.77 1.73l3.29 4.09c.36-.86.77-1.67 1.2-2.44 1.34 1.46 2.79 2.76 4.32 3.82-.08 1.09-.19 2.16-.34 3.21l3.81 2.2c-.15-1.23-.25-2.42-.32-3.59 1.52.7 2.97 1.07 4.32 1.16.42 1.27.83 2.55 1.18 3.82l3.31-.28c-.62-1.25-1.2-2.51-1.76-3.77a7.1 7.1 0 003.17-1.81 97.97 97.97 0 012.39 3.41l1.91-2.69c-.93-.94-1.83-1.93-2.72-2.93.6-1.21 1-2.65 1.17-4.3.98.65 1.97 1.34 2.95 2.08v-4.38c-.97-.39-1.96-.84-2.94-1.32-.16-1.85-.55-3.74-1.14-5.63zm-13.4 11.3c-5.88-3.4-10.63-11.62-10.61-18.38.02-6.75 4.8-9.48 10.68-6.09 5.88 3.39 10.63 11.63 10.61 18.38-.02 6.75-4.8 9.48-10.68 6.08zM101 274.5c.31-1.49.32-3.36.02-5.21 1.4.2 2.8.45 4.27.9l-4.35-11.24c-1.03.67-2.16 1.13-3.32 1.55-1.12-1.81-2.45-3.48-3.92-4.88.25-1.55.53-3.07.97-4.47l-8.75-5.05c.43 1.91.7 3.74.94 5.57-1.47-.3-2.8-.17-3.93.34-1.16-1.76-2.28-3.52-3.3-5.38l-4.4 6.18c1.46 1.24 2.86 2.61 4.26 4.03-.32 1.49-.32 3.36-.02 5.21-1.4-.2-2.8-.44-4.27-.9l4.35 11.23c1.03-.66 2.16-1.13 3.32-1.55 1.12 1.8 2.45 3.47 3.91 4.87-.25 1.55-.53 3.07-.97 4.47l8.75 5.05c-.43-1.91-.7-3.74-.94-5.58 1.47.3 2.81.17 3.93-.34 1.15 1.76 2.28 3.52 3.3 5.38l4.4-6.18c-1.25-1.05-2.44-2.2-3.63-3.39-.21-.21-.42-.42-.63-.64zm-19.95-45.05l2.91-.04c.72 1.27 1.57 2.45 2.51 3.48l-.29 3.96 5.15 3.48.29-3.96c1 .28 1.93.3 2.76.08l2.63 3.79 2.97-3.6-2.37-3.42c.26-.72.43-1.55.5-2.48.04-.5.04-1.02.02-1.55l2.4-.03-2.18-7.08-2.12.03c-.85-1.77-1.94-3.43-3.21-4.81l.19-2.62-5.15-3.48-.19 2.62c-1.34-.37-2.56-.29-3.58.22l-1.91-2.75-2.97 3.6 2.17 3.12c-.1.44-.16.92-.2 1.43-.07.93-.03 1.9.11 2.89l-2.63.04 2.18 7.08zm2.66-7.73c.29-3.97 3.21-5.36 6.52-3.13 3.31 2.24 5.75 7.26 5.46 11.23-.29 3.96-3.22 5.36-6.52 3.13-3.31-2.24-5.75-7.27-5.46-11.23z"/><path class="cls-7" d="M97.81 199.76v24.02c0 8.17-8.86 13.29-15.96 9.2l-54.11-31.23.08-28.3c.02-2.72.98-4.61 2.54-5.5l3.66-2.12c1.55-.9 3.7-.77 6.07.6l57.7 33.33z"/><path id="_Path_" data-name="&amp;lt;Path&amp;gt;" class="cls-8" d="M197.32 142.25c1.55-.89 2.52-2.8 2.53-5.51l.22-78.96c.02-5.44-3.82-12.07-8.55-14.81L122.81 3.3c-2.37-1.37-4.52-1.51-6.08-.61L120.4.57c1.55-.9 3.71-.76 6.08.61l68.71 39.67c4.74 2.74 8.57 9.37 8.55 14.81l-.22 78.96c0 2.72-.98 4.62-2.53 5.51l-3.67 2.12z"/><path class="cls-16" d="M200.07 57.78l-.21 78.95c-.02 2.72-.98 4.62-2.54 5.52-1.55.9-3.7.75-6.07-.62l-53.81-31.07-14.9-8.6c-4.74-2.74-8.57-9.36-8.55-14.82l.1-32.47.13-46.49c0-2.72.98-4.62 2.52-5.52 1.55-.9 3.71-.75 6.07.62l68.71 39.66c4.74 2.74 8.57 9.36 8.55 14.82z"/><path class="cls-18" d="M194.38 133.61c0 1.56-1.69 2.53-3.04 1.75-13.33-7.68-66.07-38.13-66.07-38.13-3.05-1.76-5.82-6.55-5.81-10.05l.23-76.94a1.39 1.39 0 012.09-1.2l67.01 38.67c3.05 1.76 5.83 6.55 5.82 10.05 0 0-.17 60.51-.22 75.85z"/><path class="cls-8" d="M186.88 55.35s0 1.96-.01 5.21l-62.45-36.04v-.11c.01-4.74 5.15-7.69 9.26-5.32l48.35 27.89c2.54 1.48 4.85 5.46 4.85 8.37z"/><path class="cls-2" d="M186.86 60.56c-.03 10.04-.56 35.23-.87 49.4-.1 4.57-5.04 7.39-9.03 5.15l-47.88-26.87c-2.54-1.46-4.84-5.46-4.84-8.38l.17-55.35 62.45 36.04z"/><path class="cls-8" d="M177.24 71.23c-.08 0-.17-.02-.25-.07l-44.47-25.68a.484.484 0 01-.18-.67c.14-.24.44-.32.67-.18l44.47 25.68c.24.14.32.44.18.67-.09.16-.26.25-.43.25zm0 10.94c-.08 0-.17-.02-.25-.07l-44.47-25.66a.484.484 0 01-.18-.67c.14-.23.44-.32.67-.18l44.47 25.66a.493.493 0 01-.25.92zm0 11.84c-.08 0-.17-.02-.25-.07l-44.47-25.68a.484.484 0 01-.18-.67c.14-.24.44-.32.67-.18l44.47 25.68c.24.14.32.44.18.67-.09.16-.26.25-.43.25z"/><path class="cls-7" d="M137.43 77.17v33.4l-14.9-8.6c-4.74-2.74-8.57-9.36-8.55-14.82l.1-32.47 15.55 8.99c4.84 2.78 7.8 7.93 7.8 13.5z"/><path class="cls-8" d="M89.76 141.93l-.04 15.94-.18 63.02c0 2.72-.98 4.62-2.53 5.52l-3.67 2.11c1.55-.89 2.52-2.79 2.53-5.51l.19-67.37.03-11.59c.02-5.44-3.82-12.07-8.56-14.81l-38.4-22.17-30.31-17.5c-2.37-1.37-4.52-1.51-6.08-.61l3.67-2.12c1.55-.89 3.7-.76 6.08.61l28.22 16.3 40.49 23.37c4.74 2.73 8.57 9.37 8.55 14.81z"/><path id="_Path_-2" data-name="&amp;lt;Path&amp;gt;" class="cls-16" d="M83.34 228.52c-1.55.9-3.71.75-6.08-.61L8.55 188.24C3.81 185.5-.02 178.88 0 173.43l.22-78.96c0-2.72.98-4.62 2.53-5.52 1.55-.9 3.71-.76 6.08.61l68.71 39.67c4.74 2.73 8.57 9.36 8.55 14.81L85.87 223c0 2.72-.98 4.62-2.53 5.51z"/><path class="cls-18" d="M80.4 219.88c0 1.56-1.69 2.53-3.04 1.75-13.33-7.69-66.07-38.13-66.07-38.13-3.05-1.76-5.82-6.55-5.81-10.05l.23-76.94a1.39 1.39 0 012.09-1.2l67.01 38.67c3.05 1.76 5.83 6.56 5.82 10.05 0 0-.18 60.51-.23 75.85z"/><path class="cls-14" d="M40.16 130.75c-5.22-3.03-9.5.57-9.54 8.03l-.05 8.64 4.37 2.54.05-8.63c.02-4.03 2.33-5.96 5.14-4.33l6.06 3.52c2.81 1.64 5.08 6.23 5.06 10.26l-.05 8.63 4.37 2.54.05-8.63c.04-7.46-4.18-16.01-9.39-19.04l-6.06-3.52z"/><path class="cls-2" d="M56.54 196.37l-30.62-17.68a2.897 2.897 0 01-1.44-2.5v-29.32c0-2.22 2.4-3.61 4.33-2.5l31.07 17.94c.61.35.99 1.01.99 1.72v29.84c0 2.22-2.4 3.61-4.33 2.5z"/><path class="cls-14" d="M45.75 166.14c0-2.13-1.71-4.86-3.84-6.1-2.13-1.24-3.86-.51-3.86 1.62 0 1.36.69 2.95 1.75 4.26l-.04 13.37 4.19 2.43.04-13.37c1.06-.07 1.76-.86 1.77-2.21z"/><path class="cls-7" d="M89.76 141.93l-.04 15.94c-1.11-.67-2.33-1.42-3.65-2.23-11.24-6.89-29.3-18.21-39.59-24.67a16.344 16.344 0 01-7.65-14.19l.32-9.7.06-1.84c.01-.31.73-.91 1.52-1.48l40.49 23.37c4.74 2.73 8.57 9.37 8.55 14.81z"/><path id="_Path_-3" data-name="&amp;lt;Path&amp;gt;" class="cls-8" d="M125.3 164.36c1.55-.9 2.52-2.8 2.53-5.51l.22-78.96c.02-5.44-3.82-12.07-8.55-14.81L50.79 25.4c-2.37-1.37-4.52-1.51-6.08-.61l3.67-2.12c1.55-.9 3.71-.76 6.08.61l68.71 39.67c4.74 2.73 8.57 9.37 8.55 14.81l-.22 78.96c0 2.72-.98 4.62-2.53 5.51l-3.67 2.12z"/><path id="_Path_-4" data-name="&amp;lt;Path&amp;gt;" class="cls-16" d="M125.3 164.36c-1.55.9-3.71.75-6.08-.61l-68.71-39.67c-4.74-2.73-8.56-9.36-8.55-14.8l.22-78.96c0-2.72.98-4.62 2.53-5.52 1.55-.9 3.71-.76 6.08.61l68.71 39.67c4.74 2.73 8.57 9.37 8.55 14.81l-.22 78.96c0 2.72-.98 4.62-2.53 5.51z"/><path class="cls-18" d="M122.36 155.71c0 1.56-1.69 2.53-3.04 1.75-13.33-7.69-66.07-38.13-66.07-38.13-3.05-1.76-5.82-6.55-5.81-10.05l.23-76.94a1.39 1.39 0 012.09-1.2l67.01 38.67c3.05 1.76 5.83 6.56 5.82 10.05 0 0-.17 60.51-.23 75.85z"/><path class="cls-2" d="M95.2 106.85c1.07.62 1.93 2.11 1.93 3.34l-.05 18.72c0 1.23-.87 1.72-1.94 1.11-1.07-.62-1.93-2.11-1.93-3.34l.05-18.72c0-1.23.87-1.72 1.94-1.11zM79.65 72.53c1.07.62 1.93 2.11 1.93 3.34 0 1.08-.67 1.6-1.56 1.28-.72.61-1.7 4.51-1.65 9.6.03 3.36.1 6.91.14 10.03.05 3.26.1 5.85.1 7.09 0 1.23-.87 1.72-1.94 1.11-.1-.06-.21-.14-.31-.21-.1-.04-.2-.08-.31-.14-2.6-1.5-4.72-.29-4.73 2.7 0 2.99 2.1 6.64 4.7 8.14 1.07.62 1.93 2.11 1.93 3.34s-.87 1.72-1.94 1.11c-4.73-2.73-8.57-9.39-8.56-14.83.02-4.91 3.17-7.18 7.27-5.56-.02-1.32-.05-3.02-.08-4.87-.05-3.13-.11-6.69-.14-10.06-.04-3.62.51-10.83 2.86-12.2.83-.49 1.71-.19 2.29.14zm8.78 12.18c1.07.62 1.93 2.11 1.93 3.34l-.11 39.84c0 1.23-.87 1.72-1.94 1.11-1.07-.62-1.93-2.11-1.93-3.34l.11-39.84c0-1.23.87-1.73 1.94-1.11z"/><path class="cls-2" d="M88.41 77.67c4.15 2.39 7.51 8.23 7.5 12.99l-.02 7.5v.41c-.1 1.63-.07 2.47-.02 2.9.21.11.48.25.72.36.49.24 1.08.53 1.78.93.06.04.12.07.19.11 1.84 1.09 3.33 3.78 3.33 6.01l.14 8.46c.01 1.01-.68 1.45-1.56.97-.9-.52-1.6-1.72-1.62-2.72l-.14-8.5c0-.29-.15-.56-.2-.59-.69-.4-1.21-.65-1.68-.88-.35-.17-.69-.34-1.04-.54-.8-.46-1.57-1.07-2.19-2.15-.96-1.65-1.05-3.46-.88-6.42v-.19l.02-7.5c0-2.75-1.94-6.12-4.34-7.5s-4.35-.27-4.36 2.48l-.02 7.5-.11 18.13c-.01 3.75-2.66 5.27-5.92 3.42l-2.69-1.41c-.92-.52-1.62-1.69-1.66-2.7-.04-1.03.64-1.5 1.52-1.04l2.8 1.47c1.53.88 2.77.17 2.78-1.58l.1-18.13.02-7.49c.01-4.77 3.4-6.7 7.55-4.3z"/><path class="cls-2" d="M84.95 66.68c9.24 5.33 16.72 18.3 16.69 28.91 0 1.23-.87 1.72-1.94 1.11-1.07-.62-1.93-2.11-1.93-3.34.02-8.16-5.74-18.14-12.84-22.23-7.1-4.1-12.9-.8-12.92 7.36l-.04 13.86c0 1.23-.87 1.72-1.94 1.11-1.07-.62-1.93-2.11-1.93-3.34l.04-13.87c.03-10.61 7.57-14.91 16.8-9.58z"/><path class="cls-2" d="M88.48 60.92c10.21 6.07 18.97 22.02 18.78 34.15l-.12 42.97c0 1.28-.91 1.8-2.02 1.15-1.11-.64-2.01-2.2-2.01-3.48l.12-43c.15-9.55-6.9-22.49-14.8-27.18l-8.21-4.74c-7.65-4.42-14.38.15-14.41 9.77l-.12 43.55c0 1.28-.91 1.8-2.02 1.15-1.11-.64-2.01-2.2-2.01-3.48l.12-43.55c.03-12.09 8.66-17.73 18.45-12.08l8.24 4.76z"/><path id="_Path_-5" data-name="&amp;lt;Path&amp;gt;" class="cls-8" d="M373.58 325.5c1.55-.9 2.52-2.8 2.53-5.51l.23-78.96c.01-5.44-3.82-12.07-8.55-14.81l-68.71-39.67c-2.37-1.37-4.52-1.51-6.08-.61l3.67-2.12c1.55-.9 3.7-.76 6.08.61l68.71 39.67c4.74 2.73 8.57 9.37 8.55 14.81l-.22 78.96c0 2.72-.98 4.62-2.53 5.51l-3.67 2.12z"/><path id="_Path_-6" data-name="&amp;lt;Path&amp;gt;" class="cls-16" d="M373.58 325.5c-1.56.9-3.71.75-6.08-.61l-40.06-23.13-28.66-16.54c-4.74-2.73-8.56-9.36-8.55-14.8l.05-18.36.17-60.6c0-2.72.98-4.62 2.53-5.52 1.55-.9 3.7-.76 6.08.61l68.71 39.67c4.74 2.73 8.57 9.36 8.55 14.81l-.23 78.96c0 2.72-.98 4.62-2.53 5.51z"/><path class="cls-18" d="M370.64 316.85c0 1.56-1.69 2.53-3.04 1.75-13.33-7.69-66.07-38.13-66.07-38.13-3.05-1.76-5.82-6.55-5.81-10.05l.23-76.94a1.39 1.39 0 012.09-1.2l67.01 38.67c3.05 1.76 5.83 6.56 5.82 10.05 0 0-.17 60.51-.22 75.85z"/><path class="cls-2" d="M348.44 252.1c0 8.46-6.86 11.36-15.31 6.47-8.46-4.88-15.31-15.7-15.31-24.15s6.86-11.35 15.31-6.47c8.46 4.88 15.31 15.7 15.31 24.15z"/><path class="cls-14" d="M348.15 248.99l-30.04-17.35c1.36-6.25 7.57-7.99 15.03-3.7 7.44 4.32 13.65 13.23 15.01 21.05z"/><path class="cls-2" d="M352.93 293.1l-37.42-21.6v-6.95c0-10.33 8.38-13.87 18.71-7.91 10.33 5.97 18.71 19.18 18.71 29.51v6.95z"/><path class="cls-2" d="M348.45 252.09c0 8.46-6.87 11.35-15.31 6.49-8.46-4.89-15.33-15.69-15.33-24.15 0-1 .11-1.94.3-2.79l30.04 17.35c.19 1.06.3 2.11.3 3.1z"/><path class="cls-7" d="M327.39 286.29l.05 15.47-37.24-24.01.09-25.7s21.81 15.25 29.44 20.04a16.36 16.36 0 017.65 14.2zm2.47-60.15l-39.08-22.56V177.7l50.14 28.95v13.12c0 5.67-6.14 9.22-11.06 6.38z"/><path id="_Path_-7" data-name="&amp;lt;Path&amp;gt;" class="cls-8" d="M318.2 373.99c1.55-.9 2.52-2.8 2.53-5.51l.22-78.96c.02-5.44-3.82-12.07-8.55-14.81l-68.71-39.67c-2.37-1.37-4.52-1.51-6.08-.61l3.67-2.12c1.55-.9 3.7-.76 6.08.61l68.71 39.67c4.74 2.73 8.57 9.37 8.55 14.81l-.22 78.96c0 2.72-.98 4.62-2.53 5.51l-3.67 2.12z"/><path class="cls-16" d="M320.96 289.52l-.23 78.97c0 2.7-.98 4.61-2.52 5.5-1.56.9-3.71.75-6.09-.62l-41.47-23.93-27.24-15.73c-4.35-2.51-7.93-8.29-8.47-13.43-.06-.46-.08-.91-.08-1.37l.1-30.76.13-48.21c.02-2.72.98-4.61 2.52-5.5 1.56-.91 3.71-.77 6.09.6l68.71 39.68c4.72 2.73 8.56 9.36 8.55 14.8z"/><path class="cls-2" d="M315.26 365.35c0 1.56-1.69 2.53-3.04 1.75-13.33-7.69-66.07-38.13-66.07-38.13-3.05-1.76-5.82-6.55-5.81-10.05l.23-76.94a1.39 1.39 0 012.09-1.2l67.01 38.67c3.05 1.76 5.83 6.56 5.82 10.05 0 0-.17 60.51-.22 75.84z"/><path class="cls-18" d="M301.9 301.64v40.56l-47.4-27.35v-40.56l21.59 28.93 25.81-1.58z"/><path class="cls-16" d="M301.9 297.71l-25.81 1.58-21.59-28.94 47.4 27.36z"/><path id="_Path_-8" data-name="&amp;lt;Path&amp;gt;" class="cls-8" d="M328.45 220.81c1.55-.9 2.52-2.79 2.53-5.51l.22-78.96c.01-5.44-3.82-12.07-8.55-14.81l-68.71-39.67c-2.37-1.37-4.52-1.51-6.08-.61l3.66-2.12c1.55-.9 3.71-.76 6.08.61l68.71 39.67c4.74 2.73 8.57 9.36 8.55 14.81l-.22 78.96c0 2.72-.98 4.62-2.53 5.51l-3.67 2.12z"/><path id="_Path_-9" data-name="&amp;lt;Path&amp;gt;" class="cls-16" d="M328.45 220.81c-1.55.9-3.71.75-6.08-.61l-68.71-39.67c-4.74-2.74-8.56-9.36-8.55-14.81l.22-78.96c0-2.72.98-4.62 2.53-5.52 1.55-.9 3.71-.76 6.08.61l68.71 39.67c4.74 2.73 8.57 9.36 8.55 14.81l-.22 78.96c0 2.72-.98 4.62-2.53 5.51z"/><path class="cls-18" d="M325.51 212.17c0 1.56-1.69 2.53-3.04 1.75-13.33-7.69-66.07-38.13-66.07-38.13-3.05-1.76-5.82-6.55-5.81-10.05l.23-76.94a1.39 1.39 0 012.09-1.2l67.01 38.67c3.05 1.76 5.83 6.56 5.82 10.05 0 0-.17 60.51-.23 75.85z"/><path class="cls-2" d="M288.43 133.97c9.85 5.55 19.75 14.78 27.39 26.41l-4.7 2.05c-6.3-9.58-14.47-17.19-22.59-21.77-8.12-4.57-16.19-6.11-22.33-3.54l-4.83-7.42c7.43-3.13 17.23-1.27 27.07 4.27z"/><path class="cls-2" d="M288.57 144.02c7.25 4.09 14.54 10.88 20.18 19.43l-4.7 2.04c-4.31-6.5-9.86-11.67-15.39-14.78-5.52-3.11-11.02-4.17-15.21-2.46l-4.83-7.41c5.48-2.28 12.69-.91 19.94 3.18z"/><path class="cls-2" d="M288.72 154.58c4.53 2.55 9.08 6.78 12.61 12.1l-4.7 2.04c-2.2-3.27-5.01-5.88-7.81-7.46s-5.59-2.13-7.73-1.3l-4.83-7.41c3.44-1.39 7.94-.52 12.47 2.03zm-.92 10.32c1.38.78 2.77 2.08 3.84 3.72 2.14 3.28 2.18 6.67.1 7.58-1.04.45-2.41.2-3.79-.58s-2.77-2.08-3.84-3.72c-2.13-3.28-2.18-6.67-.1-7.58 1.04-.45 2.41-.19 3.79.58z"/><path class="cls-9" d="M130.86 205.3s-23.67 31.8-25.1 38.15c-1.43 6.36 4.41 8.82 7.77 6.29 3.36-2.53 36.46-40.91 33.62-50.39-2.83-9.48-16.3 5.94-16.3 5.94z"/><path class="cls-1" d="M139.72 290.22c.79 5.14 3.56 10.78 3.61 11.52.05.73-.74 1.22-1.19 1.16.11.5-.06 1.04-.22 1.11-.93.4-1.75-.87-2.48-2.02-.06.06-.23.69-.9.28-.67-.42-1.78-2.54-1.86-2.51-.93.33-2.91-1.56-4.34-4.96 0 0-1.64-3.08-2.04-4.28-1.03-3.11-4.59-13.03-4.59-13.03.04-1.22 4.69-3.7 4.69-3.7s.38 4.44 3.76 6.37c3.17 1.8 3.72 3.78 4.39 5.05.54 1.01.73 2.28 1.15 5.01z"/><path class="cls-1" d="M136.26 283.1c3.87 1.63 4.89 6.55 5.7 7.64.95 1.27 2.05 5.12 1.09 5.63-1.19.62-2.81-2.99-3.7-5.06-1-.79-2.92-.79-3.32-1.92-.4-1.14-1.85-5.72.23-6.28z"/><path class="cls-13" d="M123.02 275.14l3.07 4.99s3.32-.68 6.27-3.54l-2.88-4.5-6.46 3.05z"/><path class="cls-9" d="M106.92 247.8l17.55 30.04s3.86-1.14 7.01-3.78c0 0-9.64-28.9-16.77-34.54-7.78-6.15-7.79 8.29-7.79 8.29z"/><path class="cls-5" d="M168.33 458.84c2.1.82 10.26-3.56 13.79-3.65 3.54-.09 5.65.92 7.35 3.83 1.09 1.87-1.29 4.58-5.11 6.6-4.74 2.51-8.59 4.45-9.86 4.94-2.28.89-7.38 3.89-9.16 3.88-1.78 0-4.06-.87-4.81-3.34-.75-2.48-.21-7.9 1.33-9.53 1.55-1.62 6.46-2.72 6.46-2.72zm-26.9-15.18c1.61.84 11.73-.74 15.58-1.12 3.29-.32 5.64.2 6.77 1.83 1.13 1.63.9 4.82-1.15 5.81-2.61 1.26-16.37 5.47-16.37 5.47s-2.58 1.4-5.08 2.82-4.8-.28-6.22-1.31c-2.48-1.79.38-11.11.38-11.11l6.08-2.4z"/><path class="cls-13" d="M174.25 463.42s-3.92 3.35-6.72 3.35-5.24-3.37-5.24-3.37l.02-12.15 11.95.02-.02 12.15zm-27.16-15.86s-4.36 2.63-6.8 2.49c-2.44-.15-4.56-1.27-4.66-2.5-.1-1.24 1.64-6.85 1.53-11.46l9.94-.16-.02 11.64z"/><path d="M156.17 327.26s-20.11-25.23-20.21-13.37c-.11 11.86-.03 13.13.16 20.24.49 18.11.44 54.73.44 54.73l-1.24 49.07c.86 1.96 4.06 3.54 7.03 3.25 4.21-.41 8.35-3.45 8.13-5.03-1.06-7.6 1.04-29.31 2.26-46.34.71-9.91 3.3-60.16 3.43-62.54z" fill="#a5cae7"/><path class="cls-18" d="M178.47 305.07c.81-11.76-34.73-33.44-38.25-24.73-1.26 3.13-7.77 26.22-4.43 35.22s19.11 11.61 19.11 11.61l3.28 64.35s.95 60.02 1.81 63.61c.85 3.58 12.23 6.82 15.75-1.53 0 0-.31-47.93.1-59.48.58-16.31.27-55 2.62-89.04z"/><path class="cls-5" d="M132.88 294.99c-.78 5.99 24.97 17.59 31.24 16.33 9.19-1.84 13.9-4.62 14.72-9.27 1.41-8-.91-16.97-.38-26.24 1.21-21.35 3.77-33.67 4.83-40.17.69-4.24 4.37-12.87 2.01-16.11-3.59-4.92-17.57-17.61-17.57-17.61s-16.86-5.73-18.25-6.16c-2.54-.78-11.84-1.1-15.2 6.67-3.36 7.77 1.31 38.16 2.53 49.42 1.59 14.7-3.06 36.56-3.92 43.14z"/><path class="cls-9" d="M176.93 227.83c-7.17-3.01-3.92 7.6-4.27 11.53-.24 2.7-1.31 25.25 2.56 25.2 3.87-.05 8.87-33.72 1.7-36.73z"/><path class="cls-1" d="M144.87 175.81c.4 2.13 1.62 5.42 1.62 5.42 6.71 6.86 4.06 13.51 1.6 16.34 0 0 3.94 1.58 8.32 2.03 4.38.45 5.53-1.15 5.53-1.15l.63-4.89s4.56 2.89 7.01.48 5.44-7.18 6.14-9.52c1.53-5.14-.06-10.55 1.09-14.79 1.37-5.07-3.57-10.17-7.49-13.69-3.91-3.52-12.51-2.69-17.39-.71-4.25 1.72-7.1 5.51-7.86 8.59-.76 3.08-.17 6.76.8 11.89z"/><path d="M163.02 173.66c-1.26-.66-2.94 1.68-2.28 3.81.66 2.13 2.82 3.25 4 2.79 0 0-.46-5.94-1.72-6.6z" fill="#e396af"/><path d="M141.06 159.33c2.37-4.54 8.15-8.86 11.83-8.45 2.08-1.37 15.37-2.18 17.1 2.87 9.24 3.55 8.01 11.83 7.49 13.24-.52 1.41-6.64-3.22-6.64-3.22.08 1.53-3.89 13.32-4.12 11.67 0 0-.94.34-1.39-.18-.75-.89-2.92-3.54-3.97-3.03-1.71.83-2.78 4.12-2.23 5.93 1.23 4.03.52 12.14.52 12.14l-8.83-.51s-4.8-3.74-6.55-8.03c-1.07-2.62-9.61-10.16-3.21-22.42z" fill="#2e4362"/><path d="M164.45 196.3c-5.11 1.3-9.41 2.22-14.83-3.61 0 0-4.53 3.44-5.43 4.75 2.77 3.79 12.63 7.5 23.04 5l-2.78-6.14z" fill="#f1f1f1"/><path class="cls-5" d="M181.35 217.36c5.48 3.31 41.41 27.34 41.41 27.34s-1.16 11.05-7.65 11.65c-6.48.6-32.64-10.66-41.79-22.89-9.15-12.24 2.12-19.66 8.03-16.1z"/><path class="cls-1" d="M237.78 201.5c.11-1.28 4.44-10.16 4.44-10.16s1.33-3.77 1.97-3.48c.65.29 1.1 3.43-.6 5.21-.79.83.37 6.35-.58 6.75-1.58.68-4.82 1.95-5.23 1.68zm8.94-4.69s5.72-4.47 6.31-3.74c.58.73.77 1.41.2 2.31-1.53 1.73-5.31 3.89-6.32 3.69-1.68-.34-.19-2.26-.19-2.26z"/><path class="cls-1" d="M246.56 199.12s5.72-4.47 6.31-3.74c.58.73.77 1.41.2 2.31-1.53 1.73-5.31 3.89-6.32 3.69-1.68-.34-.19-2.26-.19-2.26z"/><path class="cls-1" d="M245.51 198.38l4.58.47 2.24-1.06s1.01 2.19-.77 3.66c-1.78 1.47-5.36 2.46-6.32 2.1-1.61-.6.26-5.17.26-5.17zm-.29-3.36c.31-1.29 8.37-5.37 8.37-5.37s4.14-3.51 5.01-2.02c.69 1.19-4.83 5.14-5.99 5.73-1.16.58-3.28 3.02-4.51 3.28-1.68.36-3.19-.33-2.88-1.62z"/><path class="cls-1" d="M238.36 200.04c-1.42 2.48-1.82 5.74-1.77 6.22.12 1.15 3.02 3.53 3.02 3.53l2.04-2.98s5.15-2.17 6.67-2.98c3.87-2.05 2.98-3.03 2.93-4.12-.17-3.37.25-4.6-2.23-6.75-1.58-1.37-9.25 4.61-10.67 7.09z"/><path class="cls-13" d="M238.72 211.85l3.32-3.52c-1.6-2.2-3.74-3.91-6.5-4.58l-2.58 3.82c5.09 3.14 1.78.85 5.76 4.27z"/><path class="cls-5" d="M208.21 248.7c.17-5.57 23.79-42.38 23.79-42.38 3.86-.97 8.57 5.71 8.57 5.71s-14.77 39.03-23.61 42.44c-8.84 3.42-8.93-.21-8.76-5.77z"/></g></g></svg>