<svg xmlns="http://www.w3.org/2000/svg" viewBox="0 0 320 1309"><defs><style>.cls-1{letter-spacing:.25em}.cls-2{font-size:8.25px}.cls-2,.cls-3,.cls-4,.cls-5{font-family:KozGoPr6N-Regular-90ms-RKSJ-H,&apos;Kozuka Gothic Pr6N&apos;}.cls-3{font-size:9.28px}.cls-17{fill:#356fa2}.cls-17,.cls-24,.cls-25{stroke-width:0}.cls-4{font-size:8.25px}.cls-27{letter-spacing:.25em}.cls-28{font-family:KozGoPr6N-Bold-90ms-RKSJ-H,&apos;Kozuka Gothic Pr6N&apos;;font-size:12.38px;font-weight:700}.cls-29{letter-spacing:.25em}.cls-24{fill:#36699d}.cls-25{fill:#fcfcfc}.cls-5{font-size:9.28px}</style></defs><path fill="#fff" stroke-width="0" d="M0-1h320v1310H0z" id="_白背景"/><g id="_協調色_赤" stroke-width="0"><path fill="#ffb8d2" d="M179.95 41.34h139.74v1236.52H179.95z"/><path d="M179.95 199.13h139.74v105.19H179.95zm-10.8 275.29H320v105.2H169.15zm0 270.22H320v105.2H169.15zm0 278.47H320v105.2H169.15z" fill="rgba(255,255,255,.6)"/><path d="M39.26 7.21h166.05v11.35H39.26zm.56 262.82h149.55v11.35H39.82zm-.56 275.94h166.05v11.35H39.26zm1.06 268.96h149.55v11.35H40.32zm-.09 277.57h43.32v11.35H40.23z" fill="#faffbb"/></g><g id="_棒グラフ"><path stroke-width="1.88" stroke="gray" fill="none" stroke-miterlimit="10" d="M40.52 197.96H320"/><path d="M40.52 178.25H320M40.52 158.54H320M40.52 138.83H320M40.52 119.12H320M40.52 99.41H320M40.52 79.71H320M40.52 60H320M40.52 41H320" stroke-width=".94" stroke="#b3b3b3" fill="none" stroke-miterlimit="10"/><path d="M297.31 58.54h9.81v140.22h-9.81zm-34.33.91h9.81v139.31h-9.81zm-35.3 1.8h9.81v137.51h-9.81zm-35.3 4.53h9.81v132.98h-9.81zm-35.3 7.24h9.81v125.75h-9.81zm-34.33 11.76h9.81v113.98h-9.81zm-34.32 16.28h9.81v97.7h-9.81zm-35.3 38.9h9.81v58.8h-9.81z" fill="#37659d" stroke-width="0"/><path stroke-width="1.87" stroke="gray" fill="none" stroke-miterlimit="10" d="M40.08 475.2H320"/><path d="M40.08 452.53H320M40.08 431.44H320M40.08 410.35H320M40.08 389.27H320M40.08 367.39H320M40.08 346.3H320M40.08 324.42H320M40.08 304.04H320" stroke-width=".94" stroke="#b3b3b3" fill="none" stroke-miterlimit="10"/><path class="cls-24" d="M297.27 312h9.82v164h-9.82zm-34.37 48.56h9.82V476h-9.82zm-35.36 39.01h9.82V476h-9.82zm-35.36 22.29H202V476h-9.82zm-35.36 19.11h9.82V476h-9.82zm-34.38 13.53h9.82V476h-9.82zm-34.37 11.95h9.82V476h-9.82zm-35.36 3.18h9.82V476h-9.82z"/><path stroke-width="1.89" stroke="gray" fill="none" stroke-miterlimit="10" d="M39.84 744.66H320"/><path d="M39.84 717.06H320m-280.16-27.6H320m-280.16-27.6H320m-280.16-27.6H320m-280.16-27.6H320m-280.16-27.6H320" stroke-width=".94" stroke="#b3b3b3" fill="none" stroke-miterlimit="10"/><path d="M297.25 578.83h9.83v166.63h-9.83zm-34.4 49.11h9.83v117.52h-9.83zm-35.39 33.81h9.83v83.72h-9.83zm-35.39 40.24h9.83v43.47h-9.83zm-35.39 21.74h9.83v21.73h-9.83zm-34.41 10.46h9.83v11.27h-9.83zm-34.4 5.64h9.83v5.63h-9.83zm-35.39 2.41h9.83v3.22h-9.83z" fill="#29699f" stroke-width="0"/><path stroke="gray" stroke-width="1.88" fill="none" stroke-miterlimit="10" d="M40.65 1022.9H320"/><path d="M40.65 999.97H320M40.65 978.65H320M40.65 957.34H320M40.65 936.02H320M40.65 913.89H320M40.65 892.57H320M40.65 870.45H320M40.65 849.84H320" stroke-width=".94" stroke="#b3b3b3" fill="none" stroke-miterlimit="10"/><path class="cls-24" d="M297.32 857.89h9.8v165.82h-9.8zm-34.31 49.1h9.8v116.72h-9.8zm-35.29 39.44h9.8v77.28h-9.8zm-35.28 22.54h9.8v54.74h-9.8zm-35.29 19.32h9.8v35.42h-9.8zm-34.31 13.69h9.8v21.73h-9.8zm-34.3 12.07h9.8v9.66h-9.8zm-35.29 3.22h9.8v6.44h-9.8z"/><path stroke-width="1.89" stroke="gray" fill="none" stroke-miterlimit="10" d="M40.06 1278.05H320"/><path d="M40.06 1239.99H320M40.06 1202.5H320m-279.94-37.26H320m-279.94-37.48H320" stroke="#b3b3b3" stroke-width=".94" fill="none" stroke-miterlimit="10"/><path fill="none" stroke-miterlimit="10" stroke="#356fa2" stroke-width="2.52" d="M57.1 1127.12l35.83 50.72 34.09 69.22 34.95 11.27 34.96 5.64 35.83 4.02 34.96 4.03 34.09 1.61"/><circle class="cls-25" cx="162.5" cy="1257.5" r="6.18"/><path class="cls-17" d="M162.5 1252.65c2.68 0 4.85 2.18 4.85 4.85s-2.18 4.85-4.85 4.85-4.85-2.18-4.85-4.85 2.18-4.85 4.85-4.85m0-2.65c-4.14 0-7.5 3.36-7.5 7.5s3.36 7.5 7.5 7.5 7.5-3.36 7.5-7.5-3.36-7.5-7.5-7.5z"/><circle class="cls-25" cx="197.5" cy="1263.5" r="6.18"/><path class="cls-17" d="M197.5 1258.65c2.68 0 4.85 2.18 4.85 4.85s-2.18 4.85-4.85 4.85-4.85-2.18-4.85-4.85 2.18-4.85 4.85-4.85m0-2.65c-4.14 0-7.5 3.36-7.5 7.5s3.36 7.5 7.5 7.5 7.5-3.36 7.5-7.5-3.36-7.5-7.5-7.5z"/><circle class="cls-25" cx="232.5" cy="1267.5" r="6.18"/><path class="cls-17" d="M232.5 1262.65c2.68 0 4.85 2.18 4.85 4.85s-2.18 4.85-4.85 4.85-4.85-2.18-4.85-4.85 2.18-4.85 4.85-4.85m0-2.65c-4.14 0-7.5 3.36-7.5 7.5s3.36 7.5 7.5 7.5 7.5-3.36 7.5-7.5-3.36-7.5-7.5-7.5z"/><circle class="cls-25" cx="267.5" cy="1271.5" r="6.18"/><path class="cls-17" d="M267.5 1266.65c2.68 0 4.85 2.18 4.85 4.85s-2.18 4.85-4.85 4.85-4.85-2.18-4.85-4.85 2.18-4.85 4.85-4.85m0-2.65c-4.14 0-7.5 3.36-7.5 7.5s3.36 7.5 7.5 7.5 7.5-3.36 7.5-7.5-3.36-7.5-7.5-7.5z"/><circle class="cls-25" cx="302.5" cy="1273.5" r="6.18"/><path class="cls-17" d="M302.5 1268.65c2.68 0 4.85 2.18 4.85 4.85s-2.18 4.85-4.85 4.85-4.85-2.18-4.85-4.85 2.18-4.85 4.85-4.85m0-2.65c-4.14 0-7.5 3.36-7.5 7.5s3.36 7.5 7.5 7.5 7.5-3.36 7.5-7.5-3.36-7.5-7.5-7.5z"/><circle class="cls-25" cx="57.5" cy="1127.5" r="6.18"/><path class="cls-17" d="M57.5 1122.65c2.68 0 4.85 2.18 4.85 4.85s-2.18 4.85-4.85 4.85-4.85-2.18-4.85-4.85 2.18-4.85 4.85-4.85m0-2.65c-4.14 0-7.5 3.36-7.5 7.5s3.36 7.5 7.5 7.5 7.5-3.36 7.5-7.5-3.36-7.5-7.5-7.5z"/><circle class="cls-25" cx="94.5" cy="1179.5" r="6.18"/><path class="cls-17" d="M94.5 1174.65c2.68 0 4.85 2.18 4.85 4.85s-2.18 4.85-4.85 4.85-4.85-2.18-4.85-4.85 2.18-4.85 4.85-4.85m0-2.65c-4.14 0-7.5 3.36-7.5 7.5s3.36 7.5 7.5 7.5 7.5-3.36 7.5-7.5-3.36-7.5-7.5-7.5z"/><circle class="cls-25" cx="126.5" cy="1247.5" r="6.18"/><path class="cls-17" d="M126.5 1242.65c2.68 0 4.85 2.18 4.85 4.85s-2.18 4.85-4.85 4.85-4.85-2.18-4.85-4.85 2.18-4.85 4.85-4.85m0-2.65c-4.14 0-7.5 3.36-7.5 7.5s3.36 7.5 7.5 7.5 7.5-3.36 7.5-7.5-3.36-7.5-7.5-7.5z"/></g><g id="_単位や数字"><text class="cls-2" transform="translate(.12 193.93)"><tspan x="0" y="0">(</tspan><tspan class="cls-29" x="4.62" y="0">行</tspan><tspan x="14.93" y="0">)</tspan></text><text class="cls-5" transform="translate(.12 182.47)"><tspan x="0" y="0">1000</tspan></text><text class="cls-5" transform="translate(.12 162.72)"><tspan x="0" y="0">2</tspan><tspan x="5.11" y="0">000</tspan></text><text class="cls-5" transform="translate(.12 142.98)"><tspan x="0" y="0">3</tspan><tspan x="5.11" y="0">000</tspan></text><text class="cls-5" transform="translate(.12 123.24)"><tspan x="0" y="0">4</tspan><tspan x="5.11" y="0">000</tspan></text><text class="cls-5" transform="translate(.12 103.49)"><tspan x="0" y="0">5</tspan><tspan x="5.11" y="0">000</tspan></text><text class="cls-5" transform="translate(.12 83.75)"><tspan x="0" y="0">6</tspan><tspan x="5.11" y="0">000</tspan></text><text class="cls-5" transform="translate(.12 64.01)"><tspan x="0" y="0">7</tspan><tspan x="5.11" y="0">000</tspan></text><text class="cls-5" transform="translate(.12 44.26)"><tspan x="0" y="0">8</tspan><tspan x="5.11" y="0">000</tspan></text><text class="cls-2" transform="translate(.12 469.31)"><tspan x="0" y="0">(</tspan><tspan class="cls-29" x="4.62" y="0">行</tspan><tspan x="14.93" y="0">)</tspan></text><text class="cls-5" transform="translate(.12 457.84)"><tspan x="0" y="0">50</tspan></text><text class="cls-5" transform="translate(.12 436.33)"><tspan x="0" y="0">1</tspan><tspan x="5.11" y="0">00</tspan></text><text class="cls-5" transform="translate(.12 414.82)"><tspan x="0" y="0">15</tspan><tspan x="10.23" y="0">0</tspan></text><text class="cls-5" transform="translate(.12 393.31)"><tspan x="0" y="0">2</tspan><tspan x="5.11" y="0">00</tspan></text><text class="cls-5" transform="translate(.12 371.79)"><tspan x="0" y="0">25</tspan><tspan x="10.23" y="0">0</tspan></text><text class="cls-5" transform="translate(.12 350.28)"><tspan x="0" y="0">3</tspan><tspan x="5.11" y="0">00</tspan></text><text class="cls-5" transform="translate(.12 328.77)"><tspan x="0" y="0">35</tspan><tspan x="10.23" y="0">0</tspan></text><text class="cls-5" transform="translate(.12 307.26)"><tspan x="0" y="0">4</tspan><tspan x="5.11" y="0">00</tspan></text><text class="cls-2" transform="translate(.12 730.25)"><tspan x="0" y="0">(</tspan><tspan class="cls-29" x="4.62" y="0">人</tspan><tspan x="14.93" y="0">)</tspan></text><text class="cls-5" transform="translate(.12 718.78)"><tspan x="0" y="0">200</tspan></text><text class="cls-5" transform="translate(.12 691.42)"><tspan x="0" y="0">400</tspan></text><text class="cls-5" transform="translate(.12 664.06)"><tspan x="0" y="0">600</tspan></text><text class="cls-5" transform="translate(.12 636.71)"><tspan x="0" y="0">80</tspan><tspan x="10.23" y="0">0</tspan></text><text class="cls-5" transform="translate(.12 609.35)"><tspan x="0" y="0">100</tspan><tspan x="15.34" y="0">0</tspan></text><text class="cls-5" transform="translate(.12 582)"><tspan x="0" y="0">12</tspan><tspan x="10.23" y="0">00</tspan></text><text class="cls-2" transform="translate(.12 1255.21)"><tspan x="0" y="0">(</tspan><tspan x="2.56" y="0">％</tspan><tspan x="10.81" y="0">)</tspan></text><text class="cls-5" transform="translate(.12 1243.74)"><tspan x="0" y="0">25</tspan></text><text class="cls-5" transform="translate(.12 1206.07)"><tspan x="0" y="0">50</tspan></text><text class="cls-5" transform="translate(.12 1168.4)"><tspan x="0" y="0">75</tspan></text><text class="cls-5" transform="translate(.12 1130.73)"><tspan x="0" y="0">1</tspan><tspan x="5.11" y="0">00</tspan></text><text class="cls-5" transform="translate(52.5 209.37)"><tspan x="0" y="0">１</tspan></text><text class="cls-5" transform="translate(87.61 209.37)"><tspan x="0" y="0">２</tspan></text><text class="cls-5" transform="translate(122.72 209.37)"><tspan x="0" y="0">３</tspan></text><text class="cls-5" transform="translate(157.83 209.37)"><tspan x="0" y="0">４</tspan></text><text class="cls-5" transform="translate(192.94 209.37)"><tspan x="0" y="0">５</tspan></text><text class="cls-5" transform="translate(228.05 209.37)"><tspan x="0" y="0">６</tspan></text><text class="cls-5" transform="translate(263.17 209.37)"><tspan x="0" y="0">７</tspan></text><text class="cls-5" transform="translate(298.28 209.37)"><tspan x="0" y="0">８</tspan></text><text class="cls-2" transform="translate(233.98 221.79)"><tspan class="cls-29" x="0" y="0">(</tspan><tspan x="4.62" y="0">メジャーバージョ</tspan><tspan class="cls-29" x="70.63" y="0">ン</tspan><tspan x="80.94" y="0">)</tspan></text><text class="cls-5" transform="translate(52.5 490.94)"><tspan x="0" y="0">１</tspan></text><text class="cls-5" transform="translate(87.61 490.94)"><tspan x="0" y="0">２</tspan></text><text class="cls-5" transform="translate(122.72 490.94)"><tspan x="0" y="0">３</tspan></text><text class="cls-5" transform="translate(157.83 490.94)"><tspan x="0" y="0">４</tspan></text><text class="cls-5" transform="translate(192.94 490.94)"><tspan x="0" y="0">５</tspan></text><text class="cls-5" transform="translate(228.05 490.94)"><tspan x="0" y="0">６</tspan></text><text class="cls-5" transform="translate(263.17 490.94)"><tspan x="0" y="0">７</tspan></text><text class="cls-5" transform="translate(298.28 490.94)"><tspan x="0" y="0">８</tspan></text><text class="cls-2" transform="translate(233.98 503.35)"><tspan class="cls-29" x="0" y="0">(</tspan><tspan x="4.62" y="0">メジャーバージョ</tspan><tspan class="cls-29" x="70.63" y="0">ン</tspan><tspan x="80.94" y="0">)</tspan></text><text class="cls-5" transform="translate(52.5 759.09)"><tspan x="0" y="0">１</tspan></text><text class="cls-5" transform="translate(87.61 759.09)"><tspan x="0" y="0">２</tspan></text><text class="cls-5" transform="translate(122.72 759.09)"><tspan x="0" y="0">３</tspan></text><text class="cls-5" transform="translate(157.83 759.09)"><tspan x="0" y="0">４</tspan></text><text class="cls-5" transform="translate(192.94 759.09)"><tspan x="0" y="0">５</tspan></text><text class="cls-5" transform="translate(228.05 759.09)"><tspan x="0" y="0">６</tspan></text><text class="cls-5" transform="translate(263.17 759.09)"><tspan x="0" y="0">７</tspan></text><text class="cls-5" transform="translate(298.28 759.09)"><tspan x="0" y="0">８</tspan></text><text class="cls-2" transform="translate(233.98 771.51)"><tspan class="cls-29" x="0" y="0">(</tspan><tspan x="4.62" y="0">メジャーバージョ</tspan><tspan class="cls-29" x="70.63" y="0">ン</tspan><tspan x="80.94" y="0">)</tspan></text><text class="cls-5" transform="translate(52.5 1294.34)"><tspan x="0" y="0">１</tspan></text><text class="cls-5" transform="translate(87.61 1294.34)"><tspan x="0" y="0">２</tspan></text><text class="cls-5" transform="translate(122.72 1294.34)"><tspan x="0" y="0">３</tspan></text><text class="cls-5" transform="translate(157.83 1294.34)"><tspan x="0" y="0">４</tspan></text><text class="cls-5" transform="translate(192.94 1294.34)"><tspan x="0" y="0">５</tspan></text><text class="cls-5" transform="translate(228.05 1294.34)"><tspan x="0" y="0">６</tspan></text><text class="cls-5" transform="translate(263.17 1294.34)"><tspan x="0" y="0">７</tspan></text><text class="cls-5" transform="translate(298.28 1294.34)"><tspan x="0" y="0">８</tspan></text><text class="cls-2" transform="translate(233.98 1306.76)"><tspan class="cls-29" x="0" y="0">(</tspan><tspan x="4.62" y="0">メジャーバージョ</tspan><tspan class="cls-29" x="70.63" y="0">ン</tspan><tspan x="80.94" y="0">)</tspan></text><text class="cls-4" transform="translate(-.29 1015.09)"><tspan class="cls-1" x="0" y="0">(行</tspan><tspan x="14.93" y="0">)</tspan></text><text class="cls-3" transform="translate(-.29 1003.62)"><tspan x="0" y="0">50</tspan></text><text class="cls-3" transform="translate(-.29 982.12)"><tspan x="0" y="0">100</tspan></text><text class="cls-3" transform="translate(-.29 960.61)"><tspan x="0" y="0">150</tspan></text><text class="cls-3" transform="translate(-.29 939.11)"><tspan x="0" y="0">200</tspan></text><text class="cls-3" transform="translate(-.29 917.6)"><tspan x="0" y="0">250</tspan></text><text class="cls-3" transform="translate(-.29 896.1)"><tspan x="0" y="0">300</tspan></text><text class="cls-3" transform="translate(-.29 874.59)"><tspan x="0" y="0">350</tspan></text><text class="cls-3" transform="translate(-.29 853.09)"><tspan x="0" y="0">400</tspan></text><text class="cls-3" transform="translate(52.1 1036.71)"><tspan x="0" y="0">１</tspan></text><text class="cls-3" transform="translate(87.26 1036.71)"><tspan x="0" y="0">２</tspan></text><text class="cls-3" transform="translate(122.42 1036.71)"><tspan x="0" y="0">３</tspan></text><text class="cls-3" transform="translate(157.58 1036.71)"><tspan x="0" y="0">４</tspan></text><text class="cls-3" transform="translate(192.75 1036.71)"><tspan x="0" y="0">５</tspan></text><text class="cls-3" transform="translate(227.91 1036.71)"><tspan x="0" y="0">６</tspan></text><text class="cls-3" transform="translate(263.07 1036.71)"><tspan x="0" y="0">７</tspan></text><text class="cls-3" transform="translate(298.24 1036.71)"><tspan x="0" y="0">８</tspan></text><text class="cls-4" transform="translate(233.92 1049.12)"><tspan class="cls-1" x="0" y="0">(</tspan><tspan x="4.62" y="0">メジャーバージョ</tspan><tspan x="70.6" y="0" letter-spacing=".25em">ン</tspan><tspan x="80.91" y="0">)</tspan></text></g><g id="_タイトル"><text class="cls-28" transform="translate(41 11.04)"><tspan x="0" y="0">I</tspan><tspan class="cls-27" x="3.69" y="0">T</tspan><tspan x="13.61" y="0">プロダクトのコードの行数</tspan></text><text class="cls-28" transform="translate(42.82 274.88)"><tspan class="cls-27" x="0" y="0">1</tspan><tspan x="10.17" y="0">行あたりのコストの変化</tspan></text><text class="cls-28" transform="translate(41.32 550.82)"><tspan x="0" y="0">エンジニアリング部門の人材</tspan></text><text class="cls-28" transform="translate(43.32 1096.32)"><tspan x="0" y="0">生産性</tspan></text><text class="cls-28" transform="translate(39.91 819.92)"><tspan class="cls-27" x="0" y="0">1</tspan><tspan x="10.17" y="0">行あたりのコストの変化</tspan></text></g></svg>