<svg xmlns="http://www.w3.org/2000/svg" viewBox="0 0 960 850"><defs><style>.cls-1{font-size:11.21px}.cls-1,.cls-2{font-family:KozGoPr6N-Regular-90ms-RKSJ-H,&apos;Kozuka Gothic Pr6N&apos;}.cls-3{letter-spacing:.25em}.cls-4{fill:#356fa2}.cls-12,.cls-4,.cls-7{stroke-width:0}.cls-7{fill:#ffb8d2}.cls-13{stroke:#356fa2;stroke-width:2.92px}.cls-13,.cls-14,.cls-15{fill:none;stroke-miterlimit:10}.cls-14{stroke:#b3b3b3;stroke-width:1.09px}.cls-2{font-size:9.97px}.cls-16{letter-spacing:.25em}.cls-17{font-family:KozGoPr6N-Bold-90ms-RKSJ-H,&apos;Kozuka Gothic Pr6N&apos;;font-size:18.75px;font-weight:700}.cls-15{stroke:gray;stroke-width:2.19px}.cls-12{fill:#fcfcfc}</style></defs><path fill="#fff" stroke-width="0" d="M0-.15h960v850H0z" id="_白背景"/><g id="_協調色_赤"><path class="cls-7" d="M509 35.85h156v191H509zm-303 256h156v520H206zm599.05 0h154.7v520h-154.7z"/><path class="cls-7" d="M960 291.85l-294.47-66.59.4-.1H512.28l.38.1L215 291.85h147l225.76-48.06L807 291.85h153z"/><path d="M200 502.85h760v107.87H200zm14.91-278H963v65.74H214.91z" fill="rgba(255,255,255,.6)" stroke-width="0"/><path d="M353.32 12.81H605v11.88H353.32zM49.95 268.29H277v11.88H49.95zm595.76 21.01h43.76v11.07h-43.76zM49.95 589.14H300v11.88H49.95zm596.76 18.06h64.11v11.07h-64.11z" fill="#faffbb" stroke-width="0"/></g><g id="_タイトル"><path class="cls-15" d="M353.61 225.51h311.52"/><path class="cls-14" d="M353.61 201.69h311.52m-311.52-23.81h311.52m-311.52-23.81h311.52m-311.52-23.82h311.52m-311.52-23.81h311.52M353.61 82.63h311.52M353.61 58.81h311.52M353.61 35.86h311.52"/><path d="M639.84 57.05h10.93v169.43h-10.93zm-38.26 1.1h10.93v168.33h-10.93zm-39.35 2.18h10.93v166.15h-10.93zm-39.35 5.47h10.93v160.68h-10.93zm-39.35 8.74h10.93v151.94h-10.93zm-38.26 14.21h10.93v137.73h-10.93zm-38.26 19.68h10.93v118.05h-10.93zm-39.35 47h10.93v71.05h-10.93z" fill="#37659d" stroke-width="0"/><text class="cls-2" transform="translate(304.8 220.74)"><tspan x="0" y="0">(</tspan><tspan class="cls-16" x="5.58" y="0">行</tspan><tspan x="18.04" y="0">)</tspan></text><text class="cls-1" transform="translate(304.8 206.89)"><tspan x="0" y="0">1000</tspan></text><text class="cls-1" transform="translate(304.8 183.03)"><tspan x="0" y="0">2</tspan><tspan x="6.18" y="0">000</tspan></text><text class="cls-1" transform="translate(304.8 159.18)"><tspan x="0" y="0">3</tspan><tspan x="6.18" y="0">000</tspan></text><text class="cls-1" transform="translate(304.8 135.32)"><tspan x="0" y="0">4</tspan><tspan x="6.18" y="0">000</tspan></text><text class="cls-1" transform="translate(304.8 111.47)"><tspan x="0" y="0">5</tspan><tspan x="6.18" y="0">000</tspan></text><text class="cls-1" transform="translate(304.8 87.62)"><tspan x="0" y="0">6</tspan><tspan x="6.18" y="0">000</tspan></text><text class="cls-1" transform="translate(304.8 63.76)"><tspan x="0" y="0">7</tspan><tspan x="6.18" y="0">000</tspan></text><text class="cls-1" transform="translate(304.8 39.91)"><tspan x="0" y="0">8</tspan><tspan x="6.18" y="0">000</tspan></text><text class="cls-1" transform="translate(366.93 239.4)"><tspan x="0" y="0">１</tspan></text><text class="cls-1" transform="translate(405.91 239.4)"><tspan x="0" y="0">２</tspan></text><text class="cls-1" transform="translate(444.9 239.4)"><tspan x="0" y="0">３</tspan></text><text class="cls-1" transform="translate(483.88 239.4)"><tspan x="0" y="0">４</tspan></text><text class="cls-1" transform="translate(522.87 239.4)"><tspan x="0" y="0">５</tspan></text><text class="cls-1" transform="translate(561.86 239.4)"><tspan x="0" y="0">６</tspan></text><text class="cls-1" transform="translate(600.84 239.4)"><tspan x="0" y="0">７</tspan></text><text class="cls-1" transform="translate(639.83 239.4)"><tspan x="0" y="0">８</tspan></text><text class="cls-2" transform="translate(564.81 252.33)"><tspan class="cls-16" x="0" y="0">(</tspan><tspan x="5.58" y="0">メジャーバージョ</tspan><tspan class="cls-16" x="85.33" y="0">ン</tspan><tspan x="97.79" y="0">)</tspan></text><text class="cls-17" transform="translate(356.13 16.35)"><tspan x="0" y="0">I</tspan><tspan class="cls-3" x="5.59" y="0">T</tspan><tspan x="20.63" y="0">プロダクトのコードの行数</tspan></text><path class="cls-15" d="M50.39 501h311.52"/><path class="cls-14" d="M50.39 473.3h311.52M50.39 447.54h311.52M50.39 421.78h311.52M50.39 396.02h311.52M50.39 369.29h311.52M50.39 343.53h311.52M50.39 316.8h311.52M50.39 291.9h311.52"/><path d="M336.62 301.63h10.93v200.35h-10.93zm-38.26 59.32h10.93v141.02h-10.93zm-39.35 47.66h10.93v93.37h-10.93zm-39.35 27.23h10.93v66.13h-10.93zm-39.35 23.34h10.93v42.79h-10.93zm-38.26 16.54h10.93v26.26h-10.93zm-38.26 14.58h10.93v11.67h-10.93zm-39.35 3.89h10.93v7.78H64.44z" fill="#36699d" stroke-width="0"/><text class="cls-2" transform="translate(2.11 491.59)"><tspan x="0" y="0">(</tspan><tspan class="cls-16" x="5.58" y="0">行</tspan><tspan x="18.04" y="0">)</tspan></text><text class="cls-1" transform="translate(2.11 477.73)"><tspan x="0" y="0">50</tspan></text><text class="cls-1" transform="translate(2.11 451.74)"><tspan x="0" y="0">1</tspan><tspan x="6.18" y="0">00</tspan></text><text class="cls-1" transform="translate(2.11 425.75)"><tspan x="0" y="0">15</tspan><tspan x="12.36" y="0">0</tspan></text><text class="cls-1" transform="translate(2.11 399.76)"><tspan x="0" y="0">2</tspan><tspan x="6.18" y="0">00</tspan></text><text class="cls-1" transform="translate(2.11 373.77)"><tspan x="0" y="0">25</tspan><tspan x="12.36" y="0">0</tspan></text><text class="cls-1" transform="translate(2.11 347.78)"><tspan x="0" y="0">3</tspan><tspan x="6.18" y="0">00</tspan></text><text class="cls-1" transform="translate(2.11 321.79)"><tspan x="0" y="0">35</tspan><tspan x="12.36" y="0">0</tspan></text><text class="cls-1" transform="translate(2.11 295.8)"><tspan x="0" y="0">4</tspan><tspan x="6.18" y="0">00</tspan></text><text class="cls-1" transform="translate(64.24 517.72)"><tspan x="0" y="0">１</tspan></text><text class="cls-1" transform="translate(103.22 517.72)"><tspan x="0" y="0">２</tspan></text><text class="cls-1" transform="translate(142.21 517.72)"><tspan x="0" y="0">３</tspan></text><text class="cls-1" transform="translate(181.19 517.72)"><tspan x="0" y="0">４</tspan></text><text class="cls-1" transform="translate(220.18 517.72)"><tspan x="0" y="0">５</tspan></text><text class="cls-1" transform="translate(259.17 517.72)"><tspan x="0" y="0">６</tspan></text><text class="cls-1" transform="translate(298.15 517.72)"><tspan x="0" y="0">７</tspan></text><text class="cls-1" transform="translate(337.13 517.72)"><tspan x="0" y="0">８</tspan></text><text class="cls-2" transform="translate(262.12 532.72)"><tspan class="cls-16" x="0" y="0">(</tspan><tspan x="5.58" y="0">メジャーバージョ</tspan><tspan class="cls-16" x="85.33" y="0">ン</tspan><tspan x="97.79" y="0">)</tspan></text><text class="cls-17" transform="translate(50.43 273.82)"><tspan class="cls-3" x="0" y="0">1</tspan><tspan x="15.42" y="0">行あたりのコストの変化</tspan></text><path class="cls-15" d="M50.09 811.99h311.53"/><path class="cls-14" d="M50.09 778.65h311.53M50.09 745.3h311.53M50.09 711.96h311.53M50.09 678.61h311.53M50.09 645.27h311.53M50.09 611.92h311.53"/><path d="M336.33 611.65h10.93v201.32h-10.93zm-38.26 59.32H309v141.99h-10.93zm-39.35 40.85h10.93v101.15h-10.93zm-39.35 48.63h10.93v52.52h-10.93zm-39.35 26.26h10.93v26.26h-10.93zm-38.26 12.64h10.93v13.62h-10.93zm-38.26 6.81h10.93v6.81H103.5zm-39.35 2.92h10.93v3.89H64.15z" fill="#29699f" stroke-width="0"/><text class="cls-2" transform="translate(2.11 794.58)"><tspan x="0" y="0">(</tspan><tspan class="cls-16" x="5.58" y="0">人</tspan><tspan x="18.04" y="0">)</tspan></text><text class="cls-1" transform="translate(2.11 780.72)"><tspan x="0" y="0">200</tspan></text><text class="cls-1" transform="translate(2.11 747.67)"><tspan x="0" y="0">400</tspan></text><text class="cls-1" transform="translate(2.11 714.62)"><tspan x="0" y="0">600</tspan></text><text class="cls-1" transform="translate(2.11 681.57)"><tspan x="0" y="0">80</tspan><tspan x="12.36" y="0">0</tspan></text><text class="cls-1" transform="translate(2.11 648.52)"><tspan x="0" y="0">100</tspan><tspan x="18.54" y="0">0</tspan></text><text class="cls-1" transform="translate(2.11 615.47)"><tspan x="0" y="0">12</tspan><tspan x="12.36" y="0">00</tspan></text><text class="cls-1" transform="translate(64.24 829.43)"><tspan x="0" y="0">１</tspan></text><text class="cls-1" transform="translate(103.22 829.43)"><tspan x="0" y="0">２</tspan></text><text class="cls-1" transform="translate(142.21 829.43)"><tspan x="0" y="0">３</tspan></text><text class="cls-1" transform="translate(181.19 829.43)"><tspan x="0" y="0">４</tspan></text><text class="cls-1" transform="translate(220.18 829.43)"><tspan x="0" y="0">５</tspan></text><text class="cls-1" transform="translate(259.17 829.43)"><tspan x="0" y="0">６</tspan></text><text class="cls-1" transform="translate(298.15 829.43)"><tspan x="0" y="0">７</tspan></text><text class="cls-1" transform="translate(337.13 829.43)"><tspan x="0" y="0">８</tspan></text><text class="cls-2" transform="translate(262.12 844.44)"><tspan class="cls-16" x="0" y="0">(</tspan><tspan x="5.58" y="0">メジャーバージョ</tspan><tspan class="cls-16" x="85.33" y="0">ン</tspan><tspan x="97.79" y="0">)</tspan></text><text class="cls-17" transform="translate(51.43 595.64)"><tspan x="0" y="0">エンジニアリング部門の人材</tspan></text><path class="cls-15" d="M645.31 501.49h311.52"/><path class="cls-14" d="M645.31 453.56h311.52m-311.52-47.24h311.52m-311.52-46.96h311.52m-311.52-48.21h311.52"/><path class="cls-13" d="M936.59 311.36l-36.96 56.41-39.73 37.93-40.3 47.65-38.34 21.4-39.32 12.64-37.38 7.78-39.31 1.95"/><path class="cls-12" d="M665.25 503.44c-3.49 0-6.32-2.84-6.32-6.32s2.84-6.32 6.32-6.32 6.32 2.84 6.32 6.32-2.84 6.32-6.32 6.32z"/><path class="cls-4" d="M665.25 492.74c2.41 0 4.38 1.96 4.38 4.38s-1.96 4.38-4.38 4.38-4.38-1.96-4.38-4.38 1.96-4.38 4.38-4.38m0-3.89c-4.57 0-8.27 3.7-8.27 8.27s3.7 8.27 8.27 8.27 8.27-3.7 8.27-8.27-3.7-8.27-8.27-8.27z"/><circle class="cls-12" cx="704.56" cy="495.17" r="6.32"/><path class="cls-4" d="M704.56 490.8c2.41 0 4.38 1.96 4.38 4.38s-1.96 4.38-4.38 4.38-4.38-1.96-4.38-4.38 1.96-4.38 4.38-4.38m0-3.89c-4.57 0-8.27 3.7-8.27 8.27s3.7 8.27 8.27 8.27 8.27-3.7 8.27-8.27-3.7-8.27-8.27-8.27z"/><path class="cls-12" d="M741.94 493.71c-3.49 0-6.32-2.84-6.32-6.32s2.84-6.32 6.32-6.32 6.32 2.84 6.32 6.32-2.84 6.32-6.32 6.32z"/><path class="cls-4" d="M741.94 483.02c2.41 0 4.38 1.96 4.38 4.38s-1.96 4.38-4.38 4.38-4.38-1.96-4.38-4.38 1.96-4.38 4.38-4.38m0-3.89c-4.57 0-8.27 3.7-8.27 8.27s3.7 8.27 8.27 8.27 8.27-3.7 8.27-8.27-3.7-8.27-8.27-8.27z"/><path class="cls-12" d="M781.26 481.07c-3.49 0-6.32-2.84-6.32-6.32s2.84-6.32 6.32-6.32 6.32 2.84 6.32 6.32-2.84 6.32-6.32 6.32z"/><path class="cls-4" d="M781.26 470.37c2.41 0 4.38 1.96 4.38 4.38s-1.96 4.38-4.38 4.38-4.38-1.96-4.38-4.38 1.96-4.38 4.38-4.38m0-3.89c-4.57 0-8.27 3.7-8.27 8.27s3.7 8.27 8.27 8.27 8.27-3.7 8.27-8.27-3.7-8.27-8.27-8.27z"/><circle class="cls-12" cx="819.6" cy="453.35" r="6.32"/><path class="cls-4" d="M819.6 448.98c2.41 0 4.38 1.96 4.38 4.38s-1.96 4.38-4.38 4.38-4.38-1.96-4.38-4.38 1.96-4.38 4.38-4.38m0-3.89c-4.57 0-8.27 3.7-8.27 8.27s3.7 8.27 8.27 8.27 8.27-3.7 8.27-8.27-3.7-8.27-8.27-8.27z"/><path class="cls-12" d="M859.9 412.02c-3.49 0-6.32-2.84-6.32-6.32s2.84-6.32 6.32-6.32 6.32 2.84 6.32 6.32-2.84 6.32-6.32 6.32z"/><path class="cls-4" d="M859.9 401.32c2.41 0 4.38 1.96 4.38 4.38s-1.96 4.38-4.38 4.38-4.38-1.96-4.38-4.38 1.96-4.38 4.38-4.38m0-3.89c-4.57 0-8.27 3.7-8.27 8.27s3.7 8.27 8.27 8.27 8.27-3.7 8.27-8.27-3.7-8.27-8.27-8.27z"/><path class="cls-12" d="M899.63 374.09c-3.49 0-6.32-2.84-6.32-6.32s2.84-6.32 6.32-6.32 6.32 2.84 6.32 6.32-2.84 6.32-6.32 6.32z"/><path class="cls-4" d="M899.63 363.39c2.41 0 4.38 1.96 4.38 4.38s-1.96 4.38-4.38 4.38-4.38-1.96-4.38-4.38 1.96-4.38 4.38-4.38m0-3.89c-4.57 0-8.27 3.7-8.27 8.27s3.7 8.27 8.27 8.27 8.27-3.7 8.27-8.27-3.7-8.27-8.27-8.27z"/><circle class="cls-12" cx="936.59" cy="311.36" r="6.32"/><path class="cls-4" d="M936.59 306.98c2.41 0 4.38 1.96 4.38 4.38s-1.96 4.38-4.38 4.38-4.38-1.96-4.38-4.38 1.96-4.38 4.38-4.38m0-3.89c-4.57 0-8.27 3.7-8.27 8.27s3.7 8.27 8.27 8.27 8.27-3.7 8.27-8.27-3.7-8.27-8.27-8.27z"/><text class="cls-2" transform="translate(597.43 471.65)"><tspan x="0" y="0">(</tspan><tspan x="5.58" y="0">万ド</tspan><tspan class="cls-16" x="25.52" y="0">ル</tspan><tspan x="37.98" y="0">)</tspan></text><text class="cls-1" transform="translate(597.43 457.79)"><tspan x="0" y="0">500</tspan></text><text class="cls-1" transform="translate(597.43 409.79)"><tspan x="0" y="0">1</tspan><tspan x="6.18" y="0">000</tspan></text><text class="cls-1" transform="translate(597.43 361.78)"><tspan x="0" y="0">15</tspan><tspan x="12.36" y="0">00</tspan></text><text class="cls-1" transform="translate(597.43 313.78)"><tspan x="0" y="0">2</tspan><tspan x="6.18" y="0">000</tspan></text><text class="cls-1" transform="translate(659.56 518.96)"><tspan x="0" y="0">１</tspan></text><text class="cls-1" transform="translate(698.54 518.96)"><tspan x="0" y="0">２</tspan></text><text class="cls-1" transform="translate(737.53 518.96)"><tspan x="0" y="0">３</tspan></text><text class="cls-1" transform="translate(776.51 518.96)"><tspan x="0" y="0">４</tspan></text><text class="cls-1" transform="translate(815.5 518.96)"><tspan x="0" y="0">５</tspan></text><text class="cls-1" transform="translate(854.48 518.96)"><tspan x="0" y="0">６</tspan></text><text class="cls-1" transform="translate(893.47 518.96)"><tspan x="0" y="0">７</tspan></text><text class="cls-1" transform="translate(932.46 518.96)"><tspan x="0" y="0">８</tspan></text><text class="cls-2" transform="translate(857.44 533.97)"><tspan class="cls-16" x="0" y="0">(</tspan><tspan x="5.58" y="0">メジャーバージョ</tspan><tspan class="cls-16" x="85.33" y="0">ン</tspan><tspan x="97.79" y="0">)</tspan></text><text class="cls-17" transform="translate(648.75 294.09)"><tspan x="0" y="0">給料</tspan></text><path class="cls-15" d="M646.78 812.21h311.53"/><path class="cls-14" d="M646.78 766.22h311.53m-311.53-45.29h311.53m-311.53-45.01h311.53m-311.53-45.3h311.53"/><path class="cls-13" d="M665.75 629.86l39.87 61.27 37.93 83.64 38.9 13.61 38.91 6.81 39.87 4.86 38.9 4.87 37.93 1.94"/><path class="cls-12" d="M665.75 636.18c-3.49 0-6.32-2.84-6.32-6.32s2.84-6.32 6.32-6.32 6.32 2.84 6.32 6.32-2.84 6.32-6.32 6.32z"/><path class="cls-4" d="M665.75 625.48c2.41 0 4.38 1.96 4.38 4.38s-1.96 4.38-4.38 4.38-4.38-1.96-4.38-4.38 1.96-4.38 4.38-4.38m0-3.89c-4.57 0-8.27 3.7-8.27 8.27s3.7 8.27 8.27 8.27 8.27-3.7 8.27-8.27-3.7-8.27-8.27-8.27z"/><circle class="cls-12" cx="705.62" cy="691.13" r="6.32"/><path class="cls-4" d="M705.62 686.75c2.41 0 4.38 1.96 4.38 4.38s-1.96 4.38-4.38 4.38-4.38-1.96-4.38-4.38 1.96-4.38 4.38-4.38m0-3.89c-4.57 0-8.27 3.7-8.27 8.27s3.7 8.27 8.27 8.27 8.27-3.7 8.27-8.27-3.7-8.27-8.27-8.27z"/><circle class="cls-12" cx="743.55" cy="774.77" r="6.32"/><path class="cls-4" d="M743.55 770.39c2.41 0 4.38 1.96 4.38 4.38s-1.96 4.38-4.38 4.38-4.38-1.96-4.38-4.38 1.96-4.38 4.38-4.38m0-3.89c-4.57 0-8.27 3.7-8.27 8.27s3.7 8.27 8.27 8.27 8.27-3.7 8.27-8.27-3.7-8.27-8.27-8.27z"/><path class="cls-12" d="M782.45 794.71c-3.49 0-6.32-2.84-6.32-6.32s2.84-6.32 6.32-6.32 6.32 2.84 6.32 6.32-2.84 6.32-6.32 6.32z"/><path class="cls-4" d="M782.45 784.01c2.41 0 4.38 1.96 4.38 4.38s-1.96 4.38-4.38 4.38-4.38-1.96-4.38-4.38 1.96-4.38 4.38-4.38m0-3.89c-4.57 0-8.27 3.7-8.27 8.27s3.7 8.27 8.27 8.27 8.27-3.7 8.27-8.27-3.7-8.27-8.27-8.27z"/><circle class="cls-12" cx="821.36" cy="795.19" r="6.32"/><path class="cls-4" d="M821.36 790.82c2.41 0 4.38 1.96 4.38 4.38s-1.96 4.38-4.38 4.38-4.38-1.96-4.38-4.38 1.96-4.38 4.38-4.38m0-3.89c-4.57 0-8.27 3.7-8.27 8.27s3.7 8.27 8.27 8.27 8.27-3.7 8.27-8.27-3.7-8.27-8.27-8.27z"/><path class="cls-12" d="M861.23 806.38c-3.49 0-6.32-2.84-6.32-6.32s2.84-6.32 6.32-6.32 6.32 2.84 6.32 6.32-2.84 6.32-6.32 6.32z"/><path class="cls-4" d="M861.23 795.68c2.41 0 4.38 1.96 4.38 4.38s-1.96 4.38-4.38 4.38-4.38-1.96-4.38-4.38 1.96-4.38 4.38-4.38m0-3.89c-4.57 0-8.27 3.7-8.27 8.27s3.7 8.27 8.27 8.27 8.27-3.7 8.27-8.27-3.7-8.27-8.27-8.27z"/><circle class="cls-12" cx="900.13" cy="804.92" r="6.32"/><path class="cls-4" d="M900.13 800.54c2.41 0 4.38 1.96 4.38 4.38s-1.96 4.38-4.38 4.38-4.38-1.96-4.38-4.38 1.96-4.38 4.38-4.38m0-3.89c-4.57 0-8.27 3.7-8.27 8.27s3.7 8.27 8.27 8.27 8.27-3.7 8.27-8.27-3.7-8.27-8.27-8.27z"/><circle class="cls-12" cx="938.06" cy="806.86" r="6.32"/><path class="cls-4" d="M938.06 802.49c2.41 0 4.38 1.96 4.38 4.38s-1.96 4.38-4.38 4.38-4.38-1.96-4.38-4.38 1.96-4.38 4.38-4.38m0-3.89c-4.57 0-8.27 3.7-8.27 8.27s3.7 8.27 8.27 8.27 8.27-3.7 8.27-8.27-3.7-8.27-8.27-8.27z"/><text class="cls-2" transform="translate(598.53 784.61)"><tspan x="0" y="0">(</tspan><tspan x="3.09" y="0">％</tspan><tspan x="13.06" y="0">)</tspan></text><text class="cls-1" transform="translate(598.53 770.76)"><tspan x="0" y="0">25</tspan></text><text class="cls-1" transform="translate(598.53 725.24)"><tspan x="0" y="0">50</tspan></text><text class="cls-1" transform="translate(598.53 679.73)"><tspan x="0" y="0">75</tspan></text><text class="cls-1" transform="translate(598.53 634.22)"><tspan x="0" y="0">1</tspan><tspan x="6.18" y="0">00</tspan></text><text class="cls-1" transform="translate(660.66 830.68)"><tspan x="0" y="0">１</tspan></text><text class="cls-1" transform="translate(699.65 830.68)"><tspan x="0" y="0">２</tspan></text><text class="cls-1" transform="translate(738.63 830.68)"><tspan x="0" y="0">３</tspan></text><text class="cls-1" transform="translate(777.62 830.68)"><tspan x="0" y="0">４</tspan></text><text class="cls-1" transform="translate(816.6 830.68)"><tspan x="0" y="0">５</tspan></text><text class="cls-1" transform="translate(855.59 830.68)"><tspan x="0" y="0">６</tspan></text><text class="cls-1" transform="translate(894.57 830.68)"><tspan x="0" y="0">７</tspan></text><text class="cls-1" transform="translate(933.56 830.68)"><tspan x="0" y="0">８</tspan></text><text class="cls-2" transform="translate(858.54 845.68)"><tspan class="cls-16" x="0" y="0">(</tspan><tspan x="5.58" y="0">メジャーバージョ</tspan><tspan class="cls-16" x="85.33" y="0">ン</tspan><tspan x="97.79" y="0">)</tspan></text><text class="cls-17" transform="translate(650.86 612.07)"><tspan x="0" y="0">生産性</tspan></text></g></svg>