<?xml version="1.0" encoding="UTF-8"?><svg xmlns="http://www.w3.org/2000/svg" viewBox="0 0 320 1309"><defs><style>.cls-1{letter-spacing:.25em;}.cls-2{font-size:8.25px;}.cls-2,.cls-3,.cls-4,.cls-5{font-family:KozGoPr6N-Regular-90ms-RKSJ-H, 'Kozuka Gothic Pr6N';}.cls-6{stroke:#356fa2;stroke-width:2.52px;}.cls-6,.cls-7,.cls-8,.cls-9,.cls-10,.cls-11,.cls-12,.cls-13,.cls-14,.cls-15,.cls-16{fill:none;stroke-miterlimit:10;}.cls-7{stroke-width:.94px;}.cls-7,.cls-8,.cls-13,.cls-14,.cls-16{stroke:#b3b3b3;}.cls-3{font-size:9.28px;}.cls-17{fill:#356fa2;}.cls-17,.cls-18,.cls-19,.cls-20,.cls-21,.cls-22,.cls-23,.cls-24,.cls-25{stroke-width:0px;}.cls-18{fill:#faffbb;}.cls-8{stroke-width:.94px;}.cls-19{fill:rgba(255,255,255,.6);}.cls-4{font-size:8.25px;}.cls-20{fill:#ffb8d2;}.cls-9{stroke-width:1.88px;}.cls-9,.cls-10,.cls-11,.cls-12,.cls-15{stroke:gray;}.cls-26{letter-spacing:.25em;}.cls-10{stroke-width:1.89px;}.cls-21{fill:#fff;}.cls-22{fill:#29699f;}.cls-27{letter-spacing:.25em;}.cls-11{stroke-width:1.87px;}.cls-12{stroke-width:1.89px;}.cls-23{fill:#37659d;}.cls-28{font-family:KozGoPr6N-Bold-90ms-RKSJ-H, 'Kozuka Gothic Pr6N';font-size:12.38px;font-weight:700;}.cls-13{stroke-width:.94px;}.cls-14{stroke-width:.94px;}.cls-29{letter-spacing:.25em;}.cls-15{stroke-width:1.88px;}.cls-16{stroke-width:.94px;}.cls-24{fill:#36699d;}.cls-25{fill:#fcfcfc;}.cls-5{font-size:9.28px;}</style></defs><g id="_白背景"><rect class="cls-21" y="-1" width="320" height="1310"/></g><g id="_協調色_赤"><rect class="cls-20" x="179.95" y="41.34" width="139.74" height="1236.52"/><rect class="cls-19" x="179.95" y="199.13" width="139.74" height="105.19"/><rect class="cls-19" x="169.15" y="474.42" width="150.85" height="105.2"/><rect class="cls-19" x="169.15" y="744.64" width="150.85" height="105.2"/><rect class="cls-19" x="169.15" y="1023.11" width="150.85" height="105.2"/><rect class="cls-18" x="39.26" y="7.21" width="166.05" height="11.35"/><rect class="cls-18" x="39.82" y="270.03" width="149.55" height="11.35"/><rect class="cls-18" x="39.26" y="545.97" width="166.05" height="11.35"/><rect class="cls-18" x="40.32" y="814.93" width="149.55" height="11.35"/><rect class="cls-18" x="40.23" y="1092.5" width="43.32" height="11.35"/></g><g id="_棒グラフ"><line class="cls-15" x1="40.52" y1="197.96" x2="320" y2="197.96"/><line class="cls-13" x1="40.52" y1="178.25" x2="320" y2="178.25"/><line class="cls-13" x1="40.52" y1="158.54" x2="320" y2="158.54"/><line class="cls-13" x1="40.52" y1="138.83" x2="320" y2="138.83"/><line class="cls-13" x1="40.52" y1="119.12" x2="320" y2="119.12"/><line class="cls-13" x1="40.52" y1="99.41" x2="320" y2="99.41"/><line class="cls-13" x1="40.52" y1="79.71" x2="320" y2="79.71"/><line class="cls-13" x1="40.52" y1="60" x2="320" y2="60"/><line class="cls-13" x1="40.52" y1="41" x2="320" y2="41"/><rect class="cls-23" x="297.31" y="58.54" width="9.81" height="140.22"/><rect class="cls-23" x="262.98" y="59.45" width="9.81" height="139.31"/><rect class="cls-23" x="227.68" y="61.25" width="9.81" height="137.51"/><rect class="cls-23" x="192.38" y="65.78" width="9.81" height="132.98"/><rect class="cls-23" x="157.08" y="73.02" width="9.81" height="125.75"/><rect class="cls-23" x="122.75" y="84.78" width="9.81" height="113.98"/><rect class="cls-23" x="88.43" y="101.06" width="9.81" height="97.7"/><rect class="cls-23" x="53.13" y="139.96" width="9.81" height="58.8"/><line class="cls-11" x1="40.08" y1="475.2" x2="320" y2="475.2"/><line class="cls-8" x1="40.08" y1="452.53" x2="320" y2="452.53"/><line class="cls-8" x1="40.08" y1="431.44" x2="320" y2="431.44"/><line class="cls-8" x1="40.08" y1="410.35" x2="320" y2="410.35"/><line class="cls-8" x1="40.08" y1="389.27" x2="320" y2="389.27"/><line class="cls-8" x1="40.08" y1="367.39" x2="320" y2="367.39"/><line class="cls-8" x1="40.08" y1="346.3" x2="320" y2="346.3"/><line class="cls-8" x1="40.08" y1="324.42" x2="320" y2="324.42"/><line class="cls-8" x1="40.08" y1="304.04" x2="320" y2="304.04"/><rect class="cls-24" x="297.27" y="312" width="9.82" height="164"/><rect class="cls-24" x="262.9" y="360.56" width="9.82" height="115.44"/><rect class="cls-24" x="227.54" y="399.57" width="9.82" height="76.43"/><rect class="cls-24" x="192.18" y="421.86" width="9.82" height="54.14"/><rect class="cls-24" x="156.82" y="440.97" width="9.82" height="35.03"/><rect class="cls-24" x="122.44" y="454.5" width="9.82" height="21.5"/><rect class="cls-24" x="88.07" y="466.45" width="9.82" height="9.55"/><rect class="cls-24" x="52.71" y="469.63" width="9.82" height="6.37"/><line class="cls-10" x1="39.84" y1="744.66" x2="320" y2="744.66"/><line class="cls-14" x1="39.84" y1="717.06" x2="320" y2="717.06"/><line class="cls-14" x1="39.84" y1="689.46" x2="320" y2="689.46"/><line class="cls-14" x1="39.84" y1="661.86" x2="320" y2="661.86"/><line class="cls-14" x1="39.84" y1="634.26" x2="320" y2="634.26"/><line class="cls-14" x1="39.84" y1="606.66" x2="320" y2="606.66"/><line class="cls-14" x1="39.84" y1="579.06" x2="320" y2="579.06"/><rect class="cls-22" x="297.25" y="578.83" width="9.83" height="166.63"/><rect class="cls-22" x="262.85" y="627.94" width="9.83" height="117.52"/><rect class="cls-22" x="227.46" y="661.75" width="9.83" height="83.72"/><rect class="cls-22" x="192.07" y="701.99" width="9.83" height="43.47"/><rect class="cls-22" x="156.68" y="723.73" width="9.83" height="21.73"/><rect class="cls-22" x="122.27" y="734.19" width="9.83" height="11.27"/><rect class="cls-22" x="87.87" y="739.83" width="9.83" height="5.63"/><rect class="cls-22" x="52.48" y="742.24" width="9.83" height="3.22"/><line class="cls-9" x1="40.65" y1="1022.9" x2="320" y2="1022.9"/><line class="cls-16" x1="40.65" y1="999.97" x2="320" y2="999.97"/><line class="cls-16" x1="40.65" y1="978.65" x2="320" y2="978.65"/><line class="cls-16" x1="40.65" y1="957.34" x2="320" y2="957.34"/><line class="cls-16" x1="40.65" y1="936.02" x2="320" y2="936.02"/><line class="cls-16" x1="40.65" y1="913.89" x2="320" y2="913.89"/><line class="cls-16" x1="40.65" y1="892.57" x2="320" y2="892.57"/><line class="cls-16" x1="40.65" y1="870.45" x2="320" y2="870.45"/><line class="cls-16" x1="40.65" y1="849.84" x2="320" y2="849.84"/><rect class="cls-24" x="297.32" y="857.89" width="9.8" height="165.82"/><rect class="cls-24" x="263.01" y="906.99" width="9.8" height="116.72"/><rect class="cls-24" x="227.72" y="946.43" width="9.8" height="77.28"/><rect class="cls-24" x="192.44" y="968.97" width="9.8" height="54.74"/><rect class="cls-24" x="157.15" y="988.29" width="9.8" height="35.42"/><rect class="cls-24" x="122.84" y="1001.98" width="9.8" height="21.73"/><rect class="cls-24" x="88.54" y="1014.05" width="9.8" height="9.66"/><rect class="cls-24" x="53.25" y="1017.27" width="9.8" height="6.44"/><line class="cls-12" x1="40.06" y1="1278.05" x2="320" y2="1278.05"/><line class="cls-7" x1="40.06" y1="1239.99" x2="320" y2="1239.99"/><line class="cls-7" x1="40.06" y1="1202.5" x2="320" y2="1202.5"/><line class="cls-7" x1="40.06" y1="1165.24" x2="320" y2="1165.24"/><line class="cls-7" x1="40.06" y1="1127.76" x2="320" y2="1127.76"/><polyline class="cls-6" points="57.1 1127.12 92.93 1177.84 127.02 1247.06 161.97 1258.33 196.93 1263.97 232.76 1267.99 267.72 1272.02 301.81 1273.63"/><circle class="cls-25" cx="162.5" cy="1257.5" r="6.18"/><path class="cls-17" d="M162.5,1252.65c2.68,0,4.85,2.18,4.85,4.85s-2.18,4.85-4.85,4.85-4.85-2.18-4.85-4.85,2.18-4.85,4.85-4.85M162.5,1250c-4.14,0-7.5,3.36-7.5,7.5s3.36,7.5,7.5,7.5,7.5-3.36,7.5-7.5-3.36-7.5-7.5-7.5h0Z"/><circle class="cls-25" cx="197.5" cy="1263.5" r="6.18"/><path class="cls-17" d="M197.5,1258.65c2.68,0,4.85,2.18,4.85,4.85s-2.18,4.85-4.85,4.85-4.85-2.18-4.85-4.85,2.18-4.85,4.85-4.85M197.5,1256c-4.14,0-7.5,3.36-7.5,7.5s3.36,7.5,7.5,7.5,7.5-3.36,7.5-7.5-3.36-7.5-7.5-7.5h0Z"/><circle class="cls-25" cx="232.5" cy="1267.5" r="6.18"/><path class="cls-17" d="M232.5,1262.65c2.68,0,4.85,2.18,4.85,4.85s-2.18,4.85-4.85,4.85-4.85-2.18-4.85-4.85,2.18-4.85,4.85-4.85M232.5,1260c-4.14,0-7.5,3.36-7.5,7.5s3.36,7.5,7.5,7.5,7.5-3.36,7.5-7.5-3.36-7.5-7.5-7.5h0Z"/><circle class="cls-25" cx="267.5" cy="1271.5" r="6.18"/><path class="cls-17" d="M267.5,1266.65c2.68,0,4.85,2.18,4.85,4.85s-2.18,4.85-4.85,4.85-4.85-2.18-4.85-4.85,2.18-4.85,4.85-4.85M267.5,1264c-4.14,0-7.5,3.36-7.5,7.5s3.36,7.5,7.5,7.5,7.5-3.36,7.5-7.5-3.36-7.5-7.5-7.5h0Z"/><circle class="cls-25" cx="302.5" cy="1273.5" r="6.18"/><path class="cls-17" d="M302.5,1268.65c2.68,0,4.85,2.18,4.85,4.85s-2.18,4.85-4.85,4.85-4.85-2.18-4.85-4.85,2.18-4.85,4.85-4.85M302.5,1266c-4.14,0-7.5,3.36-7.5,7.5s3.36,7.5,7.5,7.5,7.5-3.36,7.5-7.5-3.36-7.5-7.5-7.5h0Z"/><circle class="cls-25" cx="57.5" cy="1127.5" r="6.18"/><path class="cls-17" d="M57.5,1122.65c2.68,0,4.85,2.18,4.85,4.85s-2.18,4.85-4.85,4.85-4.85-2.18-4.85-4.85,2.18-4.85,4.85-4.85M57.5,1120c-4.14,0-7.5,3.36-7.5,7.5s3.36,7.5,7.5,7.5,7.5-3.36,7.5-7.5-3.36-7.5-7.5-7.5h0Z"/><circle class="cls-25" cx="94.5" cy="1179.5" r="6.18"/><path class="cls-17" d="M94.5,1174.65c2.68,0,4.85,2.18,4.85,4.85s-2.18,4.85-4.85,4.85-4.85-2.18-4.85-4.85,2.18-4.85,4.85-4.85M94.5,1172c-4.14,0-7.5,3.36-7.5,7.5s3.36,7.5,7.5,7.5,7.5-3.36,7.5-7.5-3.36-7.5-7.5-7.5h0Z"/><circle class="cls-25" cx="126.5" cy="1247.5" r="6.18"/><path class="cls-17" d="M126.5,1242.65c2.68,0,4.85,2.18,4.85,4.85s-2.18,4.85-4.85,4.85-4.85-2.18-4.85-4.85,2.18-4.85,4.85-4.85M126.5,1240c-4.14,0-7.5,3.36-7.5,7.5s3.36,7.5,7.5,7.5,7.5-3.36,7.5-7.5-3.36-7.5-7.5-7.5h0Z"/></g><g id="_単位や数字"><text class="cls-2" transform="translate(.12 193.93)"><tspan x="0" y="0">(</tspan><tspan class="cls-29" x="4.62" y="0">行</tspan><tspan x="14.93" y="0">)</tspan></text><text class="cls-5" transform="translate(.12 182.47)"><tspan x="0" y="0">1000</tspan></text><text class="cls-5" transform="translate(.12 162.72)"><tspan x="0" y="0">2</tspan><tspan x="5.11" y="0">000</tspan></text><text class="cls-5" transform="translate(.12 142.98)"><tspan x="0" y="0">3</tspan><tspan x="5.11" y="0">000</tspan></text><text class="cls-5" transform="translate(.12 123.24)"><tspan x="0" y="0">4</tspan><tspan x="5.11" y="0">000</tspan></text><text class="cls-5" transform="translate(.12 103.49)"><tspan x="0" y="0">5</tspan><tspan x="5.11" y="0">000</tspan></text><text class="cls-5" transform="translate(.12 83.75)"><tspan x="0" y="0">6</tspan><tspan x="5.11" y="0">000</tspan></text><text class="cls-5" transform="translate(.12 64.01)"><tspan x="0" y="0">7</tspan><tspan x="5.11" y="0">000</tspan></text><text class="cls-5" transform="translate(.12 44.26)"><tspan x="0" y="0">8</tspan><tspan x="5.11" y="0">000</tspan></text><text class="cls-2" transform="translate(.12 469.31)"><tspan x="0" y="0">(</tspan><tspan class="cls-29" x="4.62" y="0">行</tspan><tspan x="14.93" y="0">)</tspan></text><text class="cls-5" transform="translate(.12 457.84)"><tspan x="0" y="0">50</tspan></text><text class="cls-5" transform="translate(.12 436.33)"><tspan x="0" y="0">1</tspan><tspan x="5.11" y="0">00</tspan></text><text class="cls-5" transform="translate(.12 414.82)"><tspan x="0" y="0">15</tspan><tspan x="10.23" y="0">0</tspan></text><text class="cls-5" transform="translate(.12 393.31)"><tspan x="0" y="0">2</tspan><tspan x="5.11" y="0">00</tspan></text><text class="cls-5" transform="translate(.12 371.79)"><tspan x="0" y="0">25</tspan><tspan x="10.23" y="0">0</tspan></text><text class="cls-5" transform="translate(.12 350.28)"><tspan x="0" y="0">3</tspan><tspan x="5.11" y="0">00</tspan></text><text class="cls-5" transform="translate(.12 328.77)"><tspan x="0" y="0">35</tspan><tspan x="10.23" y="0">0</tspan></text><text class="cls-5" transform="translate(.12 307.26)"><tspan x="0" y="0">4</tspan><tspan x="5.11" y="0">00</tspan></text><text class="cls-2" transform="translate(.12 730.25)"><tspan x="0" y="0">(</tspan><tspan class="cls-29" x="4.62" y="0">人</tspan><tspan x="14.93" y="0">)</tspan></text><text class="cls-5" transform="translate(.12 718.78)"><tspan x="0" y="0">200</tspan></text><text class="cls-5" transform="translate(.12 691.42)"><tspan x="0" y="0">400</tspan></text><text class="cls-5" transform="translate(.12 664.06)"><tspan x="0" y="0">600</tspan></text><text class="cls-5" transform="translate(.12 636.71)"><tspan x="0" y="0">80</tspan><tspan x="10.23" y="0">0</tspan></text><text class="cls-5" transform="translate(.12 609.35)"><tspan x="0" y="0">100</tspan><tspan x="15.34" y="0">0</tspan></text><text class="cls-5" transform="translate(.12 582)"><tspan x="0" y="0">12</tspan><tspan x="10.23" y="0">00</tspan></text><text class="cls-2" transform="translate(.12 1255.21)"><tspan x="0" y="0">(</tspan><tspan x="2.56" y="0">％</tspan><tspan x="10.81" y="0">)</tspan></text><text class="cls-5" transform="translate(.12 1243.74)"><tspan x="0" y="0">25</tspan></text><text class="cls-5" transform="translate(.12 1206.07)"><tspan x="0" y="0">50</tspan></text><text class="cls-5" transform="translate(.12 1168.4)"><tspan x="0" y="0">75</tspan></text><text class="cls-5" transform="translate(.12 1130.73)"><tspan x="0" y="0">1</tspan><tspan x="5.11" y="0">00</tspan></text><text class="cls-5" transform="translate(52.5 209.37)"><tspan x="0" y="0">１</tspan></text><text class="cls-5" transform="translate(87.61 209.37)"><tspan x="0" y="0">２</tspan></text><text class="cls-5" transform="translate(122.72 209.37)"><tspan x="0" y="0">３</tspan></text><text class="cls-5" transform="translate(157.83 209.37)"><tspan x="0" y="0">４</tspan></text><text class="cls-5" transform="translate(192.94 209.37)"><tspan x="0" y="0">５</tspan></text><text class="cls-5" transform="translate(228.05 209.37)"><tspan x="0" y="0">６</tspan></text><text class="cls-5" transform="translate(263.17 209.37)"><tspan x="0" y="0">７</tspan></text><text class="cls-5" transform="translate(298.28 209.37)"><tspan x="0" y="0">８</tspan></text><text class="cls-2" transform="translate(233.98 221.79)"><tspan class="cls-29" x="0" y="0">(</tspan><tspan x="4.62" y="0">メジャーバージョ</tspan><tspan class="cls-29" x="70.63" y="0">ン</tspan><tspan x="80.94" y="0">)</tspan></text><text class="cls-5" transform="translate(52.5 490.94)"><tspan x="0" y="0">１</tspan></text><text class="cls-5" transform="translate(87.61 490.94)"><tspan x="0" y="0">２</tspan></text><text class="cls-5" transform="translate(122.72 490.94)"><tspan x="0" y="0">３</tspan></text><text class="cls-5" transform="translate(157.83 490.94)"><tspan x="0" y="0">４</tspan></text><text class="cls-5" transform="translate(192.94 490.94)"><tspan x="0" y="0">５</tspan></text><text class="cls-5" transform="translate(228.05 490.94)"><tspan x="0" y="0">６</tspan></text><text class="cls-5" transform="translate(263.17 490.94)"><tspan x="0" y="0">７</tspan></text><text class="cls-5" transform="translate(298.28 490.94)"><tspan x="0" y="0">８</tspan></text><text class="cls-2" transform="translate(233.98 503.35)"><tspan class="cls-29" x="0" y="0">(</tspan><tspan x="4.62" y="0">メジャーバージョ</tspan><tspan class="cls-29" x="70.63" y="0">ン</tspan><tspan x="80.94" y="0">)</tspan></text><text class="cls-5" transform="translate(52.5 759.09)"><tspan x="0" y="0">１</tspan></text><text class="cls-5" transform="translate(87.61 759.09)"><tspan x="0" y="0">２</tspan></text><text class="cls-5" transform="translate(122.72 759.09)"><tspan x="0" y="0">３</tspan></text><text class="cls-5" transform="translate(157.83 759.09)"><tspan x="0" y="0">４</tspan></text><text class="cls-5" transform="translate(192.94 759.09)"><tspan x="0" y="0">５</tspan></text><text class="cls-5" transform="translate(228.05 759.09)"><tspan x="0" y="0">６</tspan></text><text class="cls-5" transform="translate(263.17 759.09)"><tspan x="0" y="0">７</tspan></text><text class="cls-5" transform="translate(298.28 759.09)"><tspan x="0" y="0">８</tspan></text><text class="cls-2" transform="translate(233.98 771.51)"><tspan class="cls-29" x="0" y="0">(</tspan><tspan x="4.62" y="0">メジャーバージョ</tspan><tspan class="cls-29" x="70.63" y="0">ン</tspan><tspan x="80.94" y="0">)</tspan></text><text class="cls-5" transform="translate(52.5 1294.34)"><tspan x="0" y="0">１</tspan></text><text class="cls-5" transform="translate(87.61 1294.34)"><tspan x="0" y="0">２</tspan></text><text class="cls-5" transform="translate(122.72 1294.34)"><tspan x="0" y="0">３</tspan></text><text class="cls-5" transform="translate(157.83 1294.34)"><tspan x="0" y="0">４</tspan></text><text class="cls-5" transform="translate(192.94 1294.34)"><tspan x="0" y="0">５</tspan></text><text class="cls-5" transform="translate(228.05 1294.34)"><tspan x="0" y="0">６</tspan></text><text class="cls-5" transform="translate(263.17 1294.34)"><tspan x="0" y="0">７</tspan></text><text class="cls-5" transform="translate(298.28 1294.34)"><tspan x="0" y="0">８</tspan></text><text class="cls-2" transform="translate(233.98 1306.76)"><tspan class="cls-29" x="0" y="0">(</tspan><tspan x="4.62" y="0">メジャーバージョ</tspan><tspan class="cls-29" x="70.63" y="0">ン</tspan><tspan x="80.94" y="0">)</tspan></text><text class="cls-4" transform="translate(-.29 1015.09)"><tspan class="cls-1" x="0" y="0">(行</tspan><tspan x="14.93" y="0">)</tspan></text><text class="cls-3" transform="translate(-.29 1003.62)"><tspan x="0" y="0">50</tspan></text><text class="cls-3" transform="translate(-.29 982.12)"><tspan x="0" y="0">100</tspan></text><text class="cls-3" transform="translate(-.29 960.61)"><tspan x="0" y="0">150</tspan></text><text class="cls-3" transform="translate(-.29 939.11)"><tspan x="0" y="0">200</tspan></text><text class="cls-3" transform="translate(-.29 917.6)"><tspan x="0" y="0">250</tspan></text><text class="cls-3" transform="translate(-.29 896.1)"><tspan x="0" y="0">300</tspan></text><text class="cls-3" transform="translate(-.29 874.59)"><tspan x="0" y="0">350</tspan></text><text class="cls-3" transform="translate(-.29 853.09)"><tspan x="0" y="0">400</tspan></text><text class="cls-3" transform="translate(52.1 1036.71)"><tspan x="0" y="0">１</tspan></text><text class="cls-3" transform="translate(87.26 1036.71)"><tspan x="0" y="0">２</tspan></text><text class="cls-3" transform="translate(122.42 1036.71)"><tspan x="0" y="0">３</tspan></text><text class="cls-3" transform="translate(157.58 1036.71)"><tspan x="0" y="0">４</tspan></text><text class="cls-3" transform="translate(192.75 1036.71)"><tspan x="0" y="0">５</tspan></text><text class="cls-3" transform="translate(227.91 1036.71)"><tspan x="0" y="0">６</tspan></text><text class="cls-3" transform="translate(263.07 1036.71)"><tspan x="0" y="0">７</tspan></text><text class="cls-3" transform="translate(298.24 1036.71)"><tspan x="0" y="0">８</tspan></text><text class="cls-4" transform="translate(233.92 1049.12)"><tspan class="cls-1" x="0" y="0">(</tspan><tspan x="4.62" y="0">メジャーバージョ</tspan><tspan class="cls-26" x="70.6" y="0">ン</tspan><tspan x="80.91" y="0">)</tspan></text></g><g id="_タイトル"><text class="cls-28" transform="translate(41 11.04)"><tspan x="0" y="0">I</tspan><tspan class="cls-27" x="3.69" y="0">T</tspan><tspan x="13.61" y="0">プロダクトのコードの行数</tspan></text><text class="cls-28" transform="translate(42.82 274.88)"><tspan class="cls-27" x="0" y="0">1</tspan><tspan x="10.17" y="0">行あたりのコストの変化</tspan></text><text class="cls-28" transform="translate(41.32 550.82)"><tspan x="0" y="0">エンジニアリング部門の人材</tspan></text><text class="cls-28" transform="translate(43.32 1096.32)"><tspan x="0" y="0">生産性</tspan></text><text class="cls-28" transform="translate(39.91 819.92)"><tspan class="cls-27" x="0" y="0">1</tspan><tspan x="10.17" y="0">行あたりのコストの変化</tspan></text></g></svg>