<?xml version="1.0" encoding="UTF-8"?><svg xmlns="http://www.w3.org/2000/svg" viewBox="0 0 320 1309"><defs><style>.cls-1{font-family:KozGoPr6N-Bold-90ms-RKSJ-H, 'Kozuka Gothic Pr6N';font-size:12.38px;font-weight:700;}.cls-2{stroke-width:2.19px;}.cls-2,.cls-3,.cls-4,.cls-5,.cls-6,.cls-7,.cls-8,.cls-9,.cls-10,.cls-11,.cls-12,.cls-13{fill:none;stroke-miterlimit:10;}.cls-2,.cls-3,.cls-5,.cls-9,.cls-10{stroke:gray;}.cls-3{stroke-width:1.88px;}.cls-14{fill:#fcfcfc;}.cls-15{fill:#356fa2;}.cls-16{fill:rgba(255,255,255,.6);}.cls-17{font-size:10.04px;}.cls-17,.cls-18,.cls-19,.cls-20{font-family:KozGoPr6N-Regular-90ms-RKSJ-H, 'Kozuka Gothic Pr6N';}.cls-21{fill:#ffb8d2;}.cls-22{letter-spacing:.25em;}.cls-23{fill:#36699d;}.cls-4{stroke-width:1.09px;}.cls-4,.cls-6,.cls-7,.cls-12,.cls-13{stroke:#b3b3b3;}.cls-5{stroke-width:1.89px;}.cls-24{letter-spacing:.25em;}.cls-6{stroke-width:.94px;}.cls-25{fill:#37659d;}.cls-7{stroke-width:.94px;}.cls-8{stroke-width:2.52px;}.cls-8,.cls-11{stroke:#356fa2;}.cls-26{letter-spacing:.25em;}.cls-18{font-size:9.28px;}.cls-19{font-size:8.93px;}.cls-9{stroke-width:1.87px;}.cls-10{stroke-width:1.89px;}.cls-20{font-size:8.25px;}.cls-11{stroke-width:2.92px;}.cls-12{stroke-width:.94px;}.cls-27{fill:#29699f;}.cls-28{fill:#faffbb;}.cls-13{stroke-width:.94px;}</style></defs><g id="_協調色_x3000_赤"><rect class="cls-21" x="179.95" y="41.34" width="139.74" height="1236.52"/><rect class="cls-16" x="179.95" y="199.13" width="139.74" height="105.19"/><rect class="cls-16" x="169.15" y="474.42" width="150.85" height="105.2"/><rect class="cls-16" x="169.15" y="744.64" width="150.85" height="105.2"/><rect class="cls-16" x="169.15" y="1023.11" width="150.85" height="105.2"/><rect class="cls-28" x="39.26" y="7.21" width="166.05" height="11.35"/><rect class="cls-28" x="39.82" y="270.03" width="149.55" height="11.35"/><rect class="cls-28" x="39.26" y="545.97" width="166.05" height="11.35"/><rect class="cls-28" x="40.32" y="820.93" width="26.68" height="11.35"/><rect class="cls-28" x="40.23" y="1092.5" width="43.32" height="11.35"/></g><g id="_棒グラフ"><line class="cls-3" x1="40.52" y1="197.96" x2="320" y2="197.96"/><line class="cls-12" x1="40.52" y1="178.25" x2="320" y2="178.25"/><line class="cls-12" x1="40.52" y1="158.54" x2="320" y2="158.54"/><line class="cls-12" x1="40.52" y1="138.83" x2="320" y2="138.83"/><line class="cls-12" x1="40.52" y1="119.12" x2="320" y2="119.12"/><line class="cls-12" x1="40.52" y1="99.41" x2="320" y2="99.41"/><line class="cls-12" x1="40.52" y1="79.71" x2="320" y2="79.71"/><line class="cls-12" x1="40.52" y1="60" x2="320" y2="60"/><line class="cls-12" x1="40.52" y1="41" x2="320" y2="41"/><rect class="cls-25" x="297.31" y="58.54" width="9.81" height="140.22"/><rect class="cls-25" x="262.98" y="59.45" width="9.81" height="139.31"/><rect class="cls-25" x="227.68" y="61.25" width="9.81" height="137.51"/><rect class="cls-25" x="192.38" y="65.78" width="9.81" height="132.98"/><rect class="cls-25" x="157.08" y="73.02" width="9.81" height="125.75"/><rect class="cls-25" x="122.75" y="84.78" width="9.81" height="113.98"/><rect class="cls-25" x="88.43" y="101.06" width="9.81" height="97.7"/><rect class="cls-25" x="53.13" y="139.96" width="9.81" height="58.8"/><line class="cls-9" x1="40.08" y1="475.2" x2="320" y2="475.2"/><line class="cls-7" x1="40.08" y1="452.53" x2="320" y2="452.53"/><line class="cls-7" x1="40.08" y1="431.44" x2="320" y2="431.44"/><line class="cls-7" x1="40.08" y1="410.35" x2="320" y2="410.35"/><line class="cls-7" x1="40.08" y1="389.27" x2="320" y2="389.27"/><line class="cls-7" x1="40.08" y1="367.39" x2="320" y2="367.39"/><line class="cls-7" x1="40.08" y1="346.3" x2="320" y2="346.3"/><line class="cls-7" x1="40.08" y1="324.42" x2="320" y2="324.42"/><line class="cls-7" x1="40.08" y1="304.04" x2="320" y2="304.04"/><rect class="cls-23" x="297.27" y="312" width="9.82" height="164"/><rect class="cls-23" x="262.9" y="360.56" width="9.82" height="115.44"/><rect class="cls-23" x="227.54" y="399.57" width="9.82" height="76.43"/><rect class="cls-23" x="192.18" y="421.86" width="9.82" height="54.14"/><rect class="cls-23" x="156.82" y="440.97" width="9.82" height="35.03"/><rect class="cls-23" x="122.44" y="454.5" width="9.82" height="21.5"/><rect class="cls-23" x="88.07" y="466.45" width="9.82" height="9.55"/><rect class="cls-23" x="52.71" y="469.63" width="9.82" height="6.37"/><line class="cls-10" x1="39.84" y1="744.66" x2="320" y2="744.66"/><line class="cls-6" x1="39.84" y1="717.06" x2="320" y2="717.06"/><line class="cls-6" x1="39.84" y1="689.46" x2="320" y2="689.46"/><line class="cls-6" x1="39.84" y1="661.86" x2="320" y2="661.86"/><line class="cls-6" x1="39.84" y1="634.26" x2="320" y2="634.26"/><line class="cls-6" x1="39.84" y1="606.66" x2="320" y2="606.66"/><line class="cls-6" x1="39.84" y1="579.06" x2="320" y2="579.06"/><rect class="cls-27" x="297.25" y="578.83" width="9.83" height="166.63"/><rect class="cls-27" x="262.85" y="627.94" width="9.83" height="117.52"/><rect class="cls-27" x="227.46" y="661.75" width="9.83" height="83.72"/><rect class="cls-27" x="192.07" y="701.99" width="9.83" height="43.47"/><rect class="cls-27" x="156.68" y="723.73" width="9.83" height="21.73"/><rect class="cls-27" x="122.27" y="734.19" width="9.83" height="11.27"/><rect class="cls-27" x="87.87" y="739.83" width="9.83" height="5.63"/><rect class="cls-27" x="52.48" y="742.24" width="9.83" height="3.22"/><line class="cls-5" x1="40.06" y1="1278.05" x2="320" y2="1278.05"/><line class="cls-13" x1="40.06" y1="1239.99" x2="320" y2="1239.99"/><line class="cls-13" x1="40.06" y1="1202.5" x2="320" y2="1202.5"/><line class="cls-13" x1="40.06" y1="1165.24" x2="320" y2="1165.24"/><line class="cls-13" x1="40.06" y1="1127.76" x2="320" y2="1127.76"/><polyline class="cls-8" points="57.1 1127.12 92.93 1177.84 127.02 1247.06 161.97 1258.33 196.93 1263.97 232.76 1267.99 267.72 1272.02 301.81 1273.63"/><circle class="cls-14" cx="162.5" cy="1257.5" r="6.18"/><path class="cls-15" d="M162.5,1252.65c2.68,0,4.85,2.18,4.85,4.85s-2.18,4.85-4.85,4.85-4.85-2.18-4.85-4.85,2.18-4.85,4.85-4.85M162.5,1250c-4.14,0-7.5,3.36-7.5,7.5s3.36,7.5,7.5,7.5,7.5-3.36,7.5-7.5-3.36-7.5-7.5-7.5h0Z"/><circle class="cls-14" cx="197.5" cy="1263.5" r="6.18"/><path class="cls-15" d="M197.5,1258.65c2.68,0,4.85,2.18,4.85,4.85s-2.18,4.85-4.85,4.85-4.85-2.18-4.85-4.85,2.18-4.85,4.85-4.85M197.5,1256c-4.14,0-7.5,3.36-7.5,7.5s3.36,7.5,7.5,7.5,7.5-3.36,7.5-7.5-3.36-7.5-7.5-7.5h0Z"/><circle class="cls-14" cx="232.5" cy="1267.5" r="6.18"/><path class="cls-15" d="M232.5,1262.65c2.68,0,4.85,2.18,4.85,4.85s-2.18,4.85-4.85,4.85-4.85-2.18-4.85-4.85,2.18-4.85,4.85-4.85M232.5,1260c-4.14,0-7.5,3.36-7.5,7.5s3.36,7.5,7.5,7.5,7.5-3.36,7.5-7.5-3.36-7.5-7.5-7.5h0Z"/><circle class="cls-14" cx="267.5" cy="1271.5" r="6.18"/><path class="cls-15" d="M267.5,1266.65c2.68,0,4.85,2.18,4.85,4.85s-2.18,4.85-4.85,4.85-4.85-2.18-4.85-4.85,2.18-4.85,4.85-4.85M267.5,1264c-4.14,0-7.5,3.36-7.5,7.5s3.36,7.5,7.5,7.5,7.5-3.36,7.5-7.5-3.36-7.5-7.5-7.5h0Z"/><circle class="cls-14" cx="302.5" cy="1273.5" r="6.18"/><path class="cls-15" d="M302.5,1268.65c2.68,0,4.85,2.18,4.85,4.85s-2.18,4.85-4.85,4.85-4.85-2.18-4.85-4.85,2.18-4.85,4.85-4.85M302.5,1266c-4.14,0-7.5,3.36-7.5,7.5s3.36,7.5,7.5,7.5,7.5-3.36,7.5-7.5-3.36-7.5-7.5-7.5h0Z"/><circle class="cls-14" cx="57.5" cy="1127.5" r="6.18"/><path class="cls-15" d="M57.5,1122.65c2.68,0,4.85,2.18,4.85,4.85s-2.18,4.85-4.85,4.85-4.85-2.18-4.85-4.85,2.18-4.85,4.85-4.85M57.5,1120c-4.14,0-7.5,3.36-7.5,7.5s3.36,7.5,7.5,7.5,7.5-3.36,7.5-7.5-3.36-7.5-7.5-7.5h0Z"/><circle class="cls-14" cx="94.5" cy="1179.5" r="6.18"/><path class="cls-15" d="M94.5,1174.65c2.68,0,4.85,2.18,4.85,4.85s-2.18,4.85-4.85,4.85-4.85-2.18-4.85-4.85,2.18-4.85,4.85-4.85M94.5,1172c-4.14,0-7.5,3.36-7.5,7.5s3.36,7.5,7.5,7.5,7.5-3.36,7.5-7.5-3.36-7.5-7.5-7.5h0Z"/><circle class="cls-14" cx="126.5" cy="1247.5" r="6.18"/><path class="cls-15" d="M126.5,1242.65c2.68,0,4.85,2.18,4.85,4.85s-2.18,4.85-4.85,4.85-4.85-2.18-4.85-4.85,2.18-4.85,4.85-4.85M126.5,1240c-4.14,0-7.5,3.36-7.5,7.5s3.36,7.5,7.5,7.5,7.5-3.36,7.5-7.5-3.36-7.5-7.5-7.5h0Z"/></g><g id="_単位や数字"><text class="cls-20" transform="translate(.12 193.93)"><tspan x="0" y="0">(</tspan><tspan class="cls-22" x="4.62" y="0">行</tspan><tspan x="14.93" y="0">)</tspan></text><text class="cls-18" transform="translate(.12 182.47)"><tspan x="0" y="0">1000</tspan></text><text class="cls-18" transform="translate(.12 162.72)"><tspan x="0" y="0">2000</tspan></text><text class="cls-18" transform="translate(.12 142.98)"><tspan x="0" y="0">3000</tspan></text><text class="cls-18" transform="translate(.12 123.24)"><tspan x="0" y="0">4000</tspan></text><text class="cls-18" transform="translate(.12 103.49)"><tspan x="0" y="0">5000</tspan></text><text class="cls-18" transform="translate(.12 83.75)"><tspan x="0" y="0">6000</tspan></text><text class="cls-18" transform="translate(.12 64.01)"><tspan x="0" y="0">7000</tspan></text><text class="cls-18" transform="translate(.12 44.26)"><tspan x="0" y="0">8000</tspan></text><text class="cls-20" transform="translate(.12 469.31)"><tspan class="cls-22" x="0" y="0">(</tspan><tspan x="4.62" y="0">ド</tspan><tspan class="cls-22" x="12.87" y="0">ル</tspan><tspan x="23.18" y="0">)</tspan></text><text class="cls-18" transform="translate(.12 457.84)"><tspan x="0" y="0">50</tspan></text><text class="cls-18" transform="translate(.12 436.33)"><tspan x="0" y="0">100</tspan></text><text class="cls-18" transform="translate(.12 414.82)"><tspan x="0" y="0">150</tspan></text><text class="cls-18" transform="translate(.12 393.31)"><tspan x="0" y="0">200</tspan></text><text class="cls-18" transform="translate(.12 371.79)"><tspan x="0" y="0">250</tspan></text><text class="cls-18" transform="translate(.12 350.28)"><tspan x="0" y="0">300</tspan></text><text class="cls-18" transform="translate(.12 328.77)"><tspan x="0" y="0">350</tspan></text><text class="cls-18" transform="translate(.12 307.26)"><tspan x="0" y="0">400</tspan></text><text class="cls-20" transform="translate(.12 730.25)"><tspan class="cls-22" x="0" y="0">(人</tspan><tspan x="14.93" y="0">)</tspan></text><text class="cls-18" transform="translate(.12 718.78)"><tspan x="0" y="0">200</tspan></text><text class="cls-18" transform="translate(.12 691.42)"><tspan x="0" y="0">400</tspan></text><text class="cls-18" transform="translate(.12 664.06)"><tspan x="0" y="0">600</tspan></text><text class="cls-18" transform="translate(.12 636.71)"><tspan x="0" y="0">800</tspan></text><text class="cls-18" transform="translate(.12 609.35)"><tspan x="0" y="0">1000</tspan></text><text class="cls-18" transform="translate(.12 582)"><tspan x="0" y="0">1200</tspan></text><text class="cls-20" transform="translate(.12 1255.21)"><tspan x="0" y="0">(％)</tspan></text><text class="cls-18" transform="translate(.12 1243.74)"><tspan x="0" y="0">25</tspan></text><text class="cls-18" transform="translate(.12 1206.07)"><tspan x="0" y="0">50</tspan></text><text class="cls-18" transform="translate(.12 1168.4)"><tspan x="0" y="0">75</tspan></text><text class="cls-18" transform="translate(.12 1130.73)"><tspan x="0" y="0">100</tspan></text><text class="cls-18" transform="translate(52.5 209.37)"><tspan x="0" y="0">１</tspan></text><text class="cls-18" transform="translate(87.61 209.37)"><tspan x="0" y="0">２</tspan></text><text class="cls-18" transform="translate(122.72 209.37)"><tspan x="0" y="0">３</tspan></text><text class="cls-18" transform="translate(157.83 209.37)"><tspan x="0" y="0">４</tspan></text><text class="cls-18" transform="translate(192.94 209.37)"><tspan x="0" y="0">５</tspan></text><text class="cls-18" transform="translate(228.05 209.37)"><tspan x="0" y="0">６</tspan></text><text class="cls-18" transform="translate(263.17 209.37)"><tspan x="0" y="0">７</tspan></text><text class="cls-18" transform="translate(298.28 209.37)"><tspan x="0" y="0">８</tspan></text><text class="cls-20" transform="translate(233.98 221.79)"><tspan class="cls-22" x="0" y="0">(</tspan><tspan x="4.62" y="0">メジャーバージョ</tspan><tspan class="cls-22" x="70.63" y="0">ン</tspan><tspan x="80.94" y="0">)</tspan></text><text class="cls-18" transform="translate(52.5 490.94)"><tspan x="0" y="0">１</tspan></text><text class="cls-18" transform="translate(87.61 490.94)"><tspan x="0" y="0">２</tspan></text><text class="cls-18" transform="translate(122.72 490.94)"><tspan x="0" y="0">３</tspan></text><text class="cls-18" transform="translate(157.83 490.94)"><tspan x="0" y="0">４</tspan></text><text class="cls-18" transform="translate(192.94 490.94)"><tspan x="0" y="0">５</tspan></text><text class="cls-18" transform="translate(228.05 490.94)"><tspan x="0" y="0">６</tspan></text><text class="cls-18" transform="translate(263.17 490.94)"><tspan x="0" y="0">７</tspan></text><text class="cls-18" transform="translate(298.28 490.94)"><tspan x="0" y="0">８</tspan></text><text class="cls-20" transform="translate(233.98 503.35)"><tspan class="cls-22" x="0" y="0">(</tspan><tspan x="4.62" y="0">メジャーバージョ</tspan><tspan class="cls-22" x="70.63" y="0">ン</tspan><tspan x="80.94" y="0">)</tspan></text><text class="cls-18" transform="translate(52.5 759.09)"><tspan x="0" y="0">１</tspan></text><text class="cls-18" transform="translate(87.61 759.09)"><tspan x="0" y="0">２</tspan></text><text class="cls-18" transform="translate(122.72 759.09)"><tspan x="0" y="0">３</tspan></text><text class="cls-18" transform="translate(157.83 759.09)"><tspan x="0" y="0">４</tspan></text><text class="cls-18" transform="translate(192.94 759.09)"><tspan x="0" y="0">５</tspan></text><text class="cls-18" transform="translate(228.05 759.09)"><tspan x="0" y="0">６</tspan></text><text class="cls-18" transform="translate(263.17 759.09)"><tspan x="0" y="0">７</tspan></text><text class="cls-18" transform="translate(298.28 759.09)"><tspan x="0" y="0">８</tspan></text><text class="cls-20" transform="translate(233.98 771.51)"><tspan class="cls-22" x="0" y="0">(</tspan><tspan x="4.62" y="0">メジャーバージョ</tspan><tspan class="cls-22" x="70.63" y="0">ン</tspan><tspan x="80.94" y="0">)</tspan></text><text class="cls-18" transform="translate(52.5 1294.34)"><tspan x="0" y="0">１</tspan></text><text class="cls-18" transform="translate(87.61 1294.34)"><tspan x="0" y="0">２</tspan></text><text class="cls-18" transform="translate(122.72 1294.34)"><tspan x="0" y="0">３</tspan></text><text class="cls-18" transform="translate(157.83 1294.34)"><tspan x="0" y="0">４</tspan></text><text class="cls-18" transform="translate(192.94 1294.34)"><tspan x="0" y="0">５</tspan></text><text class="cls-18" transform="translate(228.05 1294.34)"><tspan x="0" y="0">６</tspan></text><text class="cls-18" transform="translate(263.17 1294.34)"><tspan x="0" y="0">７</tspan></text><text class="cls-18" transform="translate(298.28 1294.34)"><tspan x="0" y="0">８</tspan></text><text class="cls-20" transform="translate(233.98 1306.76)"><tspan class="cls-22" x="0" y="0">(</tspan><tspan x="4.62" y="0">メジャーバージョ</tspan><tspan class="cls-22" x="70.63" y="0">ン</tspan><tspan x="80.94" y="0">)</tspan></text></g><g id="_タイトル"><text class="cls-1" transform="translate(41 11.04)"><tspan x="0" y="0">I</tspan><tspan class="cls-22" x="3.69" y="0">T</tspan><tspan x="13.61" y="0">プロダクトのコードの行数</tspan></text><text class="cls-1" transform="translate(42.82 274.88)"><tspan class="cls-22" x="0" y="0">1</tspan><tspan x="10.17" y="0">行あたりのコストの変化</tspan></text><text class="cls-1" transform="translate(41.32 550.82)"><tspan x="0" y="0">エンジニアリング部門の人材</tspan></text><text class="cls-1" transform="translate(43.32 1096.32)"><tspan x="0" y="0">生産性</tspan></text><text class="cls-1" transform="translate(42 825.92)"><tspan x="0" y="0">給料</tspan></text><line class="cls-2" x1="42.88" y1="1021.38" x2="321.88" y2="1021.38"/><line class="cls-4" x1="42.88" y1="978.45" x2="321.88" y2="978.45"/><line class="cls-4" x1="42.88" y1="936.14" x2="321.88" y2="936.14"/><line class="cls-4" x1="42.88" y1="894.09" x2="321.88" y2="894.09"/><line class="cls-4" x1="42.88" y1="850.91" x2="321.88" y2="850.91"/><polyline class="cls-11" points="303.75 851.1 270.65 901.61 235.07 935.58 198.98 978.26 164.64 997.43 129.42 1008.75 95.95 1015.72 60.74 1017.46"/><path class="cls-14" d="M60.74,1022.92c-3.01,0-5.46-2.45-5.46-5.46s2.45-5.46,5.46-5.46,5.46,2.45,5.46,5.46-2.45,5.46-5.46,5.46Z"/><path class="cls-15" d="M60.74,1013.95c1.94,0,3.51,1.58,3.51,3.51s-1.58,3.51-3.51,3.51-3.51-1.58-3.51-3.51,1.58-3.51,3.51-3.51M60.74,1010.06c-4.09,0-7.4,3.31-7.4,7.4s3.31,7.4,7.4,7.4,7.4-3.31,7.4-7.4-3.31-7.4-7.4-7.4h0Z"/><path class="cls-14" d="M95.95,1021.18c-3.01,0-5.46-2.45-5.46-5.46s2.45-5.46,5.46-5.46,5.46,2.45,5.46,5.46-2.45,5.46-5.46,5.46Z"/><path class="cls-15" d="M95.95,1012.2c1.94,0,3.51,1.58,3.51,3.51s-1.58,3.51-3.51,3.51-3.51-1.58-3.51-3.51,1.58-3.51,3.51-3.51M95.95,1008.31c-4.09,0-7.4,3.31-7.4,7.4s3.31,7.4,7.4,7.4,7.4-3.31,7.4-7.4-3.31-7.4-7.4-7.4h0Z"/><circle class="cls-14" cx="129.42" cy="1008.75" r="5.46"/><path class="cls-15" d="M129.42,1005.24c1.94,0,3.51,1.58,3.51,3.51s-1.58,3.51-3.51,3.51-3.51-1.58-3.51-3.51,1.58-3.51,3.51-3.51M129.42,1001.35c-4.09,0-7.4,3.31-7.4,7.4s3.31,7.4,7.4,7.4,7.4-3.31,7.4-7.4-3.31-7.4-7.4-7.4h0Z"/><path class="cls-14" d="M164.64,1002.88c-3.01,0-5.46-2.45-5.46-5.46s2.45-5.46,5.46-5.46,5.46,2.45,5.46,5.46-2.45,5.46-5.46,5.46Z"/><path class="cls-15" d="M164.64,993.91c1.94,0,3.51,1.58,3.51,3.51s-1.58,3.51-3.51,3.51-3.51-1.58-3.51-3.51,1.58-3.51,3.51-3.51M164.64,990.02c-4.09,0-7.4,3.31-7.4,7.4s3.31,7.4,7.4,7.4,7.4-3.31,7.4-7.4-3.31-7.4-7.4-7.4h0Z"/><path class="cls-14" d="M198.98,983.72c-3.01,0-5.46-2.45-5.46-5.46s2.45-5.46,5.46-5.46,5.46,2.45,5.46,5.46-2.45,5.46-5.46,5.46Z"/><path class="cls-15" d="M198.98,974.75c1.94,0,3.51,1.58,3.51,3.51s-1.58,3.51-3.51,3.51-3.51-1.58-3.51-3.51,1.58-3.51,3.51-3.51M198.98,970.86c-4.09,0-7.4,3.31-7.4,7.4s3.31,7.4,7.4,7.4,7.4-3.31,7.4-7.4-3.31-7.4-7.4-7.4h0Z"/><path class="cls-14" d="M235.07,941.04c-3.01,0-5.46-2.45-5.46-5.46s2.45-5.46,5.46-5.46,5.46,2.45,5.46,5.46-2.45,5.46-5.46,5.46Z"/><path class="cls-15" d="M235.07,932.07c1.94,0,3.51,1.58,3.51,3.51s-1.58,3.51-3.51,3.51-3.51-1.58-3.51-3.51,1.58-3.51,3.51-3.51M235.07,928.18c-4.09,0-7.4,3.31-7.4,7.4s3.31,7.4,7.4,7.4,7.4-3.31,7.4-7.4-3.31-7.4-7.4-7.4h0Z"/><path class="cls-14" d="M270.65,907.07c-3.01,0-5.46-2.45-5.46-5.46s2.45-5.46,5.46-5.46,5.46,2.45,5.46,5.46-2.45,5.46-5.46,5.46Z"/><path class="cls-15" d="M270.65,898.1c1.94,0,3.51,1.58,3.51,3.51s-1.58,3.51-3.51,3.51-3.51-1.58-3.51-3.51,1.58-3.51,3.51-3.51M270.65,894.21c-4.09,0-7.4,3.31-7.4,7.4s3.31,7.4,7.4,7.4,7.4-3.31,7.4-7.4-3.31-7.4-7.4-7.4h0Z"/><path class="cls-14" d="M303.75,856.55c-3.01,0-5.46-2.45-5.46-5.46s2.45-5.46,5.46-5.46,5.46,2.45,5.46,5.46-2.45,5.46-5.46,5.46Z"/><path class="cls-15" d="M303.75,847.58c1.94,0,3.51,1.58,3.51,3.51s-1.58,3.51-3.51,3.51-3.51-1.58-3.51-3.51,1.58-3.51,3.51-3.51M303.75,843.69c-4.09,0-7.4,3.31-7.4,7.4s3.31,7.4,7.4,7.4,7.4-3.31,7.4-7.4-3.31-7.4-7.4-7.4h0Z"/><text class="cls-19" transform="translate(0 994.65)"><tspan class="cls-26" x="0" y="0">(</tspan><tspan x="5" y="0">万ド</tspan><tspan class="cls-24" x="22.86" y="0">ル</tspan><tspan x="34.01" y="0">)</tspan></text><text class="cls-17" transform="translate(0 982.24)"><tspan x="0" y="0">500</tspan></text><text class="cls-17" transform="translate(0 939.25)"><tspan x="0" y="0">1000</tspan></text><text class="cls-17" transform="translate(0 896.25)"><tspan x="0" y="0">1500</tspan></text><text class="cls-17" transform="translate(0 853.26)"><tspan x="0" y="0">2000</tspan></text><text class="cls-17" transform="translate(55.65 1037.02)"><tspan x="0" y="0">１</tspan></text><text class="cls-17" transform="translate(90.56 1037.02)"><tspan x="0" y="0">２</tspan></text><text class="cls-17" transform="translate(125.48 1037.02)"><tspan x="0" y="0">３</tspan></text><text class="cls-17" transform="translate(160.39 1037.02)"><tspan x="0" y="0">４</tspan></text><text class="cls-17" transform="translate(195.31 1037.02)"><tspan x="0" y="0">５</tspan></text><text class="cls-17" transform="translate(230.22 1037.02)"><tspan x="0" y="0">６</tspan></text><text class="cls-17" transform="translate(265.14 1037.02)"><tspan x="0" y="0">７</tspan></text><text class="cls-17" transform="translate(300.05 1037.02)"><tspan x="0" y="0">８</tspan></text><text class="cls-19" transform="translate(232.87 1050.46)"><tspan class="cls-26" x="0" y="0">(</tspan><tspan x="5" y="0">メジャーバージョ</tspan><tspan class="cls-24" x="76.42" y="0">ン</tspan><tspan x="87.58" y="0">)</tspan></text></g></svg>