<?xml version="1.0" encoding="UTF-8"?><svg xmlns="http://www.w3.org/2000/svg" viewBox="0 0 960 850"><defs><style>.cls-1{stroke:gray;stroke-width:2.19px;}.cls-1,.cls-2,.cls-3{fill:none;stroke-miterlimit:10;}.cls-4{letter-spacing:.25em;}.cls-5{font-size:9.97px;}.cls-5,.cls-6{font-family:KozGoPr6N-Regular-90ms-RKSJ-H, 'Kozuka Gothic Pr6N';}.cls-7{fill:#fcfcfc;}.cls-8{fill:#356fa2;}.cls-9{fill:#ffb8d2;}.cls-10{letter-spacing:.25em;}.cls-11{fill:#36699d;}.cls-2{stroke:#b3b3b3;stroke-width:1.09px;}.cls-12{fill:#37659d;}.cls-13{font-family:KozGoPr6N-Bold-90ms-RKSJ-H, 'Kozuka Gothic Pr6N';font-size:18.75px;font-weight:700;}.cls-6{font-size:11.21px;}.cls-3{stroke:#356fa2;stroke-width:2.92px;}.cls-14{fill:#29699f;}.cls-15{fill:#faffbb;}</style></defs><g id="_協調色_x3000_赤"><rect class="cls-9" x="509" y="35.85" width="156" height="191"/><rect class="cls-9" x="206" y="291.85" width="156" height="520"/><rect class="cls-9" x="805.05" y="291.85" width="154.7" height="520"/><polygon class="cls-9" points="960 291.85 665.53 225.26 665.93 225.16 665.15 225.16 513.06 225.16 512.28 225.16 512.66 225.26 215 291.85 362 291.85 587.76 243.79 807 291.85 960 291.85"/><rect class="cls-15" x="353.32" y="12.81" width="251.68" height="11.88"/><rect class="cls-15" x="49.95" y="268.29" width="227.05" height="11.88"/><rect class="cls-15" x="645.71" y="289.3" width="43.76" height="11.07"/><rect class="cls-15" x="49.95" y="589.14" width="250.05" height="11.88"/><rect class="cls-15" x="646.71" y="607.2" width="64.11" height="11.07"/></g><g id="_タイトル"><line class="cls-1" x1="353.61" y1="225.51" x2="665.13" y2="225.51"/><line class="cls-2" x1="353.61" y1="201.69" x2="665.13" y2="201.69"/><line class="cls-2" x1="353.61" y1="177.88" x2="665.13" y2="177.88"/><line class="cls-2" x1="353.61" y1="154.07" x2="665.13" y2="154.07"/><line class="cls-2" x1="353.61" y1="130.25" x2="665.13" y2="130.25"/><line class="cls-2" x1="353.61" y1="106.44" x2="665.13" y2="106.44"/><line class="cls-2" x1="353.61" y1="82.63" x2="665.13" y2="82.63"/><line class="cls-2" x1="353.61" y1="58.81" x2="665.13" y2="58.81"/><line class="cls-2" x1="353.61" y1="35.86" x2="665.13" y2="35.86"/><rect class="cls-12" x="639.84" y="57.05" width="10.93" height="169.43"/><rect class="cls-12" x="601.58" y="58.15" width="10.93" height="168.33"/><rect class="cls-12" x="562.23" y="60.33" width="10.93" height="166.15"/><rect class="cls-12" x="522.88" y="65.8" width="10.93" height="160.68"/><rect class="cls-12" x="483.53" y="74.54" width="10.93" height="151.94"/><rect class="cls-12" x="445.27" y="88.75" width="10.93" height="137.73"/><rect class="cls-12" x="407.01" y="108.43" width="10.93" height="118.05"/><rect class="cls-12" x="367.66" y="155.43" width="10.93" height="71.05"/><text class="cls-5" transform="translate(304.8 220.74)"><tspan class="cls-4" x="0" y="0">(行</tspan><tspan x="18.04" y="0">)</tspan></text><text class="cls-6" transform="translate(304.8 206.89)"><tspan x="0" y="0">1000</tspan></text><text class="cls-6" transform="translate(304.8 183.03)"><tspan x="0" y="0">2000</tspan></text><text class="cls-6" transform="translate(304.8 159.18)"><tspan x="0" y="0">3000</tspan></text><text class="cls-6" transform="translate(304.8 135.32)"><tspan x="0" y="0">4000</tspan></text><text class="cls-6" transform="translate(304.8 111.47)"><tspan x="0" y="0">5000</tspan></text><text class="cls-6" transform="translate(304.8 87.62)"><tspan x="0" y="0">6000</tspan></text><text class="cls-6" transform="translate(304.8 63.76)"><tspan x="0" y="0">7000</tspan></text><text class="cls-6" transform="translate(304.8 39.91)"><tspan x="0" y="0">8000</tspan></text><text class="cls-6" transform="translate(366.93 239.4)"><tspan x="0" y="0">１</tspan></text><text class="cls-6" transform="translate(405.91 239.4)"><tspan x="0" y="0">２</tspan></text><text class="cls-6" transform="translate(444.9 239.4)"><tspan x="0" y="0">３</tspan></text><text class="cls-6" transform="translate(483.88 239.4)"><tspan x="0" y="0">４</tspan></text><text class="cls-6" transform="translate(522.87 239.4)"><tspan x="0" y="0">５</tspan></text><text class="cls-6" transform="translate(561.86 239.4)"><tspan x="0" y="0">６</tspan></text><text class="cls-6" transform="translate(600.84 239.4)"><tspan x="0" y="0">７</tspan></text><text class="cls-6" transform="translate(639.83 239.4)"><tspan x="0" y="0">８</tspan></text><text class="cls-5" transform="translate(564.81 252.33)"><tspan class="cls-4" x="0" y="0">(</tspan><tspan x="5.58" y="0">メジャーバージョ</tspan><tspan class="cls-4" x="85.33" y="0">ン</tspan><tspan x="97.79" y="0">)</tspan></text><text class="cls-13" transform="translate(356.13 16.35)"><tspan x="0" y="0">I</tspan><tspan class="cls-10" x="5.59" y="0">T</tspan><tspan x="20.63" y="0">プロダクトのコードの行数</tspan></text><line class="cls-1" x1="50.39" y1="501" x2="361.91" y2="501"/><line class="cls-2" x1="50.39" y1="473.3" x2="361.91" y2="473.3"/><line class="cls-2" x1="50.39" y1="447.54" x2="361.91" y2="447.54"/><line class="cls-2" x1="50.39" y1="421.78" x2="361.91" y2="421.78"/><line class="cls-2" x1="50.39" y1="396.02" x2="361.91" y2="396.02"/><line class="cls-2" x1="50.39" y1="369.29" x2="361.91" y2="369.29"/><line class="cls-2" x1="50.39" y1="343.53" x2="361.91" y2="343.53"/><line class="cls-2" x1="50.39" y1="316.8" x2="361.91" y2="316.8"/><line class="cls-2" x1="50.39" y1="291.9" x2="361.91" y2="291.9"/><rect class="cls-11" x="336.62" y="301.63" width="10.93" height="200.35"/><rect class="cls-11" x="298.36" y="360.95" width="10.93" height="141.02"/><rect class="cls-11" x="259.01" y="408.61" width="10.93" height="93.37"/><rect class="cls-11" x="219.66" y="435.84" width="10.93" height="66.13"/><rect class="cls-11" x="180.31" y="459.18" width="10.93" height="42.79"/><rect class="cls-11" x="142.05" y="475.72" width="10.93" height="26.26"/><rect class="cls-11" x="103.79" y="490.3" width="10.93" height="11.67"/><rect class="cls-11" x="64.44" y="494.19" width="10.93" height="7.78"/><text class="cls-5" transform="translate(2.11 491.59)"><tspan class="cls-4" x="0" y="0">(</tspan><tspan x="5.58" y="0">ド</tspan><tspan class="cls-4" x="15.55" y="0">ル</tspan><tspan x="28.01" y="0">)</tspan></text><text class="cls-6" transform="translate(2.11 477.73)"><tspan x="0" y="0">50</tspan></text><text class="cls-6" transform="translate(2.11 451.74)"><tspan x="0" y="0">100</tspan></text><text class="cls-6" transform="translate(2.11 425.75)"><tspan x="0" y="0">150</tspan></text><text class="cls-6" transform="translate(2.11 399.76)"><tspan x="0" y="0">200</tspan></text><text class="cls-6" transform="translate(2.11 373.77)"><tspan x="0" y="0">250</tspan></text><text class="cls-6" transform="translate(2.11 347.78)"><tspan x="0" y="0">300</tspan></text><text class="cls-6" transform="translate(2.11 321.79)"><tspan x="0" y="0">350</tspan></text><text class="cls-6" transform="translate(2.11 295.8)"><tspan x="0" y="0">400</tspan></text><text class="cls-6" transform="translate(64.24 517.72)"><tspan x="0" y="0">１</tspan></text><text class="cls-6" transform="translate(103.22 517.72)"><tspan x="0" y="0">２</tspan></text><text class="cls-6" transform="translate(142.21 517.72)"><tspan x="0" y="0">３</tspan></text><text class="cls-6" transform="translate(181.19 517.72)"><tspan x="0" y="0">４</tspan></text><text class="cls-6" transform="translate(220.18 517.72)"><tspan x="0" y="0">５</tspan></text><text class="cls-6" transform="translate(259.17 517.72)"><tspan x="0" y="0">６</tspan></text><text class="cls-6" transform="translate(298.15 517.72)"><tspan x="0" y="0">７</tspan></text><text class="cls-6" transform="translate(337.13 517.72)"><tspan x="0" y="0">８</tspan></text><text class="cls-5" transform="translate(262.12 532.72)"><tspan class="cls-4" x="0" y="0">(</tspan><tspan x="5.58" y="0">メジャーバージョ</tspan><tspan class="cls-4" x="85.33" y="0">ン</tspan><tspan x="97.79" y="0">)</tspan></text><text class="cls-13" transform="translate(50.43 273.82)"><tspan class="cls-10" x="0" y="0">1</tspan><tspan x="15.42" y="0">行あたりのコストの変化</tspan></text><line class="cls-1" x1="50.09" y1="811.99" x2="361.62" y2="811.99"/><line class="cls-2" x1="50.09" y1="778.65" x2="361.62" y2="778.65"/><line class="cls-2" x1="50.09" y1="745.3" x2="361.62" y2="745.3"/><line class="cls-2" x1="50.09" y1="711.96" x2="361.62" y2="711.96"/><line class="cls-2" x1="50.09" y1="678.61" x2="361.62" y2="678.61"/><line class="cls-2" x1="50.09" y1="645.27" x2="361.62" y2="645.27"/><line class="cls-2" x1="50.09" y1="611.92" x2="361.62" y2="611.92"/><rect class="cls-14" x="336.33" y="611.65" width="10.93" height="201.32"/><rect class="cls-14" x="298.07" y="670.97" width="10.93" height="141.99"/><rect class="cls-14" x="258.72" y="711.82" width="10.93" height="101.15"/><rect class="cls-14" x="219.37" y="760.45" width="10.93" height="52.52"/><rect class="cls-14" x="180.02" y="786.71" width="10.93" height="26.26"/><rect class="cls-14" x="141.76" y="799.35" width="10.93" height="13.62"/><rect class="cls-14" x="103.5" y="806.16" width="10.93" height="6.81"/><rect class="cls-14" x="64.15" y="809.08" width="10.93" height="3.89"/><text class="cls-5" transform="translate(2.11 794.58)"><tspan class="cls-4" x="0" y="0">(人</tspan><tspan x="18.04" y="0">)</tspan></text><text class="cls-6" transform="translate(2.11 780.72)"><tspan x="0" y="0">200</tspan></text><text class="cls-6" transform="translate(2.11 747.67)"><tspan x="0" y="0">400</tspan></text><text class="cls-6" transform="translate(2.11 714.62)"><tspan x="0" y="0">600</tspan></text><text class="cls-6" transform="translate(2.11 681.57)"><tspan x="0" y="0">800</tspan></text><text class="cls-6" transform="translate(2.11 648.52)"><tspan x="0" y="0">1000</tspan></text><text class="cls-6" transform="translate(2.11 615.47)"><tspan x="0" y="0">1200</tspan></text><text class="cls-6" transform="translate(64.24 829.43)"><tspan x="0" y="0">１</tspan></text><text class="cls-6" transform="translate(103.22 829.43)"><tspan x="0" y="0">２</tspan></text><text class="cls-6" transform="translate(142.21 829.43)"><tspan x="0" y="0">３</tspan></text><text class="cls-6" transform="translate(181.19 829.43)"><tspan x="0" y="0">４</tspan></text><text class="cls-6" transform="translate(220.18 829.43)"><tspan x="0" y="0">５</tspan></text><text class="cls-6" transform="translate(259.17 829.43)"><tspan x="0" y="0">６</tspan></text><text class="cls-6" transform="translate(298.15 829.43)"><tspan x="0" y="0">７</tspan></text><text class="cls-6" transform="translate(337.13 829.43)"><tspan x="0" y="0">８</tspan></text><text class="cls-5" transform="translate(262.12 844.44)"><tspan class="cls-4" x="0" y="0">(</tspan><tspan x="5.58" y="0">メジャーバージョ</tspan><tspan class="cls-4" x="85.33" y="0">ン</tspan><tspan x="97.79" y="0">)</tspan></text><text class="cls-13" transform="translate(51.43 595.64)"><tspan x="0" y="0">エンジニアリング部門の人材</tspan></text><line class="cls-1" x1="645.31" y1="501.49" x2="956.83" y2="501.49"/><line class="cls-2" x1="645.31" y1="453.56" x2="956.83" y2="453.56"/><line class="cls-2" x1="645.31" y1="406.32" x2="956.83" y2="406.32"/><line class="cls-2" x1="645.31" y1="359.36" x2="956.83" y2="359.36"/><line class="cls-2" x1="645.31" y1="311.15" x2="956.83" y2="311.15"/><polyline class="cls-3" points="936.59 311.36 899.63 367.77 859.9 405.7 819.6 453.35 781.26 474.75 741.94 487.39 704.56 495.17 665.25 497.12"/><path class="cls-7" d="M665.25,503.44c-3.49,0-6.32-2.84-6.32-6.32s2.84-6.32,6.32-6.32,6.32,2.84,6.32,6.32-2.84,6.32-6.32,6.32Z"/><path class="cls-8" d="M665.25,492.74c2.41,0,4.38,1.96,4.38,4.38s-1.96,4.38-4.38,4.38-4.38-1.96-4.38-4.38,1.96-4.38,4.38-4.38M665.25,488.85c-4.57,0-8.27,3.7-8.27,8.27s3.7,8.27,8.27,8.27,8.27-3.7,8.27-8.27-3.7-8.27-8.27-8.27h0Z"/><circle class="cls-7" cx="704.56" cy="495.17" r="6.32"/><path class="cls-8" d="M704.56,490.8c2.41,0,4.38,1.96,4.38,4.38s-1.96,4.38-4.38,4.38-4.38-1.96-4.38-4.38,1.96-4.38,4.38-4.38M704.56,486.91c-4.57,0-8.27,3.7-8.27,8.27s3.7,8.27,8.27,8.27,8.27-3.7,8.27-8.27-3.7-8.27-8.27-8.27h0Z"/><path class="cls-7" d="M741.94,493.71c-3.49,0-6.32-2.84-6.32-6.32s2.84-6.32,6.32-6.32,6.32,2.84,6.32,6.32-2.84,6.32-6.32,6.32Z"/><path class="cls-8" d="M741.94,483.02c2.41,0,4.38,1.96,4.38,4.38s-1.96,4.38-4.38,4.38-4.38-1.96-4.38-4.38,1.96-4.38,4.38-4.38M741.94,479.13c-4.57,0-8.27,3.7-8.27,8.27s3.7,8.27,8.27,8.27,8.27-3.7,8.27-8.27-3.7-8.27-8.27-8.27h0Z"/><path class="cls-7" d="M781.26,481.07c-3.49,0-6.32-2.84-6.32-6.32s2.84-6.32,6.32-6.32,6.32,2.84,6.32,6.32-2.84,6.32-6.32,6.32Z"/><path class="cls-8" d="M781.26,470.37c2.41,0,4.38,1.96,4.38,4.38s-1.96,4.38-4.38,4.38-4.38-1.96-4.38-4.38,1.96-4.38,4.38-4.38M781.26,466.48c-4.57,0-8.27,3.7-8.27,8.27s3.7,8.27,8.27,8.27,8.27-3.7,8.27-8.27-3.7-8.27-8.27-8.27h0Z"/><circle class="cls-7" cx="819.6" cy="453.35" r="6.32"/><path class="cls-8" d="M819.6,448.98c2.41,0,4.38,1.96,4.38,4.38s-1.96,4.38-4.38,4.38-4.38-1.96-4.38-4.38,1.96-4.38,4.38-4.38M819.6,445.09c-4.57,0-8.27,3.7-8.27,8.27s3.7,8.27,8.27,8.27,8.27-3.7,8.27-8.27-3.7-8.27-8.27-8.27h0Z"/><path class="cls-7" d="M859.9,412.02c-3.49,0-6.32-2.84-6.32-6.32s2.84-6.32,6.32-6.32,6.32,2.84,6.32,6.32-2.84,6.32-6.32,6.32Z"/><path class="cls-8" d="M859.9,401.32c2.41,0,4.38,1.96,4.38,4.38s-1.96,4.38-4.38,4.38-4.38-1.96-4.38-4.38,1.96-4.38,4.38-4.38M859.9,397.43c-4.57,0-8.27,3.7-8.27,8.27s3.7,8.27,8.27,8.27,8.27-3.7,8.27-8.27-3.7-8.27-8.27-8.27h0Z"/><path class="cls-7" d="M899.63,374.09c-3.49,0-6.32-2.84-6.32-6.32s2.84-6.32,6.32-6.32,6.32,2.84,6.32,6.32-2.84,6.32-6.32,6.32Z"/><path class="cls-8" d="M899.63,363.39c2.41,0,4.38,1.96,4.38,4.38s-1.96,4.38-4.38,4.38-4.38-1.96-4.38-4.38,1.96-4.38,4.38-4.38M899.63,359.5c-4.57,0-8.27,3.7-8.27,8.27s3.7,8.27,8.27,8.27,8.27-3.7,8.27-8.27-3.7-8.27-8.27-8.27h0Z"/><circle class="cls-7" cx="936.59" cy="311.36" r="6.32"/><path class="cls-8" d="M936.59,306.98c2.41,0,4.38,1.96,4.38,4.38s-1.96,4.38-4.38,4.38-4.38-1.96-4.38-4.38,1.96-4.38,4.38-4.38M936.59,303.09c-4.57,0-8.27,3.7-8.27,8.27s3.7,8.27,8.27,8.27,8.27-3.7,8.27-8.27-3.7-8.27-8.27-8.27h0Z"/><text class="cls-5" transform="translate(597.43 471.65)"><tspan class="cls-4" x="0" y="0">(</tspan><tspan x="5.58" y="0">万ド</tspan><tspan class="cls-4" x="25.52" y="0">ル</tspan><tspan x="37.98" y="0">)</tspan></text><text class="cls-6" transform="translate(597.43 457.79)"><tspan x="0" y="0">500</tspan></text><text class="cls-6" transform="translate(597.43 409.79)"><tspan x="0" y="0">1000</tspan></text><text class="cls-6" transform="translate(597.43 361.78)"><tspan x="0" y="0">1500</tspan></text><text class="cls-6" transform="translate(597.43 313.78)"><tspan x="0" y="0">2000</tspan></text><text class="cls-6" transform="translate(659.56 518.96)"><tspan x="0" y="0">１</tspan></text><text class="cls-6" transform="translate(698.54 518.96)"><tspan x="0" y="0">２</tspan></text><text class="cls-6" transform="translate(737.53 518.96)"><tspan x="0" y="0">３</tspan></text><text class="cls-6" transform="translate(776.51 518.96)"><tspan x="0" y="0">４</tspan></text><text class="cls-6" transform="translate(815.5 518.96)"><tspan x="0" y="0">５</tspan></text><text class="cls-6" transform="translate(854.48 518.96)"><tspan x="0" y="0">６</tspan></text><text class="cls-6" transform="translate(893.47 518.96)"><tspan x="0" y="0">７</tspan></text><text class="cls-6" transform="translate(932.46 518.96)"><tspan x="0" y="0">８</tspan></text><text class="cls-5" transform="translate(857.44 533.97)"><tspan class="cls-4" x="0" y="0">(</tspan><tspan x="5.58" y="0">メジャーバージョ</tspan><tspan class="cls-4" x="85.33" y="0">ン</tspan><tspan x="97.79" y="0">)</tspan></text><text class="cls-13" transform="translate(648.75 294.09)"><tspan x="0" y="0">給料</tspan></text><line class="cls-1" x1="646.78" y1="812.21" x2="958.31" y2="812.21"/><line class="cls-2" x1="646.78" y1="766.22" x2="958.31" y2="766.22"/><line class="cls-2" x1="646.78" y1="720.93" x2="958.31" y2="720.93"/><line class="cls-2" x1="646.78" y1="675.92" x2="958.31" y2="675.92"/><line class="cls-2" x1="646.78" y1="630.62" x2="958.31" y2="630.62"/><polyline class="cls-3" points="665.75 629.86 705.62 691.13 743.55 774.77 782.45 788.38 821.36 795.19 861.23 800.05 900.13 804.92 938.06 806.86"/><path class="cls-7" d="M665.75,636.18c-3.49,0-6.32-2.84-6.32-6.32s2.84-6.32,6.32-6.32,6.32,2.84,6.32,6.32-2.84,6.32-6.32,6.32Z"/><path class="cls-8" d="M665.75,625.48c2.41,0,4.38,1.96,4.38,4.38s-1.96,4.38-4.38,4.38-4.38-1.96-4.38-4.38,1.96-4.38,4.38-4.38M665.75,621.59c-4.57,0-8.27,3.7-8.27,8.27s3.7,8.27,8.27,8.27,8.27-3.7,8.27-8.27-3.7-8.27-8.27-8.27h0Z"/><circle class="cls-7" cx="705.62" cy="691.13" r="6.32"/><path class="cls-8" d="M705.62,686.75c2.41,0,4.38,1.96,4.38,4.38s-1.96,4.38-4.38,4.38-4.38-1.96-4.38-4.38,1.96-4.38,4.38-4.38M705.62,682.86c-4.57,0-8.27,3.7-8.27,8.27s3.7,8.27,8.27,8.27,8.27-3.7,8.27-8.27-3.7-8.27-8.27-8.27h0Z"/><circle class="cls-7" cx="743.55" cy="774.77" r="6.32"/><path class="cls-8" d="M743.55,770.39c2.41,0,4.38,1.96,4.38,4.38s-1.96,4.38-4.38,4.38-4.38-1.96-4.38-4.38,1.96-4.38,4.38-4.38M743.55,766.5c-4.57,0-8.27,3.7-8.27,8.27s3.7,8.27,8.27,8.27,8.27-3.7,8.27-8.27-3.7-8.27-8.27-8.27h0Z"/><path class="cls-7" d="M782.45,794.71c-3.49,0-6.32-2.84-6.32-6.32s2.84-6.32,6.32-6.32,6.32,2.84,6.32,6.32-2.84,6.32-6.32,6.32Z"/><path class="cls-8" d="M782.45,784.01c2.41,0,4.38,1.96,4.38,4.38s-1.96,4.38-4.38,4.38-4.38-1.96-4.38-4.38,1.96-4.38,4.38-4.38M782.45,780.12c-4.57,0-8.27,3.7-8.27,8.27s3.7,8.27,8.27,8.27,8.27-3.7,8.27-8.27-3.7-8.27-8.27-8.27h0Z"/><circle class="cls-7" cx="821.36" cy="795.19" r="6.32"/><path class="cls-8" d="M821.36,790.82c2.41,0,4.38,1.96,4.38,4.38s-1.96,4.38-4.38,4.38-4.38-1.96-4.38-4.38,1.96-4.38,4.38-4.38M821.36,786.93c-4.57,0-8.27,3.7-8.27,8.27s3.7,8.27,8.27,8.27,8.27-3.7,8.27-8.27-3.7-8.27-8.27-8.27h0Z"/><path class="cls-7" d="M861.23,806.38c-3.49,0-6.32-2.84-6.32-6.32s2.84-6.32,6.32-6.32,6.32,2.84,6.32,6.32-2.84,6.32-6.32,6.32Z"/><path class="cls-8" d="M861.23,795.68c2.41,0,4.38,1.96,4.38,4.38s-1.96,4.38-4.38,4.38-4.38-1.96-4.38-4.38,1.96-4.38,4.38-4.38M861.23,791.79c-4.57,0-8.27,3.7-8.27,8.27s3.7,8.27,8.27,8.27,8.27-3.7,8.27-8.27-3.7-8.27-8.27-8.27h0Z"/><circle class="cls-7" cx="900.13" cy="804.92" r="6.32"/><path class="cls-8" d="M900.13,800.54c2.41,0,4.38,1.96,4.38,4.38s-1.96,4.38-4.38,4.38-4.38-1.96-4.38-4.38,1.96-4.38,4.38-4.38M900.13,796.65c-4.57,0-8.27,3.7-8.27,8.27s3.7,8.27,8.27,8.27,8.27-3.7,8.27-8.27-3.7-8.27-8.27-8.27h0Z"/><circle class="cls-7" cx="938.06" cy="806.86" r="6.32"/><path class="cls-8" d="M938.06,802.49c2.41,0,4.38,1.96,4.38,4.38s-1.96,4.38-4.38,4.38-4.38-1.96-4.38-4.38,1.96-4.38,4.38-4.38M938.06,798.6c-4.57,0-8.27,3.7-8.27,8.27s3.7,8.27,8.27,8.27,8.27-3.7,8.27-8.27-3.7-8.27-8.27-8.27h0Z"/><text class="cls-5" transform="translate(598.53 784.61)"><tspan x="0" y="0">(％)</tspan></text><text class="cls-6" transform="translate(598.53 770.76)"><tspan x="0" y="0">25</tspan></text><text class="cls-6" transform="translate(598.53 725.24)"><tspan x="0" y="0">50</tspan></text><text class="cls-6" transform="translate(598.53 679.73)"><tspan x="0" y="0">75</tspan></text><text class="cls-6" transform="translate(598.53 634.22)"><tspan x="0" y="0">100</tspan></text><text class="cls-6" transform="translate(660.66 830.68)"><tspan x="0" y="0">１</tspan></text><text class="cls-6" transform="translate(699.65 830.68)"><tspan x="0" y="0">２</tspan></text><text class="cls-6" transform="translate(738.63 830.68)"><tspan x="0" y="0">３</tspan></text><text class="cls-6" transform="translate(777.62 830.68)"><tspan x="0" y="0">４</tspan></text><text class="cls-6" transform="translate(816.6 830.68)"><tspan x="0" y="0">５</tspan></text><text class="cls-6" transform="translate(855.59 830.68)"><tspan x="0" y="0">６</tspan></text><text class="cls-6" transform="translate(894.57 830.68)"><tspan x="0" y="0">７</tspan></text><text class="cls-6" transform="translate(933.56 830.68)"><tspan x="0" y="0">８</tspan></text><text class="cls-5" transform="translate(858.54 845.68)"><tspan class="cls-4" x="0" y="0">(</tspan><tspan x="5.58" y="0">メジャーバージョ</tspan><tspan class="cls-4" x="85.33" y="0">ン</tspan><tspan x="97.79" y="0">)</tspan></text><text class="cls-13" transform="translate(650.86 612.07)"><tspan x="0" y="0">生産性</tspan></text></g></svg>