<svg id="クレーン" xmlns="http://www.w3.org/2000/svg" xmlns:xlink="http://www.w3.org/1999/xlink" viewBox="0 0 500 500"><defs><style>.cls-1{fill:url(#名称未設定グラデーション_11);}.cls-2{fill:#fff;}</style><linearGradient id="名称未設定グラデーション_11" y1="250" x2="500" y2="250" gradientUnits="userSpaceOnUse"><stop offset="0" stop-color="#ff5f6d"/><stop offset="1" stop-color="#ffc171"/></linearGradient></defs><rect class="cls-1" width="500" height="500" rx="50"/><path class="cls-2" d="M209.78,245.34l-3.29,6.32-.14.26a42.7,42.7,0,0,1-58.47,15.17,42.42,42.42,0,0,1-19.7-26.1c-.13-.47-.23-.94-.34-1.42l-5.44,41.82h92.11Z"/><path class="cls-2" d="M215.23,93.75l-77.7,117.71a37.11,37.11,0,0,0,64,37.62l52.73-101.37-29.07-27.63C217.6,112.26,215,103.53,215.23,93.75Zm-32.95,144A14.8,14.8,0,1,1,177,217.51,14.8,14.8,0,0,1,182.28,237.77Z"/><path class="cls-2" d="M217.09,286.43H120.46a11.92,11.92,0,0,0-11.91,11.92v35.7H229v-35.7A11.92,11.92,0,0,0,217.09,286.43Z"/><path class="cls-2" d="M341.05,161a32,32,0,0,1,10.86,1.88L276.57,72.77a32.12,32.12,0,0,0-47.27,43.51l79.56,75.58A32.24,32.24,0,0,1,341.05,161Zm-79.82-57.41A12.25,12.25,0,1,1,262,86.23,12.25,12.25,0,0,1,261.23,103.54Z"/><polygon class="cls-2" points="331.31 256.18 341.69 267.86 352.08 256.18 352.08 236.94 331.31 236.94 331.31 256.18"/><path class="cls-2" d="M341.05,166.55a26.61,26.61,0,0,0-26.62,26.61v38.29h53.22V193.16A26.6,26.6,0,0,0,341.05,166.55Zm0,36.18a10.39,10.39,0,1,1,10.39-10.39A10.39,10.39,0,0,1,341.05,202.73Z"/><path class="cls-2" d="M290.25,323.48H393.48A5.52,5.52,0,0,1,399,329v4.59a0,0,0,0,1,0,0H284.73a0,0,0,0,1,0,0V329A5.52,5.52,0,0,1,290.25,323.48Z"/><rect class="cls-2" x="314.08" y="272.92" width="54.61" height="46.52" rx="3"/><path class="cls-2" d="M147.28,366.06a4.92,4.92,0,0,1-1.1-2.94,4.59,4.59,0,0,1,4.51-4.14,4.7,4.7,0,0,1,3.58,2.11l22,32,22-32a4.7,4.7,0,0,1,3.58-2.11,4.52,4.52,0,0,1,4.51,4.14,4.92,4.92,0,0,1-1.1,2.94L180.4,400.19v32c0,2-1.75,3.49-4.14,3.49s-4.14-1.47-4.14-3.49v-32Z"/><path class="cls-2" d="M240,360.08c10.48,0,18.76,2.12,25.39,6.53,9.75,6.44,15,17.21,15,30.64,0,23.73-15,37.35-41,37.35H227.14c-6.44,0-9.76-3.31-9.76-9.94V370c0-6.63,3.32-9.94,9.76-9.94Zm-14.26,64.49a2.33,2.33,0,0,0,2.57,2.58h10.49c20.42,0,32.47-11,32.47-29.81,0-19.23-11.31-29.81-31.92-29.81h-11a2.25,2.25,0,0,0-2.57,2.58Z"/><path class="cls-2" d="M297.15,432.48A4.44,4.44,0,0,1,293,435.7c-2.58,0-4.6-1.65-4.6-3.86a7.17,7.17,0,0,1,.46-2.3l26.49-66.61a6.14,6.14,0,0,1,5.89-4,6.05,6.05,0,0,1,5.89,4l26.4,66.61a5.88,5.88,0,0,1,.55,2.3c0,2-2.11,3.86-4.6,3.86a4.64,4.64,0,0,1-4.23-3.22l-7.72-19.87H304.78Zm30.17-47.74c-2.3-6.07-5.15-14.35-5.88-16.75h-.37c-.92,3.32-3.31,10.12-5.89,16.75l-7.91,20.79h27.87Z"/></svg>