<?xml version="1.0" encoding="UTF-8"?>
<svg xmlns="http://www.w3.org/2000/svg" xmlns:xlink="http://www.w3.org/1999/xlink" viewBox="0 0 380 218.42">
  <defs>
    <style>
      .cls-1 {
        fill: #2f3662;
      }

      .cls-2 {
        fill: #b4c3e4;
      }

      .cls-3 {
        fill: #56568c;
      }

      .cls-4 {
        fill: url(#linear-gradient-2);
      }

      .cls-5 {
        mask: url(#mask-1);
      }

      .cls-6 {
        fill: #61619d;
      }

      .cls-7 {
        fill: #eaa5bc;
      }

      .cls-8 {
        fill: #fff;
      }

      .cls-9 {
        mask: url(#mask);
      }

      .cls-10 {
        filter: url(#luminosity-invert-noclip);
      }

      .cls-11 {
        fill: #c4c4da;
        mix-blend-mode: multiply;
      }

      .cls-12 {
        fill: #a1bfd5;
      }

      .cls-13 {
        fill: #bcdef5;
      }

      .cls-14 {
        fill: #3a3c6f;
      }

      .cls-15 {
        fill: #becad3;
      }

      .cls-16 {
        isolation: isolate;
      }

      .cls-17 {
        fill: #e3e5f3;
      }

      .cls-18 {
        fill: #5f7bbc;
      }

      .cls-19 {
        fill: #2a335a;
      }

      .cls-20 {
        fill: #e396af;
      }

      .cls-21 {
        fill: #e6e3f1;
      }

      .cls-22 {
        fill: #444783;
      }

      .cls-23 {
        filter: url(#luminosity-invert-noclip-2);
      }

      .cls-24 {
        fill: url(#linear-gradient);
      }

      .cls-25 {
        fill: #24395f;
      }
    </style>
    <filter id="luminosity-invert-noclip" x="204.51" y="86.75" width="103.7" height="87.41" color-interpolation-filters="sRGB" filterUnits="userSpaceOnUse">
      <feColorMatrix result="cm" values="-1 0 0 0 1 0 -1 0 0 1 0 0 -1 0 1 0 0 0 1 0"/>
      <feFlood flood-color="#fff" result="bg"/>
      <feBlend in="cm" in2="bg"/>
    </filter>
    <linearGradient id="linear-gradient" x1="283.9" y1="109.08" x2="228.98" y2="166.55" gradientUnits="userSpaceOnUse">
      <stop offset="0" stop-color="#fff"/>
      <stop offset="1" stop-color="#000"/>
    </linearGradient>
    <mask id="mask" x="204.51" y="86.75" width="103.7" height="87.41" maskUnits="userSpaceOnUse">
      <g class="cls-10">
        <path class="cls-24" d="M204.51,151.54l12.44-8.12c.55-.56,13.54-13.9,25.5-22.07,10.77-7.36,24.37-31.19,24.5-31.43l1.8-3.18,39.45,14.56-.38,3.35c-.14,1.21-3.6,29.86-26.14,45.96-21.53,15.38-43.4,22.49-44.32,22.79l-2.36.76-30.51-22.61Z"/>
      </g>
    </mask>
    <filter id="luminosity-invert-noclip-2" x="70.64" y="91.94" width="103.7" height="87.41" color-interpolation-filters="sRGB" filterUnits="userSpaceOnUse">
      <feColorMatrix result="cm" values="-1 0 0 0 1 0 -1 0 0 1 0 0 -1 0 1 0 0 0 1 0"/>
      <feFlood flood-color="#fff" result="bg"/>
      <feBlend in="cm" in2="bg"/>
    </filter>
    <linearGradient id="linear-gradient-2" x1="503.41" y1="114.28" x2="448.49" y2="171.75" gradientTransform="translate(598.36) rotate(-180) scale(1 -1)" xlink:href="#linear-gradient"/>
    <mask id="mask-1" x="70.64" y="91.94" width="103.7" height="87.41" maskUnits="userSpaceOnUse">
      <g class="cls-23">
        <path class="cls-4" d="M174.34,156.74l-12.45-8.12c-.55-.56-13.54-13.9-25.5-22.07-10.77-7.36-24.37-31.19-24.5-31.43l-1.8-3.18-39.45,14.56.38,3.35c.14,1.21,3.6,29.86,26.14,45.96,21.53,15.38,43.4,22.49,44.32,22.79l2.36.76,30.51-22.61Z"/>
      </g>
    </mask>
  </defs>
  <g class="cls-16">
    <g id="_レイヤー_1" data-name="レイヤー 1">
      <g>
        <g>
          <g>
            <g>
              <polygon class="cls-15" points="297.5 200.25 203.76 145.77 272.57 106.04 366.31 160.52 297.5 200.25"/>
              <path class="cls-13" d="M346.04,156.77l-93.75-54.48c10.63-6.14,19.25-21.07,19.22-33.29l93.75,54.48c.03,12.22-8.59,27.15-19.22,33.29Z"/>
              <polygon class="cls-13" points="365.26 123.48 271.52 69 271.39 25.72 365.14 80.2 365.26 123.48"/>
              <path class="cls-15" d="M293.4,200.64l-93.75-54.48c1.05.61,2.5.53,4.1-.4l93.75,54.48c-1.6.92-3.05,1.01-4.1.4Z"/>
              <path class="cls-13" d="M365.14,80.2l-93.75-54.48c-.03-9.44,6.64-20.98,14.85-25.72l93.75,54.48c-8.22,4.74-14.88,16.28-14.85,25.72Z"/>
              <polygon class="cls-13" points="297.46 184.82 203.71 130.34 252.3 102.29 346.04 156.77 297.46 184.82"/>
              <path class="cls-13" d="M289.83,198.04c0,2.41.86,4.11,2.24,4.91l-55.22-32.09-24.02-13.96-14.5-8.43c-1.38-.8-2.23-2.5-2.24-4.91-.01-4.85,3.41-10.78,7.63-13.22l17.12,9.95,29.15,16.94,47.47,27.59c-4.22,2.43-7.64,8.37-7.63,13.22Z"/>
              <path class="cls-21" d="M379.99,54.48v2.17c-7.17,4.14-12.99,14.22-12.97,22.47l.12,43.27c.04,13.41-9.43,29.8-21.1,36.54l-48.59,28.05c-3.18,1.84-5.76,6.31-5.75,9.96,0,3.65,2.6,5.14,5.78,3.3l68.81-39.73v2.17s-68.8,39.73-68.8,39.73c-4.22,2.44-7.67.47-7.68-4.38-.01-4.85,3.41-10.78,7.63-13.22l48.59-28.05c10.63-6.14,19.25-21.07,19.22-33.29l-.12-43.27c-.03-9.44,6.64-20.98,14.85-25.72Z"/>
            </g>
            <g>
              <path class="cls-8" d="M322.45,151.29c-.31,0-.62-.08-.91-.25l-60.18-34.98c-.87-.5-1.16-1.62-.66-2.49.5-.87,1.62-1.16,2.49-.66l60.18,34.98c.87.51,1.16,1.62.66,2.49-.34.58-.95.91-1.58.91Z"/>
              <path class="cls-8" d="M337.78,140.36c-.31,0-.62-.08-.91-.25l-58.39-33.93c-.87-.5-1.16-1.62-.66-2.49.5-.87,1.62-1.16,2.49-.66l58.39,33.93c.87.51,1.16,1.62.66,2.49-.34.58-.95.91-1.58.91Z"/>
              <path class="cls-8" d="M348.56,62.53c-.31,0-.62-.08-.91-.25l-61.98-36.02c-.87-.5-1.16-1.62-.66-2.49.5-.87,1.62-1.16,2.49-.66l61.98,36.02c.87.5,1.16,1.62.66,2.49-.34.58-.95.91-1.57.91Z"/>
              <path class="cls-8" d="M347.5,73.65c-.31,0-.62-.08-.91-.25l-61.98-36.02c-.87-.5-1.16-1.62-.66-2.49.5-.87,1.62-1.16,2.49-.66l61.98,36.02c.87.5,1.16,1.62.66,2.49-.34.58-.95.91-1.57.91Z"/>
              <path class="cls-8" d="M315.81,68.97c-.31,0-.62-.08-.91-.25l-30.28-17.6c-.87-.5-1.16-1.62-.66-2.49.5-.87,1.62-1.16,2.49-.66l30.28,17.6c.87.5,1.16,1.62.66,2.49-.34.58-.95.91-1.58.91Z"/>
              <path class="cls-8" d="M344.86,100c-.31,0-.62-.08-.91-.25l-61.62-35.81c-.87-.5-1.16-1.62-.66-2.49.5-.87,1.62-1.16,2.49-.66l61.62,35.81c.87.5,1.16,1.62.66,2.49-.34.58-.95.91-1.57.91Z"/>
              <path class="cls-8" d="M343.72,113.66c-.31,0-.62-.08-.91-.25l-60.46-35.13c-.87-.5-1.16-1.62-.66-2.49.51-.87,1.62-1.16,2.49-.66l60.46,35.13c.87.51,1.16,1.62.66,2.49-.34.58-.95.91-1.57.91Z"/>
              <path class="cls-8" d="M341.81,126.97c-.31,0-.62-.08-.91-.25l-59.35-34.49c-.87-.5-1.16-1.62-.66-2.49.5-.87,1.62-1.16,2.49-.66l59.35,34.49c.87.5,1.16,1.62.66,2.49-.34.58-.95.9-1.58.9Z"/>
              <path class="cls-8" d="M288.94,169.26c-.31,0-.62-.08-.91-.25l-60.46-35.13c-.87-.5-1.16-1.62-.66-2.49.5-.87,1.62-1.16,2.49-.66l60.45,35.13c.87.51,1.16,1.62.66,2.49-.34.58-.95.91-1.57.91Z"/>
              <path class="cls-8" d="M305.24,161.67c-.31,0-.62-.08-.91-.25l-62.08-36.06c-.87-.5-1.16-1.62-.66-2.49.5-.87,1.62-1.16,2.49-.66l62.08,36.07c.87.5,1.16,1.62.66,2.49-.34.58-.95.91-1.58.91Z"/>
              <path class="cls-8" d="M276.2,182.39c-.31,0-.62-.08-.91-.25l-60.46-35.13c-.87-.51-1.16-1.62-.66-2.49.5-.87,1.62-1.16,2.49-.66l60.46,35.13c.87.5,1.16,1.62.66,2.49-.34.58-.95.91-1.57.91Z"/>
            </g>
          </g>
          <g>
            <g>
              <polygon class="cls-15" points="82.5 204.55 176.24 150.07 107.43 110.34 13.69 164.82 82.5 204.55"/>
              <path class="cls-13" d="M33.95,161.07l93.75-54.48c-10.63-6.14-19.25-21.07-19.22-33.29L14.73,127.78c-.03,12.22,8.59,27.15,19.22,33.29Z"/>
              <polygon class="cls-13" points="14.73 127.78 108.48 73.3 108.6 30.02 14.86 84.5 14.73 127.78"/>
              <path class="cls-15" d="M86.6,204.95l93.75-54.48c-1.05.61-2.5.53-4.1-.4l-93.75,54.48c1.6.92,3.05,1.01,4.1.4Z"/>
              <path class="cls-13" d="M14.86,84.5L108.6,30.02c.03-9.44-6.63-20.98-14.85-25.72L0,58.78c8.22,4.74,14.88,16.28,14.85,25.72Z"/>
              <polygon class="cls-13" points="82.54 189.12 176.29 134.64 127.7 106.59 33.95 161.07 82.54 189.12"/>
              <path class="cls-13" d="M183.92,147.86c0,2.41-.86,4.11-2.23,4.91l-13.94,8.1-26.12,15.18-53.69,31.2c1.37-.8,2.23-2.5,2.23-4.91.01-4.85-3.41-10.78-7.63-13.22l50.55-29.38,25.72-14.95,17.47-10.16c4.22,2.44,7.64,8.37,7.63,13.22Z"/>
              <path class="cls-21" d="M0,58.78v2.17c7.17,4.14,12.99,14.22,12.97,22.47l-.12,43.27c-.04,13.41,9.43,29.8,21.1,36.54l48.59,28.05c3.18,1.84,5.76,6.31,5.75,9.96-.01,3.66-2.6,5.14-5.79,3.3L13.69,164.82v2.17s68.8,39.73,68.8,39.73c4.22,2.44,7.67.47,7.68-4.38.01-4.85-3.41-10.78-7.63-13.22l-48.59-28.05c-10.63-6.14-19.25-21.07-19.22-33.29l.12-43.27c.03-9.44-6.64-20.98-14.85-25.72Z"/>
            </g>
            <g>
              <path class="cls-8" d="M57.55,155.59c-.63,0-1.24-.32-1.57-.91-.51-.87-.21-1.98.66-2.49l60.18-34.98c.87-.51,1.98-.21,2.49.66.5.87.21,1.98-.66,2.49l-60.18,34.98c-.29.17-.6.25-.91.25Z"/>
              <path class="cls-8" d="M42.22,144.66c-.63,0-1.24-.32-1.57-.91-.51-.87-.21-1.98.66-2.49l58.39-33.93c.87-.51,1.98-.21,2.49.66.5.87.21,1.98-.66,2.49l-58.39,33.93c-.29.17-.6.25-.91.25Z"/>
              <path class="cls-8" d="M31.44,66.83c-.63,0-1.24-.32-1.57-.91-.51-.87-.21-1.98.66-2.49l61.98-36.02c.87-.51,1.98-.21,2.49.66.51.87.21,1.98-.66,2.49l-61.98,36.02c-.29.17-.6.25-.91.25Z"/>
              <path class="cls-8" d="M32.5,77.95c-.63,0-1.24-.32-1.57-.91-.5-.87-.21-1.98.66-2.49l61.98-36.02c.87-.51,1.98-.21,2.49.66.5.87.21,1.98-.66,2.49l-61.98,36.02c-.29.17-.6.25-.91.25Z"/>
              <path class="cls-8" d="M64.19,73.27c-.63,0-1.24-.32-1.57-.91-.5-.87-.21-1.98.66-2.49l30.28-17.6c.87-.51,1.98-.21,2.49.66.5.87.21,1.98-.66,2.49l-30.28,17.6c-.29.17-.6.25-.91.25Z"/>
              <path class="cls-8" d="M35.14,104.31c-.63,0-1.24-.32-1.57-.91-.51-.87-.21-1.98.66-2.49l61.62-35.81c.87-.51,1.98-.21,2.49.66.5.87.21,1.98-.66,2.49l-61.62,35.81c-.29.17-.6.25-.91.25Z"/>
              <path class="cls-8" d="M36.28,117.96c-.63,0-1.24-.33-1.57-.91-.51-.87-.21-1.98.66-2.49l60.46-35.13c.87-.51,1.98-.21,2.49.66.5.87.21,1.98-.66,2.49l-60.46,35.13c-.29.17-.6.25-.91.25Z"/>
              <path class="cls-8" d="M38.18,131.28c-.63,0-1.24-.32-1.57-.91-.51-.87-.21-1.98.66-2.49l59.35-34.49c.87-.51,1.98-.21,2.49.66.51.87.21,1.98-.66,2.49l-59.35,34.49c-.29.17-.6.25-.91.25Z"/>
              <path class="cls-8" d="M91.06,173.56c-.63,0-1.24-.32-1.57-.91-.5-.87-.21-1.98.66-2.49l60.46-35.13c.87-.51,1.98-.21,2.49.66.5.87.21,1.98-.66,2.49l-60.46,35.13c-.29.17-.6.25-.91.25Z"/>
              <path class="cls-8" d="M74.76,165.98c-.63,0-1.24-.32-1.57-.91-.5-.87-.21-1.98.66-2.49l62.08-36.07c.87-.5,1.98-.21,2.49.66.5.87.21,1.98-.66,2.49l-62.07,36.07c-.29.17-.6.25-.91.25Z"/>
              <path class="cls-8" d="M103.8,186.69c-.63,0-1.24-.32-1.58-.91-.5-.87-.21-1.98.66-2.49l60.46-35.13c.87-.5,1.98-.21,2.49.66.5.87.21,1.98-.66,2.49l-60.46,35.13c-.29.17-.6.25-.91.25Z"/>
            </g>
          </g>
        </g>
        <g class="cls-9">
          <path class="cls-12" d="M222.02,162.24l14.82,8.61s.34-6.53,6.01-9.38c6.71-3.37,30.08-11.47,38.37-19.3,15.28-14.44,18.11-43.39,18.11-43.39l-24.09-6.49s-29.63,42.77-37.26,47.99c-7.63,5.22-15.96,21.97-15.96,21.97Z"/>
        </g>
        <g class="cls-5">
          <path class="cls-12" d="M151.03,137.6c-7.63-5.22-47.43-40.12-47.43-40.12l-24.09,6.49s2.83,28.95,18.11,43.39c8.28,7.82,31.65,15.92,38.36,19.3,5.67,2.85,6.01,9.38,6.01,9.38l29.67-17.22s-13.01-16.01-20.64-21.22Z"/>
        </g>
        <g>
          <g>
            <g>
              <g>
                <path class="cls-22" d="M176.34,197.39c-1.09-.52-2.64-1.74-3.33-3.21-.35-.75.12-2.77-3.43-2.49-3.55.28-4.14,1.8-4.39,2.52-.25.72-1.83,3.81-.64,5.39,1.19,1.58,4.69,2.01,8.36,4.35,3.13,2,4.15,3.37,6.1,3.76,1.94.39,5.06-.88,5.56-2.85.5-1.97-.98-3.28-2.08-4-1.1-.72-5.05-2.95-6.14-3.46Z"/>
                <path class="cls-21" d="M174.64,186.41l-7.6-.46c-.49,2,1.1,4.34-.83,7.66-1.25,2.15,7.23,7.14,7.23,7.14l4.12-2.53s-5.36-6.03-2.92-11.82Z"/>
              </g>
              <path class="cls-1" d="M176.83,148.79c2.55,6.27-.46,42.31-.32,44.13.14,1.83-4.61,4.81-6.96,4.33-2.35-.48-5.36-3.65-5.36-3.65,0,0,.78-33.97-.8-38.4-1.58-4.43-43.48-25.83-43.48-25.83l16.37-13.59,7.08,9.72s30.92,17,33.47,23.27Z"/>
              <g>
                <path class="cls-22" d="M167.13,215.36c1.23-1.05,1.18-2.87-.13-3.7-3.27-2.07-6.7-5.45-9.25-6.78-1.53-.8-5.48-4.74-7.51-3.98-2.03.76-3.47,2.95-3.48,5.13-.01,2.17.93,3.23,1.96,4.01,1.03.77,6.35,3.45,7.54,4.55,2.22,2.05,4.99,3.08,6.09,2.99,2.28-.2,3.55-1.16,4.78-2.21Z"/>
                <path class="cls-21" d="M158.92,191.78l-8.38-.32s1.55,9.88-1.37,13c-1.64,1.75,7.82,5.29,7.82,5.29,0,0,4.07-2.65,3.82-2.93-4.9-5.43-1.89-15.04-1.89-15.04Z"/>
              </g>
              <path class="cls-14" d="M159.59,201.47c.06,2.04-4.07,4.09-8.36,3.41-4.29-.69-3.98-4.77-3.91-6.46.07-1.69.14-29.63-3.17-34.99-3.31-5.35-30.96-15.4-34-20.71-3.04-5.3.76-16.76.76-16.76.27-.9,19.2-12.13,19.2-12.13l1.88,20.15s21.38,17.51,24.66,22.3c3.28,4.78,2.89,43.15,2.95,45.19Z"/>
            </g>
            <path class="cls-3" d="M134.74,70.35c-1.6-1.85-7.16-4.3-7.16-4.3,0,0,8.28,37.36,12.36,39.54,4.08,2.18,2.59-6.45,2.59-6.45,0,0-6.18-26.94-7.78-28.8Z"/>
            <g>
              <g>
                <path class="cls-7" d="M152.08,132.19c-.68,1.6-.82,3.43.37,4.84.41.48,4.29,4,4.98,2.74.33-.6-.96-1.33-1.29-1.73-.86-1.07-1.16-2.35-1.4-3.67-.31-1.72-1.15-1.93-2.67-2.18Z"/>
                <path class="cls-7" d="M155.3,136.76c.05.69,1.51,1.18,2.14,1.5.7.36,3.12,1.5,3.32,1.82.45.72.52,2.45,1.41,2.46.88.01-.03-2.69-.29-3.36-.26-.67-1.59-1.64-2.49-2.61-.42-.46-1.79-1.28-2.3-1.5-.85-.38-2.05.54-1.79,1.6.16,0,.24-.06.01.09Z"/>
                <path class="cls-7" d="M151.58,134.97c-.23-1.22-1.33-3.32-.57-4.37.36-.5.94-2.57,1.53-2.66.81-.12,7.47,4.48,7.47,4.48,0,0,.42.8-.05,1.46-.34.47-.65,1.03-1.06,1.45-1.27,1.31-3.71,1.57-5.34.86-1.1-.48-1.63-.55-1.97-1.22Z"/>
                <path class="cls-7" d="M159.53,134.19c1.28,1,3.83,3.37,3.68,3.33-.15-.04.71,3.67.38,3.94-.43.34-.72-.03-.85-.41-.22-.65-.6-2.45-.6-2.45,0,0-.53-.42-.93-.74-.98-.78-3.97-1.94-3.73-3.32.67-.92,1.53-.79,2.05-.36Z"/>
                <path class="cls-7" d="M159.33,133.74c1.11.19,4.63,3.09,4.41,3.63,0,0,.63,2.48.09,2.96-.54.48-1.14-2.47-1.14-2.47,0,0-1.02-1.08-1.61-1.48-.63-.42-1.36-.74-1.77-1.39-.47-.74-.41-1.19.03-1.25Z"/>
                <path class="cls-7" d="M162.49,136.23c-.64-.59-2.65-1.4-2.91-2.25-.11-.35-.15-1.38.05-1.72.08-.13,1.07.69,1.18.85.28.41.91.86,1.24,1.23.54.62,1.15,1.18,1.6,1.88.35.54,1.23,1.6.59,1.8-.64.2-1.18-1.27-1.75-1.8Z"/>
              </g>
              <path class="cls-2" d="M154.47,127.97c.41.63-4.07,4.23-4.86,3.73-.07-.05-1.39-2.75-1.39-2.75-.02-.03,4.94-3.18,4.94-3.18,0,0,.9,1.57,1.31,2.2Z"/>
              <path class="cls-3" d="M153.55,125.8c-.99,1.93-5.25,3.79-5.25,3.79,0,0-11.39-12.29-11.81-17.74-.42-5.45,3.25-18.01,5.26-13.4,2.68,6.15,11.8,27.35,11.8,27.35Z"/>
            </g>
            <g>
              <path class="cls-6" d="M125.96,58.66c-3.81,2.46-9.21,10.25-9.21,10.25l7.56,59.27,16.88-7.38s1.69-41.55,1-46.2c-.69-4.65-3.24-10.83-7.01-12.52-3.77-1.69-5.41-5.88-9.22-3.41Z"/>
              <path class="cls-21" d="M128.25,59.73c-3.81,2.46-9.21,10.25-9.21,10.25l7.56,59.27,16.88-7.38s1.69-41.55,1-46.2c-.69-4.65-3.24-10.83-7.01-12.52-3.77-1.69-5.41-5.88-9.22-3.41Z"/>
              <path class="cls-18" d="M139.52,91.26l-1.5-17.77c2.11-3.35-.56-5.21-1.29-6.01-.63-.69-3.1-3.05-3.1-3.05l-3.61,3.71,4.7,5.44-2.64,18.31.82,22.87,6.08,7.62,3.86-4.85-3.34-26.26Z"/>
              <path class="cls-6" d="M131.14,59.81s4.1-1.64,7.14-.21c2.29,1.08,4.28,2.19,5.5,4.24.86,1.44,1.54,3.51,1.76,5.34.54,4.38-1.04,50.58-1.04,50.58l5.27,10.13s-3.66,5.11-7.97.71c-4.31-4.41-2.78-20.76-2.78-20.76,0,0,.78-24.92,1.19-32.75.04-16.21-9.07-17.29-9.07-17.29Z"/>
              <path class="cls-6" d="M110.79,77.53c1.1-3.88,6.07-9.73,6.07-9.73,1.91-2.07,3.44-4.17,6.84-7.04,0,0,.5,1.16.29,5.77-.07,1.58,4.56,8.2,6.09,14.21,1.58,6.22,10.29,33.83,10.22,41.49-.08,8.56-7.28,14.76-7.28,14.76,0,0-9.35,8.05-12.03,6.81-6.91-3.2-12.75-9.48-12.75-9.48l1.02-14.39s2.68-14.93,1.53-24.35c-.39-3.2-1.1-14.16,0-18.05Z"/>
            </g>
            <path class="cls-11" d="M147.65,101.28c-1.36-5.29-17.46-6.73-20.42-9.78-2.96-3.04-10.69-7.98-11.39-5.56-.15.52-.42,2.62.32,5.09,2.65,8.83,15.25,20.09,17.24,20.96,8.78,3.82,15.65-5.23,14.24-10.7Z"/>
            <g>
              <path class="cls-21" d="M135.85,58.44s2.11,5.17,2.71,7.81c.59,2.65.4,3.77.4,3.77l-5.87-2.97s-2.93-8.3-1.68-9.75c2.52-2.94,4.44,1.14,4.44,1.14Z"/>
              <path class="cls-20" d="M135.31,60.39c.31,1.76,1.04,1.95,1.04,1.95l-4.12,4.32s-6.83-5.9-6.23-7.52c.6-1.61,1.99-2.09,1.18-7.67-.57-3.96.3-4.89.3-4.89,0,0,5.7,2.87,9.46,7.85.95,1.26-2.04,3.58-1.63,5.95Z"/>
              <path class="cls-21" d="M128.83,62.09c1.96,1.74,5.13,4.12,5.13,4.12l-4.01,5.61s-4.14-1.16-5.75-4.39c-1.59-3.17,2.38-11.14,2.38-11.14,0,0,.29,4.07,2.25,5.81Z"/>
              <g>
                <path class="cls-7" d="M123.49,47.71c1.05,2.19,5.13,5.17,5.9,7.14,1.09,2.81,6.97,7.49,6.97,7.49,0,0,3.75,1.35,4.65.17.9-1.17,4.31-5.75,4.75-7.52.39-1.54-.02-4.68.91-7.89,1.1-3.77-1.52-8.96-4.26-11.79-2.74-2.82-9.19-2.62-12.92-1.39-3.25,1.07-5.56,3.77-6.28,6.03-.72,2.26-1.12,4.81.28,7.75Z"/>
                <path class="cls-25" d="M147.57,43.17c.47-.7-.54-2.74-.73-4.5-.19-1.75-1.87-6.87-6.03-7.52-4.15-.65-8.59-.08-10.75.29-4.19.72-3.56,2.17-4.76,3.13-6.36,4.53-4.77,9.84-2.83,13.83,2.17,4.46,5.39,6.93,5.77,7.13.39.19-1.51-4.25-1.04-6.67.27-1.39,2.7-2.48,2.85-1.64.09.5.98,3.29.92,3.8.47-.91,3.4-4.75,4.43-4.88,7.12-.91,5.95-3.69,5.95-3.69,0,0,5.75,1.43,6.22.73Z"/>
                <path class="cls-20" d="M129.41,46.86c-.79-.48-2.76.88-2.78,3.45-.02,2.21,2.12,5.19,2.92,3.84.8-1.35-1.19-1.24-1.18-2.76.02-3.17,2.55-3.61,1.04-4.53Z"/>
              </g>
            </g>
          </g>
          <g>
            <g>
              <g>
                <path class="cls-7" d="M186,101.67c.73-1.13,5.48-.66,6.99.08,1.5.74.83,2.91.56,4.46-.28,1.54-5.74-.95-6.29-1.3-.55-.34-1.86-2.29-1.25-3.24Z"/>
                <path class="cls-20" d="M183.61,108.04c.4-1.9,1.65-3.72,2.48-4.82.83-1.1,3.17-1.03,4.71-1.28,1.75-.29,3-.29,4.23-.21,1.74.12,6.13-.11,6.13-.11l2.06,2.18-.1,1.94s-3.88,1.24-4.33,1.62c-.67.56-1.58,1.29-2,1.45-.95.36-1.84.81-2.6,1.23-2.06,1.15-4.51,1.26-4.51,1.26-3.33-.49-6.39-1.79-6.09-3.26Z"/>
              </g>
              <g>
                <path class="cls-7" d="M196.02,108.24c-.81-.78-3.69-1.8-4.15-1.96-.84-.02-2.14.32-1.29,1,.54.31,4.12,1.84,4.48,2.01.36.17,1.77-.28.96-1.05Z"/>
                <path class="cls-7" d="M194.91,109.11c-.44-.41-1.69-.7-2.21-.89-.47-.17-1.94-1.12-2.41-1.26-.84.03-.88,1.08,0,1.72.56.29,3.28,1.3,3.79,1.47.51.17,1.18-.52.82-1.03Z"/>
                <path class="cls-7" d="M193.75,110.02c-.42-.28-1.56-.71-2.01-.8-.41-.08-3.02-1.16-3.42-1.21-.69.14-1.25.92-.43,1.33.5.16,5.59,1.87,5.9,1.6.34-.29.34-.55-.03-.92Z"/>
                <path class="cls-7" d="M192.93,105.19c-1.18-.7-2.61-.71-2.99-1.01-.87-.69-2.1-.57-2.33-1.01-.23-.44,1.31-2.12,1.13-2.2-1.32-.56-5.24.09-6.95.79-1.59.65-6.66,1.07-6.66,1.07l-.61,4.85,6.37-.49,9.08,2.86,2.97-4.86Z"/>
                <path class="cls-7" d="M197.53,107.69c.23-.55-.84-.96-1.34-1.32-.13-.09-2.67-1.05-4.97-1.92,0,0-.66,1.47-.29,1.67.37.19,5.15,2.17,5.42,2.24.51.13.95-.09,1.18-.66Z"/>
              </g>
              <path class="cls-20" d="M190.88,104c-1,.52-2.15,2.53-3,2.96-.85.42-.37,1.71.9,1.29.87-.29,1.78-1.05,2.32-1.7.24-.29,3.41-.87,3.5-1.06,1.9-3.81-2.71-2.01-3.71-1.49Z"/>
              <path class="cls-20" d="M186.49,107.98c-.32.1-2.62,1.16-2.62,1.57,0,.41.39,1.12,1.08.95.69-.17,2.04-1.39,2.04-1.39.61-.48.07-1.1-.5-1.13Z"/>
              <path class="cls-20" d="M187.54,108.88c-.29.09-2.38,1.06-2.38,1.43,0,.37.36,1.02.98.86.63-.15,1.86-1.26,1.86-1.26.55-.44.06-1-.46-1.03Z"/>
              <path class="cls-20" d="M188.95,109.35c-.29.09-2.38,1.06-2.38,1.43,0,.37.36,1.02.98.86.63-.15,1.86-1.26,1.86-1.26.55-.44.06-1-.46-1.03Z"/>
              <path class="cls-20" d="M190.37,109.77c-.29.09-2.38,1.06-2.38,1.43,0,.37.35,1.02.98.86.63-.15,1.86-1.26,1.86-1.26.56-.44.06-1-.46-1.03Z"/>
            </g>
            <g>
              <polygon class="cls-21" points="173.92 102.08 177.61 101.72 179.11 103.3 177.93 107.98 173.33 108.61 173.92 102.08"/>
              <path class="cls-6" d="M175.55,101.61l-25.71-.62s-4.04,6.58-1.06,8.58c2.98,2,26.65-.86,26.65-.86l1.05-5.3-.93-1.8Z"/>
              <path class="cls-6" d="M152.21,101.71s-28.77-22.75-33.44-22.19c-4.67.56-6.83,7.71-4.26,10.21,2.57,2.5,31.49,22.65,35.58,19.88,4.09-2.76,2.12-7.91,2.12-7.91Z"/>
            </g>
            <polygon class="cls-21" points="202.09 100.54 199.43 101.08 200.49 107 203.99 105.83 202.09 100.54"/>
            <path class="cls-14" d="M227.74,92.02c-2.56-.88-26.51,8.47-26.51,8.47l.61,6.47s24.22-5.18,26.88-6.78c2.19-1.31,1.58-7.28-.98-8.16Z"/>
            <path class="cls-14" d="M238.67,68.06c-2.59.81-15.59,26.38-15.59,26.38,0,0,1.45,8.55,6.21,5.19,4.76-3.36,13.68-20.4,14.87-23.26.98-2.35-2.9-9.12-5.49-8.31Z"/>
          </g>
          <g>
            <g>
              <g>
                <g>
                  <path class="cls-22" d="M200.14,198.24c1.09-.52,2.64-1.74,3.33-3.21.35-.75-.12-2.77,3.43-2.49,3.55.28,4.15,1.8,4.39,2.52.25.72,1.83,3.81.64,5.39-1.19,1.58-4.69,2.01-8.36,4.35-3.13,2-4.15,3.37-6.1,3.76-1.94.39-5.05-.88-5.56-2.85-.51-1.97.98-3.28,2.08-4,1.1-.72,5.05-2.95,6.14-3.46Z"/>
                  <path class="cls-21" d="M201.84,187.25l7.6-.46c.49,2-1.1,4.34.83,7.66,1.25,2.15-7.23,7.14-7.23,7.14l-4.12-2.53s5.36-6.03,2.92-11.82Z"/>
                  <path class="cls-22" d="M199.9,196.46c.19-.09,3.19,1.73,4.69,2.11-.79,1.51-1.14,2.07-1.93,3.58-.25.48-.56,1.01-1.08,1.16-.52.15-4.61-2.37-4.61-2.37,0,0,2.8-4.42,2.94-4.49Z"/>
                </g>
                <path class="cls-1" d="M201.41,148.74c-2.55,6.27-.41,42.86-.55,44.69-.14,1.83,4.06,3.53,6.41,3.05,2.35-.48,3.85-3.95,3.85-3.95,0,0,2.37-33.42,3.95-37.85,1.58-4.43,41.49-24.44,41.49-24.44l-16.37-13.59-5.79,6.77s-30.45,19.06-32.99,25.33Z"/>
                <g>
                  <path class="cls-22" d="M209.35,216.21c-1.23-1.05-1.18-2.87.13-3.7,3.27-2.07,6.7-5.45,9.25-6.78,1.53-.8,5.48-4.74,7.51-3.98,2.03.76,3.47,2.95,3.48,5.13.01,2.17-.93,3.23-1.96,4-1.03.77-6.35,3.45-7.54,4.55-2.22,2.05-4.99,3.08-6.09,2.99-2.28-.2-3.55-1.16-4.78-2.21Z"/>
                  <path class="cls-21" d="M217.56,192.62l8.38-.32s-1.55,9.88,1.37,13c1.64,1.75-7.82,5.29-7.82,5.29,0,0-3.73-1.88-3.49-2.15,4.9-5.43,1.56-15.82,1.56-15.82Z"/>
                  <path class="cls-22" d="M216.54,205.94c.19-.09,4.69,2.11,4.69,2.11,0,0,.2,1.48-.59,2.99-.25.48-1.9,1.6-2.42,1.75-.52.15-4.61-2.37-4.61-2.37,0,0,2.8-4.42,2.94-4.49Z"/>
                </g>
                <path class="cls-19" d="M217.88,201.56c-.06,2.04,1.74,4,6.04,3.32,4.29-.69,4.53-3.7,4.46-5.38-.07-1.69.65-29.86,3.96-35.21,3.31-5.35,30.96-15.4,34-20.7,3.04-5.3-.76-16.76-.76-16.76-.27-.9-19.2-12.13-19.2-12.13l-1.88,20.15s-21.38,17.51-24.66,22.29c-3.28,4.78-1.9,42.39-1.96,44.43Z"/>
              </g>
              <path class="cls-19" d="M267.47,120.69c.26,2.46.79,18.94-1.25,21.08-2.03,2.13-13.58.82-16.82.24-3.86-.69-.31-1.53-6.68-6.68-3.03-2.45-7.91-5.34-8.91-9.7-.45-1.95,4.1-5.18,6.05-8.72,2.18-3.96,1.82-8.15,1.82-8.15,0,0,25.59,10.09,25.79,11.94Z"/>
              <g>
                <g>
                  <path class="cls-21" d="M258.21,65.07c4.05,2.41,8.21,7.28,8.21,7.28l-7.88,49.42-17.53-5.69-1.56-44.56s3.54-3.95,7.47-5.72c3.93-1.77,7.24-3.14,11.29-.73Z"/>
                  <g>
                    <path class="cls-18" d="M247.07,74.77c.2.07,2.36.79,2.94.53.84-.36,2.87-4.12,2.68-4.45-.06-.11-3.26-2-4.1-2.06-.63-.05-3.25.41-3.56,1.09-.28.62,1.56,4.71,2.05,4.88Z"/>
                    <path class="cls-18" d="M250.23,71.87l-2.76-.82s-4.62,42.54-4.81,42.87c-.71,1.27,2,7.88,3.52,7.78,1.52-.11,4.69-4.12,4.66-4.72-.03-.67-.61-45.11-.61-45.11Z"/>
                  </g>
                  <path class="cls-14" d="M248.88,63.45s2.32-2.55-1.12-1.88c-4.26.83-9.34,5.87-9.73,7.24-.39,1.37.64,41.78.4,44.07-.25,2.29-5.44,10.02-4.87,11.56.57,1.53,8.4-2.62,8.4-2.62l1.57-11.14s-1.29-30.47.01-37.2c1.31-6.73,5.34-10.02,5.34-10.02Z"/>
                  <path class="cls-14" d="M263.8,68.7s.77-1.27-1.69-3.77c-3.14-3.2-8.62-6.15-8.62-6.15-11.02,3.41-6.76,10.21-6.76,10.21l17.07-.29Z"/>
                  <path class="cls-14" d="M272.2,79.08c-2.43-5.07-8.51-13.66-12.86-15.43,0,0,1.25,4.81.41,7.95-.83,3.13-6.55,38.02-6.55,38.02,0,0-.62,33.19,7.66,32.74,8.28-.45,9.14-3.99,9.14-3.99l-.3-25.05c4.05-10.88,4.93-29.16,2.5-34.23Z"/>
                  <g>
                    <path class="cls-14" d="M238.94,70.2c1.55-3.73,9.51-6.9,9.51-6.9,0,0-4.32,6.92-4.83,10.32-.52,3.39-.66,32.85-.66,32.85l-5.15-30.94,2.26-2.1-1.12-3.23Z"/>
                    <g>
                      <path class="cls-1" d="M259.33,63.55c4.65,2.4,5.67,5.59,6,7.16.33,1.57.69,7.11.69,7.11l-3.24,1.87.95,4.69-9.19,24.87s-2.74-12.8,2.29-23.26c5.33-11.06,2.5-22.44,2.5-22.44Z"/>
                      <path class="cls-14" d="M258.56,62.51c4.65,2.4,5.67,5.59,6,7.16.33,1.57.69,7.11.69,7.11l-3.69,2.5,1.4,4.06-9.75,26.28s-1.39-13.19,2.18-24.58c1.71-5.44,4.37-11.58,4.74-15.64.43-4.68-1.57-6.89-1.57-6.89Z"/>
                    </g>
                  </g>
                </g>
                <path class="cls-8" d="M248.41,61.91c-3.32,2.5-3,9.46-3,9.46l6.56-1.8c-.1-.42,7.46-3.25,6.45-7.24-.36-1.43-1.79-2.21-3.14-2.26-2.73-.09-5.48.8-6.86,1.84Z"/>
                <g>
                  <path class="cls-21" d="M248.55,62.56c-.95.25-3.03,1.72-3.75,3.73-.87,2.45-1.21,6.68-1.21,6.68l6-1.71.78-1.09c-.23-.74-1.53-5.79-1.83-7.61Z"/>
                  <path class="cls-21" d="M259.8,67.55c.2-.96-.27-5.64-1.76-7.17-1.81-1.87-5.16.17-5.16.17l-1.44,3.62.61.86c.77.12,5.99,1.98,7.75,2.52Z"/>
                  <g>
                    <path class="cls-25" d="M255.57,45.19l-2.42,14.2c1.5-.1,3.15.02,6.61-3.73,3.66-3.97,4.3-8.42,2.26-12.02-1.52.13-6.45,1.54-6.45,1.54Z"/>
                    <path class="cls-25" d="M252.77,35.52c-2.7-.29-6.84,1.71-8.81,2.99-3.06,1.98-6.13,4.68-6.18,5.75-.31,6.84,4.72,11.65,4.72,11.65,0,0,13.97-19.99,10.27-20.39Z"/>
                  </g>
                </g>
                <g>
                  <path class="cls-20" d="M245.82,60.82l4.56,9.35,1.89-1.12s6.46-5.19,5.96-6.83c-.5-1.64-1.14-2.5,0-8.02.81-3.92,0-4.9,0-4.9,0,0-5.86,2.53-9.92,7.27-1.03,1.2-2.47,4.26-2.47,4.26Z"/>
                  <path class="cls-21" d="M254.54,66.77c-2.1,1.56-2.92,2.19-4.17,3.39-.88.85-.78,1.09-.78,1.09l4.02,4.36s4.2-.91,6.01-4.04c1.78-3.07-1.73-10.97-1.73-10.97,0,0-1.24,4.61-3.34,6.17Z"/>
                  <g>
                    <path class="cls-7" d="M259.51,49.21c-1.18,2.12-2.81,6.3-3.7,8.22-1.26,2.74-7.41,7.06-7.41,7.06,0,0-5.14.87-5.96-.36-.83-1.23-2.64-5.74-2.98-7.54-.29-1.56.3-4.67-.44-7.93-.87-3.83,2.06-8.85,4.96-11.51,2.9-2.65,9.33-2.07,12.98-.61,3.18,1.27,5.32,4.09,5.9,6.39.58,2.3-1.78,3.42-3.37,6.27Z"/>
                    <path class="cls-25" d="M239.12,43.58c-.43-.72-.05-1.61.25-3.35.3-1.74,2.28-6.74,6.47-7.15,4.18-.4,8.45.66,10.58,1.16,4.14.97,3.56,2.16,4.7,3.18,6.07,4.91,4.17,10.11,1.99,13.98-2.43,4.32-4.5,4.51-4.89,4.68-.4.17.47-2.07.15-4.51-.18-1.41-2.54-2.64-2.74-1.81-.12.5-2.58,2.77-2.54,3.27-.42-.94-1.71-4.49-2.73-4.68-7.06-1.34-2.36-4.59-2.36-4.59,0,0-8.44.54-8.87-.19Z"/>
                    <path class="cls-7" d="M256.4,48.5c.82-.43,2.7,1.05,2.57,3.61-.11,2.21-2.43,5.05-3.15,3.66-.72-1.39-.98-6.44.58-7.27Z"/>
                  </g>
                </g>
                <path class="cls-25" d="M245.22,34.1c-3.76-.2-4.89,3.91-5.61,4.29-.72.38-3.69,2.74-3.69,2.74,0,0,1.3,2.41,3.42,3.82,2.12,1.41,11.08.33,11.08.33,4.72-.45,10-3.8,10.11-6.67.11-2.88-8.68-4.15-15.32-4.5Z"/>
              </g>
            </g>
            <g>
              <path class="cls-1" d="M260.4,100.53c-.87,6.41-.48,21.48-.48,21.48,0,0-4.2,18.38-2.43,17.82,1-.32,7.76-7.5,10.42-11.78,2.66-4.28,4.25-38.87.68-42.01-2.34-2.05-7.32,8.07-8.19,14.48Z"/>
              <path class="cls-14" d="M272.19,80.74c-2.47-3.73-6.59-.14-7.41,5.9-.82,6.04-1.81,23.08-2.73,27.69-.92,4.61,3.97,7.51,7.31,2.79,3.34-4.72,5.3-32.65,2.83-36.38Z"/>
              <g>
                <g>
                  <g>
                    <path class="cls-7" d="M243.5,141.4c-.71.09-2.57.52-3.43.69-1.01.2-3.66.85-3.42,1.52.3.82,3.82.26,4.5.3.83.06,1.75.9,2.44.52.69-.38,1.29-3.21-.09-3.04Z"/>
                    <path class="cls-7" d="M236.77,148.19c.14-.32,1.34-2.66,3.22-4.32l1.31,1.31s-.18.06-.44.23c-.96.58-2.87,3.85-3.64,3.99-.99.17-.73-.53-.45-1.2Z"/>
                    <path class="cls-7" d="M238.03,151.47c-.25-.12-.47-.41-.39-.81.11-.55.52-1.17.68-1.71.28-.94,3.04-4.28,3.04-4.28l1.24,1.18c-.26.32-2.59,2.42-2.59,2.42,0,0-1.41,3.46-1.97,3.19Z"/>
                    <path class="cls-7" d="M239.24,151.71c.49-1.27,2.09-4.2,2.79-5.28.02-.03.04-.06.06-.09-.16,0-1.11-.04-1.39-.3-.3-.29.26-.87.26-.87,0,0-1.09-.02-1.44-.3-.35-.28.19-.96.19-.96,1.77-2.16,4.84-2.86,5.4-3.07,2.5-.91,3.31-.81,4.59-1.77,1.28-.96,2.73-3.39,2.73-3.39l3.74,1.45s-2.94,4.46-3.81,5.87c-1.27,2.06-5.37,4.69-7.58,5.64-.88.38-1.64,1.2-2.29,1.87-.47.5-.93.89-1.11,1.1-.33.4-1,.02-.55-.56.72-.91,2.1-2.66,2.6-3.52-.4.42-.93.92-.93.92,0,0-2.3,3.08-2.45,3.55-.15.47-.99.17-.81-.31Z"/>
                  </g>
                  <path class="cls-17" d="M251.45,136.55l-1.29,1.93c.87,1.5,3.22,2.69,3.87,2.61.66-.09,2.01-2.04,2.01-2.04l-4.59-2.5Z"/>
                </g>
                <path class="cls-14" d="M262.63,113.15s-11.71,22.42-11.71,23.42c0,1,3.77,3.88,5.45,3.1.95-.44,10.9-17.97,12.99-22.55-.82-4.45-2.3-6.7-6.73-3.97Z"/>
              </g>
            </g>
          </g>
        </g>
      </g>
    </g>
  </g>
</svg>