<?xml version="1.0" encoding="UTF-8"?>
<svg xmlns="http://www.w3.org/2000/svg" xmlns:xlink="http://www.w3.org/1999/xlink" viewBox="0 0 380 433.74">
  <defs>
    <style>
      .cls-1 {
        fill: #2f3662;
      }

      .cls-2 {
        fill: #b4c3e4;
      }

      .cls-3 {
        fill: #56568c;
      }

      .cls-4 {
        fill: #1e264c;
      }

      .cls-5 {
        fill: url(#linear-gradient-2);
      }

      .cls-6 {
        mask: url(#mask-1);
      }

      .cls-7 {
        fill: #a6d9e7;
      }

      .cls-8 {
        fill: #61619d;
      }

      .cls-9 {
        fill: #eaa5bc;
      }

      .cls-10 {
        fill: #fff;
      }

      .cls-11 {
        mask: url(#mask);
      }

      .cls-12 {
        filter: url(#luminosity-invert-noclip);
      }

      .cls-13 {
        fill: #94d3e4;
      }

      .cls-14 {
        fill: #c4c4da;
      }

      .cls-14, .cls-15, .cls-16 {
        mix-blend-mode: multiply;
      }

      .cls-17 {
        fill: #a1bfd5;
      }

      .cls-18 {
        fill: #bcdef5;
      }

      .cls-19 {
        fill: #e84857;
      }

      .cls-20 {
        fill: url(#linear-gradient-3);
      }

      .cls-21 {
        fill: #3a3c6f;
      }

      .cls-22 {
        fill: #b0d0e9;
      }

      .cls-23, .cls-15 {
        fill: #bbc8e6;
      }

      .cls-24 {
        fill: #d7d5e9;
      }

      .cls-25 {
        isolation: isolate;
      }

      .cls-26 {
        fill: #5f7bbc;
      }

      .cls-27 {
        fill: #eea3b7;
      }

      .cls-28 {
        fill: #2a335a;
      }

      .cls-29 {
        fill: #e396af;
      }

      .cls-30 {
        fill: #e6e3f1;
      }

      .cls-31 {
        fill: #d04078;
      }

      .cls-32 {
        fill: #a1b3dc;
      }

      .cls-33 {
        filter: url(#luminosity-invert-noclip-2);
      }

      .cls-34 {
        fill: #bcc8e6;
      }

      .cls-35 {
        fill: #e96092;
      }

      .cls-16 {
        fill: #e6e8f0;
      }

      .cls-36 {
        fill: url(#linear-gradient);
      }

      .cls-37 {
        fill: #24395f;
      }
    </style>
    <linearGradient id="linear-gradient" x1="247.09" y1="90.89" x2="230.92" y2="271.82" gradientUnits="userSpaceOnUse">
      <stop offset="0" stop-color="#fff"/>
      <stop offset=".23" stop-color="#fbfdfe"/>
      <stop offset=".44" stop-color="#f0f7fc"/>
      <stop offset=".63" stop-color="#deeef9"/>
      <stop offset=".82" stop-color="#c4e1f5"/>
      <stop offset="1" stop-color="#a6d2f0"/>
    </linearGradient>
    <filter id="luminosity-invert-noclip" x="243.12" y="221.55" width="80.89" height="116.76" color-interpolation-filters="sRGB" filterUnits="userSpaceOnUse">
      <feColorMatrix result="cm" values="-1 0 0 0 1 0 -1 0 0 1 0 0 -1 0 1 0 0 0 1 0"/>
      <feFlood flood-color="#fff" result="bg"/>
      <feBlend in="cm" in2="bg"/>
    </filter>
    <linearGradient id="linear-gradient-2" x1="282.97" y1="227.58" x2="284.96" y2="306.21" gradientUnits="userSpaceOnUse">
      <stop offset="0" stop-color="#fff"/>
      <stop offset="1" stop-color="#000"/>
    </linearGradient>
    <mask id="mask" x="243.12" y="221.55" width="80.89" height="116.76" maskUnits="userSpaceOnUse">
      <g class="cls-12">
        <rect class="cls-5" x="244.58" y="221.55" width="79.43" height="116.76"/>
      </g>
    </mask>
    <filter id="luminosity-invert-noclip-2" x="92.39" y="234.62" width="157.05" height="133.78" color-interpolation-filters="sRGB" filterUnits="userSpaceOnUse">
      <feColorMatrix result="cm" values="-1 0 0 0 1 0 -1 0 0 1 0 0 -1 0 1 0 0 0 1 0"/>
      <feFlood flood-color="#fff" result="bg"/>
      <feBlend in="cm" in2="bg"/>
    </filter>
    <linearGradient id="linear-gradient-3" x1="865.27" y1="-1792.34" x2="867.26" y2="-1713.71" gradientTransform="translate(-695.6 2323) scale(1 1.16)" gradientUnits="userSpaceOnUse">
      <stop offset=".11" stop-color="#fff"/>
      <stop offset="1" stop-color="#000"/>
    </linearGradient>
    <mask id="mask-1" x="92.39" y="234.62" width="157.05" height="133.78" maskUnits="userSpaceOnUse">
      <g class="cls-33">
        <rect class="cls-20" x="131.21" y="233.69" width="79.43" height="135.65" transform="translate(357.02 9.13) rotate(62.02)"/>
      </g>
    </mask>
  </defs>
  <g class="cls-25">
    <g id="_レイヤー_1" data-name="レイヤー 1">
      <g>
        <g>
          <path class="cls-17" d="M322.23,247.71c80.27,44.54,73.71,111.56,0,154.12-73.72,42.56-193.23,42.56-266.95,0-73.71-42.56-73.71-111.56,0-154.12,73.72-42.56,192.52-41.3,266.95,0Z"/>
          <path class="cls-18" d="M323.27,235.19c73.71,42.56,73.71,111.56,0,154.12-73.71,42.56-193.23,42.56-266.95,0-73.72-42.56-73.72-111.56,0-154.12,73.71-42.56,193.23-42.56,266.95,0Z"/>
        </g>
        <g>
          <g>
            <path class="cls-22" d="M347.09,340.11l-209.23-120.8c-6.66-3.85-12.07-12.37-12.07-19.03V6.97c0-6.66,5.4-8.95,12.07-5.1l209.23,120.8c6.66,3.85,12.07,12.37,13.46,21.65,0,0-.32,190.85-.32,194.08s-5.36,7.27-9.02,7.12c-1.85-.08-3.75-2.84-4.11-5.39Z"/>
            <path class="cls-10" d="M344.23,343.64l-209.23-120.8c-6.66-3.85-12.07-12.37-12.07-19.03V10.49c0-6.66,5.4-8.95,12.07-5.1l209.23,120.8c6.66,3.85,12.07,12.37,12.07,19.03v193.31c0,6.67-5.4,8.95-12.07,5.1Z"/>
            <path class="cls-36" d="M337.23,332.32l-195.24-112.72c-6.22-3.59-11.26-11.54-11.26-17.76V21.47c0-6.22,5.04-8.35,11.26-4.76l195.24,112.72c6.22,3.59,11.26,11.54,11.26,17.76v180.38c0,6.22-5.04,8.35-11.26,4.76Z"/>
          </g>
          <g>
            <g>
              <polygon class="cls-7" points="232.76 227.87 223.17 246.4 341.75 314.87 325.6 240.04 303.97 254.54 294.95 183.08 277.13 192.42 274.08 116 252.3 214.99 245.59 119.78 232.76 227.87"/>
              <polygon class="cls-15" points="224.21 147.51 223.17 246.4 341.75 314.87 337.83 263.84 321.98 278.19 322.54 262.98 316.9 266.09 305.76 193.3 283.83 232.05 273.29 208.2 265.69 217.64 256.02 187.03 244.84 183.66 224.21 147.51"/>
            </g>
            <g>
              <path class="cls-16" d="M196.36,86.16c-5.37-6.8-11.87-12.71-18.88-16.75-4.94-2.85-9.63-4.49-13.85-4.99-11.49-1.38-19.48,5.61-19.48,19.07,0,18.41,14.92,41.95,33.33,52.57,1.5.87,2.98,1.62,4.43,2.27,16.31,7.25,28.9.55,28.9-16.35,0-11.4-5.73-24.77-14.45-35.81Z"/>
              <g>
                <path class="cls-13" d="M200.63,81.17l-4.96,2.84-12.63,12.6-17.87-32.86,4.96-2.84c3.93.47,8.31,1.99,12.91,4.65,6.53,3.77,12.59,9.28,17.59,15.62Z"/>
                <path class="cls-32" d="M214.11,114.55c0,8.77-4.96,15.43-11.89,18.4-4.59,1.96-8.31-.16-15.05-3.16l-4.13-33.18,12.63-12.6,4.96-2.84c8.13,10.29,13.47,22.75,13.47,33.38Z"/>
                <path class="cls-24" d="M187.17,129.79c-1.36-.6-2.73-1.3-4.13-2.11-17.16-9.9-31.07-31.84-31.07-49,0-4.46-2.52-7.39-.83-10.25,3.07-5.18,12.08-8.35,18.99-7.52l-4.96,2.84,17.87,32.86,4.13,33.18Z"/>
              </g>
              <g>
                <path class="cls-7" d="M195.67,84.02l-17.59,15.44-12.91-35.71c3.93.47,8.31,1.99,12.91,4.65,6.53,3.77,12.59,9.28,17.59,15.62Z"/>
                <path class="cls-23" d="M209.14,117.39c0,15.76-11.73,22-26.94,15.24l-4.13-33.18,17.59-15.44c8.13,10.29,13.47,22.75,13.47,33.38Z"/>
                <path class="cls-24" d="M182.21,132.64c-1.35-.6-2.73-1.3-4.13-2.11-17.16-9.91-31.07-31.84-31.07-49,0-12.54,7.45-19.06,18.16-17.77l12.91,35.71,4.13,33.18Z"/>
              </g>
            </g>
          </g>
          <g>
            <polygon class="cls-35" points="169.01 185.13 230.59 220.69 222.46 225.41 162.77 190.94 169.01 185.13"/>
            <polygon class="cls-31" points="235.76 160.95 235.51 248.01 243.64 243.28 243.89 156.22 235.76 160.95"/>
            <polygon class="cls-35" points="222.38 141.62 230.51 136.89 273.19 156.88 265.06 161.6 222.38 141.62"/>
            <polygon class="cls-19" points="265.06 161.6 273.19 156.88 314.08 137.05 305.95 141.77 265.06 161.6"/>
            <polygon class="cls-35" points="326.65 146.95 334.78 142.22 327.5 170.8 319.37 175.52 326.65 146.95"/>
            <polygon class="cls-35" points="298.19 122.22 306.32 117.5 334.78 142.22 326.65 146.95 298.19 122.22"/>
            <polygon class="cls-31" points="298.19 122.22 326.65 146.95 319.37 175.52 311.75 156.38 270.21 177.07 235.76 160.95 235.55 232.97 235.51 248.01 222.42 240.45 166.97 208.44 167.64 193.76 222.46 225.41 222.38 141.62 265.06 161.6 305.95 141.77 298.19 122.22"/>
          </g>
          <g>
            <g>
              <polygon class="cls-23" points="136.98 178.86 137.18 203.03 156.16 214.06 155.95 189.89 136.98 178.86"/>
              <polygon class="cls-32" points="155.95 189.89 156.16 214.06 160.94 211.31 160.73 187.13 155.95 189.89"/>
              <polygon class="cls-32" points="136.98 178.86 155.95 189.89 160.73 187.13 141.75 176.1 136.98 178.86"/>
            </g>
            <g>
              <polygon class="cls-23" points="158.3 174.94 158.5 214.84 177.48 225.87 177.27 185.97 158.3 174.94"/>
              <polygon class="cls-32" points="177.27 185.97 177.48 225.87 182.26 223.11 182.05 183.21 177.27 185.97"/>
              <polygon class="cls-32" points="158.3 174.94 177.27 185.97 182.05 183.21 163.07 172.18 158.3 174.94"/>
            </g>
            <g>
              <polygon class="cls-23" points="179.87 153.88 180.08 227.14 199.05 238.17 198.85 164.91 179.87 153.88"/>
              <polygon class="cls-32" points="198.85 164.91 198.95 201.53 199.05 238.17 203.83 235.41 203.62 162.15 198.85 164.91"/>
              <polygon class="cls-32" points="179.87 153.88 198.85 164.91 203.62 162.15 184.65 151.12 179.87 153.88"/>
            </g>
          </g>
        </g>
        <g class="cls-11">
          <path class="cls-17" d="M243.12,313.85l5.96,3.93s34.45-16.72,34.51-17.17c.03-.21-.22-37.05,2.88-35.72,3.11,1.33,4.88,41.49,4.88,41.49l-32.74,20.12,5.85,5.29s36.18-18.65,37.75-19.42l3.77-76.1-32.84-.22s-4.3,51.98-3.45,66.2l-26.59,11.6Z"/>
        </g>
        <g class="cls-6">
          <path class="cls-17" d="M133.47,313.85l-23.78,13.87,12.47,11.37s60.77-23.8,62.34-24.57c0,0,42.82-11.46,44.76-21.78,1.94-10.32-10-18.87-20.16-22.74-10.16-3.87-56.5,30.22-56.5,30.22l-19.13,13.63Z"/>
        </g>
        <g>
          <g>
            <g>
              <g>
                <g>
                  <path class="cls-28" d="M127.67,314.99c-.31.86-2.09,6.55-1.04,7.88,1.06,1.33,3.88,2.43,5.57,1.96.92-.25,5.53,2.53,6.98,3.79,1.92,1.67,4,3.07,5.57,2.99,1.56-.08,5.53-1.91,5.93-3.22.45-1.49-.43-3.75-5.11-5.42-3.74-1.04-9.01-9.55-9.01-9.55l-5.37-.82-3.52,2.39Z"/>
                  <path class="cls-2" d="M137.07,306.17c-4.21-2.28-9.36.02-9.36.02l.39,9.66c-.94,2.74,9.2,1.69,9.2,1.69-2.28-3.4-1.33-7.67-.24-11.37Z"/>
                </g>
                <path class="cls-4" d="M140.33,268.43c.38-8.47-.11-58.27-.11-58.27l-16.89,7.69c2.06,13.67,4.27,46.52,3.96,50.96-.31,4.43-1.03,46.57.24,48.42,1.28,1.84,10.36,1.25,11.29-.13.93-1.37,1.12-40.2,1.5-48.66Z"/>
              </g>
              <g>
                <g>
                  <path class="cls-28" d="M105.24,323.3c-.41.71-1.8,7.17-1.08,8.43.71,1.26,11.78,9.06,14.11,9.49,3.98.74,6.83-2.22,6.79-4.24-.04-2.01-2.51-3.44-5.74-4.66-2.78-1.3-3.64-7.42-4.27-8.35-.64-.93-6.32-2.23-6.32-2.23l-3.48,1.56Z"/>
                  <path class="cls-34" d="M115.65,325.84c-1.09-.22-2.14-7.16-.44-8.35l-6.53-1.74c-.26,2.88-2.77,9.51-2.77,9.51,0,0,5.67,1.99,5.83,1.92.58-2.14,3.92-1.35,3.92-1.35Z"/>
                </g>
                <path class="cls-28" d="M105.84,222.63s1.33,30.39.49,47.36c0,0-2.18,52-2.34,53.15-.16,1.16,1.22,4.5,4.33,5.19,3.11.69,7.53-1.4,7.99-1.87.48-.48-.06-28.35,3.19-55.56,3.64-30.53,8.04-53.39,7.59-54.47-3.6-8.68-21.27,6.19-21.27,6.19Z"/>
              </g>
              <path class="cls-28" d="M139.46,199.63c1.06,3.24.27,14.27.27,14.27.72,1.68-18,14.9-22.57,13.71-2.9-.76-11.08-4.23-11.32-4.97-.77-2.35-1.12-16.97-.58-19.17,1.09-4.44,16.7-8.73,21.98-9.5,2.49-.36,11.17,2.42,12.23,5.66Z"/>
            </g>
            <g>
              <path class="cls-3" d="M130.99,148.86c-1.69-1.96-7.55-4.53-7.55-4.53,0,0,8.72,39.37,13.02,41.66,4.3,2.3,2.73-6.79,2.73-6.79,0,0-6.52-28.39-8.2-30.34Z"/>
              <g>
                <path class="cls-8" d="M121.74,136.54c-4.01,2.6-9.71,10.79-9.71,10.79l7.96,62.45,17.79-7.78s1.78-43.78,1.05-48.67c-.73-4.9-3.41-11.41-7.38-13.2-3.97-1.79-5.7-6.19-9.71-3.6Z"/>
                <path class="cls-30" d="M124.16,137.67c-4.01,2.6-9.71,10.8-9.71,10.8l7.96,62.45,17.78-7.78s1.78-43.78,1.05-48.67c-.72-4.9-3.41-11.41-7.38-13.2-3.97-1.79-5.7-6.19-9.71-3.6Z"/>
                <path class="cls-26" d="M136.02,170.9l-1.58-18.73c2.23-3.53-.59-5.49-1.35-6.33-.67-.73-3.26-3.21-3.26-3.21l-3.8,3.91,4.95,5.73-2.78,19.29.87,24.09,6.41,8.02,4.07-5.11-3.52-27.67Z"/>
                <path class="cls-8" d="M127.2,137.76s4.32-1.73,7.52-.22c2.41,1.13,4.51,2.31,5.8,4.47.9,1.51,1.62,3.7,1.86,5.62.57,4.62-1.1,53.3-1.1,53.3l1.14,12.05s-2.87,3.07-7.41-1.57c-4.54-4.64.5-20.93.5-20.93,0,0,.83-26.26,1.25-34.51.04-17.07-9.56-18.21-9.56-18.21Z"/>
                <path class="cls-8" d="M105.76,156.43c1.16-4.09,6.4-10.25,6.4-10.25,2.01-2.18,3.63-4.39,7.21-7.42,0,0,.53,1.23.3,6.08-.08,1.66,4.8,8.64,6.41,14.98,1.67,6.55,10.85,35.64,10.77,43.72-.08,9.02-7.67,15.55-7.67,15.55,0,0-9.85,8.49-12.68,7.17-7.28-3.38-13.43-9.98-13.43-9.98l1.08-15.17s2.83-15.73,1.62-25.66c-.41-3.37-1.16-14.92,0-19.01Z"/>
              </g>
              <path class="cls-14" d="M144.6,181.45c-1.32-5.6-18.4-7.09-21.51-10.3-3.11-3.2-11.26-8.41-12-5.86-.16.55-4.37,2.99-3.58,5.59,2.8,9.3,20.58,14.11,22.15,15.77,2,2.13,16.3.54,14.95-5.2Z"/>
              <g>
                <path class="cls-30" d="M131.96,136.31s2.23,5.45,2.85,8.23c.62,2.79.43,3.97.43,3.97l-6.19-3.13s-12.28-3.67-8.66-9.24c2.23-3.42,11.56.16,11.56.16Z"/>
                <path class="cls-29" d="M130.9,138.22c.32,1.86,1.1,2.06,1.1,2.06l-4.34,4.55s-7.2-6.22-6.57-7.92c.63-1.7.74-3.28-.11-9.16-.6-4.17,1.67-4.08,1.67-4.08,0,0,6,3.03,9.97,8.27,1,1.33-2.15,3.77-1.72,6.27Z"/>
                <path class="cls-30" d="M124.32,140.01c2.07,1.83,5.41,4.34,5.41,4.34l-4.22,5.91s-4.33-2.5-6.03-5.91c-1.67-3.34,1.51-8.4,1.51-8.4,0,0,1.28,2.23,3.34,4.06Z"/>
                <g>
                  <path class="cls-9" d="M114.99,124.37c1.33,2.18,5.93,4.87,6.94,6.85,1.45,2.83,5.17,6.24,7.39,6.9,2.22.66,5.21.01,6.02-1.31.81-1.33,3.15-4.81,3.75-7.19.6-2.38-.52-4.9.11-8.37.75-4.07-2.55-9.23-5.73-11.9-3.17-2.67-9.91-1.76-13.7-.07-3.29,1.47-5.42,4.54-5.93,6.99-.51,2.45-.66,5.16,1.13,8.09Z"/>
                  <path class="cls-37" d="M139.73,117.02c.42-.78.44-2.57.05-4.39-.39-1.82-4-7.24-8.42-7.48-4.42-.24-9.02.84-11.24,1.46-4.32,1.2-3.5,2.66-4.65,3.79-6.18,5.44-2.3,10.85.16,14.83,2.75,4.44,4.92,4.88,5.35,5.04.43.16-2.22-2.51-1.99-5.1.13-1.49,2.56-2.89,2.81-2.02.15.52,1.39,3.35,1.37,3.88.4-1.01,3.06-5.35,4.12-5.59,7.37-1.72,5.84-4.51,5.84-4.51,0,0,6.18.88,6.6.09Z"/>
                  <path class="cls-9" d="M121.15,122.97c-.88-.42-2.79,1.22-2.55,3.92.21,2.32,2.78,5.21,3.47,3.71.69-1.5-.12-1.86-.27-3.46-.32-3.32,1.02-3.36-.65-4.17Z"/>
                </g>
              </g>
            </g>
          </g>
          <g>
            <g>
              <g>
                <path class="cls-9" d="M185,181.86c.77-1.2,5.78-.7,7.36.08,1.58.78.88,3.07.59,4.69-.29,1.63-6.05-1-6.63-1.37-.58-.36-1.96-2.41-1.32-3.41Z"/>
                <path class="cls-29" d="M182.48,188.58c.42-2,1.74-3.92,2.62-5.08.88-1.16,3.34-1.09,4.96-1.35,1.85-.31,3.16-.31,4.46-.22,1.83.13,6.46-.12,6.46-.12l2.17,2.29-.11,2.04s-4.09,1.31-4.56,1.71c-.7.6-1.66,1.37-2.11,1.53-1,.37-1.94.86-2.73,1.3-2.17,1.22-4.75,1.33-4.75,1.33-3.51-.52-6.74-1.89-6.41-3.44Z"/>
              </g>
              <g>
                <path class="cls-9" d="M195.55,188.79c-.85-.82-3.88-1.89-4.37-2.07-.89-.02-2.26.33-1.36,1.05.57.33,4.34,1.94,4.72,2.12.38.18,1.86-.29,1.01-1.11Z"/>
                <path class="cls-9" d="M194.38,189.7c-.46-.43-1.78-.74-2.33-.94-.49-.18-2.04-1.18-2.54-1.33-.89.03-.93,1.13,0,1.81.58.3,3.46,1.37,3.99,1.55.53.18,1.25-.55.87-1.09Z"/>
                <path class="cls-9" d="M193.17,190.66c-.44-.29-1.64-.75-2.12-.84-.43-.08-3.18-1.22-3.61-1.27-.73.14-1.32.97-.46,1.4.52.17,5.89,1.97,6.22,1.69.36-.31.36-.58-.03-.97Z"/>
                <path class="cls-9" d="M192.3,185.57c-1.25-.74-2.75-.75-3.15-1.06-.92-.73-2.21-.6-2.46-1.07-.25-.47,1.38-2.24,1.19-2.32-1.39-.59-5.53.09-7.33.83-1.68.69-7.02,1.13-7.02,1.13l-.65,5.11,6.71-.52,9.57,3.01,3.13-5.12Z"/>
                <path class="cls-9" d="M197.15,188.21c.24-.58-.88-1.01-1.41-1.4-.13-.1-2.81-1.1-5.24-2.03,0,0-.7,1.55-.31,1.76.39.2,5.43,2.29,5.71,2.36.53.14,1-.1,1.25-.69Z"/>
              </g>
              <path class="cls-29" d="M190.14,184.32c-1.06.54-2.27,2.67-3.16,3.11s-.39,1.8.95,1.36c.92-.3,1.87-1.11,2.44-1.79.26-.31,3.59-.92,3.69-1.11,2-4.01-2.85-2.12-3.91-1.57Z"/>
              <path class="cls-29" d="M185.51,188.51c-.34.11-2.76,1.22-2.76,1.65,0,.43.41,1.18,1.14,1,.73-.18,2.15-1.46,2.15-1.46.64-.51.07-1.16-.53-1.19Z"/>
              <path class="cls-29" d="M186.62,189.46c-.31.1-2.51,1.11-2.51,1.5,0,.39.37,1.07,1.04.91.66-.16,1.96-1.33,1.96-1.33.58-.46.07-1.06-.48-1.08Z"/>
              <path class="cls-29" d="M188.1,189.95c-.31.1-2.51,1.11-2.51,1.5,0,.39.37,1.07,1.04.91.66-.16,1.96-1.33,1.96-1.33.58-.46.06-1.06-.48-1.08Z"/>
              <path class="cls-29" d="M189.6,190.4c-.31.1-2.51,1.11-2.51,1.5,0,.39.37,1.07,1.04.91.66-.16,1.96-1.33,1.96-1.33.58-.46.06-1.06-.48-1.08Z"/>
            </g>
            <g>
              <polygon class="cls-30" points="172.27 182.29 176.16 181.92 177.74 183.58 176.5 188.51 171.65 189.18 172.27 182.29"/>
              <path class="cls-8" d="M173.99,181.8l-27.09-.65s-4.26,6.93-1.12,9.03c3.14,2.1,28.07-.91,28.07-.91l1.11-5.58-.98-1.89Z"/>
              <path class="cls-8" d="M149.4,181.9s-30.31-23.97-35.23-23.38c-4.92.59-7.2,8.13-4.48,10.76,2.71,2.63,33.17,23.86,37.48,20.95,4.31-2.91,2.23-8.33,2.23-8.33Z"/>
            </g>
            <polygon class="cls-30" points="201.95 180.67 199.15 181.24 200.27 187.48 203.96 186.25 201.95 180.67"/>
            <path class="cls-1" d="M228.98,171.69c-2.7-.93-27.93,8.92-27.93,8.92l.64,6.82s25.52-5.46,28.32-7.14c2.3-1.38,1.66-7.67-1.03-8.6Z"/>
            <path class="cls-1" d="M239.71,145.67c-2.73.85-15.64,28.58-15.64,28.58,0,0,1.53,9,6.54,5.47,5.01-3.54,14.41-21.5,15.67-24.51,1.03-2.48-3.84-10.39-6.56-9.54Z"/>
          </g>
          <g>
            <g>
              <g>
                <g>
                  <path class="cls-28" d="M252.4,307.69c.3.82,2,6.25.99,7.51-1.01,1.27-3.7,2.31-5.31,1.87-.87-.24-5.28,2.41-6.66,3.62-1.83,1.59-3.82,2.93-5.31,2.86-1.49-.07-5.28-1.82-5.65-3.07-.42-1.42.41-3.58,4.87-5.17,3.57-.99,6.8-8.39,6.8-8.39l6.92-1.5,3.36,2.28Z"/>
                  <path class="cls-2" d="M243.44,299.28c4.01-2.18,8.93.02,8.93.02l.47,8.88c.9,2.61-11.21,1.25-11.21,1.25,2.18-3.24,2.85-6.62,1.81-10.15Z"/>
                </g>
                <path class="cls-3" d="M239.95,266.12c-.36-8.08-2.47-41.99-1.73-52.65.59-8.62,15.5,5.31,15.5,5.31-1.97,13.05-.68,42.7-.68,46.23,0,3.52,1.43,45.05.21,46.81-1.22,1.76-11.54,1.3-12.43,0-.89-1.31-.51-37.6-.87-45.68Z"/>
              </g>
              <g>
                <g>
                  <path class="cls-28" d="M270.97,318.54c.39.68,1.15,6.55,1.15,6.55,0,0,.56,2.08.16,2.54-.42.5-11.52,7.59-13.74,8-3.8.7-6.51-2.12-6.48-4.04.04-1.92,2.4-3.29,5.48-4.45,2.66-1.24,3.47-7.08,4.08-7.96.61-.89,6.03-2.12,6.03-2.12l3.32,1.49Z"/>
                  <path class="cls-34" d="M261.04,320.96c1.04-.21,2.04-6.83.42-7.96l6.23-1.66c.25,2.75,2.65,9.07,2.65,9.07,0,0-5.41,1.89-5.56,1.83-.55-2.04-3.74-1.29-3.74-1.29Z"/>
                </g>
                <path class="cls-8" d="M269.21,207.99c.45.98,2.31,6.25,1.86,19.11-.55,15.45-1.94,24.4-1.14,40.59,0,0,2.08,49.6,2.23,50.71.15,1.1-1.17,4.29-4.14,4.95-2.97.66-7.18-1.33-7.62-1.78-.46-.46.05-27.04-3.04-53-3.48-29.13-8.93-60.66-8.5-61.68,3.43-8.28,15.75-9.01,20.36,1.12Z"/>
              </g>
              <path class="cls-8" d="M240.09,200.43c-1.01,3.09-3.02,10.42-1.5,13.12,1.52,2.7,16.65,14.84,21.02,13.69,2.76-.72,10.97-4.34,11.2-5.04.73-2.24-1.51-16.71-2.02-18.8-1.04-4.23-13.75-7.51-18.79-8.24-2.38-.35-8.89,2.18-9.9,5.27Z"/>
            </g>
            <g>
              <g>
                <g>
                  <path class="cls-30" d="M259.07,142.71c4.35,2.39,8.91,7.36,8.91,7.36l-7.27,60.79-18.06-8.71-3.1-51.97s3.58-4.29,7.66-6.29c4.08-2.01,7.51-3.57,11.86-1.18Z"/>
                  <g>
                    <path class="cls-32" d="M249.09,152.68c.21.07,2.51.74,3.11.46.87-.41,2.87-4.44,2.66-4.78-.07-.11-3.51-1.99-4.4-2.02-.67-.02-3.41.56-3.71,1.28-.27.66,1.81,4.9,2.34,5.07Z"/>
                    <path class="cls-32" d="M252.31,149.52l-2.93-.76s-3.72,44.98-3.5,45.32c.07.11,2.85,9,2.85,9,0,0,5.45-9.61,5.75-10.33.27-.66-2.16-43.23-2.16-43.23Z"/>
                  </g>
                  <path class="cls-21" d="M249.19,141.35s2.34-2.77-1.25-1.94c-4.46,1.03-8.66,5.94-9.02,7.39-.36,1.46-.42,44.46-.59,46.89-.18,2.43-1.81,16.01-1.81,16.01,0,0,3.2,6.52,7.4,5.19,4.2-1.33,3.35-7.51,3.35-7.51l.14-10.18s-4.61-37.96-3.48-45.1c1.13-7.14,5.26-10.75,5.26-10.75Z"/>
                  <path class="cls-21" d="M265.09,146.34s.76-1.36-1.91-3.9c-3.43-3.26-9.29-6.16-9.29-6.16-11.48,4-6.75,11-6.75,11l17.96-.93Z"/>
                  <path class="cls-21" d="M274.31,156.96c-2.74-5.25-9.46-14.08-14.1-15.78,0,0,1.49,5.02.73,8.35s-15.85,46.39-15.85,46.39c0,0-2.15,9.07,3.31,17.37,3.11,4.74,13.13,10.99,16.29,10.71,8.7-.78,9.47-4.54,9.47-4.54l-1.23-26.37c3.86-11.6,4.13-30.89,1.39-36.14Z"/>
                  <g>
                    <path class="cls-21" d="M238.97,148.83c1.49-3.98,8.41-8.31,8.41-8.31,0,0-1.13,2.64-1.55,6.24-.42,3.59-1.31,40.12-1.31,40.12l-4.46-31.95.21-2.74-1.3-3.36Z"/>
                    <g>
                      <path class="cls-1" d="M260.2,141.07c4.99,2.35,6.17,5.68,6.58,7.32.4,1.64.98,7.46.98,7.46l-3.34,2.09,1.17,4.9-8.77,26.53s-3.35-13.38,1.57-24.58c5.21-11.84,1.81-23.72,1.81-23.72Z"/>
                      <path class="cls-21" d="M259.35,140c4.98,2.36,6.17,5.68,6.58,7.32.4,1.64.98,7.47.98,7.47l-3.79,2.77,1.62,4.22-9.31,28.03s-1.95-13.84,1.4-25.97c1.6-5.79,3.71-15.09,4.72-18.86,1.29-4.79-2.21-4.97-2.21-4.97Z"/>
                    </g>
                  </g>
                </g>
                <path class="cls-30" d="M248.63,139.74c-3.4,2.76-2.18,8.66-2.18,8.66l6.37-1.47s7.57-2.96,6.36-7.11c-.43-1.49-1.96-2.26-3.39-2.26-2.88,0-5.75,1.04-7.16,2.19Z"/>
                <g>
                  <path class="cls-30" d="M250.49,138.47c-.99.29-3.13,1.92-3.81,4.07-.83,2.61-1.03,7.08-1.03,7.08l6.21-2.35.78-1.18c-.23-.45-1.78-5.72-2.16-7.62Z"/>
                  <path class="cls-30" d="M260.84,145.27c.17-1.02-.49-5.93-2.11-7.49-1.98-1.9-5.43.37-5.43.37l-1.39,3.87.67.88c.81.1,6.38,1.87,8.25,2.37Z"/>
                  <g>
                    <path class="cls-37" d="M256.45,121.98l-2.04,15.04c1.58-.16,3.32-.09,6.83-4.17,3.71-4.32,4.22-9.02,1.94-12.73-1.6.19-6.73,1.86-6.73,1.86Z"/>
                    <path class="cls-37" d="M255.22,109.2c-2.86-.21-7.14,2.06-9.16,3.47-3.15,2.2-6.29,5.15-6.3,6.28-.08,7.22,5.39,12.1,5.39,12.1,0,0,13.98-21.56,10.07-21.84Z"/>
                  </g>
                </g>
                <g>
                  <path class="cls-29" d="M247.93,136.04l4.53,9.64,1.95-1.12s6.7-5.22,6.21-6.91c-.49-1.69-1.13-2.58.12-8.22.89-4,.07-5.02.07-5.02,0,0-6.04,2.5-10.27,7.3-1.07,1.21-2.6,4.33-2.6,4.33Z"/>
                  <path class="cls-30" d="M256.78,142.27c-2.18,1.56-3.02,2.2-4.32,3.41-.92.86-.54,1.57-.54,1.57l3.77,4.06s3.4-1.13,5.3-4.31c1.86-3.12-.69-11.01-.69-11.01,0,0-1.34,4.71-3.52,6.27Z"/>
                  <g>
                    <path class="cls-9" d="M262.13,124.35c-1.24,2.16-2.98,6.41-3.91,8.37-1.33,2.79-7.69,7.12-7.69,7.12,0,0-5.28.81-6.1-.46-.83-1.27-2.62-5.92-2.94-7.77-.28-1.61.38-4.78-.33-8.14-.83-3.94,2.24-9.04,5.26-11.71,3.01-2.68,9.59-1.98,13.31-.43,3.24,1.35,5.39,4.27,5.95,6.64.56,2.37-1.88,3.47-3.54,6.38Z"/>
                    <path class="cls-37" d="M241.33,118.28c-.43-.75-.02-1.65.31-3.43.33-1.78,2.44-6.87,6.73-7.22,4.29-.35,8.65.81,10.82,1.35,4.23,1.06,3.62,2.26,4.76,3.33,6.15,5.12,4.12,10.42,1.83,14.35-2.56,4.39-4.67,4.56-5.08,4.72-.41.17.51-2.11.22-4.62-.17-1.44-2.56-2.74-2.78-1.89-.13.51-2.68,2.79-2.65,3.32-.41-.97-1.69-4.62-2.72-4.83-7.21-1.48-2.35-4.74-2.35-4.74,0,0-8.66.42-9.08-.33Z"/>
                    <path class="cls-9" d="M258.96,123.58c.85-.43,2.75,1.11,2.58,3.74-.14,2.26-2.57,5.14-3.28,3.7-.72-1.44-.91-6.62.7-7.44Z"/>
                  </g>
                </g>
                <path class="cls-37" d="M247.72,108.65c-3.85-.26-5.07,3.93-5.81,4.31-.74.37-3.82,2.75-3.82,2.75,0,0,1.3,2.49,3.45,3.96,2.15,1.47,11.35.5,11.35.5,4.84-.39,10.3-3.74,10.46-6.69.16-2.95-8.84-4.38-15.63-4.84Z"/>
              </g>
              <g>
                <path class="cls-1" d="M267.69,169.89c-.92,6.76-.5,22.63-.5,22.63,0,0-4.43,19.37-2.56,18.78.66-.21,3.67,18.71,6.53,15.37,1.72-2.01,3.4-26.08,4.45-27.78,2.8-4.5-.15-38.13-3.91-41.43-2.46-2.16-3.09,5.68-4,12.44Z"/>
                <g>
                  <g>
                    <path class="cls-27" d="M270.9,230.88l-.3,2.19s.15.3,1.05.08c.9-.21,2.07-1.02,1.86-2.38-.1-.64-.8-2.15-1.11-2.64-.51-.82-2.49-.2-2.48.33.01.54.98,2.41.98,2.41Z"/>
                    <path class="cls-27" d="M267.98,224.86c.36-.82.98-2.28,1.75-3.25.34-.42.6-3.96.99-4.1.6-.22,2.95.01,3.51.27.28.13-.67,2.35-.22,3.72.77,2.37,2.28,5.58,2.28,5.58,0,0,.08,1.39-.71,1.68-.57.21-1.16.51-1.77.64-1.86.39-3.24-.57-4.76-1.61-.97-.66-1.16-2.15-1.06-2.93Z"/>
                    <path class="cls-27" d="M275.03,228.8c.53,1.61-.65,2.55-.65,2.55-.34.88-1,.64-1.78.42,0,0-.56-2.81.45-3.87,1.12-.41,1.79.22,1.98.89Z"/>
                    <path class="cls-27" d="M275.12,228.29c.85.81-.53,3.41-.82,2.72-.3-.73.03-.85.06-1.65.03-.92.34-1.26.76-1.07Z"/>
                    <path class="cls-27" d="M274.92,228.37c.19-.34.91-1.12,1.3-1.23.16-.04.27,1.3.24,1.5-.1.51-.96,1.96-1.49,1.9-.53-.06-.49-1.35-.05-2.17Z"/>
                    <path class="cls-27" d="M269.88,222.93c-1.53.99-2.11,1.15-2.17,4.35-.01.66.15,5.82,1.49,5.13.63-.32.82-1.51.78-2.05-.12-1.42,1.06-1.53,1.63-2.82.73-1.67-.56-3.52-1.73-4.62Z"/>
                  </g>
                  <path class="cls-30" d="M269.74,214.43s-.61,3.83-.19,4.36c.41.53,5.47,1.09,5.47,1.09l.17-4.23-5.45-1.22Z"/>
                  <path class="cls-21" d="M278.88,184.24c-4.94-1.06-7.86-.08-8.59,4.53.96,4.36-1.43,28.52-1.43,28.52l6.5.5c.33.71,6.36-27.64,3.52-33.55Z"/>
                  <path class="cls-21" d="M274.89,158.63c-1.53-6.65-6.15-4.2-8.48.96-2.12,4.71,4.13,29.67,4.13,29.67,0,0,4.35.11,8.72-2.1.79-4.85-4.37-28.54-4.37-28.54Z"/>
                </g>
              </g>
            </g>
          </g>
        </g>
      </g>
    </g>
  </g>
</svg>