<svg xmlns="http://www.w3.org/2000/svg" viewBox="0 0 380 354.23"><defs><linearGradient id="linear-gradient" x1="872.92" y1="-1830.3" x2="874.71" y2="-1759.13" gradientTransform="matrix(1 0 0 1.16 -696.34 2338.02)" gradientUnits="userSpaceOnUse"><stop offset=".11" stop-color="#fff"/><stop offset="1"/></linearGradient><linearGradient id="linear-gradient-2" x1="328.06" y1="239.87" x2="246.36" y2="285.15" gradientTransform="rotate(-61.05 287.867 262.143)" gradientUnits="userSpaceOnUse"><stop offset="0" stop-color="#fff"/><stop offset=".16" stop-color="#dcdcdc"/><stop offset=".51" stop-color="#838383"/><stop offset="1"/></linearGradient><filter id="luminosity-invert-noclip" x="106.63" y="206.13" width="142.13" height="121.07" color-interpolation-filters="sRGB" filterUnits="userSpaceOnUse"><feColorMatrix result="cm" values="-1 0 0 0 1 0 -1 0 0 1 0 0 -1 0 1 0 0 0 1 0"/><feFlood flood-color="#fff" result="bg"/><feBlend in="cm" in2="bg"/></filter><filter id="luminosity-invert-noclip-2" x="224.25" y="205.12" width="127.26" height="114.05" color-interpolation-filters="sRGB" filterUnits="userSpaceOnUse"><feColorMatrix result="cm" values="-1 0 0 0 1 0 -1 0 0 1 0 0 -1 0 1 0 0 0 1 0"/><feFlood flood-color="#fff" result="bg"/><feBlend in="cm" in2="bg"/></filter><mask id="mask" x="106.63" y="206.13" width="142.13" height="121.07" maskUnits="userSpaceOnUse"><g filter="url(#luminosity-invert-noclip)"><path transform="rotate(62.02 177.697 266.684)" fill="url(#linear-gradient)" d="M141.76 205.28h71.88v122.76h-71.88z"/></g></mask><mask id="mask-1" x="224.25" y="205.12" width="127.26" height="114.05" maskUnits="userSpaceOnUse"><g filter="url(#luminosity-invert-noclip-2)"><path transform="rotate(61.05 287.872 262.137)" fill="url(#linear-gradient-2)" d="M251.94 209.31h71.88v105.67h-71.88z"/></g></mask><style>.cls-4{fill:#2f3662}.cls-5{fill:#b4c3e4}.cls-9{fill:#cbd5ec}.cls-10{fill:#61619d}.cls-11{fill:#eaa5bc}.cls-12{fill:#fff}.cls-15{fill:#a1bfd5}.cls-16{fill:#bcdef5}.cls-17{fill:#95a6d4}.cls-18{fill:#3a3c6f}.cls-19{isolation:isolate}.cls-20{fill:#5f7bbc}.cls-21{fill:#eea3b7}.cls-22{fill:#b3c1e3}.cls-23{fill:#2a335a}.cls-24{fill:#e396af}.cls-25{fill:#e6e3f1}.cls-28{fill:#bcc8e6}.cls-31{fill:#24395f}</style></defs><g class="cls-19"><g id="_レイヤー_1" data-name="レイヤー 1"><path class="cls-17" d="M310.12 224.95c-32.08-23.24-79.66-36.58-130.57-36.58-39.72 0-78.43 8.35-108.98 23.51l-6.18 3.07.46-161.44 2.35-1.18c31.42-15.76 71.3-24.44 112.29-24.44 52.6 0 102.19 13.93 136.06 38.21l1.79 1.28-.46 162.45-6.75-4.89z"/><path class="cls-16" d="M69.1 56.15c-.14 50.64-.29 101.27-.43 151.91 73.78-36.61 183.21-30.59 243.95 13.43.14-50.64.29-101.28.43-151.92C251.61 25.52 142.18 19.5 69.1 56.14z"/><path class="cls-12" d="M305.28 205.87c-65.21-33.85-143.87-38.86-215.83-13.75l-.8.28-.73-123.08h1.21l.72 121.38c72.05-24.91 150.72-19.78 215.98 14.1l-.56 1.07z"/><path d="M103.42 183.01c-.64 0-1.26-.34-1.59-.94a1.81 1.81 0 01.71-2.47c12.29-6.78 30.6-16.89 33.08-18.32l16.98-22.87 38.26-33.96 19.25 14.79 20.5-21.79 18.65 23.15 15.42-30.84L286 74.86c.82-.57 1.96-.38 2.53.45.58.82.37 1.96-.45 2.53l-20.56 14.37-17.54 35.08-19.58-24.31-19.89 21.14-19.48-14.96L155.16 141l-16.52 22.31c-.05.08-.11.17-.2.27l-.12.16-.02-.02c-.68.63-2.28 1.52-5.77 3.46-3.14 1.74-7.32 4.06-11.5 6.37-8.37 4.62-16.73 9.24-16.73 9.24-.28.15-.58.23-.88.23z" fill="#e96092"/><path class="cls-12" d="M99.12 175.89c-.24 0-.48-.07-.69-.21-.55-.38-.69-1.13-.31-1.69l30.93-45.01 28.58 22.08 15.41-45.77 21.58 17.62 22.46-44.16.95 2.63c5.33 14.7 13.78 37.52 16.6 43.97 5.54-9.3 29.12-45.68 39.94-62.34l.83-1.27 24.71 25.47c.47.48.46 1.25-.03 1.71-.48.47-1.25.46-1.71-.03L275.78 65.6c-15.92 24.51-39.13 60.51-40 62.58-.1.45-.57.83-1.12.86-1.18.06-1.51.09-10.42-23.79-3.04-8.14-6.04-16.35-7.52-20.42l-21.29 41.86-21.2-17.3-15.38 45.68-29.24-22.6-29.48 42.9c-.24.34-.61.53-1 .53z"/><g class="cls-19"><path class="cls-9" d="M136.62 1.73l-.27 95.42C80.02 112.74 35.14 138.83 2.94 174.69l.27-95.42C35.4 43.41 80.29 17.32 136.62 1.73z"/><path class="cls-12" d="M6.52 80.55c30.9-34.01 73.53-59.04 126.77-74.44l-.25 88.53c-52.53 14.9-95.12 38.98-126.76 71.62l.24-85.71z"/><path class="cls-22" d="M3.21 79.27l-.27 95.43-2.94-.89.27-95.42 2.94.88zM135.18 0l1.44 1.73C80.29 17.32 35.4 43.41 3.21 79.27l-2.94-.89C32.8 42.14 78.19 15.77 135.18 0z"/></g><path class="cls-16" d="M49.03 82.68c-5.23 4.27-8.38 6.85-14.49 12.8l.39 39.78c4.81-4.59 7.71-7.36 14.49-12.8l-.39-39.78zm7.15-15.76c.16 16.69.33 33.38.49 50.08 5.66-3.93 9.08-6.3 16.94-10.87-.16-16.69-.32-33.38-.49-50.08-6.06 3.6-9.72 5.77-16.94 10.87zm43.89-39.97c-6.87 2.93-11.01 4.7-19.27 8.94.21 21.98.43 43.96.64 65.94 6.48-3.26 10.39-5.23 19.27-8.94-.21-21.98-.43-43.96-.64-65.94z"/><g class="cls-19"><path class="cls-22" d="M373.8 85.26l-.12-.28c-1.79-3.91-4.04-7.79-6.68-11.54-8.1-11.46-19.86-21.68-34.94-30.39-10.33-5.96-21.92-11.03-34.44-15.06l-.23-.07c-1.45-.4-2.89-.6-4.28-.6-6.16 0-10.47 4.04-11.24 10.55l-.04.3-.28 99.8.03.28c.75 7.13 5.4 12.83 12.52 15.28 11.83 3.81 22.74 8.57 32.43 14.17 13.77 7.95 24.42 17.17 31.65 27.39 2.28 3.23 4.2 6.55 5.72 9.88l.12.24c.5.96 1.21 1.99 1.88 2.75l3.31 3.72 3.86-3.15c2.86-2.33 2.92-4.39 3.02-8.25l.28-99.28c-.05-6.16-.92-11.45-2.58-15.72z"/><path class="cls-12" d="M368.96 87.14c-1.66-3.63-3.73-7.2-6.2-10.71-7.66-10.83-18.86-20.56-33.3-28.89-10.05-5.8-21.25-10.69-33.44-14.61-2.43-.66-8.17-1.44-9 5.55l-.28 99.22c.77 7.31 6.52 10.04 8.95 10.88 12.19 3.92 23.39 8.81 33.44 14.61 14.43 8.33 25.64 18.06 33.3 28.89 2.47 3.51 4.54 7.08 6.2 10.71.29.55.75 1.24 1.16 1.7q1.02-.83 1.12-4.25l.28-99.22c-.05-5.53-.8-10.21-2.22-13.89z"/><path class="cls-5" d="M362.5 166.79c-7.66-10.83-18.87-20.56-33.3-28.89-5.87-3.39-12.14-6.47-18.76-9.23-1.33-.33-2.04 1.01-1.74 1.77.1.24.28.42.53.53 7.07 2.88 13.74 6.13 19.97 9.72 14.43 8.33 25.64 18.06 33.3 28.89.26.37.51.73.76 1.1.06.06.14.14.21.2.09-.02.21-.04.3-.05.59-.9.14-1.93.04-2.12a80.3 80.3 0 00-1.3-1.91zm.04-13.7c-7.66-10.83-18.86-20.56-33.3-28.89-5.87-3.39-12.14-6.47-18.76-9.23-1.33-.33-2.04 1.01-1.74 1.77.1.24.28.42.53.53 7.07 2.88 13.74 6.13 19.97 9.72 14.43 8.33 25.64 18.06 33.3 28.89.26.37.51.73.76 1.1.06.06.14.14.21.19.09-.02.21-.04.3-.05.59-.9.14-1.93.04-2.12-.42-.64-.86-1.28-1.31-1.91zm.04-13.71c-7.66-10.83-18.86-20.56-33.3-28.89-5.87-3.39-12.14-6.47-18.76-9.23-1.33-.34-2.04 1.01-1.74 1.76.1.24.28.42.53.53 7.07 2.88 13.74 6.13 19.97 9.72 14.43 8.33 25.64 18.06 33.3 28.89.26.37.51.73.76 1.1.06.06.14.14.21.2.09-.02.21-.04.3-.05.59-.9.14-1.93.04-2.12-.42-.64-.86-1.28-1.31-1.91zm.04-13.7c-7.66-10.83-18.87-20.56-33.3-28.89-5.87-3.39-12.14-6.47-18.76-9.23-1.33-.34-2.04 1.01-1.74 1.76.1.24.27.42.53.53 7.07 2.88 13.74 6.13 19.97 9.72 14.43 8.33 25.64 18.06 33.3 28.89.26.37.51.73.76 1.1.06.06.14.14.21.2.09-.02.21-.04.3-.05.59-.9.14-1.93.04-2.12a80.3 80.3 0 00-1.3-1.91zm.04-13.7c-7.66-10.83-18.87-20.56-33.3-28.89-5.87-3.39-12.14-6.47-18.76-9.23-1.33-.33-2.04 1.01-1.74 1.76.1.24.28.42.53.53 7.07 2.88 13.74 6.13 19.97 9.72 14.43 8.33 25.64 18.06 33.3 28.89.26.37.51.73.76 1.1.06.06.14.14.21.2.09-.02.21-.04.3-.05.59-.9.14-1.93.04-2.12-.42-.64-.86-1.28-1.31-1.91z"/><path class="cls-5" d="M362.52 160.22c-7.66-10.83-18.87-20.56-33.3-28.89-5.87-3.39-12.14-6.47-18.76-9.23-1.59-.37-2.14 1.39-1.57 2.04.09.1.24.2.36.26 7.07 2.88 13.74 6.13 19.97 9.72 14.43 8.33 25.64 18.06 33.3 28.89.26.37.51.73.76 1.1.06.06.14.14.21.2.09-.02.21-.04.3-.05.57-.88.18-1.85.04-2.12a80.3 80.3 0 00-1.3-1.91zm.04-13.7c-7.66-10.83-18.87-20.56-33.3-28.89-5.87-3.39-12.14-6.47-18.76-9.23-1.59-.38-2.14 1.39-1.57 2.04.09.1.24.2.36.26 7.07 2.88 13.74 6.13 19.97 9.72 14.43 8.33 25.64 18.06 33.3 28.89.26.37.51.73.76 1.1.06.06.14.14.21.2.09-.02.21-.04.3-.05.57-.88.18-1.85.04-2.12-.42-.64-.86-1.28-1.31-1.91zm.04-13.7c-7.66-10.83-18.87-20.56-33.3-28.89-5.87-3.39-12.14-6.47-18.76-9.23-1.59-.37-2.14 1.39-1.58 2.04.09.1.24.2.36.26 7.07 2.88 13.74 6.13 19.97 9.72 14.43 8.33 25.64 18.06 33.3 28.89.26.37.51.73.76 1.1.06.06.14.14.21.2.09-.02.21-.04.3-.05.57-.88.18-1.85.04-2.12a80.3 80.3 0 00-1.3-1.91zm.04-13.7c-7.66-10.83-18.87-20.56-33.3-28.89-5.87-3.39-12.14-6.47-18.76-9.23-1.59-.37-2.14 1.39-1.58 2.04.09.1.24.2.36.26 7.07 2.88 13.74 6.13 19.97 9.72 14.43 8.33 25.64 18.06 33.3 28.89.26.37.51.73.76 1.1.06.06.14.14.21.2.09-.02.21-.04.3-.05.57-.88.18-1.85.04-2.12a80.3 80.3 0 00-1.3-1.91zM309.4 69.59c7.07 2.88 13.74 6.13 19.97 9.72 14.43 8.33 25.64 18.06 33.3 28.89.26.37.51.73.76 1.1.06.06.14.14.21.2.09-.02.21-.04.3-.05.59-.9.14-1.93.04-2.12-.42-.64-.86-1.28-1.31-1.91-7.66-10.83-18.86-20.56-33.3-28.89-5.87-3.39-12.14-6.47-18.76-9.23-1.59-.37-2.14 1.39-1.57 2.04.09.1.24.2.36.26z"/></g><path d="M375.76 160.26l-.5 19.98v.04c-.92 5.04-1.49 8.88-1.49 8.88l-2.72-2.8-10.96-14.47s-37.09 69.12-37.56 70.57c-.02.07-.12.09-.28.07v111.7l-4.67-5.49-.48-156.83c-.05-15.77 6.87-30.86 19.13-40.8 9.78-7.93 18.59-16.74 23.97-24.49 8.85-12.74 10.98-18.17 11.03-31.97l4.55-1.48c1.19 19.93.71 41.78-.01 67.1z" style="mix-blend-mode:multiply" fill="#cbd5ec"/><path d="M375.26 180.27v.26l-2.18 89.74c-.05 13.8-32.84 24.23-41.68 36.97-7.69 11.06-9.02 43.48-9.14 46.72V242.52c.16.02.26 0 .28-.07.47-1.45 37.56-70.57 37.56-70.57l10.96 14.47 2.72 2.8s.57-3.84 1.49-8.88z" style="mix-blend-mode:multiply" fill="#a1b3dc"/><path class="cls-17" d="M380 154.87l-3.08 119.08c-.04 13.81-4.55 27.26-13.38 40-9.3 13.38-23.59 29.99-41.28 40.27-.21.12-4.28-4.38-4.48-4.27l-.56-109.38c8.46-15.84 41.06-70.91 41.06-70.91l12.23 15.97s2.77-12.06 5.26-25.36c.48-2.67 1-5.4 1.5-8.14l2.74 2.74z"/><path class="cls-9" d="M380 154.6l-.35 121.81c-.04 13.81-4.55 27.26-13.38 40-9.29 13.38-22.97 25.36-40.66 35.64-1.11.64-2.22 1.28-3.36 1.9V242.51c.16.02.26 0 .28-.07.47-1.45 37.56-70.57 37.56-70.57l10.96 14.47 2.72 2.8s.57-3.84 1.49-8.88v-.04c1.19-6.66 2.98-16.22 4.74-25.64z"/><g mask="url(#mask)"><path class="cls-15" d="M150.87 277.1l-30.39 13.33 13.09 10.25s24.3-8.23 29.63-10.71c5.33-2.48 58.79-22.82 67.3-31.24 8.51-8.42-1.75-20-13.52-15.06-9.07 3.81-66.1 33.43-66.1 33.43z"/></g><path class="cls-23" d="M141.13 276.8c-.31.82-2.05 6.29-1.04 7.57 1.01 1.28 3.71 2.35 5.34 1.91.88-.24 5.31 2.46 6.7 3.68 1.83 1.61 3.83 2.97 5.34 2.91 1.5-.07 5.33-1.8 5.72-3.07.44-1.43-.39-3.61-4.88-5.24-3.59-1.02-8.61-9.23-8.61-9.23l-5.16-.82-3.4 2.28z"/><path class="cls-5" d="M150.35 267.25c-4.03-2.22-9-.03-9-.03l.33 9.29c-.92 2.63 8.84 1.68 8.84 1.68-2.18-3.28-1.24-7.38-.17-10.94z"/><path d="M153.75 231.72c.41-8.14.21-56.04.21-56.04l-16.29 7.3c1.91 13.16 3.86 44.77 3.54 49.03-.32 4.26-1.45 44.06-.23 45.84 1.22 1.78 8.9 2.02 9.8.7.9-1.31 2.55-38.68 2.97-46.83z" fill="#30325c"/><path class="cls-23" d="M120.16 287.81c-.4.68-1.19 6.59-1.19 6.59s-.57 2.09-.18 2.56c.42.51 11.57 7.72 13.81 8.15 3.82.73 6.58-2.1 6.55-4.04-.02-1.93-2.4-3.33-5.5-4.52-2.67-1.26-3.46-7.16-4.06-8.05-.61-.9-6.07-2.17-6.07-2.17l-3.36 1.48z"/><path class="cls-28" d="M129.7 286.8c-1.05-.22-2.02-6.9-.38-8.03l-6.27-1.71c-.27 2.77-2.72 9.13-2.72 9.13s5.44 1.94 5.59 1.88c.57-2.06 3.78-1.28 3.78-1.28z"/><path class="cls-18" d="M120.82 187.48s1.12 29.23.22 45.55c0 0-1.74 54.84-1.9 55.95-.16 1.11 1.15 4.33 4.14 5.01 2.99.68 7.24-1.3 7.7-1.75.47-.46-.53-32.11 2.73-58.26 3.67-29.34 8.02-51.31 7.6-52.34-3.41-8.37-20.49 5.84-20.49 5.84z"/><path class="cls-18" d="M153.28 165.54c1 3.12.18 13.72.18 13.72.68 1.62-17.39 14.24-21.78 13.06-2.78-.75-10.63-4.13-10.86-4.84-.72-2.26 1.22-17.14 1.75-19.25 1.07-4.26 13.9-7.49 18.99-8.2 2.4-.34 10.73 2.39 11.73 5.51z"/><g mask="url(#mask-1)"><path class="cls-15" d="M249.83 275.31l6.26 3.67s51.69-29.93 54.89-28.09c3.2 1.85-21.92 20.94-21.92 20.94l-19.84 16.01 6.03 2.6s19.75-10.68 21.17-11.38l39.2-23.79-15.57-25.88-70.22 45.93z"/></g><path class="cls-23" d="M258.16 271.13c.28.79 1.89 6.02.91 7.23-.98 1.21-3.57 2.21-5.12 1.77-.84-.24-5.09 2.29-6.43 3.44-1.76 1.52-3.69 2.79-5.12 2.72-1.43-.08-5.07-1.78-5.42-2.99-.4-1.37.41-3.44 4.72-4.94 3.44-.94 7.34-6.51 7.34-6.51l7.01-2.11 2.12 1.4z"/><path class="cls-5" d="M249.16 263.11c3.87-2.08 7.13-.39 7.13-.39l1.39 8.57c.85 2.52-9.4 2.83-9.03 1.77 1.27-3.63 1.5-6.54.51-9.95z"/><path class="cls-4" d="M246.07 227.23c-.31-7.77.59-35.96 1.35-46.22.62-8.29 13.54 1.07 13.54 1.07-.32 13.31-3.36 44.76-3.37 48.15-.01 3.39 2.39 35.62 1.43 37.1-.96 1.48-3.48 4.87-6 5.04-2.52.17-5-2.28-5.39-2.87-.85-1.26-1.26-34.5-1.57-42.27z"/><path class="cls-23" d="M275.96 281.66c.37.65 1.07 6.3 1.07 6.3s.52 2 .14 2.44c-.41.48-11.12 7.24-13.26 7.62-3.66.66-6.25-2.08-6.21-3.92.04-1.85 2.32-3.15 5.29-4.25 2.56-1.18 3.37-6.79 3.96-7.64.59-.85 5.81-2.01 5.81-2.01l3.19 1.45z"/><path class="cls-28" d="M266.39 283.94c1.01-.2 2-6.55.45-7.65l6-1.56c.22 2.64 2.49 8.74 2.49 8.74s-5.21 1.79-5.35 1.73c-.52-1.97-3.59-1.26-3.59-1.26z"/><path class="cls-18" d="M274.86 175.33c.42.95 2.19 6.02 1.68 18.38-.61 14.85-2 23.45-1.31 39.03 0 0 2.07 45.02 2.2 46.08.14 1.06-2.05 3.34-4.9 3.96-2.86.62-6.33-2.69-6.76-3.13-.44-.45.2-21.16-2.64-46.14-3.18-28.03-3.33-55.79-2.92-56.77 3.34-7.95 10.27-11.17 14.64-1.41z"/><path class="cls-18" d="M246.89 167.91c-.99 2.96.89 12.77.89 12.77-.67 1.53 13.46 10.95 17.67 9.87 2.66-.68 10.64-.87 10.86-1.54.72-2.15-1.36-16.07-1.84-18.09-.97-4.07-13.18-7.29-18.02-8.03-2.29-.35-8.56 2.05-9.55 5.01z"/><path d="M142.69 117.61c-1.7-1.81-7.43-4.05-7.43-4.05s9.96 37.48 14.18 39.51c4.22 2.03 2.35-6.64 2.35-6.64s-7.4-27.02-9.09-28.83z" fill="#56568c"/><path class="cls-10" d="M133.31 106.15c-3.75 2.66-8.9 10.76-8.9 10.76l10.15 59.69 16.78-8.19s-.04-42.14-.93-46.81c-.89-4.68-3.73-10.83-7.62-12.38-3.89-1.56-5.72-5.72-9.48-3.07z"/><path class="cls-25" d="M135.68 107.14c-3.75 2.65-8.9 10.76-8.9 10.76l10.15 59.69 16.78-8.19s-.04-42.14-.93-46.81c-.89-4.68-3.73-10.83-7.62-12.38-3.89-1.56-5.72-5.72-9.48-3.07z"/><path class="cls-20" d="M148.41 138.59l-2.27-17.93c2-3.48-.78-5.25-1.55-6.03-.67-.68-3.26-2.95-3.26-2.95l-3.49 3.91 4.99 5.31-1.9 18.64 1.79 23.11 6.48 7.45 3.7-5.07-4.49-26.44z"/><path class="cls-10" d="M138.6 107.1s4.08-1.83 7.22-.51c2.37.99 4.42 2.04 5.75 4.07.93 1.42 1.71 3.49 2.01 5.33.73 4.41 1.07 51.26 1.07 51.26l1.58 11.53s-2.63 3.07-7.18-1.21c-4.55-4.28-.36-20.13-.36-20.13s-.26-25.27-.17-33.21c-.64-16.41-9.91-17.12-9.91-17.12z"/><path class="cls-10" d="M118.75 125.9c.95-3.98 5.74-10.11 5.74-10.11 1.84-2.18 3.31-4.37 6.63-7.42 0 0 .56 1.16.53 5.83 0 1.6 4.96 8.11 6.76 14.13 1.86 6.23 11.85 33.81 12.1 41.58.28 8.67-6.75 15.25-6.75 15.25s-9.12 8.55-11.9 7.4c-7.13-2.95-13.31-9.06-13.31-9.06l.43-14.62s2.09-15.23.53-24.72c-.53-3.22-1.71-14.29-.76-18.27z"/><path d="M150.84 151.22c-1.49-5.33-11.74-8.91-14.86-11.87-3.12-2.96-11.15-7.63-11.77-5.15-.13.54-4.08 3.05-3.22 5.51 3.06 8.82 13.07 14.75 19.47 16.82 6.4 2.07 11.9.15 10.38-5.31z" style="mix-blend-mode:multiply" fill="#c4c4da"/><path class="cls-25" d="M143.31 105.51s2.36 5.14 3.07 7.8c.71 2.65.57 3.8.57 3.8l-6.07-2.76s-3.31-8.28-2.11-9.8c2.43-3.08 4.54.97 4.54.97z"/><path class="cls-24" d="M142.85 107.51c.38 1.77 1.13 1.93 1.13 1.93l-3.99 4.54s-7.17-5.69-6.63-7.35c.54-1.66 1.41-2.26.36-7.88-.74-3.99.61-4.9.61-4.9s5.89 2.67 9.91 7.55c1.02 1.24-1.91 3.71-1.4 6.1z"/><path class="cls-25" d="M136.36 109.5c2.06 1.68 5.37 3.96 5.37 3.96l-3.82 5.85s-4.24-1-6.01-4.2c-1.74-3.14 1.94-11.38 1.94-11.38s.46 4.11 2.52 5.78z"/><path class="cls-11" d="M128.3 94.41c1.24 2.12 5.61 4.79 6.55 6.72 1.34 2.75 4.85 6.1 6.98 6.78 2.12.68 5.01.11 5.82-1.15.81-1.26 3.12-4.57 3.75-6.84.62-2.28-.41-4.72.26-8.05.79-3.9-2.28-8.92-5.28-11.55-3-2.62-9.49-1.88-13.17-.33-3.19 1.35-5.3 4.27-5.84 6.61-.54 2.35-.73 4.95.93 7.8z"/><path class="cls-31" d="M152.23 87.81c.42-.74-.77-2.72-1.11-4.48-.34-1.76-2.47-6.78-6.71-7.09-4.25-.31-8.69.64-10.83 1.19-4.18 1.08-3.42 2.49-4.54 3.55-6.04 5.11-4 10.33-1.71 14.2 2.56 4.32 6.22 4.85 6.63 5.01.41.16-2.09-2.46-1.82-4.94.16-1.43 2.51-2.73 2.74-1.89.13.5 1.27 3.24 1.24 3.76.4-.96 3.04-5.08 4.06-5.3 7.12-1.52 5.7-4.22 5.7-4.22s5.93.96 6.35.21z"/><path class="cls-11" d="M134.25 93.18c-.84-.42-2.71 1.12-2.52 3.72.16 2.23 2.57 5.06 3.27 3.63.7-1.43-.08-1.8-.2-3.34-.24-3.2 1.05-3.22-.55-4.02zm59.76 56.57c.75-1.15 5.56-.64 7.08.12 1.52.76.83 2.95.54 4.52-.29 1.56-5.82-1-6.37-1.35-.56-.35-1.87-2.33-1.25-3.29z"/><path class="cls-24" d="M191.55 156.2c.41-1.92 1.69-3.76 2.54-4.87.85-1.11 3.22-1.02 4.78-1.27 1.78-.28 3.04-.28 4.29-.18 1.76.13 6.21-.07 6.21-.07l2.08 2.22-.12 1.96s-3.94 1.23-4.4 1.62c-.68.57-1.61 1.3-2.03 1.46-.97.35-1.87.81-2.64 1.23-2.09 1.16-4.57 1.25-4.57 1.25-3.37-.52-6.47-1.85-6.15-3.34z"/><path class="cls-11" d="M204.12 156.47c-.82-.79-3.73-1.84-4.2-2.01-.86-.02-2.17.31-1.31 1.01.55.32 4.16 1.89 4.53 2.06.36.17 1.79-.27.98-1.06z"/><path class="cls-11" d="M202.99 157.34c-.45-.42-1.71-.72-2.24-.92-.47-.18-1.96-1.15-2.43-1.29-.86.02-.9 1.09 0 1.74.56.29 3.32 1.34 3.83 1.51.51.17 1.2-.52.84-1.04z"/><path class="cls-11" d="M201.82 158.26c-.42-.28-1.57-.73-2.04-.82-.41-.08-3.05-1.19-3.46-1.24-.7.13-1.27.92-.45 1.34.5.16 5.65 1.92 5.97 1.66.34-.3.35-.55-.02-.93z"/><path class="cls-11" d="M201.01 153.36c-1.2-.71-2.64-.73-3.02-1.04-.88-.71-2.12-.59-2.36-1.04-.23-.45 1.34-2.15 1.16-2.22-1.33-.57-5.31.06-7.05.76-1.62.65-6.76 1.05-6.76 1.05l-.65 4.91 6.46-.46 9.19 2.94 3.04-4.91z"/><path class="cls-11" d="M205.66 155.92c.23-.56-.84-.98-1.35-1.35-.13-.09-2.7-1.08-5.03-1.98 0 0-.68 1.49-.31 1.69.37.2 5.21 2.23 5.48 2.3.51.14.97-.09 1.21-.66z"/><path class="cls-24" d="M198.95 152.15c-1.02.52-2.19 2.55-3.06 2.98s-.38 1.73.9 1.31c.89-.29 1.81-1.05 2.36-1.71.25-.3 3.46-.87 3.55-1.05 1.95-3.85-2.73-2.05-3.75-1.53zm-4.48 4c-.33.1-2.66 1.16-2.66 1.57 0 .41.39 1.13 1.09.97s2.08-1.39 2.08-1.39c.62-.48.07-1.12-.5-1.15z"/><path class="cls-24" d="M195.53 157.07c-.3.09-2.42 1.06-2.42 1.43 0 .37.35 1.03.99.88.64-.15 1.89-1.27 1.89-1.27.56-.44.07-1.02-.46-1.04z"/><path class="cls-24" d="M196.95 157.55c-.3.09-2.42 1.06-2.42 1.43 0 .37.36 1.03.99.88.64-.15 1.89-1.27 1.89-1.27.56-.44.07-1.02-.46-1.04z"/><path class="cls-24" d="M198.39 157.99c-.3.09-2.42 1.06-2.42 1.43 0 .37.35 1.03.99.88.64-.15 1.89-1.27 1.89-1.27.56-.44.07-1.02-.46-1.04z"/><path class="cls-25" d="M181.77 150.1l3.74-.34 1.51 1.6-1.22 4.74-4.66.62.63-6.62z"/><path class="cls-10" d="M183.43 149.63l-26.05-.77s-6.92 7.25-3.91 9.29c3.01 2.04 29.79-1.33 29.79-1.33l1.09-5.36-.93-1.83z"/><path class="cls-10" d="M157.78 149.11s-27.02-22.72-31.76-22.18c-4.73.54-6.97 7.78-4.37 10.32 2.6 2.55 29.53 23.72 33.69 20.94 4.16-2.78 2.44-9.09 2.44-9.09z"/><path class="cls-25" d="M210.32 148.7l-2.7.53 1.05 6.01 3.55-1.16-1.9-5.38z"/><path class="cls-4" d="M236.36 140.21c-2.59-.91-26.91 8.43-26.91 8.43l.58 6.56s24.57-5.11 27.28-6.71c2.22-1.32 1.64-7.37-.95-8.28z"/><path class="cls-4" d="M247.41 115.19c-2.62.81-15.79 27.45-15.79 27.45s1.42 8.67 6.26 5.29 13.98-20.59 15.2-23.49c1.01-2.38-3.05-10.06-5.67-9.26z"/><path class="cls-25" d="M265.46 112.5c4.17 2.32 8.53 7.13 8.53 7.13l-7.32 58.42-17.32-8.47-2.7-49.99s3.47-4.11 7.4-6.01c3.93-1.91 7.24-3.39 11.41-1.07z"/><path class="cls-20" d="M256.64 121.72c.21.06 2.41.73 2.99.45.84-.39 2.79-4.25 2.58-4.58-.07-.11-3.37-1.93-4.22-1.97-.64-.03-3.28.52-3.57 1.21-.27.63 1.71 4.73 2.22 4.89z"/><path class="cls-20" d="M259.17 119.14l-2.82-.75s-3.06 7.6-3.82 16.45C251.47 147.1 251 160.5 251 160.5l2.77 8.96s5.67-6.88 5.96-7.58c.16-.37-.65-15.41-1.23-27.14-.4-8.22.67-15.61.67-15.61z"/><path class="cls-18" d="M255.96 111.14s2.27-2.65-1.19-1.87c-4.29.97-8.84 5.85-9.19 7.25-.35 1.4-.16 42.57-.34 44.9-.18 2.33.36 14.53.36 14.53l4.98 3.67s.63-14.96 1.03-24.61c.41-9.65-1.88-26.7-.75-33.56 1.13-6.86 5.12-10.31 5.12-10.31z"/><path class="cls-18" d="M271.23 116.02s.74-1.31-1.82-3.76c-3.28-3.15-8.91-5.98-8.91-5.98-11.06 3.78-6.55 10.54-6.55 10.54l17.28-.8z"/><path class="cls-18" d="M281.22 125.24c-2.61-5.07-10.21-12.54-14.66-14.21 0 0 1.41 4.84.65 8.04-.75 3.2-7.1 24.85-6.61 37.54.49 12.68 1.43 34.8 9.81 34.1 8.37-.7 9.13-4.31 9.13-4.31l-1.04-25.36c3.78-11.14 5.32-30.73 2.71-35.79zm-35.12-6.97c1.46-3.82 9.43-7.27 9.43-7.27s-2.58 4.62-3 8.07c-.42 3.45-1.29 35.81-1.29 35.81l-6.12-31.19 2.22-2.19-1.23-3.24z"/><path class="cls-4" d="M266.55 110.93c4.78 2.29 5.91 5.49 6.28 7.07.38 1.58.9 7.18.9 7.18l-3.23 1.99 1.1 4.72-8.57 25.46s-3.16-12.89 1.64-23.63c5.07-11.36 1.87-22.8 1.87-22.8z"/><path class="cls-18" d="M265.74 109.9c4.78 2.29 5.91 5.49 6.28 7.07s.9 7.18.9 7.18l-3.66 2.64 1.53 4.07-9.1 26.9s-1.8-13.32 1.49-24.96c1.57-5.56 3.65-14.49 4.65-18.11 1.26-4.6-2.09-4.8-2.09-4.8z"/><path class="cls-25" d="M255.43 109.59c-3.28 2.63-2.14 8.32-2.14 8.32l6.13-1.38s7.29-2.8 6.16-6.81c-.41-1.44-1.88-2.19-3.25-2.19-2.77-.01-5.53.97-6.9 2.07z"/><path class="cls-25" d="M257.23 108.38c-.96.28-3.02 1.83-3.68 3.89-.81 2.51-1.02 6.81-1.02 6.81l5.99-2.22.76-1.13c-.22-.43-1.68-5.51-2.04-7.34zm9.92 6.59c.17-.98-.44-5.7-1.99-7.21-1.89-1.84-5.22.33-5.22.33l-1.36 3.71.64.85c.78.1 6.12 1.83 7.92 2.32z"/><path class="cls-31" d="M263.04 92.55L261 107.01c1.52-.14 3.19-.07 6.59-3.97 3.59-4.13 4.11-8.65 1.94-12.24-1.54.18-6.49 1.75-6.49 1.75zm-1.11-12.3c-2.75-.21-6.87 1.94-8.83 3.29-3.04 2.09-6.08 4.92-6.09 6-.11 6.94 5.12 11.66 5.12 11.66s13.56-20.66 9.81-20.95z"/><path class="cls-24" d="M254.78 106.03l4.3 9.3 1.88-1.07s6.47-4.98 6.01-6.61c-.46-1.63-1.07-2.49.16-7.91.87-3.84.09-4.82.09-4.82s-5.83 2.37-9.92 6.96c-1.04 1.16-2.52 4.15-2.52 4.15z"/><path class="cls-25" d="M263.25 112.07c-2.11 1.49-2.92 2.1-4.17 3.26-.89.82-.53 1.51-.53 1.51l3.6 3.92s3.27-1.07 5.12-4.11c1.81-2.99-.6-10.59-.6-10.59s-1.31 4.52-3.42 6.01z"/><path class="cls-11" d="M268.5 94.86c-1.2 2.07-2.9 6.15-3.81 8.03-1.3 2.67-7.44 6.81-7.44 6.81s-5.08.75-5.87-.47-2.49-5.71-2.78-7.48c-.26-1.55.39-4.6-.27-7.83-.78-3.79 2.2-8.68 5.12-11.24 2.92-2.56 9.23-1.85 12.8-.34 3.11 1.31 5.16 4.14 5.69 6.42.53 2.28-1.83 3.33-3.44 6.11z"/><path class="cls-31" d="M248.1 88.96c-.41-.72-.01-1.59.31-3.3.33-1.71 2.39-6.6 6.51-6.91 4.13-.31 8.31.82 10.4 1.36 4.06 1.04 3.46 2.2 4.56 3.23 5.88 4.96 3.91 10.04 1.69 13.81-2.49 4.21-4.13 4.87-4.53 5.03-.4.16.12-2.54-.15-4.95-.15-1.39-2.45-2.65-2.67-1.83-.13.49-2.38 3.21-2.35 3.71-.39-.93-2.13-3.98-1.52-5.21.62-1.23-1.52-2.84-4.12-3.36-2.61-.52-7.73-.83-8.14-1.56z"/><path class="cls-11" d="M265.26 93.86c.82-.41 2.64 1.09 2.46 3.61-.15 2.17-2.49 4.93-3.17 3.54-.68-1.39-.84-6.37.71-7.15z"/><path class="cls-31" d="M254.72 79.69c-3.7-.27-4.9 3.75-5.61 4.11-.72.36-3.69 2.63-3.69 2.63s1.24 2.4 3.3 3.83c2.06 1.43 10.91.55 10.91.55 4.66-.35 9.92-3.54 10.1-6.37s-8.47-4.26-15-4.74z"/><path class="cls-4" d="M273.6 138.68c-.92 6.49-.6 21.76-.6 21.76s-.38 33.95 2.38 30.76c1.67-1.93 4.65-22.96 5.68-24.59 2.72-4.32.06-36.67-3.54-39.87-2.35-2.09-3 5.44-3.92 11.94z"/><path class="cls-21" d="M276.35 197.36l-.3 2.11s.14.29 1.01.09c.87-.2 1.99-.97 1.8-2.28-.09-.62-.76-2.07-1.05-2.54-.49-.79-2.4-.21-2.39.31 0 .52.93 2.33.93 2.33z"/><path class="cls-21" d="M273.59 191.55c.35-.79.95-2.19 1.7-3.11.33-.4.6-3.81.97-3.94.58-.21 2.84.03 3.37.28.27.13-.66 2.25-.23 3.58.73 2.28 2.16 5.38 2.16 5.38s.07 1.33-.69 1.61c-.55.2-1.12.48-1.7.6-1.79.37-3.11-.57-4.57-1.58-.93-.64-1.1-2.08-1.01-2.83z"/><path class="cls-21" d="M280.34 195.38c.5 1.55-.64 2.45-.64 2.45-.33.85-.96.61-1.72.4 0 0-.52-2.71.46-3.71 1.08-.39 1.72.22 1.9.87z"/><path class="cls-21" d="M280.43 194.89c.81.79-.53 3.28-.8 2.61-.28-.7.03-.81.06-1.59.04-.88.34-1.21.74-1.02z"/><path class="cls-21" d="M280.24 194.96c.18-.33.89-1.08 1.26-1.18.15-.04.26 1.25.22 1.44-.1.49-.93 1.88-1.44 1.82-.51-.06-.47-1.31-.04-2.08zm-4.82-5.25c-1.47.94-2.04 1.1-2.11 4.18-.02.63.11 5.6 1.41 4.94.61-.31.8-1.45.76-1.96-.11-1.37 1.03-1.47 1.58-2.7.71-1.6-.51-3.38-1.63-4.46z"/><path class="cls-25" d="M275.33 181.54s-.61 3.68-.21 4.19c.4.51 5.26 1.08 5.26 1.08l.18-4.07-5.23-1.2z"/><path class="cls-18" d="M284.28 152.55c-4.74-1.04-7.56-.12-8.28 4.3.9 4.2-1.53 27.42-1.53 27.42l6.24.52c.32.69 6.27-26.55 3.56-32.24z"/><path class="cls-18" d="M282.25 127.68c-1.43-6.41-7.56-3.86-9.82 1.1-2.06 4.52 3.81 28.56 3.81 28.56s4.18.12 8.4-1.98c.79-4.66-2.39-27.68-2.39-27.68z"/></g></g></svg>