<?xml version="1.0" encoding="UTF-8"?>
<svg xmlns="http://www.w3.org/2000/svg" viewBox="0 0 380 540.89">
  <defs>
    <style>
      .cls-1 {
        fill: #b4c3e4;
      }

      .cls-2 {
        fill: #1e264c;
      }

      .cls-3 {
        fill: #a2bed3;
      }

      .cls-4 {
        fill: #61619d;
      }

      .cls-5 {
        fill: #eaa5bc;
      }

      .cls-6 {
        fill: #fff;
      }

      .cls-7 {
        fill: #95a6d4;
      }

      .cls-8 {
        fill: #b6b5d2;
      }

      .cls-9 {
        isolation: isolate;
      }

      .cls-10 {
        fill: #454583;
      }

      .cls-11 {
        fill: #fafbfd;
      }

      .cls-12 {
        fill: #2a335a;
      }

      .cls-13 {
        fill: #e396af;
      }

      .cls-14 {
        fill: #72a2c7;
      }

      .cls-15 {
        fill: #7e7cae;
      }

      .cls-16 {
        fill: #a1b3dc;
      }

      .cls-17 {
        fill: #e2e6eb;
        mix-blend-mode: multiply;
      }

      .cls-18 {
        fill: #46718e;
      }

      .cls-19 {
        fill: #bad9f1;
      }

      .cls-20 {
        fill: #2f395b;
      }
    </style>
  </defs>
  <g class="cls-9">
    <g id="_レイヤー_1" data-name="レイヤー 1">
      <g>
        <path class="cls-17" d="M309.13,475.52c6.37,3.7,8.57,11.61,3.97,14.29l-68.36,44.45c-3.18,1.83-9.87.94-14.94-1.99l-159.17-92.02c-4.38-2.53-6.12-5.77-4.45-7.79h0c.26-.31.6-.59,1.02-.84l79.89-50.11,162.04,94.02Z"/>
        <g>
          <g>
            <g>
              <g>
                <g>
                  <path class="cls-3" d="M65.59,529.08c1.63,0,2.96-1.32,2.96-2.96v-74.2c0-1.63-1.32-2.96-2.96-2.96s-2.96,1.32-2.96,2.96v74.2c0,1.63,1.32,2.96,2.96,2.96Z"/>
                  <path class="cls-3" d="M122.89,494.58c1.63,0,2.96-1.32,2.96-2.96v-71.98c0-1.63-1.32-2.96-2.96-2.96s-2.96,1.32-2.96,2.96v71.98c0,1.63,1.32,2.96,2.96,2.96Z"/>
                  <path class="cls-3" d="M8.02,495.3c1.63,0,2.96-1.32,2.96-2.96v-71.23c0-1.63-1.32-2.96-2.96-2.96s-2.96,1.32-2.96,2.96v71.23c0,1.63,1.32,2.96,2.96,2.96Z"/>
                  <path class="cls-18" d="M6.06,420.63l56.6,32.89c.95.55,2.13.55,3.08,0l57-32.91c2.04-1.18,2.05-4.13,0-5.31l-56.6-32.9c-.95-.55-2.13-.55-3.08,0l-57,32.91c-2.04,1.18-2.05,4.13,0,5.32Z"/>
                </g>
                <g>
                  <g>
                    <g>
                      <path class="cls-2" d="M158.28,421.93c3.24-1.75,10.53-.17,10.27,6.26-.13,3.33-4.73,5.23-9.23,7.46-4.88,2.42-15.59,6.18-18.32,6.18s-7.02-.71-8.85-2.26c-1.82-1.55-.25-8.84.7-9.73.65-.62,11.96-2.15,18.66-4.93,3.12-1.29,5.73-2.41,6.76-2.97Z"/>
                      <path class="cls-1" d="M142.77,403.83l2.38,18.45s4.55,2.62,9.23,4.84c2.31,1.09-15.61,5.97-19.25,5.97s-1.42-3.9-2.09-7.44c-.69-3.65-1.09-17.15-1.09-17.15l10.82-4.68Z"/>
                    </g>
                    <path class="cls-2" d="M60.72,398.87c5.38,5.76,57.84-24.39,57.84-24.39l12.56,50.43s2.38,2.43,7.55,1.92c5.17-.52,9.12-5.61,9.12-5.61,0,0-8.43-63.79-9.27-68.18-.84-4.39-4.18-4.44-9.44-5.39-5.25-.95-84.62,27.86-84.62,27.86,0,0,10.89,17.6,16.27,23.36Z"/>
                  </g>
                  <g>
                    <g>
                      <path class="cls-2" d="M181.57,445.55c8.22-1.92,17.05.75,13.56,6.58-3.04,5.09-11.43,7.38-16.17,9.73-5.15,2.55-13.01,4.79-15.89,4.79s-5.47-2.2-7.4-3.84c-1.92-1.63-.58-8.42-.04-10.15.86-2.75,6.25-.83,12.39-3.41,6.25-2.63,11.63-3.25,13.54-3.7Z"/>
                      <path class="cls-1" d="M170.8,438.37s.2,7.23.46,7.85c.6,1.46,4.02,1.51,4.02,1.51,4.67.87-4.19,5.33-9.79,7.27-5.48,1.88-10.58,1.25-9.03-3.23,3.62-8.67,1.97-9.95,1.97-9.95l12.37-3.45Z"/>
                    </g>
                    <path class="cls-12" d="M159.38,362.19c1.11,5.51,15.17,78.53,14.59,80.73-.57,2.2-6.88,5.85-11.65,6.58-4.77.74-7.43-4.03-7.43-4.03l-13.26-60.69c-5.48-4.92-8.47-11.03-3.38-19.89-4.52-11.34,20.02-8.21,21.13-2.7Z"/>
                    <path class="cls-12" d="M29.4,371.5c-3.08,6.73-4.01,29.73-2.16,37.68,1.87,8.06,31.69,17.4,42.44,19.21s30.72-11.35,30.72-11.35l-15.07-28.55s-5.92-6.71-14.5-9.21c-16.17-4.71-40.29-6.81-41.43-7.79Z"/>
                    <path class="cls-12" d="M62.44,393.86s75.74-35.36,80.08-36.12c0,0,8.2.59,10.02,7.15,1.82,6.56-4.21,16.22-4.21,16.22,0,0-40.15,34.62-47.92,35.94-4.51.77-19.76,4.42-28.05.21-12.06-6.12-9.92-23.4-9.92-23.4Z"/>
                  </g>
                </g>
              </g>
              <g>
                <g>
                  <path class="cls-3" d="M236.6,395.19v140.21c0,1.96-1.04,3.77-2.74,4.75h0c-1.7.98-3.79.98-5.48,0h0c-1.7-.98-2.74-2.79-2.74-4.75v-140.21h10.96Z"/>
                  <path class="cls-3" d="M318.69,346.84v140.21c0,1.96-1.04,3.77-2.74,4.75h0c-1.7.98-3.79.98-5.48,0h0c-1.7-.98-2.74-2.79-2.74-4.75v-140.21h10.96Z"/>
                  <path class="cls-3" d="M74.12,287.12v99.74c0,1.96-1.05,3.77-2.74,4.75h0c-1.7.98-3.79.98-5.48,0h0c-1.7-.98-2.74-2.79-2.74-4.75v-99.74h10.96Z"/>
                </g>
                <g>
                  <path class="cls-3" d="M317.29,353.66l-73.16,42.51c-8.04,4.69-21.04,4.77-29.34.29l-171.1-98.78c-8.27-4.78-8.32-23.3-.1-28.07,0,0,75.19-32.83,76.31-33.26,6.73-2.62,15.54-2.75,22.64-.28,1.18.35,2.94,1.22,4.91,2.29.18.1.36.2.53.29l5.81,3.37c.22.13.45.25.67.39l2.94,1.7c.11.07.22.13.32.18l159.72,81.45c10.14,6.84,8.04,23.13-.17,27.92Z"/>
                  <path class="cls-8" d="M318.28,343.17l-73.16,42.51c-8.04,4.68-21.04,4.77-29.34.29l-171.09-98.78c-8.27-4.78-8.32-12.54-.1-17.31,0,0,75.19-43.59,76.31-44.02,6.73-2.62,15.54-2.75,22.64-.28,1.18.35,2.94,1.22,4.91,2.29.18.1.37.2.53.29l5.81,3.37c.22.13.45.25.67.39l2.95,1.7c.11.07.22.13.32.18l159.72,92.22c8.01,4.64,8.04,12.37-.17,17.15Z"/>
                </g>
              </g>
              <g>
                <g>
                  <g>
                    <g>
                      <path class="cls-5" d="M122.81,301.73c-1.66-.61-3.93-1.42-5.65-1.09-2.96.57-5.36.86-5.36.86-2.62.53,1.05,3.21,2.82,2.7.84-.23,8.46.02,10.03-1.03.77-.51-.26-.86-1.84-1.44Z"/>
                      <path class="cls-5" d="M121.64,301.28c.32-.78-1.93-1.45-3.78-2.19-1.24-.16-4.33-.37-6.5-.16-.42,1.13.27,2.49,1.67,2.57.73-.26,8.28.56,8.6-.22Z"/>
                      <path class="cls-5" d="M125.67,307.25c-1.66-.71-8.54.08-8.44-.53.05-.29,1.44-.62,3.24-.98,1.39-.28,2.62-.17,2.62-.17,0,0,2.82.59,3.76.62.94.03,1.57-.4.63-1.19-.93-.79-4.45-2.17-5.8-2.02-2.66.3-5.63.85-6.11.92-.35.05.52-1.17-.15-1.59-.73-.46-2.42-.32-2.42-.32.88-1.29-.45-2.88-1.5-3.09-2.6.26-6.53.44-7.86.64-4.11.63-5.1,1.58-8.78,2.38-2.89.62-10.57,1.54-10.57,1.54l2.7,7.36,10.45-2.48s5.88,3.14,7.83,3.68c1.03.29,5.54-.11,10.48-.87,1.07-.16,2.14-.85,3.23-.99,3.4-.45,6.6-.95,7.07-1.06,1.29-.3,1.27-1.15-.39-1.86Z"/>
                      <path class="cls-5" d="M104.88,311.89c1.23.38,4.49,1.7,6.03,2.06,1.8.42,7.82,2.36,7.91,1.09.05-.67-1.52-1.86-2.95-2.69-.74-.44-2.14-.41-3-.84-1.3-.65-2.01-1.71-2.37-1.91-1.31-.7-2.2-2.75-3.6-2.64-1.41.11-4.4,4.2-2.02,4.93Z"/>
                    </g>
                    <polygon class="cls-11" points="86.93 302.74 91.9 302.2 94.48 309.32 89.73 311.04 86.93 302.74"/>
                  </g>
                  <path class="cls-10" d="M48.65,280.49c3.14,9.65,3.16,8.71,8.06,21.75l32.51.09,2.09,8.72s-37.01,12.78-44.42,12.11c-2.41-.22-12.15-22.54-18.1-39.05-2.69-7.46,17.53-10.79,19.86-3.61Z"/>
                </g>
                <g>
                  <g>
                    <path class="cls-4" d="M20.92,368.27c-.8-14.19-17.31-71.35-9.86-86.15,3.36-6.67,19.44-6.8,19.44-6.8l43.84,22.87-.31,50.82c2.35,15.73,17.06,21.21,19.54,32.45.6,2.71-7.82,20.91-23.28,24.15-15.46,3.25-39.5-15.09-39.5-15.09,0,0-9.59-17.44-9.86-22.24Z"/>
                    <path class="cls-10" d="M74.86,312.48c-.79-2.38-17.19-7.61-18.65-5.58-1.81.17-4.77,19.33-2.62,23.89,3.05,6.48,20.47,19.47,20.47,19.47,0,0,2.1-33.86.8-37.78Z"/>
                  </g>
                  <g>
                    <g>
                      <g>
                        <path class="cls-5" d="M60.01,216.22c-5.81-4.61-17.8-2.66-24.48.56-5.81,2.8-9.47,8.4-10.25,12.81-.79,4.41.37,9.54,2.19,16.69.76,2.97,2.77,7.49,2.77,7.49,0,0,7.61,4.67,3.84,17.17-1.28,4.24,17.37,7.88,18.54,5.89l.82-5.5s6.2-.81,10.42-5.92c2.08-2.51,3.53-8.67,3.82-11.18.35-2.98,2.51-14.05,2.14-18.71-.59-7.39-4.01-14.69-9.81-19.3Z"/>
                        <path class="cls-13" d="M56.72,239.96c-3.42.54-4.23,4.22-3.24,7.2.99,2.98,4.61,4.58,6.26,3.9l-3.02-11.1Z"/>
                      </g>
                      <path class="cls-20" d="M66.07,231.62s.03-.09.03-.14c0,0,5.46-.13,7.34-4.64.87-2.08.51-7.7.51-7.7,0,0-6.69.44-9.27-.44,3.37-3.16-4.07-6.64-7.85-7.54-6.42-1.53-20.51,2.49-20.51,2.49-3.03.65-5.64,2.17-7.64,4.25-7.96,5.08-6.13,14.55-4.52,22.77,1.54,7.83,10.41,16.57,9.96,24.54,2.29-1.43,11.06,2.46,11.07,2.46,1.87-3.29,4.55-7.47,5.54-11.13.25-.92,2.83-4.09,3.11-8.73.16-2.67-1.93-6.81.4-8.14,1.43-.82,2.24.17,3.38,1.36.67.7,2.1,5.68,2.1,6.64.45-1.23-.13-6.05.63-8.16.37-1.03,3.99-.49,3.99-.49,0,0-.07-5.35-.24-7.11l1.87-.4s.06.08.09.12Z"/>
                    </g>
                    <path class="cls-11" d="M32.49,270.45c2.9-3.39,13.26,1.37,21.58,6.77-.03-.07-1.07,5.04-1.59,4.93,0,0-8.34-1.3-12.1-2.23-2.1-.51-4.43-1.25-6.24-2.46-.62-.41-3.64-2.15-3.64-2.15,0,0,1.46-4.44,1.99-4.87Z"/>
                    <path class="cls-4" d="M30.46,274.38c6.15,5.13,13.26,6.84,23.28,5.63,0,0,1.07,5.06,1.46,7.45-15.03,1.21-25.35-1.34-27.49-10.4l2.75-2.67Z"/>
                  </g>
                </g>
                <path class="cls-14" d="M66.65,356.46c2.62,1.39,4.25,4.1,4.23,7.07-.13,18.87-.71,87.05-2.19,90.02-3.81,7.66-59.75-27.01-63.79-35.78-5.98-12.97-5.15-60.4-4.35-83.42.2-5.89,6.5-9.54,11.71-6.77l54.38,28.89Z"/>
              </g>
              <g>
                <g>
                  <path class="cls-7" d="M209.53,320.95v.72c0,.24-.13.46-.34.58l-39.6,23.01c-1.98.78-4.27.68-5.78-.2l-47.43-27.44c-1.51-.88-1.75-2.82-.45-3.58h0l41.09-23.63,52.51,30.52Z"/>
                  <path class="cls-16" d="M209.53,320.95l-40.25,23.38c-1.31.76-3.6.66-5.11-.21l-47.43-27.44c-1.3-.76-1.6-1.85-.81-2.62h0c.12-.12.27-.23.45-.33l40.04-23.65.6.35,52.51,30.52Z"/>
                </g>
                <g>
                  <path class="cls-7" d="M207.33,319.89l-48.54-28.02c-1.55-.89-2.8-2.87-2.8-4.41v-44.85c0-1.55,1.25-2.08,2.8-1.18l48.54,28.02c1.54.89,2.8,2.87,3.12,5.02,0,0-.08,44.27-.08,45.02s-1.24,1.69-2.09,1.65c-.43-.02-.87-.66-.95-1.25Z"/>
                  <path class="cls-16" d="M206.67,320.71l-48.54-28.02c-1.55-.89-2.8-2.87-2.8-4.42v-44.85c0-1.55,1.25-2.08,2.8-1.18l48.54,28.03c1.55.89,2.8,2.87,2.8,4.41v44.85c0,1.55-1.25,2.08-2.8,1.18Z"/>
                  <path class="cls-6" d="M205.05,318.08l-45.29-26.15c-1.44-.83-2.61-2.68-2.61-4.12v-41.84c0-1.44,1.17-1.94,2.61-1.1l45.29,26.15c1.44.83,2.61,2.68,2.61,4.12v41.84c0,1.44-1.17,1.94-2.61,1.1Z"/>
                </g>
              </g>
            </g>
            <path class="cls-4" d="M68.68,297.86c6.93,3.1,52.67,26.17,52.67,26.17,0,0,.23,13.16-7.31,14.81-7.54,1.65-39.94-7.81-52.48-20.89-12.54-13.07-.35-23.44,7.12-20.1Z"/>
            <g>
              <path class="cls-5" d="M174.74,307.15l4.15-3.03s1.62-3.58,1.71-3.53c1.25.68,1.12,3.43.52,4.43-.6,1-2.47,3.32-3.9,4.31-.95.65-3.76,1.59-4.76,1.79-1.68.34-3.5-1.81-2.59-3.62.29.05,4.87-.35,4.87-.35Z"/>
              <path class="cls-5" d="M159.65,315.86c-.09.35-7.1,2.78-7.1,2.78l1.42,7.18s14.39-4.38,15.81-4.88c2.62-.93,6.48-3.01,6.48-3.01,0,0,1.89-1.58,1.31-2.96-.42-1-.76-2.12-1.33-3.06-1.76-2.88-5.89-5.79-9.09-6.49-2.04-.45-7.08,8.93-7.49,10.45Z"/>
              <path class="cls-5" d="M174.8,312.59c2.72-1.29,5.49-3.44,5.49-3.44.73-1.52-.32-3.23-2.39-1.59,0,0-4.8,2.08-4.93,4.68.83,1.94.72.92,1.83.35Z"/>
              <path class="cls-5" d="M174.39,314.09c2.45,2,7.19-3.35,5.39-4.26-1.25-.63-3.41,1.66-4.75,2.15-1.53.57-1.2,1.52-.63,2.11Z"/>
              <path class="cls-5" d="M175.03,316.2c-.21.65.48.44.82,1.07.14.25,2.01-1.23,2.22-1.52.54-.75,2.64-3.02,1.92-3.63-.72-.61-4.45,2.52-4.96,4.08Z"/>
              <path class="cls-5" d="M161.91,311.66s-.02-1.11,3.25-6.38c.62-.99,6.68-6.09,7.43-3.52.35,1.21-2.73,3.55-3.48,4.14-1.98,1.58,2.15,2.3,1.18,4.59-1.26,2.98-8.39,1.17-8.39,1.17Z"/>
              <path class="cls-11" d="M148.37,329.35l7.47-2.54c.52-3.56.15-6.68-1.64-9.07l-7.72,1.22,1.9,10.38Z"/>
              <path class="cls-4" d="M106.83,337.37c6.16,2.01,43.58-7.47,45.05-8.82,1.47-1.35-1.87-10.37-3.78-10.26-1.91.11-36.77,4.16-36.77,4.16-8.49-2.57-10.66,12.91-4.5,14.92Z"/>
            </g>
          </g>
          <g>
            <g>
              <path class="cls-15" d="M254.33,79.23l-5.25,3.04,5.01,80.87h0c22.42,13.13,59.59,47.98,59.59,47.98l5.25-3.04.24-83.91c-19.52-16.07-41.14-31.06-64.85-44.94Z"/>
              <path class="cls-19" d="M249.08,82.27l-.24,83.91c23.71,13.88,45.33,28.86,64.85,44.94l.24-83.91c-19.52-16.07-41.14-31.06-64.85-44.94Z"/>
            </g>
            <g>
              <path class="cls-15" d="M162.41,34.99l-5.25,3.04,5.01,80.87h0c27.18,10.73,72.89,39.47,72.89,39.47l5.25-3.04.24-83.91c-24.05-13.21-50.1-25.36-78.14-36.42Z"/>
              <path class="cls-8" d="M235.29,74.46c-24.05-13.21-50.1-25.36-78.14-36.43l-.24,83.91c28.03,11.07,54.09,23.21,78.14,36.43l.24-83.91Z"/>
            </g>
            <g>
              <path class="cls-15" d="M53.62,0l-5.25,3.04,5.01,80.87c31.54,8.17,87.05,31.73,87.05,31.73l5.25-3.04.24-83.91C117.12,18.04,86.35,8.47,53.62,0Z"/>
              <path class="cls-4" d="M48.36,3.04l-.24,83.91c32.73,8.47,63.5,18.04,92.3,28.69l.24-83.91C111.87,21.08,81.09,11.51,48.36,3.04Z"/>
            </g>
            <g>
              <path class="cls-15" d="M330.27,133.63l-5.25,3.04,5.01,80.87c17.18,15.15,44.6,55.36,44.6,55.36l5.13-2.63.24-83.91c-14.44-18.65-31.03-36.23-49.73-52.72Z"/>
              <path class="cls-8" d="M325.02,136.67l-.24,83.91h0c18.7,16.49,35.28,34.07,49.72,52.72l.24-83.91c-14.44-18.65-31.03-36.23-49.73-52.72Z"/>
            </g>
            <g>
              <path class="cls-15" d="M254.03,184.18l-5.25,3.04,5.01,80.87h0c22.56,13.21,40.83,32.79,59.59,47.98.96.78,4.3-3.82,5.25-3.04l.24-83.91c-19.52-16.07-41.14-31.06-64.85-44.94Z"/>
              <path class="cls-19" d="M313.63,232.16c-19.52-16.07-41.14-31.06-64.85-44.94l-.24,83.91c23.71,13.88,45.33,28.86,64.85,44.94l.24-83.91Z"/>
            </g>
            <g>
              <path class="cls-15" d="M162.11,139.94l-5.25,3.04,5.01,80.87c26.78,10.57,72.89,39.46,72.89,39.46l5.25-3.04.24-83.91c-24.05-13.21-50.1-25.36-78.14-36.42Z"/>
              <path class="cls-8" d="M156.86,142.98l-.24,83.91c28.03,11.07,54.09,23.21,78.14,36.42l.24-83.91c-24.05-13.21-50.1-25.36-78.14-36.43Z"/>
            </g>
            <g>
              <path class="cls-15" d="M53.32,104.95l-5.25,3.04,5.01,80.87c31.51,8.16,87.05,31.73,87.05,31.73l5.25-3.04.24-83.91c-28.8-10.65-59.57-20.22-92.3-28.69Z"/>
              <path class="cls-19" d="M48.07,107.99l-.24,83.91c32.73,8.47,63.5,18.04,92.3,28.69l.24-83.91c-28.8-10.65-59.57-20.22-92.3-28.69Z"/>
            </g>
            <g>
              <path class="cls-15" d="M329.98,238.57l-5.25,3.04,5.01,80.87h0c17.53,15.46,44.47,55.77,44.47,55.77l5.25-3.04.24-83.91c-14.45-18.65-31.03-36.23-49.73-52.73Z"/>
              <path class="cls-4" d="M324.72,241.61l-.24,83.91c18.7,16.49,35.28,34.07,49.73,52.72l.24-83.91c-14.45-18.65-31.03-36.23-49.73-52.72Z"/>
            </g>
            <g>
              <path class="cls-6" d="M292.14,244.09c.09-6.08.21-14.41-8.41-20.88-1.7-1.19-3.93-2.81-5.66-3.95-7.58-4.87-8.78.57-8.98,5.86l-.04,2.97c-6.4-4.16-7.58.07-7.71,2.96-.02,5.93-.04,13.84-.06,19.77-.02,5.52-.04,12.89-.05,18.42,12.94,8.31,21.87,14.16,36.62,25.29q.13-45.74-5.71-50.44ZM281.56,256.5c-.02,4.8-.05,11.2-.08,15.99h0l-3.88-2.69q.07-15.99-.11-16.28c-.99-1.59-1.59-3.76-1.41-5.16.36-2.89,2.51-2.82,4.31-1.09,2.82,2.71,4,8.69,1.17,9.23ZM288.22,241.23c-4.48-3.16-10.48-7.33-15.02-10.41h0c.05-4.74.11-9.63,4.87-6.38,8.32,5.8,10.05,7.01,10.18,13.92l-.03,2.87Z"/>
              <g>
                <path class="cls-6" d="M201.1,99.01c-1.04-1.01-1.88-1.85-3.07-3.13.72-1.71,1.11-3.29,1.34-5.46,1.35.77,2.16,1.27,3.33,2.05.01-1.6.02-3.74.03-5.35-1.17-.34-1.95-.6-3.34-1.11-.2-2.33-.57-4.27-1.27-6.69,1.3-.15,2-.2,3.09-.21-.64-1.7-1.49-3.96-2.12-5.65-.99.5-1.66.8-2.74,1.21-1.09-2.32-2.13-4.09-3.59-6.11.81-1.06,1.29-1.63,2.04-2.43-1.13-1.32-2.64-3.09-3.77-4.42-.45,1.16-.77,1.91-1.4,3.21-1.72-1.67-3.17-2.79-5-3.87.12-1.64.22-2.61.4-3.99-1.34-.58-3.12-1.36-4.46-1.95.17,1.45.28,2.74.37,4.32-1.85-.54-3.34-.7-5.12-.56-.6-1.77-.99-3.01-1.39-4.43-1.19.31-2.77.73-3.96,1.04.74,1.4,1.37,2.66,2.1,4.24-1.56.72-2.67,1.55-3.82,2.87-1.18-1.43-1.99-2.46-2.88-3.66-.7,1.11-1.64,2.59-2.34,3.7,1.08.92,2,1.76,3.3,3-.78,1.75-1.2,3.35-1.45,5.5-1.5-.75-2.34-1.19-3.59-1.91-.01,1.6-.02,3.74-.03,5.35,1.29.29,2.13.52,3.6.98.21,2.33.61,4.25,1.37,6.64-1.38.2-2.16.28-3.32.34.69,1.67,1.6,3.89,2.28,5.56,1.02-.53,1.7-.83,2.91-1.3,1.13,2.25,2.22,3.99,3.77,6.01-.8,1.02-1.32,1.63-2.14,2.48,1.18,1.3,2.75,3.02,3.93,4.32.48-1.21.83-1.99,1.43-3.23,1.77,1.65,3.25,2.75,5.1,3.81-.13,1.7-.22,2.63-.41,3.99,1.34.58,3.12,1.36,4.46,1.95-.16-1.38-.26-2.63-.36-4.33,1.84.56,3.3.73,5.02.61.58,1.74.96,2.98,1.35,4.44,1.14-.28,2.66-.66,3.8-.94-.74-1.5-1.34-2.78-2-4.29,1.48-.67,2.53-1.48,3.64-2.77,1.05,1.38,1.81,2.43,2.71,3.75.65-1.08,1.52-2.53,2.18-3.62ZM194.01,91.56c-1.93,4.63-6.41,6.21-11.41,4.03h0c-13.72-6.8-16.49-26.78-6.88-30.38,10.39-3.89,23.21,14.58,18.29,26.34Z"/>
                <path class="cls-19" d="M222.05,126.51c.3-1.72.31-3.41.03-5.47,1.68.06,2.71.17,3.94.43-1.18-3.34-2.75-7.78-3.93-11.12-1.41.03-2.08,1.3-3.15,1.89-1.16-1.92-2.22-3.26-3.66-4.62.32-2.22.55-3.44.92-4.82-2.49-1.24-5.8-2.9-8.29-4.14.36,1.73.59,3.17.89,5.72-1.45-.08-2.58.19-3.77.91-1.48-2.27-2.28-3.57-3.17-5.17-1.27,2.1-2.97,4.91-4.24,7.02,1.02,1.61,2.74,2.46,4.07,3.72-.32,1.75-.33,3.44-.04,5.47-1.79-.02-2.84-.1-4.14-.31,1.24,3.3,2.9,7.71,4.14,11.01,1.45-.06,2.16-1.35,3.28-1.95,1.17,1.86,2.28,3.23,3.73,4.57-.32,2.22-.56,3.44-.93,4.84,2.48,1.24,5.79,2.9,8.28,4.14-.35-1.75-.57-3.2-.86-5.73,1.44.09,2.55-.16,3.69-.86,1.37,2.17,2.17,3.54,3.05,5.23,1.21-2.07,2.82-4.83,4.03-6.9-.88-1.69-2.59-2.54-3.87-3.83Z"/>
              </g>
              <g>
                <path class="cls-19" d="M195.58,176.25c-13.24-6.13-25.45-6.21-36.29-.24,1.95,2.69,4.54,6.27,6.49,8.95,17.55-9.62,40.99.95,57,25.69,1.69-1.05,3.94-2.45,5.62-3.51-3.79-5.96-13.86-21.8-32.83-30.9Z"/>
                <path class="cls-19" d="M195.52,189.83c-9.74-4.51-18.66-4.62-26.49-.33,1.91,2.7,4.46,6.3,6.37,9,11.76-6.33,27.72.87,38.82,17.51,1.71-1.07,4-2.5,5.72-3.57-2.84-4.35-10.4-15.89-24.41-22.61Z"/>
                <path class="cls-19" d="M195.47,204.08h0c-6.07-2.81-11.6-2.93-16.41-.34,1.88,2.72,4.39,6.34,6.27,9.06,5.86-3.03,13.97.62,19.71,8.89,1.75-1.08,4.08-2.53,5.83-3.62-1.81-2.67-6.6-9.78-15.4-13.99Z"/>
                <path class="cls-19" d="M194.05,218.21c-4.98-2.27-8.34,1.46-6.41,7.13,2.4,7.07,10.48,10.7,12.72,5.71,1.6-3.57-1.05-10.33-6.31-12.83Z"/>
              </g>
              <g>
                <path class="cls-6" d="M292.17,158.13c-1.05-.71-1.76-.33-1.82.94q-.1,19.35-.07,19.6c.31,2.22,2.36,4.23,3.27,3.21.28-.31.3-.77.31-1.04.04-6.45.58-12.9.1-19.35-.09-1.24-.86-2.69-1.79-3.37Z"/>
                <path class="cls-6" d="M273.19,164.95c-1.17-.85-3.3-3.37-3.99-6.51-.82-3.71.98-6.36,4.52-4.21.79.48,2.45,1.48,2.52-.35.29-7.12-.66-14.23-.03-21.35.16-1.87.68-6.2,1.96-5.92,1.59.35,1.48-3.29-.81-4.88-5.41-3.41-5.23,8.77-4.94,27.21-6.93-2.9-9.06,4.18-5.87,11.8,2.29,5.47,7.83,11.04,8.86,8.9.01-.02.94-2.38-2.22-4.68Z"/>
                <path class="cls-6" d="M285.83,134.88c-1.13-.66-1.74-.34-1.87.97-.08,13.64-1.18,27.27-.21,40.91.16,2.21,2.39,4.49,3.37,3.43.25-.27.29-.72.32-1.05q.23-42.96-1.61-44.26Z"/>
                <path class="cls-6" d="M295.3,154.4c-.62-.46-.93-.7-2.46-1.67-.05-.3-.13-.71,0-2.99v-.29s0-.13,0-.13c.06-9.27.1-16.59-7.01-21.63-4.19-2.71-7.06-1.23-7.31,3.76l-.04,7.65q-.18,21.58-2.88,19.92c-3.42-2.1-4.7-2.89-4.24-.35.1.54.43,1.58,1.6,2.47,3.82,2.34,8.15,4.99,8.46-1.4.05-5.55.11-12.95.16-18.51q.04-8.8.56-9.73c.57-1.01,2.34-1.5,4.52.61.32.31,3.12,3.13,3.26,7.36l-.04,7.66c-.19,4.76-.1,7.36,3.83,9.89q1.69,1.09,1.74,1.7.1,9,.22,9.5c.32,1.36,1.85,3.05,2.57,2.2.19-.23.22-.6.23-.87-.14-12.42-.15-12.66-3.16-15.15Z"/>
                <path class="cls-6" d="M265.88,124.74q-.08,14.47,0,14.89c.37,1.91,2.47,3.9,3.47,2.84.3-.32.32-.78.34-1.06q.11-18.44,2.33-21.15c1.84-2.24,6.81-3.42,12.98,2.49.94.91,9.24,9.21,9.62,21.84.05,1.7,1.09,3.09,1.78,3.61.96.72,1.78.3,1.79-.92.09-11.09-6.93-25.05-15.65-31.12h0c-9.39-5.95-16.08-2.5-16.65,8.58Z"/>
                <path class="cls-6" d="M302.61,140.02c-3.15-14.86-10.68-24.94-16.67-29.42-7.58-5.28-25.34-17.64-26.54,5.62-.08,14.82-1.37,29.64-.25,44.47.24,3.11,3,4.8,3.87,3.56.17-.25.23-.67.26-.97q.26-46.84.96-49.39c.03-.11,3.05-10.59,13.72-4.11,8.44,5.88,21.2,14.76,21.69,34.74-.08,14.64-1.19,29.26-.23,43.91.19,2.92,2.43,4.82,3.35,3.91.24-.24.27-.74.31-1.08q.25-47.89-.46-51.25Z"/>
              </g>
              <g>
                <path class="cls-6" d="M368.37,312.96c.7.86,1.27.49,1.28-.81,0-1.16-.47-2.96-1.26-3.98h0c-7.6-9.21-13.09-15.86-24.88-27.91-11.36-11.62-11.4-11.41-11.7-9.49-.16,1,.27,3.05,1.5,4.3,9.77,9.46,19.88,19.25,35.08,37.9Z"/>
                <path class="cls-6" d="M368.33,327.28c-7.6-9.2-13.09-15.85-24.88-27.91-11.36-11.62-11.4-11.42-11.7-9.5-.16,1,.27,3.04,1.5,4.29,9.77,9.46,19.88,19.25,35.08,37.9.7.86,1.27.5,1.28-.8,0-1.16-.47-2.97-1.26-3.98h0Z"/>
                <path class="cls-6" d="M343.39,318.92c-11.36-11.62-11.4-11.42-11.7-9.49-.16,1,.27,3.04,1.5,4.29,9.77,9.46,19.88,19.25,35.08,37.9.7.86,1.27.5,1.28-.8,0-1.17-.47-2.97-1.26-3.99-7.61-9.22-13.11-15.88-24.88-27.91Z"/>
              </g>
              <g>
                <path class="cls-8" d="M63.67,151.81c-8.41-1.89-11.84,4.63-7.91,10.64,4.71,7.21,15.39,8.27,17.05,1.69,1.2-4.75-3.24-10.75-9.14-12.33Z"/>
                <path class="cls-8" d="M91.8,158.47c-8.1-2.07-11.4,4.39-7.61,10.49,4.54,7.31,14.81,8.58,16.41,2.04,1.16-4.73-3.12-10.82-8.8-12.52Z"/>
                <path class="cls-8" d="M117.82,165.87h0c-7.79-2.24-10.97,4.14-7.33,10.33,4.36,7.4,14.24,8.89,15.78,2.39,1.11-4.71-3-10.88-8.46-12.71Z"/>
              </g>
              <g>
                <path class="cls-6" d="M354.28,209.65c.8.29,1.19.47,1.79.84-.54-2.51-1.26-5.86-1.8-8.37-.42.41-.71.61-1.41.99-.45-1.28-1.42-2.34-1.67-3.71,0,0,.14-1.66.42-3.22-1.13-1.2-2.64-2.8-3.77-4,.16,1.25.26,2.32.4,4.09-.72-.25-1.14-.23-1.72.11-.71-1.85-1.04-2.79-1.44-4.03-.59,1.31-1.38,3.05-1.97,4.36,1.01,1.49,1.88,3.06,1.89,3.07.35,1.27-.13,2.53-.01,3.8-.84-.27-1.25-.44-1.9-.79.57,2.5,1.34,5.82,1.91,8.32.47-.44.8-.67,1.47-1.02.47,1.28,1.45,2.32,1.71,3.69,0,0-.14,1.67-.44,3.22,1.13,1.2,2.64,2.81,3.78,4.01-.16-1.23-.26-2.34-.39-4.09.71.26,1.12.23,1.67-.1.65,1.77,1,2.8,1.39,4.06.56-1.3,1.3-3.02,1.86-4.32-.85-1.35-1.76-3.08-1.76-3.09-.33-1.28.11-2.55,0-3.83Z"/>
                <path class="cls-19" d="M349.76,187.37h0c-11.48-10.77-19.62-.17-19.45.84.03.22,9.22,28.09,19.34,38.84,10.15,10.78,17.62.61,17.67.48.31-.87-8.01-30.08-17.56-40.16ZM356.08,225.21c-2.27,1.41-5-.91-6.43-2.42h0c-10.95-12.52-12.41-34.97-4.37-33.95,9.11,1.16,18.19,31.75,10.79,36.37Z"/>
              </g>
              <g>
                <path class="cls-19" d="M87.41,57.4c-.63-.42-1.3-.74-1.99-.94h0c-4.47-1.09-6.34,2.47-4.3,5.81.76,1.24,1.72,1.94,2.18,2.27l-.02,8.68c-6.57-1.84-15.34-4.25-21.92-6.01-.02,6.11-.03,12.21-.05,18.32l4.57,1.21c.01-4.32.03-10.07.04-14.39,6.54,1.79,15.26,4.22,21.78,6.09.01-3.81.03-8.9.04-12.72,4.09-.84,3.32-5.88-.33-8.32Z"/>
                <path class="cls-6" d="M120.78,31.69c-.01,4.32-.03,10.07-.04,14.38-6.2-2.04-14.48-4.72-20.71-6.68-.01,4.4-.03,10.27-.04,14.67l-2.78-.85c0,2.72-.02,6.34-.03,9.06l9.98,3.11c0-2.72.02-6.35.02-9.07h0l-2.88-.91c.01-3.22.02-7.51.03-10.73,6.18,1.99,14.41,4.69,20.57,6.76.02-5.3.03-12.38.05-17.68,0-.19,0-.45,0-.64l-4.18-1.42Z"/>
              </g>
            </g>
          </g>
        </g>
      </g>
    </g>
  </g>
</svg>