<svg xmlns="http://www.w3.org/2000/svg" viewBox="0 0 380 519.34"><defs><style>.cls-1{fill:#2f3662}.cls-2{fill:#b4c3e4}.cls-6{fill:#61619d}.cls-9{fill:#eaa5bc}.cls-10{fill:#fff}.cls-15{fill:#3a3c6f}.cls-16{isolation:isolate}.cls-17{fill:#5f7bbc}.cls-18{fill:#eea3b7}.cls-19{fill:#2a335a}.cls-20{fill:#e396af}.cls-21{fill:#e6e3f1}.cls-23{fill:#bcc8e6}.cls-24{fill:#24395f}</style></defs><g class="cls-16"><g id="_レイヤー_1" data-name="レイヤー 1"><g class="cls-16"><path d="M206.5 213.42l-20.92 106.23-58.15 101.34c-26.32-5.07-51-13.66-71.92-25.74-72.34-41.77-72.72-109.47-.9-151.21 41.41-24.06 97.76-34.25 151.9-30.61z" fill="#bcdef5"/><path d="M185.57 319.66l-.98 89.17-58.15 101.33.98-89.17 58.15-101.33zM0 408.26l.99-89.17c-.08 27.54 18.1 55.13 54.51 76.16 20.93 12.08 45.6 20.67 71.92 25.74l-.99 89.17c-26.32-5.07-51-13.66-71.92-25.75C18.1 463.4-.08 435.8 0 408.26z" fill="#a1bfd5"/><path fill="#c7c7e3" d="M362.14 273.88l-.91 104.36-157.47 36.54.91-104.36 157.47-36.54z"/><path class="cls-21" d="M324.35 240.86c16.84 9.72 29.47 20.99 37.79 33.02l-157.47 36.54 19.24-97.71c36.65 2.48 72.23 11.87 100.44 28.15z"/><path d="M380 319.23l-.94 98.56c-.08 25.95-17.15 51.87-51.22 71.67-48.67 28.29-119.07 36.51-180.46 24.58l.94-98.56c61.4 11.94 131.79 3.71 180.46-24.57 34.08-19.8 51.15-45.72 51.22-71.67z" fill="#95a6d4"/><path d="M367.23 282.05c25.57 36.74 12.76 80.3-38.45 110.06-48.67 28.29-119.07 36.51-180.46 24.58l55.5-96.72 163.41-37.92z" fill="#a1b3dc"/></g><path d="M308.52 383.37l-43.89-25.34-129.09-74.53c-5.84-3.37-10.57-11.03-10.57-17.1V6.47c0-6.07 4.73-8.26 10.57-4.89l172.98 99.87c5.84 3.37 10.58 11.03 10.57 17.1v259.93c0 6.07-4.73 8.26-10.57 4.89z" fill="#4c4f8f"/><path class="cls-10" d="M307.42 367.66l-170.78-98.6V21.05l170.78 98.6v248.01z"/><path style="mix-blend-mode:multiply" fill="#d5e3ed" d="M209.7 368.49l-31.69-53.77V67.12l120.94 69.27-32.61 221.64-56.64 10.46z"/><path class="cls-2" d="M109.1 117.25c4.57-21.55 18.13-40.23 37.2-51.24l15.37-8.87 137.28 79.26-16.52 9.54c-18.51 10.69-31.67 28.81-36.1 49.72L209.7 368.5 72.63 289.36l36.47-172.1z"/><path class="cls-10" d="M244.07 195.17c4.57-21.55 18.13-40.23 37.2-51.24l13.06-7.54L161.67 59.8l-14.21 8.21c-18.51 10.69-31.67 28.81-36.1 49.72L75.24 288.19 208.1 364.9l35.97-169.72z"/><path class="cls-2" d="M229.33 202.74c-.18 0-.35-.04-.52-.14l-109.17-62.07c-.5-.29-.68-.92-.39-1.42.29-.5.92-.68 1.42-.39l109.18 62.07c.5.29.68.92.39 1.42-.19.34-.55.53-.91.53zm-1.83 8.63a.96.96 0 01-.51-.14l-91.24-51.89c-.5-.28-.68-.92-.39-1.42.28-.5.92-.68 1.42-.39l91.24 51.89c.5.29.67.92.39 1.42-.19.34-.54.53-.91.53zm3.66-17.26a.96.96 0 01-.51-.14L121.46 131.9c-.5-.28-.68-.92-.39-1.42.28-.5.92-.68 1.42-.39l109.19 62.07c.5.29.68.92.39 1.42-.19.34-.55.53-.91.53zm2.07-8.52c-.17 0-.35-.04-.52-.14l-109.27-62.1c-.5-.29-.68-.92-.39-1.42.28-.5.92-.68 1.42-.39l109.27 62.11a1.044 1.044 0 01-.52 1.95zm-15.93 61.99a.96.96 0 01-.51-.14l-109.18-62.07c-.5-.29-.68-.92-.39-1.42.29-.5.92-.68 1.42-.39l109.17 62.07c.5.29.68.92.39 1.42-.19.34-.54.53-.91.53zm-1.83 8.63c-.17 0-.35-.04-.52-.14l-74.51-42.37c-.5-.29-.67-.92-.39-1.42.28-.5.92-.68 1.42-.39l74.51 42.37c.5.29.68.92.39 1.42-.19.34-.54.53-.91.53zm-10.01 49.96c-.17 0-.35-.05-.52-.14l-74.51-42.37c-.5-.29-.68-.92-.39-1.42.28-.5.92-.68 1.42-.39l74.51 42.37c.5.28.68.92.39 1.42-.19.34-.55.53-.91.53zm13.67-67.22c-.17 0-.35-.04-.52-.14l-109.19-62.07c-.5-.28-.68-.92-.39-1.42.28-.5.92-.68 1.42-.39L219.64 237c.5.28.68.92.39 1.42-.19.34-.55.53-.91.53zm2.08-8.51a.96.96 0 01-.51-.14l-109.27-62.11c-.5-.28-.68-.92-.39-1.42.28-.5.92-.68 1.42-.39l109.27 62.11c.5.28.68.92.39 1.42-.19.34-.55.53-.91.53zm28.09-81.88c-.13 0-.26-.03-.38-.1l-97.18-55.24a.77.77 0 11.76-1.34l97.18 55.24a.77.77 0 01-.38 1.44zm-98.81 115.35c.7-1.35 1.79-1.51 2.43-.36.64 1.15.58 3.17-.12 4.52-.7 1.35-1.79 1.51-2.43.36-.64-1.15-.58-3.17.12-4.52zm50.28 27.13c.7-1.35 1.79-1.51 2.43-.36.64 1.15.58 3.17-.12 4.52-.7 1.35-1.79 1.51-2.43.36-.64-1.15-.58-3.17.12-4.52zm-38.65-21.03c.7-1.35 1.79-1.51 2.43-.36.64 1.15.58 3.17-.12 4.52-.7 1.35-1.79 1.51-2.43.36-.64-1.15-.58-3.17.12-4.52zm13.41 7.19c.7-1.35 1.79-1.51 2.43-.36.64 1.15.58 3.17-.12 4.52-.7 1.35-1.79 1.51-2.43.36-.64-1.15-.58-3.17.12-4.52zm11.64 6.1c.7-1.35 1.79-1.51 2.43-.36.64 1.15.58 3.17-.12 4.52-.7 1.35-1.79 1.51-2.43.36-.64-1.15-.58-3.17.12-4.52z"/><path class="cls-19" d="M100.73 364.62c-.37 1.01-2.48 7.74-1.23 9.31 1.25 1.57 4.58 2.87 6.58 2.31 1.08-.3 6.54 2.99 8.26 4.48 2.26 1.97 4.73 3.63 6.58 3.54 1.85-.09 6.54-2.25 7.01-3.81.53-1.76-.51-4.44-6.04-6.4-4.42-1.23-10.65-11.29-10.65-11.29l-6.35-.97-4.17 2.83z"/><path class="cls-2" d="M111.84 354.19c-4.97-2.7-11.07.02-11.07.02l.47 11.42c-1.11 3.24 10.88 2 10.88 2-2.7-4.02-1.58-9.07-.28-13.45z"/><path d="M115.71 309.56c.45-10.01-.13-68.91-.13-68.91l-19.98 9.09c2.43 16.17 5.05 55.01 4.68 60.25-.37 5.24-.82 52.24.69 54.42 1.51 2.18 9.51 2.26 10.61.64 1.1-1.62 3.67-45.48 4.12-55.49z" fill="#1e264c"/><path class="cls-19" d="M74.21 374.44c-.48.83-1.42 8.12-1.42 8.12s-.69 2.57-.2 3.15c.53.62 14.27 9.41 17.03 9.92 4.71.87 8.07-2.63 8.03-5.01-.04-2.38-2.97-4.07-6.79-5.51-3.29-1.53-4.3-8.78-5.05-9.88-.75-1.1-7.48-2.63-7.48-2.63l-4.12 1.84z"/><path class="cls-23" d="M86.52 377.45c-1.29-.26-2.53-8.46-.52-9.87l-7.72-2.05c-.31 3.41-3.28 11.24-3.28 11.24s6.7 2.35 6.89 2.28c.68-2.53 4.64-1.59 4.64-1.59z"/><path class="cls-19" d="M74.91 255.4s1.58 35.94.58 56c0 0-2.58 61.48-2.77 62.85s1.45 5.32 5.13 6.14c3.68.82 8.9-1.65 9.45-2.21.57-.57-.07-33.52 3.77-65.7 4.31-36.1 9.51-63.13 8.98-64.4-4.25-10.26-25.15 7.32-25.15 7.32z"/><path class="cls-19" d="M114.68 228.2c1.26 3.83.31 16.87.31 16.87.85 1.98-21.28 17.62-26.69 16.21-3.43-.9-13.59-5.38-13.88-6.25-.91-2.77 1.87-20.71 2.51-23.31 1.28-5.24 17.04-9.3 23.29-10.21 2.95-.43 13.21 2.87 14.46 6.69z"/><path d="M104.66 168.17c-1.99-2.31-8.93-5.35-8.93-5.35s10.32 46.55 15.4 49.26c5.08 2.71 3.23-8.03 3.23-8.03s-7.71-33.57-9.7-35.88z" fill="#56568c"/><path class="cls-6" d="M93.72 153.61c-4.75 3.07-11.48 12.77-11.48 12.77l9.42 73.85 21.03-9.2s2.1-51.77 1.25-57.56c-.86-5.79-4.03-13.49-8.73-15.6-4.7-2.11-6.74-7.32-11.49-4.25z"/><path class="cls-21" d="M96.58 154.94c-4.75 3.07-11.48 12.77-11.48 12.77l9.42 73.85 21.03-9.2s2.1-51.77 1.25-57.56c-.86-5.79-4.03-13.49-8.73-15.6-4.7-2.11-6.74-7.32-11.49-4.25z"/><path class="cls-17" d="M110.61 194.23l-1.88-22.14c2.64-4.17-.7-6.49-1.6-7.49-.79-.87-3.86-3.79-3.86-3.79l-4.49 4.63 5.86 6.77-3.29 22.81 1.02 28.49 7.58 9.49 4.81-6.04-4.16-32.71z"/><path class="cls-6" d="M100.18 155.04s5.11-2.04 8.9-.26c2.86 1.34 5.33 2.73 6.85 5.29 1.07 1.79 1.92 4.37 2.2 6.65.67 5.46-1.3 63.02-1.3 63.02l1.35 14.25s-3.39 3.64-8.76-1.86c-5.37-5.49.59-24.75.59-24.75s.98-31.05 1.48-40.8c.05-20.19-11.31-21.54-11.31-21.54z"/><path class="cls-6" d="M74.82 177.12c1.37-4.84 7.57-12.12 7.57-12.12 2.38-2.58 4.29-5.2 8.52-8.77 0 0 .62 1.45.36 7.19-.09 1.97 5.68 10.21 7.58 17.71 1.97 7.75 12.82 42.15 12.74 51.7-.1 10.66-9.07 18.38-9.07 18.38s-11.65 10.04-14.99 8.48c-8.61-3.99-15.89-11.81-15.89-11.81l1.27-17.93s3.34-18.61 1.91-30.34c-.48-3.99-1.37-17.64 0-22.48z"/><path d="M120.75 206.7c-1.56-6.62-21.75-8.39-25.44-12.18-3.68-3.79-13.31-9.95-14.19-6.93-.19.65-5.16 3.54-4.24 6.61 3.31 11 24.34 16.68 26.19 18.65 2.37 2.52 19.27.64 17.68-6.14z" style="mix-blend-mode:multiply" fill="#c4c4da"/><path class="cls-21" d="M106.04 153.33s2.64 6.44 3.37 9.74c.74 3.3.5 4.69.5 4.69l-7.31-3.7s-3.65-10.34-2.09-12.15c3.14-3.66 5.53 1.42 5.53 1.42z"/><path class="cls-20" d="M105.37 155.77c.38 2.2 1.3 2.43 1.3 2.43l-5.14 5.38s-8.51-7.35-7.77-9.36c.75-2.01 1.85-2.71.85-9.66-.71-4.93 1-5.99 1-5.99s7.1 3.58 11.79 9.79c1.19 1.57-2.54 4.46-2.03 7.42z"/><path class="cls-21" d="M97.3 157.88c2.45 2.17 6.39 5.14 6.39 5.14l-4.99 6.99s-5.15-1.45-7.17-5.47c-1.98-3.95 2.97-13.88 2.97-13.88s.36 5.07 2.8 7.23z"/><path class="cls-9" d="M88.16 138.93c1.41 2.67 6.65 6.18 7.7 8.59 1.5 3.44 5.65 7.74 8.22 8.68 2.57.94 6.15.39 7.2-1.12 1.06-1.51 4.07-5.45 4.95-8.21.88-2.77-.26-5.82.74-9.87 1.17-4.75-2.35-11.08-5.9-14.45-3.56-3.38-11.57-2.8-16.16-1.07-3.99 1.5-6.73 4.97-7.51 7.82-.78 2.85-1.15 6.04.75 9.63z"/><path class="cls-24" d="M117.9 132.05c.55-.89-.81-3.39-1.14-5.56-.33-2.17-2.68-8.46-7.88-9.06-5.2-.6-10.7.34-13.37.91-5.19 1.11-4.32 2.89-5.76 4.13-7.68 5.97-5.44 12.49-2.82 17.36 2.93 5.44 7.4 6.27 7.89 6.49.49.22-2.44-3.13-1.98-6.16.26-1.75 3.23-3.22 3.46-2.18.14.62 1.39 4.05 1.33 4.68.54-1.16 3.99-6.09 5.26-6.31 8.82-1.5 7.22-4.9 7.22-4.9s7.23 1.48 7.79.59z"/><path class="cls-9" d="M95.54 137.72c-1.01-.56-3.39 1.24-3.29 4.44.08 2.75 2.9 6.35 3.83 4.63.93-1.72 0-2.21-.07-4.11-.13-3.95 1.45-3.9-.47-4.96zm72.98 69.47c.91-1.41 6.83-.82 8.71.1 1.87.92 1.04 3.63.69 5.55-.34 1.92-7.16-1.19-7.84-1.62-.68-.43-2.32-2.85-1.56-4.03z"/><path class="cls-20" d="M165.54 215.13c.49-2.36 2.05-4.63 3.09-6s3.95-1.28 5.87-1.6c2.18-.36 3.74-.36 5.27-.26 2.17.15 7.64-.13 7.64-.13l2.57 2.71-.13 2.41s-4.83 1.54-5.4 2.02c-.83.7-1.97 1.61-2.49 1.81-1.19.44-2.3 1.01-3.23 1.54-2.57 1.44-5.61 1.57-5.61 1.57-4.15-.61-7.96-2.24-7.58-4.06z"/><path class="cls-9" d="M181 215.38c-1.01-.97-4.59-2.24-5.17-2.44-1.05-.02-2.66.39-1.6 1.25.68.39 5.13 2.3 5.58 2.51.45.21 2.2-.34 1.19-1.31z"/><path class="cls-9" d="M179.62 216.46c-.55-.51-2.11-.87-2.76-1.11-.58-.22-2.41-1.4-3-1.57-1.05.03-1.09 1.34 0 2.14.69.36 4.09 1.62 4.72 1.83.63.21 1.47-.65 1.02-1.28z"/><path class="cls-9" d="M178.18 217.6c-.52-.34-1.94-.88-2.51-.99-.51-.1-3.76-1.44-4.27-1.5-.86.17-1.56 1.14-.54 1.65.62.2 6.96 2.33 7.35 1.99.42-.37.43-.68-.03-1.15z"/><path class="cls-9" d="M177.15 211.58c-1.48-.87-3.25-.88-3.72-1.25-1.09-.86-2.61-.71-2.9-1.26-.29-.55 1.63-2.65 1.4-2.74-1.64-.7-6.53.11-8.66.98-1.99.81-8.31 1.33-8.31 1.33l-.76 6.05 7.93-.61 11.32 3.56 3.7-6.05z"/><path class="cls-9" d="M182.89 214.69c.28-.69-1.04-1.2-1.67-1.65-.16-.11-3.32-1.3-6.19-2.4 0 0-.82 1.84-.37 2.08.46.24 6.42 2.7 6.75 2.79.63.16 1.18-.11 1.48-.82z"/><path class="cls-20" d="M174.61 210.1c-1.25.64-2.68 3.15-3.74 3.68-1.06.53-.46 2.13 1.12 1.61 1.09-.36 2.22-1.31 2.89-2.12.3-.37 4.25-1.09 4.36-1.31 2.37-4.74-3.37-2.5-4.62-1.86zm-5.48 4.96c-.4.13-3.26 1.45-3.26 1.95s.49 1.39 1.35 1.18c.86-.21 2.55-1.73 2.55-1.73.76-.6.08-1.38-.63-1.41z"/><path class="cls-20" d="M170.44 216.17c-.36.12-2.97 1.32-2.97 1.78 0 .46.44 1.27 1.23 1.07.78-.19 2.31-1.57 2.31-1.57.69-.54.08-1.25-.57-1.28z"/><path class="cls-20" d="M172.19 216.76c-.37.12-2.97 1.32-2.97 1.78 0 .46.44 1.27 1.23 1.08.78-.19 2.31-1.57 2.31-1.57.69-.54.08-1.25-.57-1.28z"/><path class="cls-20" d="M173.97 217.29c-.37.12-2.97 1.32-2.97 1.78 0 .46.44 1.27 1.22 1.08.78-.19 2.32-1.57 2.32-1.57.69-.54.08-1.25-.57-1.28z"/><path class="cls-21" d="M153.47 207.7l4.6-.44 1.87 1.96-1.47 5.83-5.73.79.73-8.14z"/><path class="cls-6" d="M155.51 207.12l-32.03-.77s-5.03 8.2-1.32 10.68c3.71 2.49 33.2-1.08 33.2-1.08l1.31-6.6-1.15-2.24z"/><path class="cls-6" d="M126.43 207.24s-35.85-28.35-41.66-27.64c-5.82.7-8.51 9.61-5.3 12.72 3.21 3.11 39.23 28.22 44.32 24.78 5.1-3.44 2.64-9.86 2.64-9.86z"/><path class="cls-21" d="M188.57 205.78l-3.31.67 1.32 7.39 4.36-1.46-2.37-6.6z"/><path class="cls-15" d="M220.53 195.16c-3.19-1.1-33.02 10.55-33.02 10.55l.76 8.06s30.18-6.46 33.49-8.44c2.72-1.63 1.97-9.07-1.22-10.17z"/><path class="cls-15" d="M233.94 164.33c-3.22 1.01-19.22 33.86-19.22 33.86s1.8 10.65 7.73 6.46c5.93-4.18 17.04-25.42 18.53-28.98 1.22-2.93-3.81-12.35-7.04-11.34z"/><path class="cls-19" d="M248.22 355.98c.35.97 2.36 7.39 1.17 8.88-1.19 1.5-4.37 2.74-6.28 2.21-1.03-.29-6.24 2.85-7.88 4.28-2.16 1.88-4.52 3.46-6.28 3.38-1.76-.09-6.24-2.15-6.69-3.64-.5-1.68.49-4.23 5.76-6.11 4.22-1.17 8.03-9.92 8.03-9.92l8.19-1.77 3.97 2.7z"/><path class="cls-2" d="M237.63 346.03c4.74-2.58 10.56.02 10.56.02l.55 10.5c1.06 3.09-13.25 1.48-13.25 1.48 2.57-3.83 3.37-7.83 2.13-12.01z"/><path class="cls-1" d="M233.5 306.83c-.43-9.55-2.92-49.65-2.05-62.26.7-10.19 18.32 6.28 18.32 6.28-2.32 15.42-.81 50.49-.8 54.66 0 4.17 1.69 53.27.25 55.35-1.44 2.08-13.64 1.54-14.69-.01-1.05-1.55-.6-44.46-1.03-54.01z"/><path class="cls-19" d="M270.18 368.81c.46.8 1.36 7.74 1.36 7.74s.66 2.45.19 3c-.5.59-13.62 8.98-16.25 9.46-4.49.83-7.7-2.51-7.66-4.78.04-2.27 2.83-3.88 6.48-5.26 3.14-1.46 4.1-8.37 4.82-9.42.72-1.05 7.13-2.51 7.13-2.51l3.93 1.76z"/><path class="cls-23" d="M258.44 371.68c1.23-.25 2.41-8.07.5-9.42l7.37-1.96c.29 3.25 3.13 10.73 3.13 10.73s-6.39 2.24-6.57 2.17c-.65-2.41-4.42-1.52-4.42-1.52z"/><path class="cls-15" d="M268.1 238.09c.53 1.16 2.73 7.39 2.2 22.59-.64 18.27-2.29 28.85-1.34 47.99 0 0 2.46 58.65 2.64 59.96.18 1.3-1.38 5.07-4.89 5.85-3.51.78-8.49-1.58-9.02-2.11-.54-.55.06-31.97-3.6-62.67-4.11-34.44-10.56-71.73-10.05-72.94 4.06-9.79 18.63-10.65 24.07 1.32z"/><path class="cls-15" d="M233.66 229.15c-1.2 3.65-2.39 16.25-2.39 16.25-.81 1.89 20.3 16.81 25.46 15.46 3.27-.86 12.97-5.13 13.24-5.96.87-2.65-1.79-19.75-2.39-22.24-1.23-5-16.26-8.87-22.21-9.74-2.81-.41-10.51 2.58-11.71 6.23z"/><path class="cls-21" d="M256.11 160.9c5.15 2.83 10.53 8.71 10.53 8.71l-8.59 71.88-21.35-10.3-3.66-61.45s4.23-5.07 9.05-7.44 8.87-4.22 14.02-1.39z"/><path class="cls-17" d="M244.31 172.69c.25.08 2.97.88 3.68.54 1.03-.49 3.4-5.25 3.14-5.65-.08-.13-4.15-2.35-5.2-2.39-.79-.03-4.03.66-4.39 1.51-.32.78 2.14 5.8 2.76 5.99z"/><path class="cls-17" d="M248.12 168.94l-3.47-.9s-4.4 53.18-4.14 53.59c.08.13 3.37 10.64 3.37 10.64s6.44-11.36 6.8-12.22c.32-.78-2.56-51.11-2.56-51.11z"/><path class="cls-15" d="M244.43 159.29s2.77-3.28-1.48-2.29c-5.27 1.22-11.54 8.29-11.97 10.01-.43 1.72.81 51.31.6 54.18-.21 2.87.54 17.86.54 17.86l6.14 4.48 1.54-25.2s-2.93-37.88-1.59-46.33c1.34-8.44 6.22-12.71 6.22-12.71z"/><path class="cls-15" d="M263.23 165.19s.9-1.61-2.26-4.62c-4.05-3.85-10.99-7.29-10.99-7.29-13.57 4.73-7.98 13-7.98 13l21.24-1.1z"/><path class="cls-15" d="M274.13 177.74c-3.24-6.21-11.19-16.65-16.67-18.66 0 0 1.76 5.94.86 9.88-.9 3.94-6.52 47.63-6.52 47.63s.65 41.35 10.94 40.43c10.29-.92 11.2-5.36 11.2-5.36l-1.46-31.18c4.57-13.72 4.88-36.52 1.64-42.73zm-41.78-9.61c1.77-4.71 11.54-9 11.54-9s-3.14 5.69-3.64 9.94c-.5 4.25-1.34 44.04-1.34 44.04l-7.74-38.3 2.72-2.71-1.54-3.97z"/><path class="cls-1" d="M257.45 158.96c5.89 2.78 7.3 6.71 7.78 8.65.48 1.94 1.16 8.83 1.16 8.83l-3.95 2.47 1.39 5.8-10.37 31.37s-3.97-15.82 1.85-29.07c6.16-14 2.14-28.05 2.14-28.05z"/><path class="cls-15" d="M256.44 157.7c5.89 2.78 7.3 6.71 7.78 8.65.48 1.94 1.16 8.83 1.16 8.83l-4.48 3.27 1.91 5-11 33.14s-2.31-16.37 1.66-30.7c1.89-6.84 4.39-17.84 5.59-22.3 1.52-5.66-2.61-5.88-2.61-5.88z"/><path class="cls-21" d="M243.77 157.39c-4.02 3.26-2.57 10.24-2.57 10.24l7.53-1.74s8.95-3.49 7.52-8.41c-.51-1.76-2.32-2.68-4-2.68-3.41 0-6.79 1.23-8.47 2.59z"/><path class="cls-21" d="M245.97 155.88c-1.17.35-3.7 2.27-4.5 4.81-.98 3.09-1.21 8.37-1.21 8.37l7.35-2.78.93-1.39c-.27-.53-2.1-6.76-2.56-9.02zm12.23 8.04c.21-1.2-.58-7.01-2.5-8.85-2.34-2.25-6.42.44-6.42.44l-1.64 4.57.79 1.04c.96.11 7.54 2.21 9.76 2.8z"/><path class="cls-24" d="M253.01 136.38l-2.41 17.79c1.87-.19 3.93-.11 8.07-4.93 4.38-5.1 4.99-10.67 2.3-15.06-1.89.23-7.96 2.2-7.96 2.2zm-1.45-15.11c-3.38-.24-8.44 2.43-10.84 4.1-3.72 2.6-7.44 6.09-7.45 7.42-.09 8.54 6.38 14.3 6.38 14.3s16.54-25.5 11.91-25.83z"/><path class="cls-20" d="M242.94 153.01l5.36 11.4 2.3-1.32s7.92-6.17 7.34-8.17c-.58-2-1.34-3.05.14-9.72 1.05-4.73.08-5.93.08-5.93s-7.15 2.95-12.15 8.63c-1.27 1.44-3.07 5.11-3.07 5.11z"/><path class="cls-21" d="M253.4 160.38c-2.58 1.85-3.58 2.6-5.11 4.04-1.09 1.02-.64 1.86-.64 1.86l4.46 4.8s4.02-1.34 6.26-5.09c2.2-3.69-.82-13.02-.82-13.02s-1.58 5.57-4.16 7.42z"/><path class="cls-9" d="M259.73 139.18c-1.46 2.55-3.52 7.58-4.63 9.9-1.58 3.3-9.1 8.42-9.1 8.42s-6.24.96-7.22-.54c-.98-1.5-3.1-7.01-3.47-9.18-.33-1.9.45-5.65-.39-9.62-.98-4.66 2.65-10.69 6.21-13.85 3.57-3.16 11.34-2.34 15.74-.51 3.83 1.59 6.38 5.05 7.04 7.85.66 2.8-2.22 4.11-4.19 7.54z"/><path class="cls-24" d="M235.13 132.01c-.51-.89-.03-1.96.36-4.06.39-2.1 2.89-8.13 7.96-8.54 5.08-.41 10.22.95 12.8 1.6 5 1.25 4.27 2.68 5.63 3.94 7.27 6.05 4.88 12.32 2.17 16.97-3.03 5.19-5.53 5.39-6.01 5.58-.48.2.61-2.49.26-5.46-.2-1.71-3.03-3.24-3.29-2.24-.16.6-3.17 3.31-3.14 3.92-.49-1.14-1.99-5.47-3.22-5.72-8.52-1.75-2.78-5.61-2.78-5.61s-10.23.5-10.74-.38z"/><path class="cls-9" d="M255.97 138.27c1-.51 3.25 1.32 3.05 4.42-.17 2.67-3.03 6.08-3.88 4.38-.84-1.7-1.08-7.83.83-8.8z"/><path class="cls-24" d="M242.69 120.63c-4.55-.31-5.99 4.65-6.87 5.09-.88.44-4.52 3.26-4.52 3.26s1.54 2.94 4.08 4.68c2.54 1.74 13.42.6 13.42.6 5.72-.47 12.18-4.42 12.37-7.91.19-3.48-10.45-5.18-18.48-5.73z"/><path class="cls-1" d="M266.3 193.03c-1.09 7.99-.59 26.76-.59 26.76s-5.23 22.9-3.03 22.2c.78-.25 4.34 22.12 7.72 18.18 2.04-2.38 4.01-30.85 5.26-32.85 3.31-5.33-.18-45.09-4.62-48.99-2.91-2.55-3.65 6.71-4.74 14.7z"/><path class="cls-18" d="M270.09 265.15l-.36 2.59s.18.35 1.25.1c1.07-.25 2.44-1.2 2.19-2.82-.12-.75-.95-2.54-1.31-3.12-.61-.97-2.95-.24-2.94.4.01.64 1.16 2.85 1.16 2.85z"/><path class="cls-18" d="M266.65 258.04c.43-.97 1.16-2.7 2.07-3.84.4-.5.71-4.68 1.17-4.85.71-.26 3.49.01 4.15.32.33.16-.79 2.78-.26 4.4.92 2.8 2.69 6.6 2.69 6.6s.1 1.64-.84 1.98c-.67.25-1.38.6-2.09.75-2.2.46-3.83-.68-5.63-1.91-1.15-.78-1.37-2.54-1.26-3.47z"/><path class="cls-18" d="M274.99 262.69c.62 1.91-.77 3.02-.77 3.02-.4 1.05-1.18.76-2.11.5 0 0-.66-3.32.53-4.57 1.32-.48 2.11.26 2.34 1.05z"/><path class="cls-18" d="M275.09 262.09c1 .96-.63 4.03-.96 3.21-.35-.86.03-1 .07-1.95.04-1.08.41-1.49.9-1.26z"/><path class="cls-18" d="M274.86 262.18c.22-.4 1.08-1.33 1.54-1.46.18-.05.32 1.54.28 1.77-.12.6-1.13 2.31-1.76 2.25-.62-.07-.58-1.6-.06-2.56zm-5.97-6.43c-1.8 1.17-2.5 1.37-2.57 5.15-.02.78.18 6.88 1.76 6.07.75-.38.97-1.79.92-2.42-.14-1.68 1.26-1.81 1.92-3.33.87-1.97-.66-4.16-2.04-5.47z"/><path class="cls-21" d="M268.73 245.71s-.72 4.52-.23 5.15c.49.63 6.47 1.29 6.47 1.29l.2-5-6.44-1.44z"/><path class="cls-15" d="M279.53 210c-5.84-1.25-9.29-.09-10.15 5.35 1.14 5.15-1.69 33.73-1.69 33.73l7.68.59c.4.84 7.52-32.68 4.16-39.67z"/><path class="cls-15" d="M274.82 179.72c-1.81-7.87-7.28-4.97-10.02 1.14-2.51 5.57 4.88 35.09 4.88 35.09s5.14.12 10.32-2.49c.93-5.73-5.17-33.74-5.17-33.74z"/></g></g></svg>