<svg xmlns="http://www.w3.org/2000/svg" viewBox="0 0 380 496.93"><defs><style>.cls-1{fill:#2f3662}.cls-2{fill:#b4c3e4}.cls-4{fill:#eaa5bc}.cls-5{fill:#fff}.cls-8{fill:#95a6d4}.cls-10{fill:#e4e2eb;mix-blend-mode:multiply}.cls-12{fill:#3a3c6f}.cls-17{fill:#e6e3f1}.cls-18{fill:#7e7cae}.cls-19{fill:#a1b3dc}.cls-22{fill:#b4d4eb}.cls-23{fill:#2f395b}</style></defs><g style="isolation:isolate"><g id="_レイヤー_1" data-name="レイヤー 1"><path d="M279.28 437.98c6.29 3.65 8.46 11.47 3.92 14.11l-67.51 43.89c-3.14 1.81-9.75.93-14.75-1.97L43.75 403.13c-4.32-2.5-6.05-5.69-4.4-7.69.26-.3.6-.59 1.01-.83l78.89-49.49 160.02 92.85z" style="mix-blend-mode:multiply" fill="#e2e6eb"/><path class="cls-18" d="M276.9 333.52l-65.17-37.63c-2.28-1.32-5.09-6.43-4.73-8.64l11.5-71.58c.26-1.61 1.39-1.99 3.05-1.02l64.75 33.95c4.47 2.58 2.37 11.66 1.68 15.97l-11.08 68.95z"/><path d="M208.3 457.61c-1.83 0-3.31-1.48-3.31-3.31v-82.98c0-1.83 1.48-3.31 3.31-3.31s3.31 1.48 3.31 3.31v82.98c0 1.83-1.48 3.31-3.31 3.31zm64.39-37.77c-1.83 0-3.31-1.48-3.31-3.31v-79.66c0-1.83 1.48-3.31 3.31-3.31s3.31 1.48 3.31 3.31v79.66c0 1.83-1.48 3.31-3.31 3.31z" fill="#a2bed3"/><path d="M274.88 336.33l-63.3 36.79c-1.06.62-2.38.62-3.44 0l-63.74-36.8c-2.29-1.32-2.29-4.62 0-5.94l63.3-36.79c1.07-.62 2.38-.62 3.44 0l63.74 36.8c2.29 1.32 2.29 4.62 0 5.95z" fill="#6490b1"/><path class="cls-12" d="M147.44 429.1c.55 1.51 3.6 10.81 2.78 12.22-.82 1.41-5.92 4.41-8.95 3.76-4.12-.89-9.28 5.66-12.26 7.3-2.98 1.63-10.15 5.44-12.91 5.61-3.64.22-8.74-2.6-9.22-4.98-1.26-6.2 12.15-11.11 12.15-11.11l11.57-13.74 16.84.94z"/><path class="cls-2" d="M133 414.64c5.64-3.06 12.56.03 12.56.03l.66 12.49c1.26 3.68-15.75 1.76-15.75 1.76 3.06-4.56 4.01-9.31 2.54-14.28z"/><path d="M211.09 320.08l-70.24 33.45 7.92 77.35-17.63 3.23s-17.41-83.36-10.94-93.45c6.47-10.09 71.35-51.11 71.35-51.11l27.56 14.3-8.01 16.23z" fill="#324a71"/><path d="M245.35 292.17c.51 4.77 1.52 36.69-2.41 40.82-3.94 4.13-6.72 3.67-12.99 2.55-11.04-1.98-34.29-12.67-40.27-38.86-1.83-8.01 5.73-27.63 5.73-27.63s49.56 19.55 49.95 23.12z" fill="#2a335a"/><path class="cls-12" d="M173.18 443.11c.75 1.3 2.96 12.73 2.96 12.73s0 1.03-.75 1.92c-.82.97-21.06 17.02-25.35 17.82-7.33 1.36-10.44-2.57-10.37-6.28.07-3.7 9.35-10.37 9.35-10.37s9.63-11.95 10.8-13.66c1.17-1.71 6.96-5.03 6.96-5.03l6.41 2.87z"/><path d="M157.65 444.22s.97-11.05.71-13.48l10.55-2.8c.42 4.65.07 10.49.76 11.08.69.59 1.98 4.96.37 5.96-.72.45-3.84 2.29-6.05 1.42-.93-3.46-6.33-2.18-6.33-2.18z" fill="#bcc8e6"/><path d="M241.2 335.45c-7.15 7.66-70.93 38.61-70.93 38.61s8.31 68.25 7.19 71.27-19.97 2.02-19.97 2.02-12.02-78.64-6.65-86.72c5.37-8.09 65.08-51.48 65.08-51.48l29.43-.31s2.99 18.96-4.16 26.62z" fill="#415981"/><path class="cls-1" d="M202.84 178.69c2.89-1.77 9.61-.05 10.36 13.28.41 7.29-34.61 29.61-61.16 19.48-8.94-3.41 3.4-8.53 3.4-8.53l47.4-24.24z"/><path class="cls-17" d="M234.36 178.16c7.57 5.09 15.1 14.94 15.1 14.94l-22.24 99.47L195.71 275l1.69-86.35s7.26-7.27 15.05-10.27c7.79-3 14.33-5.3 21.9-.22z"/><path class="cls-12" d="M216.49 174.05s1.69-2.77-5.03-1.84c-8.33 1.16-17.33 9.81-18.22 12.41-.9 2.61-3.04 56.2-1.63 86.67.59 12.74-21.03 23.25-20.87 28.21.16 4.96 14.12 4.84 23.2-3.4s7.22-31.28 7.22-31.28.71-59.06 3.95-71.95 11.39-18.82 11.39-18.82z"/><path class="cls-1" d="M244.79 185.79s1.62-2.37-2.87-7.46c-5.74-6.52-16.01-12.81-16.01-12.81-21.67 5.44-14.16 19.03-14.16 19.03l33.04 1.23z"/><path class="cls-12" d="M264.45 206.2c-3.81-9.25-22.48-26.88-30.69-30.76 0 0 4.85 9.54 2.91 15.51-1.94 5.97-16.68 72.85-16.68 72.85s-4.71 64.12 11.35 64.12 18.09-6.76 18.09-6.76l2.06-48.48c8.97-20.62 16.77-57.23 12.96-66.48zm-67.89-20.13c3.39-7.05 19.12-12.34 19.12-12.34s-9.08 12.93-10.44 19.44c-1.36 6.51-4.75 63.46-4.75 63.46l-6.69-60.38 4.59-3.82-1.83-6.36z"/><path d="M236.7 175.34c8.74 5.13 10.37 11.41 10.84 14.47.47 3.07.57 13.83.57 13.83l-6.47 3.28 1.35 9.17-20.39 47.14s-3.96-25.05 6.89-44.75c11.47-20.83 7.2-43.14 7.2-43.14z" fill="#1e2441"/><path class="cls-12" d="M235.31 173.25c8.74 5.13 10.37 11.41 10.84 14.48.47 3.07.57 13.83.57 13.83l-7.39 4.45 2.27 8-21.62 49.8s-1.31-25.66 6.81-47.31c8.35-22.26 8.51-43.23 8.51-43.23z"/><path class="cls-1" d="M243.41 304.16c-22.35-3.61-10.79-14.27-6.76-22.77 3.31-6.99 10.37-52.38 13-54.54 7.19-5.91 10.04-2.32 11.51 5.53 5.23 28.09-18.03 71.56-17.74 71.78z"/><path class="cls-2" d="M212.4 197.56c.37.15 4.41 1.74 5.54 1.32 1.63-.6 2.39-4.52 2.69-5.33.26-.68.21-1.48-.13-2.13a3.4 3.4 0 00-.4-.59c-1-1.25-2.62-4.28-4.21-4.48-1.2-.15-3.49 2.17-4.15 3.42-.6 1.14-.27 7.41.65 7.79z"/><path class="cls-2" d="M218.69 197.44l-6.25-.56s-9 65.48-8.66 66.13c.11.21 2.55 10.3 4.27 10.28 1.72-.02 7.87-5.68 8.52-6.93.6-1.14 2.13-68.92 2.13-68.92z"/><path class="cls-5" d="M213.48 173.88c-4.73 1.63-8.4 19.08-8.4 19.08l11.26-4.73c-.14-.83 20.23-7.53 18.7-15.34-.55-2.8-3.23-4.47-5.83-4.7-5.28-.47-12.56 4.6-15.72 5.69z"/><path d="M215.15 178.29c-.16 3.85 2.49 6.69 2.49 6.69.56 1.58 17.92-4.05 17.06-8.82-.57-3.14-3.31-4.01.82-13.64 2.93-6.83 2.78-9.03 2.78-9.03s-11.61 2.41-20.76 9.53c-2.32 1.8-2.24 11.43-2.4 15.28z" fill="#e396af"/><path class="cls-23" d="M233.13 124.79c-4.71-1.14-13.11-.73-16.89 1.05-5.87 2.78-9.05 11.95-9.39 13.83-2.16 12.01 3.36 18.7 3.36 18.7s29.36-32.03 22.92-33.59zm3.38 1.36l2.86 30.61c.94.51-7.49 5.88-7.49 5.88s4.89 1.44 9.85-2.5 13.3-18.53 10.6-24.35c-2.7-5.82-15.83-9.64-15.83-9.64z"/><path class="cls-4" d="M218.81 177.18c-3.39.27-8.05-1.87-9.83-5.64-1.78-3.77-3.24-10.13-2.91-12.77.46-3.63 2.91-17.12 3.62-19.46 4.83-15.87 15.88-21.37 32.27-12.87 14.23 7.38 3.91 24.44-5.25 38.48-1.29 1.98-1.42 3.49-5.17 6.52-3.75 3.03-9.36 5.47-12.74 5.74z"/><path class="cls-23" d="M230.08 140.44s-1.09 6.65.16 9.59c1.25 2.94 4.94 4.38 5.87 5.39.93 1.01-1.28 6.79-1.28 6.79s2.61.28 4.12-.45c3.91-1.87 14.55-25.8 12.86-27.06-4.57 5.04-13.22 5.22-21.72 5.74z"/><path class="cls-23" d="M238.48 120.71c-21.29-4.64-22.92 4.31-26.43 6.94-3.51 2.63-6.41 4.24-6.41 4.24s-3.25 4.69 3.62 7.92c4.1 1.93 19.49 3.19 19.49 3.19 1.37.05 2.89.04 4.49-.02 8.29-.33 18.62-2.26 19.35-6.5.88-5.05-4.78-15.55-14.11-15.76z"/><path class="cls-4" d="M243.18 154.23c1.26.52 1.27 2.22 1.01 3.43-.34 1.59-8.12 11.56-9.27 9.12-1.15-2.44 1.77-5.09 2.22-5.97 2.2-4.24 3.12-7.78 6.04-6.58z"/><path class="cls-5" d="M234.71 172.68c-.19-1.46 1.94 3.43 1.28 7.59-.33 2.1-2.44 9.51-10.74 18.78-.41-.78-6.35-7.25-8.88-10.91-1.05-1.52-.22-2.47-.22-2.47 1.01 2.01 7.43-.62 13.06-4.74 2.87-2.1 5.7-6.79 5.51-8.25z"/><path class="cls-12" d="M264.59 206.62c-2.06-3.65-15.42 18.04-15.42 18.04.04-.21 5.72 37.88 2.09 49.01 0 0 7.67 1.01 12.79-3.12 5.12-4.13 2.6-60.27.54-63.93z"/><path class="cls-18" d="M30.67 308.97l.18-.1c-.77-3.09.89-6.34 4.97-8.71l61.44-35.71c4.21-2.44 10.01-3.4 15.48-2.87 2 .2 3.95.59 5.76 1.18l.54 95.51-83.15 45.67c-3.25-1.88-4.99-4.3-5.21-6.75h-.03v-88.21z"/><path d="M290.66 454.5l-66.82 38.84c-6.46 3.75-16.39 4.28-23.86 1.58a5.25 5.25 0 01-3.45-4.93v-84.97c7.57 4.37 19.79 4.37 27.3 0l66.82-38.84v88.32z" fill="#b6b5d2"/><path d="M196.53 398.8v12.49c7.57 4.37 19.79 1.67 27.3-2.7l66.83-38.83v-9.79l-66.83 38.84c-7.51 4.36-19.73 4.36-27.3 0z" fill="#9898c0"/><path class="cls-18" d="M27.9 304.64l140.7 81.23 17.77 10.26 17.18 9.92c6.18 3.57 17.23 2.95 24.69-1.38l66.3-38.48c7.46-4.33 7.59-17.64 1.41-21.21L121.2 250.49c-6.18-3.57-17.23-2.95-24.68 1.38l-70.84 32.39c-7.45 4.33-3.94 16.82 2.23 20.39z"/><path class="cls-5" d="M25.13 295.47l140.7 81.23 17.77 10.26 17.18 9.92c6.18 3.57 17.23 2.95 24.69-1.38l66.3-38.48c7.46-4.33 8.49-10.72 2.31-14.29L118.43 241.32c-6.18-3.57-17.23-2.95-24.68 1.38l-66.3 38.48c-7.45 4.33-8.49 10.73-2.31 14.29z"/><path class="cls-4" d="M110.34 183.67c-1.56 1.4-10.32 4.89-11.99 5.21-1.67.32-2.41 1.53-4.17 2.08-1.32-.64-.34-3.33 1.27-4.19 1.04-.56 5.3-3.19 6.09-5.63.43-1.32-2.85-2.84-2.07-3.38 3.55-2.46 8.87.97 9.69 1.81 1.03 1.06 3.39 2.11 1.18 4.09z"/><path class="cls-4" d="M116.5 178.56c2.73 1.15 3.04 2.87 2.12 4.79-.92 1.92-6.52.79-8.18 1.18-1.66.39-8.23-.65-13.05-2.22-4.82-1.57-9.29-7.56-2.36-9.01 2.61-.55 6.2-.72 8.78-.14 4.39.99 10.96 4.67 12.68 5.39z"/><path class="cls-4" d="M129.91 184.17l-3.83 10.38-14.56-10.38 2.73-5.97c4.49.55 15.66 5.97 15.66 5.97z"/><path class="cls-17" d="M129.54 182.93l-5.15 10.43-8.41-4.31 5.35-10.21 8.21 4.09z"/><path class="cls-4" d="M87.66 170.25c.53.47 4.01 1.8 6.8 3.27 2.14 1.13 3.74 2.5 4.21 2.72.98.45 2.08 1.02 3.1 1.39 2.03 0 2.61-2.27.98-3.88-1.11-.73-13.84-5.05-14.37-5.19-.53-.14-1.66.85-.72 1.69z"/><path class="cls-4" d="M91.83 170.33c.68.67 7.27 4.58 8.08 5.01.73.39 7.33-.18 6.17-1.47-1.07-.86-13.54-5.64-14.47-5.25-1.02.42-.45 1.05.22 1.72zm-8.01 1.21c1.28.7 7.54 3.86 8.64 4.36.99.45 2.09 1 3.11 1.37 2.03 0 3.04-1.42 1.4-3.02-1.11-.72-12.69-5.65-13.97-6.01-1.35-.38-2.67 1.38.82 3.31z"/><path class="cls-4" d="M84.42 175.31c2.48 1.33 9.12 4.47 11.54 6.25 3.17.52 3.09-1.76-1.15-4.46-2.59-1.86-10.9-5.93-12.15-5.4-1.36.57-.99 2.26 1.76 3.61z"/><path class="cls-1" d="M163.23 200.69c2.85 3.99-3.53 12.49-10.95 10.62-7.41-1.86-31.7-19.38-31.7-19.38l5.34-12.38s34.46 17.15 37.31 21.14z"/><path class="cls-2" d="M174.3 337.07l39.17-22.76.04-4.14-39.16 22.76-.05 4.14z"/><path class="cls-22" d="M174.35 332.93l39.16-22.76-53.77-31.05-39.17 22.76 53.78 31.05z"/><path class="cls-18" d="M120.57 301.88l-.05 4.14 53.78 31.05.05-4.14-53.78-31.05z"/><path class="cls-18" d="M120.57 301.88l53.73 31.05-13.41-33.71-50.22-28.95 9.9 31.61z"/><path class="cls-5" d="M112.38 269.33l-1.71.94 50.22 28.95 1.71-.94-50.22-28.95zm63.63 62.65l-1.71.95-13.41-33.71 1.71-.94 13.41 33.7z"/><path class="cls-4" d="M197.44 280.58c-3.87-2.17-17.97 2.25-17.48 3.52 1.15 2.99 3.55.83 4.87.73 3.52-.27 6.67 2.31 9.83 3.72 4.11 1.84 6.94-5.64 2.78-7.97z"/><path class="cls-4" d="M187.28 291.11c-2.02.06-7.52 1.68-8.33 2.21-1.85 1.19-7.9 4.62-9.11 3.18-1.21-1.45 1.54-2.79 2.78-3.51 1.76-1.03 4.46-2.28 6.1-3.3 1.58-.97 5.58-3.64 8.75-4.91 1.48-.59 2.56-1.54 3.98-1.5 2.39.06-2.37 7.78-4.17 7.83z"/><path class="cls-4" d="M205.35 292.12c2.71-2.11 7.42-5.23 6.82-8.5-.29-1.56-1.17-3.68-2.43-4.52-1.75-1.17-21.15 2.04-21.15 2.04s.31 1.64.68 3.69c.27 1.48-2.98 3.04-2.49 4.48 1.51 4.44 4.77 9.85 7.03 9.04 2.85-1.02 10-5.03 11.53-6.22z"/><path class="cls-4" d="M190.86 288.02c-4.09.91-9.49 4.64-11.57 5.75-2.08 1.11-8.84 4.05-8.01 5.98.83 1.94 4.02.24 5.21-.3 1.62-.73 17.05-6.31 18.02-9.79-.54-2.88-1.97-2.08-3.65-1.65z"/><path class="cls-4" d="M194.26 290.42c-2.9.16-13.04 7.43-13.04 7.43s-5.04 3.71-3.79 5.1c1.25 1.39 6.73-3.02 6.73-3.02s3.24-2.41 4.88-3.24c1.73-.89 3.69-1.49 4.94-3.04 1.42-1.77 1.39-2.92.29-3.22zm-5.19 10.82c1.88-1.22 7.09-3.78 8.1-5.83.42-.86-4.63-.08-5.62.74-1.65 1.35-11.49 6.13-10.08 7.54 1.41 1.41 5.92-1.35 7.6-2.45z"/><path class="cls-5" d="M205.09 278.13l5.23 11.53 6.05-2.62-3.07-11.65-8.21 2.74z"/><path class="cls-12" d="M259.96 252.88c-2.58 1.35-49.04 21.46-49.04 21.46l5.91 16.03s37.82-16.76 44.08-21.29-.95-16.2-.95-16.2z"/><path class="cls-8" d="M107.95 228.83l-.22 81.8c-.02 2.82-1.01 4.77-2.63 5.7l-3.79 2.19c1.6-.93 2.61-2.88 2.61-5.7l.24-81.8c.02-5.63-3.95-12.5-8.85-15.33l-7.61-4.38-63.57-36.72c-2.46-1.42-4.69-1.55-6.29-.62l3.79-2.19c1.6-.93 3.83-.79 6.29.62l59.77 34.52 11.4 6.58c4.91 2.83 8.87 9.7 8.85 15.33z"/><path class="cls-19" d="M104.16 231.03l-.24 81.8c0 2.82-1.01 4.77-2.61 5.7-1.6.93-3.85.79-6.29-.62l-71.17-41.1c-4.91-2.83-8.87-9.7-8.85-15.33l.13-52.49.08-29.31c.02-2.82 1.01-4.77 2.63-5.7 1.6-.93 3.83-.79 6.29.62l63.57 36.72 7.61 4.38c4.91 2.83 8.87 9.7 8.85 15.33z"/><path class="cls-5" d="M98.26 309.57c0 1.62-1.75 2.62-3.15 1.81-13.81-7.96-68.44-39.5-68.44-39.5-3.16-1.82-6.03-6.79-6.02-10.41l.24-79.69c0-1.11 1.21-1.8 2.17-1.25l69.41 40.06c3.16 1.83 6.04 6.79 6.02 10.41 0 0-.18 62.68-.23 78.56z"/><path class="cls-22" d="M58.1 256.72c.92.03 1.86.08 2.82.21l-1.96-5.06c-.81.28-1.64.49-2.48.67a37.68 37.68 0 00-3.26-5.65c.58-.64 1.19-1.25 1.84-1.79l-3.41-4.24c-.37.9-.8 1.73-1.24 2.53-1.39-1.51-2.89-2.86-4.47-3.96.08-1.13.19-2.24.35-3.32l-3.94-2.28c.16 1.26.26 2.5.34 3.72-1.58-.72-3.08-1.11-4.48-1.2-.44-1.32-.86-2.63-1.22-3.96l-3.42.3c.65 1.29 1.25 2.6 1.82 3.9-1.25.33-2.37.96-3.29 1.87-.84-1.15-1.67-2.32-2.47-3.53l-1.99 2.78c.96.99 1.9 2.01 2.82 3.05-.62 1.24-1.04 2.73-1.22 4.45-1.02-.68-2.04-1.39-3.06-2.16v4.53c1.01.41 2.03.88 3.05 1.38.17 1.91.57 3.87 1.19 5.84-.92-.03-1.86-.08-2.83-.22l1.96 5.07c.8-.28 1.64-.49 2.49-.67.91 1.97 2.02 3.87 3.26 5.65-.58.64-1.19 1.24-1.83 1.79l3.41 4.23c.38-.89.8-1.72 1.24-2.53 1.39 1.51 2.89 2.86 4.47 3.96a39.2 39.2 0 01-.36 3.32l3.94 2.28c-.16-1.27-.26-2.5-.33-3.72 1.57.72 3.08 1.11 4.47 1.21.44 1.32.86 2.64 1.23 3.95l3.42-.29c-.65-1.3-1.25-2.6-1.82-3.9 1.25-.34 2.36-.97 3.28-1.87.84 1.15 1.67 2.32 2.47 3.53l1.98-2.79c-.96-.98-1.9-2-2.82-3.04.62-1.25 1.04-2.74 1.21-4.45 1.02.68 2.04 1.38 3.06 2.16v-4.53c-1.01-.4-2.03-.87-3.05-1.37-.16-1.91-.57-3.88-1.18-5.83zm-13.88 11.7c-6.09-3.52-11.01-12.04-10.99-19.04.02-7 4.97-9.83 11.07-6.31 6.09 3.52 11.01 12.04 10.99 19.04-.02 7-4.97 9.82-11.06 6.3zM91 284.34c.33-1.55.33-3.49.02-5.4 1.45.21 2.9.46 4.42.94l-4.51-11.64c-1.07.69-2.24 1.17-3.44 1.61-1.16-1.87-2.54-3.6-4.06-5.05.26-1.61.55-3.18 1-4.63l-9.06-5.23c.45 1.97.73 3.87.97 5.77-1.52-.31-2.9-.17-4.07.36-1.2-1.82-2.36-3.65-3.42-5.57l-4.56 6.41c1.52 1.28 2.97 2.7 4.41 4.17-.33 1.54-.33 3.48-.02 5.39-1.45-.21-2.9-.46-4.42-.93l4.51 11.64c1.07-.69 2.24-1.17 3.44-1.6 1.16 1.87 2.54 3.59 4.06 5.04-.26 1.61-.55 3.18-1 4.63l9.06 5.23c-.45-1.97-.72-3.87-.97-5.78 1.52.31 2.91.18 4.07-.35 1.19 1.82 2.36 3.65 3.42 5.57l4.56-6.4c-1.29-1.09-2.52-2.28-3.76-3.51-.22-.22-.43-.44-.65-.66zm-20.66-46.67l3.02-.04a20.3 20.3 0 002.6 3.6l-.3 4.1 5.33 3.61.3-4.1c1.03.29 2 .31 2.86.09l2.72 3.93 3.07-3.73-2.45-3.54c.27-.74.45-1.6.52-2.57.04-.52.04-1.06.02-1.61l2.49-.04-2.26-7.33-2.19.03c-.88-1.83-2.01-3.55-3.32-4.98l.2-2.71-5.33-3.61-.2 2.71c-1.38-.39-2.65-.3-3.71.23l-1.98-2.85-3.08 3.73 2.25 3.24c-.1.46-.17.95-.21 1.48-.07.96-.03 1.97.11 2.99l-2.72.04 2.26 7.33zm2.75-8.01c.3-4.11 3.33-5.56 6.76-3.24 3.43 2.32 5.96 7.53 5.66 11.63-.3 4.11-3.33 5.56-6.76 3.24-3.43-2.32-5.96-7.53-5.66-11.63z"/><path class="cls-10" d="M87.69 206.92v24.88c0 8.47-9.17 13.76-16.53 9.53l-56.05-32.35.08-29.31c.02-2.82 1.01-4.77 2.63-5.7l3.79-2.19c1.6-.93 3.83-.79 6.29.62l59.77 34.52z"/><path id="_Path_" data-name="&amp;lt;Path&amp;gt;" class="cls-8" d="M190.77 147.35c1.61-.93 2.61-2.9 2.62-5.71l.23-81.79c.02-5.64-3.95-12.51-8.86-15.34l-71.17-41.1c-2.46-1.42-4.69-1.56-6.29-.63l3.8-2.19c1.61-.93 3.84-.78 6.29.64l71.18 41.09c4.91 2.83 8.87 9.7 8.86 15.34l-.23 81.79c0 2.82-1.01 4.78-2.62 5.71l-3.8 2.19z"/><path class="cls-19" d="M193.61 59.85l-.22 81.78c-.02 2.82-1.01 4.79-2.63 5.72-1.6.93-3.83.78-6.29-.64l-55.74-32.18-15.43-8.91c-4.91-2.83-8.87-9.7-8.86-15.35l.1-33.63.14-48.15c0-2.82 1.01-4.79 2.61-5.72 1.6-.93 3.85-.78 6.29.64l71.17 41.09c4.91 2.83 8.87 9.7 8.86 15.35z"/><path class="cls-22" d="M187.72 138.39c0 1.62-1.75 2.62-3.15 1.81-13.81-7.96-68.44-39.5-68.44-39.5-3.16-1.83-6.03-6.79-6.02-10.41l.24-79.69c0-1.11 1.21-1.8 2.17-1.25l69.41 40.06c3.16 1.83 6.04 6.79 6.02 10.41 0 0-.18 62.68-.23 78.56z"/><path class="cls-8" d="M179.95 57.34s0 2.03-.01 5.4L115.25 25.4v-.12c.02-4.91 5.34-7.97 9.59-5.51l50.08 28.89c2.63 1.53 5.03 5.66 5.03 8.68z"/><path class="cls-5" d="M179.94 62.73c-.03 10.4-.58 36.49-.9 51.17-.1 4.74-5.22 7.65-9.35 5.33L120.1 91.4c-2.63-1.51-5.01-5.66-5.01-8.68l.18-57.33 64.68 37.33z"/><path class="cls-8" d="M169.97 73.78c-.09 0-.17-.02-.25-.07l-46.06-26.6a.518.518 0 01-.19-.7c.14-.24.45-.33.7-.19l46.06 26.6c.24.14.33.45.19.7-.09.16-.27.25-.44.25zm0 11.33c-.09 0-.17-.02-.25-.07l-46.06-26.58a.518.518 0 01-.19-.7c.14-.24.45-.33.7-.19l46.06 26.58c.24.14.33.45.19.7-.09.16-.27.26-.44.26zm0 12.27c-.09 0-.17-.02-.25-.07l-46.06-26.6a.518.518 0 01-.19-.7c.14-.24.45-.33.7-.19l46.06 26.6c.24.14.33.45.19.7-.09.16-.27.25-.44.25z"/><path class="cls-10" d="M128.73 79.94v34.59l-15.43-8.91c-4.91-2.83-8.87-9.7-8.86-15.35l.1-33.63 16.11 9.31a16.11 16.11 0 018.08 13.98z"/><path class="cls-8" d="M92.97 155.07l-.05 16.51-.18 65.28c-.01 2.82-1.01 4.79-2.62 5.71l-3.8 2.19c1.6-.93 2.61-2.89 2.62-5.71l.2-69.79.04-12.01c.02-5.64-3.95-12.5-8.86-15.34l-39.77-22.96-31.4-18.13c-2.46-1.42-4.69-1.56-6.3-.63L6.65 98c1.61-.93 3.83-.78 6.29.64l29.23 16.88 41.94 24.21c4.9 2.83 8.88 9.7 8.86 15.34z"/><path id="_Path_-2" data-name="&amp;lt;Path&amp;gt;" class="cls-19" d="M86.33 244.76c-1.61.93-3.84.78-6.3-.64L8.85 203.04c-4.9-2.84-8.87-9.7-8.85-15.34l.23-81.79c0-2.82 1.01-4.79 2.62-5.71 1.61-.93 3.84-.78 6.29.63l71.17 41.09c4.91 2.83 8.87 9.7 8.86 15.34l-.23 81.79c0 2.82-1.01 4.78-2.62 5.71z"/><path class="cls-22" d="M83.28 235.81c0 1.62-1.75 2.62-3.15 1.81-13.81-7.96-68.44-39.5-68.44-39.5-3.16-1.82-6.03-6.79-6.02-10.41l.24-79.69c0-1.11 1.2-1.8 2.17-1.25l69.41 40.06c3.16 1.83 6.04 6.79 6.02 10.41 0 0-.18 62.68-.23 78.56z"/><path class="cls-18" d="M41.6 143.48c-5.4-3.14-9.84.59-9.89 8.32l-.05 8.94 4.52 2.63.05-8.94c.02-4.17 2.41-6.18 5.33-4.48l6.28 3.65c2.91 1.69 5.27 6.45 5.24 10.62l-.05 8.94 4.52 2.63.05-8.94c.04-7.73-4.33-16.58-9.73-19.72l-6.28-3.65z"/><path class="cls-5" d="M58.56 211.46l-31.71-18.31a2.99 2.99 0 01-1.49-2.59v-30.37c0-2.3 2.49-3.74 4.48-2.59l32.18 18.58c.64.37 1.03 1.04 1.03 1.78v30.91c0 2.3-2.49 3.74-4.48 2.59z"/><path class="cls-18" d="M47.39 180.15c0-2.21-1.77-5.03-3.98-6.31-2.2-1.28-3.99-.53-4 1.68 0 1.41.72 3.06 1.81 4.41l-.04 13.85 4.34 2.52.04-13.85c1.1-.08 1.83-.89 1.83-2.29z"/><path class="cls-10" d="M92.97 155.07l-.05 16.51c-1.15-.7-2.41-1.47-3.78-2.31-11.64-7.14-30.36-18.87-41.01-25.56a16.93 16.93 0 01-7.93-14.7l.34-10.05.07-1.91c0-.33.75-.95 1.57-1.53l41.94 24.21c4.9 2.83 8.88 9.7 8.86 15.34z"/><path id="_Path_-3" data-name="&amp;lt;Path&amp;gt;" class="cls-8" d="M116.17 170.25c1.61-.93 2.61-2.9 2.62-5.71l.23-81.79c.02-5.64-3.95-12.51-8.86-15.34l-71.17-41.1c-2.45-1.42-4.68-1.56-6.29-.63l3.8-2.19c1.61-.93 3.84-.78 6.29.64l71.17 41.09c4.91 2.83 8.88 9.7 8.86 15.34l-.23 81.79c0 2.82-1.01 4.78-2.62 5.71l-3.8 2.19z"/><path id="_Path_-4" data-name="&amp;lt;Path&amp;gt;" class="cls-19" d="M116.17 170.25c-1.61.93-3.84.78-6.3-.64L38.7 128.52c-4.91-2.83-8.87-9.7-8.85-15.34l.23-81.79c0-2.82 1.01-4.79 2.62-5.71 1.61-.93 3.84-.78 6.29.63l71.17 41.09c4.91 2.83 8.88 9.7 8.86 15.34l-.23 81.79c0 2.82-1.01 4.78-2.62 5.71z"/><path class="cls-22" d="M113.12 161.29c0 1.62-1.75 2.62-3.15 1.81-13.81-7.96-68.44-39.5-68.44-39.5-3.16-1.83-6.03-6.79-6.02-10.41l.24-79.69c0-1.11 1.21-1.8 2.17-1.25l69.41 40.06c3.16 1.83 6.04 6.79 6.03 10.41 0 0-.18 62.68-.23 78.56z"/><path class="cls-5" d="M84.99 110.68c1.11.64 2 2.19 2 3.46l-.06 19.39c0 1.27-.9 1.78-2.01 1.15-1.11-.64-2-2.19-2-3.46l.05-19.39c0-1.27.9-1.78 2.01-1.15zM68.88 75.13c1.11.64 2 2.19 2 3.46 0 1.12-.7 1.66-1.62 1.33-.75.63-1.76 4.67-1.71 9.95.03 3.48.1 7.15.15 10.39.06 3.38.1 6.06.1 7.34 0 1.27-.9 1.78-2.01 1.15-.11-.06-.21-.14-.32-.22-.1-.04-.21-.09-.32-.15-2.7-1.56-4.89-.3-4.9 2.79 0 3.1 2.17 6.88 4.87 8.43 1.11.64 2 2.19 2 3.46s-.9 1.78-2.01 1.14c-4.9-2.83-8.88-9.72-8.87-15.36.01-5.09 3.29-7.44 7.53-5.76-.02-1.37-.05-3.13-.08-5.05-.05-3.25-.11-6.93-.15-10.42-.04-3.75.53-11.22 2.96-12.64.87-.51 1.77-.2 2.38.15zm9.1 12.62c1.11.64 2 2.19 2 3.46l-.12 41.27c0 1.27-.9 1.78-2.01 1.15-1.11-.64-2-2.19-2-3.46l.12-41.27c0-1.28.9-1.79 2.01-1.15z"/><path class="cls-5" d="M77.95 80.46c4.3 2.48 7.78 8.52 7.77 13.46l-.02 7.77v.43c-.1 1.69-.07 2.56-.02 3 .21.11.5.25.74.37.5.25 1.12.55 1.84.96.06.04.13.07.19.11 1.91 1.12 3.45 3.92 3.45 6.23l.14 8.77c.01 1.05-.71 1.5-1.62 1-.93-.54-1.66-1.78-1.68-2.82l-.14-8.8c0-.3-.16-.58-.2-.61-.71-.41-1.26-.68-1.74-.91-.36-.18-.72-.35-1.07-.56-.82-.48-1.62-1.11-2.27-2.22-1-1.71-1.09-3.58-.91-6.65v-.19l.02-7.76c0-2.85-2.01-6.34-4.49-7.77-2.48-1.43-4.51-.28-4.51 2.57l-.02 7.77-.11 18.78c-.01 3.88-2.76 5.46-6.13 3.54l-2.79-1.46c-.95-.54-1.68-1.75-1.72-2.79-.04-1.07.66-1.55 1.58-1.08l2.91 1.52c1.58.91 2.87.18 2.88-1.64l.11-18.78.02-7.76c.01-4.94 3.52-6.94 7.82-4.46z"/><path class="cls-5" d="M74.37 69.07c9.57 5.52 17.32 18.96 17.29 29.95 0 1.27-.9 1.78-2.01 1.14-1.11-.64-2-2.19-2-3.46.02-8.45-5.94-18.79-13.3-23.03-7.36-4.25-13.36-.82-13.38 7.63l-.04 14.36c0 1.27-.9 1.78-2.01 1.14-1.11-.64-2-2.19-2-3.46l.04-14.36c.03-10.99 7.84-15.44 17.4-9.92z"/><path class="cls-5" d="M78.03 63.11c10.57 6.28 19.65 22.81 19.46 35.38L97.36 143c0 1.32-.94 1.86-2.09 1.19-1.15-.67-2.09-2.28-2.08-3.6l.13-44.55c.15-9.89-7.15-23.29-15.33-28.15l-8.5-4.91c-7.92-4.57-14.9.16-14.92 10.12l-.13 45.11c0 1.32-.94 1.86-2.09 1.19-1.15-.66-2.08-2.28-2.08-3.6l.13-45.11c.04-12.52 8.97-18.37 19.11-12.51l8.54 4.93z"/><path class="cls-8" d="M380 247.46l-.23 81.79c-.01 2.82-1.01 4.78-2.62 5.72l-3.8 2.19c1.61-.94 2.62-2.9 2.62-5.72l.23-81.79c.01-5.63-3.95-12.51-8.86-15.33l-10.69-6.17-60.48-34.93c-2.44-1.42-4.68-1.56-6.29-.63l3.8-2.19c1.61-.94 3.83-.79 6.29.63l56.68 32.74 14.5 8.37c4.9 2.82 8.88 9.7 8.87 15.33z"/><path class="cls-19" d="M376.2 249.66l-.23 81.79c0 2.82-1.01 4.78-2.62 5.72-1.61.92-3.85.78-6.29-.64l-41.5-23.96-29.68-17.13c-4.92-2.84-8.88-9.7-8.86-15.34l.06-19.01.16-55.04v-7.74c.03-2.81 1.02-4.78 2.63-5.71 1.61-.94 3.85-.79 6.29.63l60.48 34.93 10.69 6.17c4.91 2.82 8.88 9.7 8.86 15.33z"/><path class="cls-22" d="M370.3 328.21c0 1.62-1.75 2.62-3.15 1.81-13.81-7.96-68.44-39.5-68.44-39.5-3.16-1.83-6.03-6.79-6.02-10.41l.24-79.69c0-1.11 1.2-1.8 2.16-1.25l69.41 40.06c3.16 1.83 6.04 6.79 6.02 10.41 0 0-.18 62.68-.23 78.56z"/><path class="cls-5" d="M347.31 261.14c0 8.76-7.1 11.76-15.86 6.7s-15.86-16.26-15.86-25.02 7.1-11.76 15.86-6.7 15.86 16.26 15.86 25.02z"/><path class="cls-18" d="M347 257.91l-31.12-17.97c1.41-6.47 7.84-8.28 15.57-3.83 7.71 4.47 14.14 13.7 15.55 21.8z"/><path class="cls-5" d="M351.95 303.61l-38.76-22.38v-7.2c0-10.71 8.68-14.37 19.38-8.19 10.71 6.18 19.38 19.87 19.38 30.57v7.2z"/><path class="cls-5" d="M347.31 261.13c0 8.77-7.11 11.76-15.86 6.72-8.77-5.07-15.88-16.25-15.88-25.02 0-1.04.11-2 .31-2.89L347 257.91c.2 1.1.31 2.18.31 3.21z"/><path class="cls-10" d="M325.5 296.55l.06 16.03-38.58-24.87.09-26.62s22.59 15.8 30.5 20.76a16.97 16.97 0 017.93 14.71zm31.14-72.78v5.76c0 5.88-6.36 9.55-11.45 6.63l-57.95-30.12v-7.74c.03-2.81 1.02-4.78 2.63-5.71l3.8-2.19c1.61-.94 3.83-.79 6.29.63l56.68 32.74z"/><path id="_Path_-5" data-name="&amp;lt;Path&amp;gt;" class="cls-8" d="M315.98 387.4c1.61-.93 2.61-2.9 2.62-5.71l.23-81.79c.01-5.64-3.95-12.51-8.86-15.34l-71.17-41.09c-2.46-1.42-4.69-1.56-6.29-.63l3.8-2.19c1.61-.93 3.84-.78 6.29.63l71.17 41.09c4.91 2.83 8.88 9.7 8.86 15.34l-.23 81.79c0 2.82-1.01 4.78-2.62 5.71l-3.8 2.19z"/><path class="cls-19" d="M318.84 299.89l-.24 81.8c0 2.8-1.01 4.77-2.61 5.7-1.62.93-3.84.78-6.31-.64l-42.96-24.79-28.22-16.29c-4.5-2.6-8.21-8.58-8.77-13.91-.07-.47-.08-.94-.08-1.42l.1-31.86.14-49.94c.02-2.82 1.01-4.77 2.61-5.7 1.62-.94 3.84-.79 6.31.62l71.17 41.1c4.89 2.83 8.87 9.7 8.85 15.33z"/><path class="cls-5" d="M312.93 378.44c0 1.62-1.75 2.62-3.15 1.81-13.81-7.96-68.44-39.5-68.44-39.5-3.16-1.83-6.03-6.79-6.02-10.41l.24-79.69c0-1.11 1.2-1.8 2.17-1.25l69.41 40.06c3.16 1.83 6.04 6.79 6.03 10.41 0 0-.18 62.68-.23 78.56z"/><path class="cls-22" d="M299.09 312.45v42.02L250 326.13v-42.01l22.36 29.97 26.73-1.64z"/><path class="cls-19" d="M299.09 308.38l-26.73 1.63L250 280.04l49.09 28.34z"/><path id="_Path_-6" data-name="&amp;lt;Path&amp;gt;" class="cls-8" d="M351.47 229.46c1.61-.93 2.61-2.9 2.62-5.71l.23-81.79c.02-5.64-3.95-12.51-8.86-15.34l-71.17-41.09c-2.46-1.42-4.68-1.56-6.29-.64l3.8-2.19c1.61-.93 3.84-.78 6.29.63l71.18 41.09c4.91 2.83 8.87 9.7 8.86 15.34l-.23 81.79c0 2.82-1.01 4.78-2.62 5.71l-3.8 2.19z"/><path id="_Path_-7" data-name="&amp;lt;Path&amp;gt;" class="cls-19" d="M351.47 229.46c-1.61.93-3.84.78-6.3-.64L274 187.73c-4.91-2.83-8.87-9.7-8.85-15.34l.23-81.79c0-2.82 1.01-4.79 2.62-5.71 1.61-.93 3.84-.78 6.29.64l71.17 41.09c4.91 2.83 8.88 9.7 8.86 15.34l-.23 81.79c0 2.82-1.01 4.78-2.62 5.71z"/><path class="cls-22" d="M348.42 220.5c0 1.62-1.75 2.62-3.15 1.81-13.81-7.96-68.44-39.5-68.44-39.5-3.16-1.83-6.03-6.79-6.02-10.41l.24-79.69c0-1.11 1.2-1.8 2.17-1.25l69.41 40.06c3.16 1.83 6.04 6.79 6.03 10.41 0 0-.18 62.68-.23 78.56z"/><path class="cls-5" d="M310 139.5c10.2 5.75 20.45 15.31 28.37 27.35l-4.87 2.12c-6.53-9.92-14.99-17.81-23.4-22.55-8.41-4.74-16.78-6.33-23.13-3.67l-5.01-7.68c7.7-3.24 17.84-1.32 28.04 4.43z"/><path class="cls-5" d="M310.15 149.92c7.51 4.23 15.06 11.27 20.9 20.12l-4.87 2.12c-4.46-6.73-10.21-12.09-15.94-15.31-5.72-3.22-11.41-4.32-15.75-2.54l-5-7.67c5.68-2.36 13.15-.94 20.66 3.29z"/><path class="cls-5" d="M310.31 160.86c4.69 2.64 9.4 7.02 13.06 12.53l-4.87 2.11c-2.28-3.39-5.19-6.09-8.1-7.72-2.9-1.63-5.79-2.21-8.01-1.35l-5-7.68c3.56-1.44 8.23-.54 12.92 2.1zm-.95 10.68c1.43.81 2.87 2.15 3.98 3.85 2.21 3.4 2.26 6.91.11 7.85-1.08.47-2.5.21-3.93-.6-1.43-.81-2.87-2.15-3.97-3.85-2.21-3.39-2.26-6.91-.11-7.85 1.08-.47 2.5-.2 3.93.61z"/></g></g></svg>