<svg xmlns="http://www.w3.org/2000/svg" viewBox="0 0 380 698.28"><defs><linearGradient id="linear-gradient" x1="881.61" y1="-1578.9" x2="886.04" y2="-1403.29" gradientTransform="matrix(.73 0 0 .94 -474.6 2004.04)" gradientUnits="userSpaceOnUse"><stop offset=".11" stop-color="#fff"/><stop offset="1"/></linearGradient><filter id="luminosity-invert-noclip" x="36.79" y="517.74" width="277.15" height="229.85" color-interpolation-filters="sRGB" filterUnits="userSpaceOnUse"><feColorMatrix result="cm" values="-1 0 0 0 1 0 -1 0 0 1 0 0 -1 0 1 0 0 0 1 0"/><feFlood flood-color="#fff" result="bg"/><feBlend in="cm" in2="bg"/></filter><style>.cls-1{fill:#61619d}.cls-2{fill:#eaa5bc}.cls-3{fill:#fff}.cls-6{fill:#415981}.cls-8{fill:#bcdef5}.cls-9{fill:#95a6d4}.cls-10{fill:#324a71}.cls-15{fill:#e6e3f1}</style><mask id="mask" x="36.79" y="517.74" width="277.15" height="229.85" maskUnits="userSpaceOnUse"><g filter="url(#luminosity-invert-noclip)"><path transform="rotate(62.02 175.346 632.718)" fill="url(#linear-gradient)" d="M110.19 510.38h130.35v244.59H110.19z"/></g></mask></defs><g style="isolation:isolate"><g id="_レイヤー_1" data-name="レイヤー 1"><g mask="url(#mask)"><path d="M69.52 650.74l-.44 13.62s92.72-33.4 96.67-27.25c3.95 6.15-60.64 41.75-60.64 41.75 5.41 4.94-1.49 11.6 5.27 8.79L277.4 610.5c11.81-4.91 15.42-19.89 7.14-29.64l-15.05-17.73c-5.85-6.9-15.78-8.67-23.66-4.22L69.5 650.73z" style="mix-blend-mode:multiply" fill="#a1bfd5"/></g><path class="cls-9" d="M225.29 393.72c-3.32 0-6.02-2.7-6.02-6.02v-40.12a6.02 6.02 0 1112.04 0v40.12a6.02 6.02 0 01-6.02 6.02z"/><path class="cls-8" d="M225.29 224.54c-3.32 0-6.02-2.7-6.02-6.02v-54.46a6.02 6.02 0 1112.04 0v54.46a6.02 6.02 0 01-6.02 6.02zm-23.89 12.72c-3.32 0-6.02-2.7-6.02-6.02v-48.58c0-3.32 2.69-6.02 6.02-6.02s6.02 2.69 6.02 6.02v48.58a6.02 6.02 0 01-6.02 6.02z"/><path class="cls-9" d="M253.99 266.02a6.02 6.02 0 01-6.02-6.02V63.52a6.02 6.02 0 1112.04 0V260c0 3.33-2.69 6.02-6.02 6.02zm-52.59-95.81a6.02 6.02 0 01-6.02-6.02V95.72a6.02 6.02 0 1112.04 0v68.47a6.02 6.02 0 01-6.02 6.02zm78.35 74.3h-.04a6.02 6.02 0 01-5.98-6.06l.44-67.37a6.018 6.018 0 016.02-5.98h.04c3.32.02 6 2.73 5.98 6.06l-.44 67.37a6.018 6.018 0 01-6.02 5.98zm29.7 80.41c-3.32 0-6.02-2.7-6.02-6.02v-69.57a6.02 6.02 0 1112.04 0v69.57c0 3.32-2.7 6.02-6.02 6.02z"/><path class="cls-8" d="M225.29 151.06c-3.32 0-6.02-2.7-6.02-6.02v-26.79a6.02 6.02 0 1112.04 0v26.79a6.02 6.02 0 01-6.02 6.02zm84.15 79.29a6.02 6.02 0 01-6.02-6.02V75.82c0-3.32 2.69-6.02 6.02-6.02s6.02 2.69 6.02 6.02v148.51a6.02 6.02 0 01-6.02 6.02zM279.4 348.79c-3.32 0-6.02-2.7-6.02-6.02v-72.02c0-3.32 2.69-6.02 6.02-6.02s6.02 2.69 6.02 6.02v72.02a6.02 6.02 0 01-6.02 6.02z"/><path class="cls-9" d="M201.26 266.21h-.08a6.033 6.033 0 01-5.94-6.1l.14-10.65c.05-3.33 2.78-5.94 6.1-5.94 3.32.05 5.98 2.77 5.93 6.1l-.14 10.65a6.016 6.016 0 01-6.02 5.94z"/><path class="cls-8" d="M201.4 418.16c-3.32 0-6.02-2.7-6.02-6.02v-48.58a6.02 6.02 0 1112.04 0v48.58a6.02 6.02 0 01-6.02 6.02zm52.59-40.15c-3.32 0-6.02-2.7-6.02-6.02v-48.58c0-3.32 2.7-6.02 6.02-6.02s6.02 2.7 6.02 6.02v48.58a6.02 6.02 0 01-6.02 6.02z"/><path class="cls-1" d="M125.36 38.15l15.36-8.92c7.23-4.2 17.13-3.8 28.1 2.1l-15.36 8.93c-10.97-5.9-20.87-6.3-28.1-2.1zm41.12-26.04l15.36-8.93c8.13-4.73 19.39-4.06 31.8 3.1 5.08 2.93 9.72 6.57 14.07 10.75l-15.36 8.92c-4.35-4.18-9-7.82-14.07-10.75-12.41-7.17-23.67-7.83-31.8-3.1zm57.31.26l15.36-8.93c9.27-5.38 22.09-4.63 36.25 3.57l-15.36 8.92c-14.17-8.2-26.99-8.95-36.25-3.57zm36.26 3.56l15.36-8.92c27.47 15.86 49.74 53.62 50.79 85.43l-15.36 8.92c-1.05-31.81-23.32-69.57-50.79-85.43z"/><path class="cls-1" d="M310.84 101.36l15.36-8.92c4.54.51 9.5 2.25 14.67 5.2 21.71 12.53 39.21 42.84 39.13 67.78-.04 12.47-4.46 21.22-11.61 25.26l-15.36 8.92c7.15-4.04 11.58-12.79 11.61-25.26.07-24.94-17.43-55.25-39.13-67.78-5.18-2.96-10.13-4.7-14.67-5.21z"/><path class="cls-8" d="M260.05 15.93c27.47 15.86 49.74 53.62 50.79 85.43 4.54.51 9.5 2.25 14.67 5.21 21.7 12.53 39.2 42.84 39.13 67.78-.03 12.47-4.46 21.22-11.61 25.26l-239.6-138.3c1.54-23.29 18.79-32.48 40.03-21.05.3-27.98 20.32-39.19 44.83-25.04 5.08 2.93 9.72 6.57 14.07 10.75 7.43-17.68 25.98-22.6 47.69-10.03z"/><path class="cls-3" d="M120.65 57.69c1.18-6.57 4.78-15.6 15.6-15.6 4.19 0 9.04 1.41 14.01 4.09l9.81 5.28.12-11.14c.17-15.33 6.91-24.49 18.05-24.49 4.99 0 10.75 1.8 16.67 5.22 4.39 2.53 8.57 5.72 12.78 9.77l7.08 6.81 3.8-9.05c3.55-8.44 9.98-12.91 18.61-12.91 5.86 0 12.6 2.11 19.49 6.1 25.18 14.54 46.46 50.34 47.43 79.82l.19 5.83 5.79.65c3.68.41 7.75 1.88 12.08 4.36 19.43 11.21 35.81 39.57 35.74 61.91-.02 7.67-1.9 13.62-5.36 17.2L120.65 57.69z"/><path class="cls-10" d="M39.04 283.35S2.55 332.37.34 342.17c-2.21 9.8 6.8 13.6 11.98 9.7 5.18-3.9 56.2-63.07 51.84-77.68-4.37-14.61-25.12 9.16-25.12 9.16z"/><path class="cls-2" d="M52.7 414.28c1.22 7.93 5.49 16.62 5.56 17.76.07 1.13-1.14 1.88-1.84 1.79.18.76-.1 1.61-.34 1.71-1.44.62-2.7-1.34-3.82-3.12-.09.09-.35 1.07-1.39.43-1.03-.64-2.75-3.91-2.87-3.87-1.44.5-4.49-2.41-6.69-7.65 0 0-2.53-4.75-3.14-6.6-1.59-4.8-7.07-20.09-7.07-20.09.06-1.88 7.23-5.7 7.23-5.7s.58 6.85 5.8 9.82c4.89 2.78 5.73 5.83 6.77 7.79.83 1.56 1.13 3.52 1.78 7.73z"/><path class="cls-2" d="M47.37 403.3c5.96 2.51 7.53 10.1 8.79 11.78 1.46 1.96 3.16 7.89 1.67 8.67-1.83.96-4.33-4.61-5.7-7.8-1.54-1.21-4.51-1.21-5.12-2.97-.61-1.76-2.85-8.82.36-9.68z"/><path class="cls-15" d="M26.96 391.03l4.74 7.69s5.12-1.04 9.67-5.46l-4.45-6.94-9.96 4.71z"/><path class="cls-10" d="M2.13 348.87l27.06 46.31s5.95-1.76 10.81-5.83c0 0-14.86-44.56-25.86-53.25-12-9.49-12.01 12.78-12.01 12.78z"/><path class="cls-6" d="M96.8 674.24c3.23 1.27 15.81-5.49 21.26-5.63 5.45-.14 8.71 1.41 11.33 5.9 1.69 2.89-2 7.05-7.88 10.17-7.31 3.87-13.25 6.86-15.2 7.61-3.51 1.37-11.38 5.99-14.12 5.99-2.74 0-6.26-1.33-7.41-5.15-1.15-3.82-.33-12.18 2.06-14.69 2.39-2.5 9.97-4.2 9.97-4.2zm-41.46-23.4c2.48 1.3 18.09-1.14 24.02-1.72 5.07-.5 8.7.31 10.44 2.82 1.74 2.51 1.38 7.43-1.77 8.95-4.02 1.95-25.24 8.43-25.24 8.43s-3.98 2.16-7.83 4.35c-3.85 2.19-7.4-.43-9.59-2.01-3.83-2.76.59-17.12.59-17.12l9.38-3.71z"/><path class="cls-15" d="M105.93 681.29s-6.04 5.17-10.36 5.17c-4.32 0-8.07-5.2-8.07-5.2l.03-18.73 18.43.03-.03 18.73zm-41.87-24.45s-6.72 4.06-10.48 3.83c-3.76-.23-7.02-1.95-7.18-3.86-.16-1.91 2.52-10.56 2.36-17.67l15.32-.25-.03 17.94z"/><path d="M78.06 471.39s-31-38.9-31.16-20.62c-.17 18.28-.05 20.25.24 31.2.75 27.92.67 84.37.67 84.37l-1.91 75.65c1.33 3.02 6.26 5.45 10.84 5.01 6.48-.63 12.87-5.32 12.53-7.75-1.63-11.72 1.61-45.19 3.49-71.45 1.1-15.27 5.09-92.75 5.29-96.42z" fill="#a5cae7"/><path d="M112.44 437.17c1.25-18.13-53.54-51.56-58.96-38.13-1.95 4.83-11.97 40.42-6.82 54.3 5.15 13.87 29.47 17.89 29.47 17.89l5.06 99.21s1.47 92.54 2.79 98.06c1.32 5.52 18.85 10.51 24.29-2.36 0 0-.48-73.89.15-91.7.89-25.15.42-84.79 4.04-137.27z" fill="#b4d4eb"/><path class="cls-6" d="M42.16 421.63c-1.2 9.23 38.5 27.12 48.16 25.18 14.17-2.84 21.43-7.13 22.69-14.29 2.17-12.33-1.4-26.16-.59-40.45 1.87-32.91 5.81-51.91 7.44-61.93 1.06-6.54 6.74-19.85 3.1-24.83-5.54-7.59-27.09-27.16-27.09-27.16s-25.99-8.84-28.14-9.5c-3.91-1.21-18.26-1.7-23.44 10.28-5.18 11.98 2.02 58.83 3.9 76.19 2.45 22.66-4.72 56.36-6.04 66.52z"/><path class="cls-10" d="M110.06 318.09c-11.05-4.64-6.04 11.72-6.58 17.78-.37 4.16-2.02 38.93 3.95 38.85 5.97-.08 13.68-51.99 2.63-56.63z"/><path class="cls-2" d="M60.65 237.88c.62 3.29 2.5 8.35 2.5 8.35 10.35 10.58 6.26 20.82 2.46 25.19 0 0 6.07 2.43 12.82 3.13 6.75.7 8.53-1.77 8.53-1.77l.97-7.54s7.04 4.46 10.81.75c3.77-3.71 8.39-11.07 9.47-14.68 2.36-7.92-.1-16.27 1.68-22.8 2.12-7.82-5.51-15.67-11.54-21.11-6.03-5.43-19.28-4.14-26.82-1.1-6.55 2.65-10.94 8.49-12.11 13.24s-.26 10.42 1.23 18.33z"/><path d="M88.62 234.57c-1.94-1.01-4.53 2.59-3.52 5.87 1.01 3.28 4.34 5.02 6.17 4.31 0 0-.71-9.16-2.65-10.18z" fill="#e396af"/><path d="M54.77 212.48c3.65-7 12.56-13.66 18.25-13.03 3.2-2.12 23.7-3.37 26.36 4.42 14.25 5.48 12.34 18.24 11.55 20.42-.8 2.17-10.25-4.97-10.25-4.97.13 2.36-6 20.53-6.35 17.99 0 0-1.45.52-2.14-.29-1.16-1.37-4.5-5.46-6.12-4.68-2.63 1.29-4.29 6.35-3.44 9.14 1.9 6.21.81 18.71.81 18.71l-13.62-.79s-7.4-5.77-10.1-12.38c-1.65-4.05-14.81-15.67-4.95-34.56z" fill="#2e4362"/><path d="M90.83 269.47c-7.87 2.01-14.51 3.42-22.86-5.56 0 0-6.98 5.31-8.38 7.32 4.27 5.84 19.47 11.56 35.52 7.71l-4.29-9.46z" fill="#f1f1f1"/><path class="cls-6" d="M116.89 301.94c8.45 5.1 44.26 38.09 44.26 38.09s5.65 11.83-4.35 12.77c-10 .93-38.17-7.18-52.28-26.04-14.11-18.87 3.27-30.32 12.38-24.82z"/><path class="cls-2" d="M235.41 314.12l5.35-3.92s2.09-4.63 2.22-4.56c1.61.88 1.45 4.43.67 5.72-.78 1.29-3.19 4.29-5.04 5.56-1.22.84-4.85 2.05-6.15 2.31-2.17.44-4.52-2.33-3.35-4.67.37.06 6.3-.45 6.3-.45z"/><path class="cls-2" d="M215.91 325.37c-.12.45-9.17 3.59-9.17 3.59l1.83 9.28s18.59-5.66 20.41-6.31c3.38-1.2 8.37-3.89 8.37-3.89s2.44-2.05 1.69-3.82c-.55-1.29-.98-2.74-1.72-3.95-2.28-3.72-7.6-7.48-11.74-8.39-2.63-.58-9.15 11.53-9.67 13.49z"/><path class="cls-2" d="M235.49 321.14c3.52-1.66 7.1-4.44 7.1-4.44.95-1.96-.41-4.17-3.09-2.06 0 0-6.2 2.69-6.37 6.04 1.08 2.5.94 1.19 2.37.46z"/><path class="cls-2" d="M234.95 323.07c3.16 2.59 9.29-4.32 6.96-5.5-1.61-.82-4.41 2.14-6.14 2.78-1.97.73-1.55 1.96-.82 2.72z"/><path class="cls-2" d="M235.79 325.8c-.28.84.62.57 1.06 1.39.17.33 2.6-1.59 2.87-1.97.7-.97 3.41-3.91 2.48-4.7-.93-.79-5.74 3.26-6.4 5.27z"/><path id="_Path_" data-name="&amp;lt;Path&amp;gt;" class="cls-9" d="M188.92 287.44c.05.91.7 1.83 1.93 2.56l35.81 21.21c2.47 1.46 6.35 1.59 8.67.28l33.65-18.98c1.16-.65 1.72-1.54 1.66-2.45l.12 2.14c.05.91-.5 1.8-1.66 2.45l-33.65 18.98c-2.32 1.31-6.2 1.19-8.67-.28l-35.81-21.21c-1.23-.73-1.87-1.66-1.93-2.56l-.13-2.14z"/><path id="_Path_-2" data-name="&amp;lt;Path&amp;gt;" d="M188.92 287.44c-.05-.91.5-1.8 1.66-2.45l33.65-18.98c2.32-1.31 6.2-1.18 8.67.28l35.81 21.21c1.23.73 1.88 1.66 1.93 2.56.05.91-.5 1.8-1.66 2.45l-33.65 18.98c-2.32 1.31-6.2 1.18-8.67-.28L190.85 290c-1.23-.73-1.87-1.66-1.93-2.56z" fill="#a1b3dc"/><path class="cls-3" d="M193.52 288.48c-.71-.42-.76-1.4-.1-1.78 6.52-3.68 32.35-18.25 32.35-18.25 1.49-.84 4.3-.75 5.89.19l34.89 20.67c.49.29.53.97.07 1.22l-32.81 18.51c-1.5.84-4.3.76-5.89-.18 0 0-27.44-16.26-34.39-20.38z"/><path class="cls-2" d="M218.84 319.93s-.02-1.43 4.19-8.24c.8-1.28 8.63-7.87 9.6-4.55.46 1.57-3.52 4.58-4.49 5.35-2.56 2.05 2.78 2.97 1.53 5.93-1.62 3.85-10.83 1.5-10.83 1.5z"/><path d="M201.35 342.79l9.65-3.28c.67-4.6.19-8.62-2.12-11.71l-9.97 1.57 2.45 13.41z" fill="#fafbfd"/><path class="cls-6" d="M149.43 352.28c7.96 2.6 56.29-9.65 58.19-11.39 1.9-1.75-2.42-13.39-4.89-13.26-2.47.13-47.5 5.38-47.5 5.38-10.97-3.32-13.77 16.67-5.81 19.27z"/></g></g></svg>