<svg width="2500" height="2500" viewBox="0 0 1052 1052" xmlns="http://www.w3.org/2000/svg" xmlns:xlink="http://www.w3.org/1999/xlink" overflow="hidden"><path d="M0 0 1052 0 1052 1052 0 1052Z" fill="#F0DB4F"/><path d="M965.9 801.1C958.2 753.1 926.9 712.8 834.2 675.2 802 660.4 766.1 649.801 755.4 625.4 751.6 611.2 751.1 603.2 753.5 594.6 760.4 566.7 793.7 558 820.1 566 837.1 571.7 853.2 584.801 862.9 605.7 908.3 576.301 908.2 576.5 939.9 556.301 928.3 538.301 922.1 530 914.5 522.301 887.2 491.801 850 476.101 790.5 477.301 780.2 478.601 769.801 480 759.5 481.301 729.801 488.801 701.5 504.401 684.9 525.301 635.1 581.801 649.3 680.7 709.9 721.401 769.6 766.201 857.3 776.401 868.5 818.301 879.4 869.601 830.801 886.2 782.5 880.301 746.9 872.901 727.101 854.801 705.7 821.901 666.301 844.701 666.301 844.701 625.801 868.001 635.401 889.001 645.5 898.501 661.601 916.701 737.801 994.001 928.5 990.201 962.701 873.201 964.1 869.2 973.301 842.4 965.9 801.1ZM571.9 483.5 473.5 483.5C473.5 568.5 473.101 652.9 473.101 737.9 473.101 792 475.901 841.6 467.101 856.8 452.701 886.699 415.401 883 398.401 877.199 381.101 868.699 372.301 856.599 362.101 839.5 359.301 834.6 357.201 830.8 356.5 830.5 329.801 846.8 303.2 863.199 276.5 879.5 289.801 906.8 309.4 930.5 334.5 945.899 372 968.399 422.4 975.299 475.101 963.199 509.401 953.199 539 932.5 554.5 901 576.9 859.7 572.1 809.7 571.9 754.4 572.4 664.2 571.9 574 571.9 483.5Z" fill="#323330"/></svg>