<svg width="69" height="45" xmlns="http://www.w3.org/2000/svg" xmlns:xlink="http://www.w3.org/1999/xlink" overflow="hidden"><defs><clipPath id="clip0"><rect x="297" y="509" width="69" height="45"/></clipPath><clipPath id="clip1"><rect x="297" y="509" width="68" height="44"/></clipPath><clipPath id="clip2"><rect x="297" y="509" width="68" height="44"/></clipPath><clipPath id="clip3"><rect x="297" y="496" width="68" height="69"/></clipPath></defs><g clip-path="url(#clip0)" transform="translate(-297 -509)"><g clip-path="url(#clip1)"><g clip-path="url(#clip2)"><g clip-path="url(#clip3)"><path d="M57.0563 27.0406C56.95 24.7031 57.2688 22.6312 56.2063 20.8781 53.6562 16.5219 47.2812 13.9719 34.5312 13.9719L34.5312 14.3438 34.2656 14.3438 34.5312 14.3438 34.5312 13.9719C21.7812 13.9719 15.0875 16.5219 12.5375 20.9313 11.5281 22.7375 11.6344 24.7562 11.475 27.0938 11.3687 28.9531 10.5187 30.9188 10.8906 33.0438 11.3156 35.8063 11.475 38.5687 11.9 41.1188 12.2188 43.1906 15.0875 44.9437 15.3531 46.9094 16.0969 52.3281 21.7281 54.825 34.4781 54.825L34.4781 55.25 34.1594 55.25 34.5312 55.25 34.5312 54.825C47.2812 54.825 52.7 52.3281 53.3906 46.9094 53.6562 44.8906 56.3125 43.1906 56.6312 41.1188 57.0563 38.5687 57.2156 35.8063 57.6406 33.0438 58.0125 30.9188 57.1625 28.9 57.0563 27.0406Z" fill="#EFCCA3" transform="matrix(1 0 0 1.00442 297 496.235)"/><path d="M34.3187 28.9531C36.6031 29.0062 38.1969 30.4406 39.6844 31.7687 41.4375 33.3094 44.4125 34.3719 45.6344 35.7 46.8562 37.0281 48.45 38.3562 49.0344 40.4281 49.6188 42.5 49.7781 45.1562 49.7781 45.8469 49.7781 46.5375 50.15 46.3781 51.2125 45.8469 53.7094 44.625 56.4719 41.3313 56.4719 41.3313 56.1531 43.4031 53.4437 45.2625 53.1781 47.2281 52.5406 52.6469 47.2812 55.25 34.2656 55.25L34.2125 55.25 34.5312 55.25" fill="#CCAC8D" transform="matrix(1 0 0 1.00442 297 496.235)"/><path d="M42.7125 24.8094C43.1906 26.4562 44.8906 32.0344 41.5969 30.175 41.5969 30.175 42.9781 30.9719 43.8281 34 44.7312 37.0281 46.9094 37.4 46.9094 37.4 46.9094 37.4 50.4688 38.0906 53.125 35.8063 55.3562 33.8937 55.7281 30.4938 54.7719 27.8906 53.8156 25.3406 52.1156 24.5438 49.6188 24.0125 47.1219 23.4281 42.1281 22.95 42.7125 24.8094Z" fill="#CCAC8D" transform="matrix(1 0 0 1.00442 297 496.235)"/><path d="M53.7094 30.8656C53.7094 33.4476 51.6163 35.5406 49.0344 35.5406 46.4524 35.5406 44.3594 33.4476 44.3594 30.8656 44.3594 28.2837 46.4524 26.1906 49.0344 26.1906 51.6163 26.1906 53.7094 28.2837 53.7094 30.8656Z" transform="matrix(1 0 0 1.00442 297 496.235)"/><path d="M49.0344 28.7938C49.0344 29.4686 48.4873 30.0156 47.8125 30.0156 47.1377 30.0156 46.5906 29.4686 46.5906 28.7938 46.5906 28.1189 47.1377 27.5719 47.8125 27.5719 48.4873 27.5719 49.0344 28.1189 49.0344 28.7938Z" fill="#FFFFFF" transform="matrix(1 0 0 1.00442 297 496.235)"/><path d="M41.9156 30.6531C41.9156 30.6531 46.1125 33.5219 48.3969 36.3375 50.6813 39.1531 50.6281 39.6844 50.6281 39.6844L48.9812 40.4281C48.9812 40.4281 46.6438 36.0188 43.775 34.3719 40.8531 32.725 40.5344 31.3438 40.5344 31.3438L41.9156 30.6531Z" fill="#EFCCA3" transform="matrix(1 0 0 1.00442 297 496.235)"/><path d="M34.4781 28.9531C32.1937 29.0062 30.4938 30.4406 28.9531 31.7687 27.2 33.3094 24.1188 34.3719 22.8969 35.7 21.675 37.0281 20.0281 38.3562 19.4437 40.4281 18.8594 42.5 18.6469 45.1562 18.6469 45.8469 18.6469 46.5375 18.7531 46.5906 17.2125 45.8469 14.7156 44.6781 11.9531 41.3313 11.9531 41.3313 12.2719 43.4031 14.9813 45.2625 15.2469 47.2281 15.9906 52.6469 21.25 55.25 34.2656 55.25L34.5312 55.25" fill="#CCAC8D" transform="matrix(1 0 0 1.00442 297 496.235)"/><path d="M46.8031 37.9313C44.2531 34.7969 40.1625 31.875 34.4781 31.875L34.425 31.875C28.7406 31.875 24.65 34.7969 22.1 37.9313 19.4437 41.1719 19.6562 42.4469 19.6562 45.5281 19.6562 56.6844 23.5875 53.4969 26.1906 54.8781 28.8469 56.2063 31.6094 55.7812 34.425 55.7812L34.4781 55.7812C37.3469 55.7812 40.0563 56.1531 42.7125 54.825 45.3156 53.4969 49.2469 56.7906 49.2469 45.6344 49.3 42.5531 49.4594 41.1719 46.8031 37.9313Z" fill="#56332B" transform="matrix(1 0 0 1.00442 297 496.235)"/><path d="M34.2125 34.6375C34.2125 34.6375 33.8406 39.7906 33.0969 40.8L34.4781 40.4812 34.2125 34.6375Z" fill="#442823" transform="matrix(1 0 0 1.00442 297 496.235)"/><path d="M34.5844 34.6375C34.5844 34.6375 34.9563 39.7906 35.7 40.8L34.3187 40.4812 34.5844 34.6375Z" fill="#442823" transform="matrix(1 0 0 1.00442 297 496.235)"/><path d="M30.1219 33.4156C29.5906 32.1937 31.5031 30.2281 34.5312 30.175 37.5594 30.175 39.4719 32.1406 38.9406 33.4156 38.4094 34.6906 36.4969 35.0625 34.5312 35.1156 32.6188 35.0625 30.6531 34.6906 30.1219 33.4156Z" fill="#56332B" transform="matrix(1 0 0 1.00442 297 496.235)"/><path d="M34.5312 34.6375C34.5312 34.425 36.3375 34.3719 37.2937 33.7344 37.2937 33.7344 35.3281 34.3719 34.9031 34.1062 34.4781 33.8937 34.3719 33.2562 34.3719 33.2562 34.3719 33.2562 34.2125 33.8937 33.8937 34.1062 33.5219 34.3187 31.2906 33.7344 31.2906 33.7344 31.2906 33.7344 34.2656 34.4781 34.2656 34.6375 34.2656 34.7969 34.2125 35.3281 34.2125 35.7 34.2125 37.0281 34.2125 40.3219 34.425 40.5875 34.7438 41.0656 34.6375 37.0281 34.6375 35.7 34.5844 35.275 34.5844 34.85 34.5312 34.6375Z" transform="matrix(1 0 0 1.00442 297 496.235)"/><path d="M34.6375 41.7562C35.5406 41.7562 37.1344 42.3938 38.5687 43.4031 37.1875 41.8625 35.5406 40.8 34.6375 40.8 33.6813 40.8 31.6625 41.9688 30.2281 43.6687 31.7156 42.5 33.6281 41.7562 34.6375 41.7562Z" fill="#7F4A41" transform="matrix(1 0 0 1.00442 297 496.235)"/><path d="M34.2656 51.1594C32.2469 51.1594 30.2812 50.5219 28.475 50.0437 28.1031 49.9375 27.7313 50.2031 27.3594 50.0969 24.0125 49.0344 21.3031 47.2281 19.6562 44.9437L19.6562 45.475C19.6562 56.6312 23.5875 53.4969 26.1906 54.825 28.8469 56.1531 31.6094 55.7281 34.425 55.7281L34.4781 55.7281C37.3469 55.7281 40.0563 56.1 42.7125 54.7719 45.3156 53.4437 49.2469 56.6844 49.2469 45.5281 49.2469 45.1031 49.2469 44.6781 49.3 44.3063 47.7594 46.8031 44.9437 48.7688 41.4375 49.9375 41.1188 50.0437 40.375 49.7781 40.0563 49.8313 38.1438 50.4688 36.4437 51.1594 34.2656 51.1594Z" fill="#442823" transform="matrix(1 0 0 1.00442 297 496.235)"/><path d="M29.2188 45.1562C29.2188 45.1562 27.8906 49.1406 28.7938 50.8938L27.5719 50.3625C27.5719 50.3625 28.475 46.325 29.2188 45.1562ZM39.7375 45.1562C39.7375 45.1562 41.0656 49.1406 40.1625 50.8938L41.3844 50.3625C41.3844 50.3625 40.4281 46.325 39.7375 45.1562Z" fill="#442823" transform="matrix(1 0 0 1.00442 297 496.235)"/><path d="M25.8187 24.8094C25.3406 26.4562 23.6406 32.0344 26.9344 30.175 26.9344 30.175 25.5531 30.9719 24.7031 34 23.8531 37.0281 21.6219 37.4 21.6219 37.4 21.6219 37.4 18.0625 38.0906 15.4062 35.8063 13.175 33.8937 12.8031 30.4938 13.7594 27.8906 14.7156 25.2875 16.4156 24.5438 18.9125 24.0125 21.4094 23.4281 26.35 22.95 25.8187 24.8094Z" fill="#CCAC8D" transform="matrix(1 0 0 1.00442 297 496.235)"/><path d="M34.4781 40.8C35.9125 40.8 40.375 43.8812 40.4281 47.6531L40.4281 47.4406C40.4281 43.5094 36.8156 40.375 34.4781 40.375 32.1406 40.375 28.5281 43.5625 28.5281 47.4406L28.5281 47.6531C28.5812 43.8812 33.0438 40.8 34.4781 40.8Z" transform="matrix(1 0 0 1.00442 297 496.235)"/><path d="M35.8693 32.6809C35.8693 33.1211 35.679 33.478 35.4442 33.478 35.2094 33.478 35.019 33.1211 35.019 32.6809 35.019 32.2407 35.2094 31.8838 35.4442 31.8838 35.6789 31.8838 35.8693 32.2407 35.8693 32.6809Z" fill="#331712" transform="matrix(0.968033 -0.250824 0.24972 0.972313 289.967 506.167)"/><path d="M33.5881 32.6846C33.5881 33.1249 33.3977 33.4818 33.1629 33.4818 32.9281 33.4818 32.7378 33.1249 32.7378 32.6846 32.7378 32.2443 32.9281 31.8874 33.1629 31.8874 33.3977 31.8874 33.5881 32.2443 33.5881 32.6846Z" fill="#331712" transform="matrix(0.954726 0.297486 -0.296177 0.958948 308.162 487.847)"/><path d="M24.4375 30.8656C24.4375 33.4476 22.3444 35.5406 19.7625 35.5406 17.1806 35.5406 15.0875 33.4476 15.0875 30.8656 15.0875 28.2837 17.1806 26.1906 19.7625 26.1906 22.3444 26.1906 24.4375 28.2837 24.4375 30.8656Z" transform="matrix(1 0 0 1.00442 297 496.235)"/><path d="M22.2062 28.7938C22.2062 29.4686 21.6592 30.0156 20.9844 30.0156 20.3096 30.0156 19.7625 29.4686 19.7625 28.7938 19.7625 28.1189 20.3096 27.5719 20.9844 27.5719 21.6592 27.5719 22.2062 28.1189 22.2062 28.7938Z" fill="#FFFFFF" transform="matrix(1 0 0 1.00442 297 496.235)"/><path d="M35.8594 30.9188C35.8594 30.8656 34.6375 31.45 34.3187 31.5031 34 31.45 32.7781 30.8656 32.7781 30.9188L35.8594 30.9188Z" fill="#7F4A41" transform="matrix(1 0 0 1.00442 297 496.235)"/><path d="M26.5625 30.6531C26.5625 30.6531 22.3656 33.5219 20.0812 36.3375 17.7969 39.1531 17.85 39.6844 17.85 39.6844L19.4969 40.4281C19.4969 40.4281 21.8344 36.0188 24.7031 34.3719 27.5719 32.725 27.9437 31.3438 27.9437 31.3438L26.5625 30.6531Z" fill="#EFCCA3" transform="matrix(1 0 0 1.00442 297 496.235)"/><path d="M17.3719 22.1531C17.3719 22.1531 15.9375 26.0844 12.75 27.7313 12.75 27.7313 17.7438 27.1469 17.3719 22.1531ZM50.8938 22.1531C50.8938 22.1531 52.3281 26.0844 55.5156 27.7313 55.5156 27.7313 50.5219 27.1469 50.8938 22.1531ZM41.8094 29.4844C41.8094 29.4844 38.675 26.1906 34.4781 26.0844L34.5312 26.0844 34.5844 26.0844C30.3344 26.1906 27.2531 29.4844 27.2531 29.4844 30.9188 26.9344 34.0531 26.9875 34.5844 26.9875 34.5312 26.9875 38.1438 26.9344 41.8094 29.4844ZM38.1438 22.5781C38.1438 22.5781 36.55 20.3469 34.425 20.2938L34.5312 20.2938C32.9375 20.3469 30.8656 22.5781 30.8656 22.5781 32.6719 20.825 34.5312 20.8781 34.5312 20.8781 34.5312 20.8781 36.2844 20.825 38.1438 22.5781ZM19.7625 38.8875C19.7625 38.8875 17.2656 40.1094 15.4594 39.3656L15.4062 39.3656C13.8125 38.4625 13.0156 35.7531 13.0156 35.7531 13.0156 35.7531 14.6094 40.5344 19.7625 38.8875ZM48.875 38.8875C48.875 38.8875 51.3719 40.1094 53.1781 39.3656 55.3031 38.4625 55.6219 35.7531 55.6219 35.7531 55.6219 35.7531 54.0281 40.5344 48.875 38.8875Z" fill="#CCAC8D" transform="matrix(1 0 0 1.00442 297 496.235)"/><path d="M22.6312 21.8875C24.0125 21.6219 26.2969 21.5687 28.1031 22.1531 30.3875 22.95 28.5281 25.8719 29.0062 26.0312 29.4844 26.1906 30.1219 24.0125 34.3719 24.225 38.675 24.4375 39.1531 26.35 39.7375 26.0312 40.3219 25.7125 39.1531 20.7188 45.5813 21.8875 45.5813 21.8875 38.8344 20.0812 39.1531 24.9688 39.1531 24.9688 35.275 21.9938 29.8563 24.65 29.9094 24.65 31.2906 20.0812 22.6312 21.8875ZM46.1656 21.8875C46.2719 21.8875 46.325 21.9406 46.3781 21.9406 46.4313 21.9406 46.325 21.8875 46.1656 21.8875ZM20.7719 15.3531C20.7719 15.3531 15.0344 22.5781 14.1844 25.3406 13.3344 28.1562 12.6969 39.6844 11.9531 41.3313L9.29688 29.9625 14.1844 18.1156 20.7719 15.3531ZM47.7594 15.3531C47.7594 15.3531 53.4969 22.5781 54.3469 25.3406 55.1969 28.1562 55.8344 39.6844 56.5781 41.3313L59.2344 29.9625 54.3469 18.1156 47.7594 15.3531Z" fill="#CCAC8D" transform="matrix(1 0 0 1.00442 297 496.235)"/><path d="M47.4938 15.3531C47.4938 15.3531 53.6562 20.5062 55.4625 26.4562 57.2688 32.4062 56.525 39.6312 57.9062 40.5344 59.8719 41.8094 62.1031 34.2125 62.8469 33.4156 64.0156 32.1406 67.8938 28.9 68.1594 28.3156 68.425 27.7313 60.2969 18.8594 56.7375 17.1063 52.4344 15.0875 47.1219 14.9281 47.4938 15.3531Z" fill="#56332B" transform="matrix(1 0 0 1.00442 297 496.235)"/><path d="M52.7531 18.5406C52.7531 18.5406 60.0312 27.8375 59.925 39.4187L62.8469 33.4688C62.7937 33.4688 60.2438 25.8719 52.7531 18.5406Z" fill="#442823" transform="matrix(1 0 0 1.00442 297 496.235)"/><path d="M20.7719 15.3531C20.7719 15.3531 14.6094 20.5062 12.8031 26.4562 10.9969 32.4062 11.7406 39.6312 10.3594 40.5344 8.39375 41.8094 6.1625 34.2125 5.41875 33.4156 4.25 32.1406 0.371875 28.9 0.10625 28.3156-0.159375 27.7313 7.96875 18.8594 11.5281 17.1063 15.8312 15.0875 21.1437 14.9281 20.7719 15.3531Z" fill="#56332B" transform="matrix(1 0 0 1.00442 297 496.235)"/><path d="M15.5125 18.5406C15.5125 18.5406 8.23438 27.8375 8.34062 39.4187L5.47188 33.4688C5.47188 33.4688 8.02188 25.8719 15.5125 18.5406Z" fill="#442823" transform="matrix(1 0 0 1.00442 297 496.235)"/><path d="M11.5812 39.6312C11.5812 39.6312 12.1125 42.5 12.9625 43.4031 13.8125 44.3063 13.2281 42.7125 13.2281 42.7125 13.2281 42.7125 12.325 42.2344 12.4844 38.5687 12.6437 34.9031 11.5812 39.6312 11.5812 39.6312ZM56.8969 39.6312C56.8969 39.6312 56.3656 42.5 55.5156 43.4031 54.6656 44.3063 55.25 42.7125 55.25 42.7125 55.25 42.7125 56.1531 42.2344 55.9938 38.5687 55.8344 34.9031 56.8969 39.6312 56.8969 39.6312Z" fill="#CCAC8D" transform="matrix(1 0 0 1.00442 297 496.235)"/><path d="M29.3781 37.4531C29.3781 37.6878 29.1878 37.8781 28.9531 37.8781 28.7184 37.8781 28.5281 37.6879 28.5281 37.4531 28.5281 37.2184 28.7184 37.0281 28.9531 37.0281 29.1878 37.0281 29.3781 37.2184 29.3781 37.4531Z" fill="#442823" transform="matrix(1 0 0 1.00442 297 496.235)"/><path d="M26.9344 40.0031C26.9344 40.2378 26.7441 40.4281 26.5094 40.4281 26.2747 40.4281 26.0844 40.2379 26.0844 40.0031 26.0844 39.7684 26.2747 39.5781 26.5094 39.5781 26.7441 39.5781 26.9344 39.7684 26.9344 40.0031Z" fill="#442823" transform="matrix(1 0 0 1.00442 297 496.235)"/><path d="M26.1375 37.4531C26.1375 37.6878 25.9472 37.8781 25.7125 37.8781 25.4778 37.8781 25.2875 37.6879 25.2875 37.4531 25.2875 37.2184 25.4778 37.0281 25.7125 37.0281 25.9472 37.0281 26.1375 37.2184 26.1375 37.4531Z" fill="#442823" transform="matrix(1 0 0 1.00442 297 496.235)"/><path d="M39.7375 37.4531C39.7375 37.6878 39.5472 37.8781 39.3125 37.8781 39.0778 37.8781 38.8875 37.6879 38.8875 37.4531 38.8875 37.2184 39.0778 37.0281 39.3125 37.0281 39.5472 37.0281 39.7375 37.2184 39.7375 37.4531Z" fill="#442823" transform="matrix(1 0 0 1.00442 297 496.235)"/><path d="M42.1813 40.0031C42.1813 40.2378 41.991 40.4281 41.7562 40.4281 41.5215 40.4281 41.3312 40.2379 41.3312 40.0031 41.3312 39.7684 41.5215 39.5781 41.7562 39.5781 41.991 39.5781 42.1813 39.7684 42.1813 40.0031Z" fill="#442823" transform="matrix(1 0 0 1.00442 297 496.235)"/><path d="M42.9781 37.4531C42.9781 37.6878 42.7878 37.8781 42.5531 37.8781 42.3184 37.8781 42.1281 37.6879 42.1281 37.4531 42.1281 37.2184 42.3184 37.0281 42.5531 37.0281 42.7878 37.0281 42.9781 37.2184 42.9781 37.4531Z" fill="#442823" transform="matrix(1 0 0 1.00442 297 496.235)"/></g></g></g></g></svg>