<svg width="69" height="45" xmlns="http://www.w3.org/2000/svg" overflow="hidden"><defs><clipPath id="a"><path d="M297 509h69v45h-69z"/></clipPath><clipPath id="b"><path d="M297 509h68v44h-68z"/></clipPath><clipPath id="c"><path d="M297 509h68v44h-68z"/></clipPath><clipPath id="d"><path d="M297 496h68v69h-68z"/></clipPath></defs><g clip-path="url(#a)" transform="translate(-297 -509)"><g clip-path="url(#b)"><g clip-path="url(#c)"><g clip-path="url(#d)"><path d="M354.056 523.395c-.106-2.348.213-4.429-.85-6.19-2.55-4.375-8.925-6.936-21.675-6.936v.373h-.265.265v-.373c-12.75 0-19.443 2.56-21.993 6.99-1.01 1.814-.904 3.842-1.063 6.19-.106 1.867-.956 3.841-.584 5.976.425 2.775.584 5.55 1.009 8.11.319 2.082 3.188 3.842 3.453 5.817.744 5.442 6.375 7.95 19.125 7.95v.427h-.319.372v-.427c12.75 0 18.169-2.508 18.86-7.95.265-2.028 2.922-3.735 3.24-5.816.425-2.562.585-5.336 1.01-8.111.372-2.135-.478-4.162-.585-6.03z" fill="#EFCCA3"/><path d="M331.319 525.316c2.284.053 3.878 1.494 5.365 2.828 1.753 1.548 4.728 2.615 5.95 3.949 1.222 1.334 2.816 2.668 3.4 4.749.585 2.08.744 4.749.744 5.443 0 .693.372.533 1.434 0 2.497-1.228 5.26-4.536 5.26-4.536-.319 2.08-3.028 3.949-3.294 5.923-.637 5.443-5.897 8.057-18.912 8.057h-.054.32" fill="#CCAC8D"/><path d="M339.712 521.154c.479 1.654 2.179 7.257-1.115 5.39 0 0 1.381.8 2.231 3.841.903 3.042 3.081 3.415 3.081 3.415s3.56.694 6.216-1.6c2.231-1.921 2.603-5.336 1.647-7.951-.956-2.561-2.656-3.362-5.153-3.895-2.497-.587-7.49-1.068-6.907.8z" fill="#CCAC8D"/><path d="M350.71 527.237c0 2.593-2.094 4.696-4.676 4.696-2.582 0-4.675-2.103-4.675-4.696 0-2.593 2.093-4.696 4.675-4.696s4.675 2.103 4.675 4.696z"/><path d="M346.034 525.156c0 .678-.547 1.227-1.221 1.227-.675 0-1.222-.55-1.222-1.227 0-.678.547-1.227 1.221-1.227.675 0 1.222.55 1.222 1.227z" fill="#FFF"/><path d="M338.916 527.024s4.196 2.881 6.48 5.71c2.285 2.827 2.232 3.36 2.232 3.36l-1.647.748s-2.337-4.429-5.206-6.083c-2.922-1.654-3.24-3.042-3.24-3.042l1.38-.693z" fill="#EFCCA3"/><path d="M331.478 525.316c-2.284.053-3.984 1.494-5.525 2.828-1.753 1.548-4.834 2.615-6.056 3.949-1.222 1.334-2.869 2.668-3.453 4.749-.585 2.08-.797 4.749-.797 5.443 0 .693.106.747-1.434 0-2.497-1.174-5.26-4.536-5.26-4.536.319 2.08 3.028 3.949 3.294 5.923.744 5.443 6.003 8.057 19.019 8.057h.265" fill="#CCAC8D"/><path d="M343.803 534.334c-2.55-3.148-6.64-6.083-12.325-6.083h-.053c-5.684 0-9.775 2.935-12.325 6.083-2.656 3.255-2.444 4.536-2.444 7.63 0 11.206 3.931 8.004 6.535 9.392 2.656 1.334 5.418.907 8.234.907h.053c2.869 0 5.578.373 8.234-.96 2.604-1.335 6.535 1.974 6.535-9.232.053-3.095.212-4.482-2.444-7.737z" fill="#56332B"/><path d="M331.212 531.026s-.371 5.175-1.115 6.19l1.381-.32-.266-5.87z" fill="#442823"/><path d="M331.584 531.026s.372 5.175 1.116 6.19l-1.381-.32.265-5.87z" fill="#442823"/><path d="M327.122 529.798c-.531-1.227 1.381-3.201 4.41-3.255 3.027 0 4.94 1.975 4.409 3.255-.532 1.28-2.444 1.654-4.41 1.708-1.912-.054-3.878-.427-4.41-1.708z" fill="#56332B"/><path d="M331.531 531.026c0-.214 1.807-.267 2.763-.907 0 0-1.966.64-2.39.373-.426-.213-.532-.854-.532-.854s-.16.64-.478.854c-.372.213-2.603-.373-2.603-.373s2.975.746 2.975.907c0 .16-.054.693-.054 1.067 0 1.334 0 4.642.213 4.909.319.48.212-3.575.212-4.91-.053-.426-.053-.853-.106-1.066z"/><path d="M331.637 538.176c.904 0 2.497.64 3.932 1.654-1.382-1.547-3.028-2.615-3.932-2.615-.956 0-2.975 1.174-4.409 2.882 1.488-1.174 3.4-1.921 4.41-1.921z" fill="#7F4A41"/><path d="M331.266 547.62c-2.02 0-3.985-.64-5.791-1.12-.372-.107-.744.16-1.116.053-3.346-1.067-6.056-2.881-7.703-5.176v.534c0 11.206 3.932 8.057 6.535 9.391 2.656 1.334 5.418.907 8.234.907h.053c2.869 0 5.578.374 8.235-.96 2.603-1.334 6.534 1.92 6.534-9.285 0-.427 0-.853.053-1.227-1.54 2.508-4.356 4.482-7.862 5.656-.32.107-1.063-.16-1.382-.106-1.912.64-3.612 1.334-5.79 1.334z" fill="#442823"/><path d="M326.219 541.59s-1.328 4.003-.425 5.764l-1.222-.534s.903-4.055 1.647-5.23zm10.518 0s1.329 4.003.425 5.764l1.222-.534s-.956-4.055-1.647-5.23z" fill="#442823"/><path d="M322.819 521.154c-.478 1.654-2.178 7.257 1.115 5.39 0 0-1.38.8-2.23 3.841-.85 3.042-3.082 3.415-3.082 3.415s-3.56.694-6.216-1.6c-2.231-1.921-2.603-5.336-1.647-7.951.957-2.615 2.657-3.362 5.153-3.895 2.497-.587 7.438-1.068 6.907.8z" fill="#CCAC8D"/><path d="M331.478 537.215c1.434 0 5.897 3.095 5.95 6.884v-.214c0-3.948-3.612-7.097-5.95-7.097-2.337 0-5.95 3.202-5.95 7.097v.214c.053-3.789 4.516-6.884 5.95-6.884z"/><path d="M332.85 528.946c.11.428.016.823-.212.882-.227.059-.5-.24-.61-.669-.11-.428-.015-.822.212-.881.227-.06.5.24.61.668zm-2.301.236c-.13.422-.418.708-.642.638-.224-.07-.3-.469-.17-.891.13-.422.418-.708.642-.638.224.07.3.469.17.89z" fill="#331712"/><path d="M321.438 527.237c0 2.593-2.094 4.696-4.675 4.696-2.582 0-4.675-2.103-4.675-4.696 0-2.593 2.093-4.696 4.674-4.696 2.582 0 4.675 2.103 4.675 4.696z"/><path d="M319.206 525.156c0 .678-.547 1.227-1.222 1.227-.674 0-1.221-.55-1.221-1.227 0-.678.547-1.227 1.221-1.227.675 0 1.222.55 1.222 1.227z" fill="#FFF"/><path d="M332.86 527.29c0-.053-1.223.534-1.541.587-.319-.053-1.54-.64-1.54-.587h3.08z" fill="#7F4A41"/><path d="M323.563 527.024s-4.197 2.881-6.482 5.71c-2.284 2.827-2.231 3.36-2.231 3.36l1.647.748s2.337-4.429 5.206-6.083 3.24-3.042 3.24-3.042l-1.38-.693z" fill="#EFCCA3"/><path d="M314.372 518.486s-1.435 3.949-4.622 5.603c0 0 4.994-.587 4.622-5.603zm33.522 0s1.434 3.949 4.622 5.603c0 0-4.994-.587-4.622-5.603zm-9.085 7.364s-3.134-3.309-7.33-3.415h.105c-4.25.106-7.33 3.415-7.33 3.415 3.665-2.562 6.8-2.508 7.33-2.508-.053 0 3.56-.054 7.225 2.508zm-3.665-6.937s-1.594-2.241-3.719-2.295h.106c-1.593.054-3.665 2.295-3.665 2.295 1.806-1.761 3.665-1.708 3.665-1.708s1.753-.053 3.613 1.708zm-18.382 16.381s-2.496 1.228-4.303.48h-.053c-1.593-.906-2.39-3.628-2.39-3.628s1.593 4.803 6.746 3.148zm29.113 0s2.497 1.228 4.303.48c2.125-.906 2.444-3.628 2.444-3.628s-1.594 4.803-6.747 3.148z" fill="#CCAC8D"/><path d="M319.631 518.22c1.382-.268 3.666-.321 5.472.266 2.284.8.425 3.735.903 3.895.478.16 1.116-2.027 5.366-1.814 4.303.214 4.781 2.134 5.365 1.814.585-.32-.584-5.336 5.844-4.162 0 0-6.747-1.814-6.428 3.095 0 0-3.878-2.988-9.297-.32.053 0 1.435-4.589-7.225-2.775zm23.535 0c.106 0 .159.053.212.053.053 0-.053-.054-.212-.054zm-25.394-6.564s-5.738 7.257-6.588 10.032c-.85 2.828-1.487 14.407-2.23 16.061l-2.657-11.42 4.887-11.898 6.588-2.775zm26.987 0s5.738 7.257 6.588 10.032c.85 2.828 1.487 14.407 2.231 16.061l2.656-11.42-4.887-11.898-6.588-2.775z" fill="#CCAC8D"/><path d="M344.494 511.656s6.162 5.176 7.968 11.152c1.807 5.976 1.063 13.233 2.444 14.14 1.966 1.281 4.197-6.35 4.94-7.15 1.17-1.28 5.048-4.535 5.313-5.122.266-.587-7.862-9.498-11.421-11.26-4.304-2.027-9.616-2.187-9.244-1.76z" fill="#56332B"/><path d="M349.753 514.858s7.278 9.338 7.172 20.97l2.922-5.976c-.053 0-2.603-7.63-10.094-14.994z" fill="#442823"/><path d="M317.772 511.656s-6.163 5.176-7.969 11.152c-1.806 5.976-1.062 13.233-2.444 14.14-1.965 1.281-4.196-6.35-4.94-7.15-1.169-1.28-5.047-4.535-5.313-5.122-.265-.587 7.863-9.498 11.422-11.26 4.303-2.027 9.616-2.187 9.244-1.76z" fill="#56332B"/><path d="M312.512 514.858s-7.278 9.338-7.171 20.97l-2.87-5.976s2.55-7.63 10.041-14.994z" fill="#442823"/><path d="M308.581 536.041s.532 2.882 1.382 3.789c.85.907.265-.694.265-.694s-.903-.48-.744-4.162c.16-3.682-.903 1.067-.903 1.067zm45.316 0s-.531 2.882-1.381 3.789-.266-.694-.266-.694.903-.48.744-4.162c-.16-3.682.903 1.067.903 1.067z" fill="#CCAC8D"/><path d="M326.378 533.854a.426.426 0 11-.852.001.426.426 0 01.852-.001zm-2.444 2.561a.426.426 0 11-.852.002.426.426 0 01.852-.002zm-.797-2.561a.426.426 0 11-.851.001.426.426 0 01.851-.001zm13.601 0a.426.426 0 11-.852.001.426.426 0 01.851-.001zm2.443 2.561a.426.426 0 11-.852.002.426.426 0 01.852-.002zm.797-2.561a.426.426 0 11-.852.001.426.426 0 01.852-.001z" fill="#442823"/></g></g></g></g></svg>