<svg id="クレーン" xmlns="http://www.w3.org/2000/svg" viewBox="0 0 500 500"><defs><linearGradient id="名称未設定グラデーション_11" y1="250" x2="500" y2="250" gradientUnits="userSpaceOnUse"><stop offset="0" stop-color="#ff5f6d"/><stop offset="1" stop-color="#ffc171"/></linearGradient><style>.cls-2{fill:#fff}</style></defs><rect width="500" height="500" rx="50" fill="url(#名称未設定グラデーション_11)"/><path class="cls-2" d="M209.78 245.34l-3.29 6.32-.14.26a42.7 42.7 0 01-58.47 15.17 42.42 42.42 0 01-19.7-26.1c-.13-.47-.23-.94-.34-1.42l-5.44 41.82h92.11z"/><path class="cls-2" d="M215.23 93.75l-77.7 117.71a37.11 37.11 0 0064 37.62l52.73-101.37-29.07-27.63c-7.59-7.82-10.19-16.55-9.96-26.33zm-32.95 144a14.8 14.8 0 11-5.28-20.24 14.8 14.8 0 015.28 20.26zm34.81 48.68h-96.63a11.92 11.92 0 00-11.91 11.92v35.7H229v-35.7a11.92 11.92 0 00-11.91-11.92z"/><path class="cls-2" d="M341.05 161a32 32 0 0110.86 1.88l-75.34-90.11a32.12 32.12 0 00-47.27 43.51l79.56 75.58A32.24 32.24 0 01341.05 161zm-79.82-57.41a12.25 12.25 0 11.77-17.36 12.25 12.25 0 01-.77 17.31zm70.08 152.59l10.38 11.68 10.39-11.68v-19.24h-20.77v19.24z"/><path class="cls-2" d="M341.05 166.55a26.61 26.61 0 00-26.62 26.61v38.29h53.22v-38.29a26.6 26.6 0 00-26.6-26.61zm0 36.18a10.39 10.39 0 1110.39-10.39 10.39 10.39 0 01-10.39 10.39zm-50.8 120.75h103.23A5.52 5.52 0 01399 329v4.59H284.73V329a5.52 5.52 0 015.52-5.52z"/><rect class="cls-2" x="314.08" y="272.92" width="54.61" height="46.52" rx="3"/><path class="cls-2" d="M147.28 366.06a4.92 4.92 0 01-1.1-2.94 4.59 4.59 0 014.51-4.14 4.7 4.7 0 013.58 2.11l22 32 22-32a4.7 4.7 0 013.58-2.11 4.52 4.52 0 014.51 4.14 4.92 4.92 0 01-1.1 2.94l-24.86 34.13v32c0 2-1.75 3.49-4.14 3.49s-4.14-1.47-4.14-3.49v-32zm92.72-5.98c10.48 0 18.76 2.12 25.39 6.53 9.75 6.44 15 17.21 15 30.64 0 23.73-15 37.35-41 37.35h-12.25c-6.44 0-9.76-3.31-9.76-9.94V370c0-6.63 3.32-9.94 9.76-9.94zm-14.26 64.49a2.33 2.33 0 002.57 2.58h10.49c20.42 0 32.47-11 32.47-29.81 0-19.23-11.31-29.81-31.92-29.81h-11a2.25 2.25 0 00-2.57 2.58zm71.41 7.91a4.44 4.44 0 01-4.15 3.22c-2.58 0-4.6-1.65-4.6-3.86a7.17 7.17 0 01.46-2.3l26.49-66.61a6.14 6.14 0 015.89-4 6.05 6.05 0 015.89 4l26.4 66.61a5.88 5.88 0 01.55 2.3c0 2-2.11 3.86-4.6 3.86a4.64 4.64 0 01-4.23-3.22l-7.72-19.87h-32.75zm30.17-47.74c-2.3-6.07-5.15-14.35-5.88-16.75h-.37c-.92 3.32-3.31 10.12-5.89 16.75l-7.91 20.79h27.87z"/></svg>